G04 #@! TF.GenerationSoftware,KiCad,Pcbnew,(6.0.5)*
G04 #@! TF.CreationDate,2022-06-03T12:50:17+02:00*
G04 #@! TF.ProjectId,PDH_photodiode,5044485f-7068-46f7-946f-64696f64652e,1.3*
G04 #@! TF.SameCoordinates,Original*
G04 #@! TF.FileFunction,Paste,Top*
G04 #@! TF.FilePolarity,Positive*
%FSLAX45Y45*%
G04 Gerber Fmt 4.5, Leading zero omitted, Abs format (unit mm)*
G04 Created by KiCad (PCBNEW (6.0.5)) date 2022-06-03 12:50:17*
%MOMM*%
%LPD*%
G01*
G04 APERTURE LIST*
G04 Aperture macros list*
%AMRoundRect*
0 Rectangle with rounded corners*
0 $1 Rounding radius*
0 $2 $3 $4 $5 $6 $7 $8 $9 X,Y pos of 4 corners*
0 Add a 4 corners polygon primitive as box body*
4,1,4,$2,$3,$4,$5,$6,$7,$8,$9,$2,$3,0*
0 Add four circle primitives for the rounded corners*
1,1,$1+$1,$2,$3*
1,1,$1+$1,$4,$5*
1,1,$1+$1,$6,$7*
1,1,$1+$1,$8,$9*
0 Add four rect primitives between the rounded corners*
20,1,$1+$1,$2,$3,$4,$5,0*
20,1,$1+$1,$4,$5,$6,$7,0*
20,1,$1+$1,$6,$7,$8,$9,0*
20,1,$1+$1,$8,$9,$2,$3,0*%
%AMFreePoly0*
4,1,38,0.670671,0.870970,0.751777,0.816777,0.805970,0.735671,0.825000,0.640000,0.825000,-0.640000,0.805970,-0.735671,0.751777,-0.816777,0.670671,-0.870970,0.575000,-0.890000,-0.780000,-0.890000,-0.880000,-0.915000,-1.750000,-0.915000,-1.750000,-0.665000,-1.075500,-0.665000,-1.075436,-0.664844,-1.075387,-0.664683,-1.075364,-0.664671,-1.075354,-0.664646,-1.075199,-0.664582,-1.075050,-0.664502,
-1.025101,-0.659508,-0.977199,-0.644539,-0.935281,-0.621584,-0.897355,-0.590644,-0.866421,-0.551727,-0.844465,-0.510809,-0.830492,-0.463901,-0.825497,-0.414950,-0.825420,-0.414807,-0.825354,-0.414646,-0.825329,-0.414636,-0.825316,-0.414612,-0.825157,-0.414565,-0.825000,-0.414500,-0.825000,0.640000,-0.575000,0.890000,0.575000,0.890000,0.670671,0.870970,0.670671,0.870970,$1*%
%AMFreePoly1*
4,1,25,0.670671,0.515970,0.751777,0.461777,0.805970,0.380671,0.825000,0.285000,0.825000,0.270000,1.750000,0.270000,1.750000,0.020000,0.825000,0.020000,0.825000,-0.285000,0.805970,-0.380671,0.751777,-0.461777,0.670671,-0.515970,0.575000,-0.535000,-0.575000,-0.535000,-0.670671,-0.515970,-0.751777,-0.461777,-0.805970,-0.380671,-0.825000,-0.285000,-0.825000,0.285000,-0.805970,0.380671,
-0.751777,0.461777,-0.670671,0.515970,-0.575000,0.535000,0.575000,0.535000,0.670671,0.515970,0.670671,0.515970,$1*%
G04 Aperture macros list end*
%ADD10RoundRect,0.250000X1.075000X-0.375000X1.075000X0.375000X-1.075000X0.375000X-1.075000X-0.375000X0*%
%ADD11RoundRect,0.218750X-0.218750X-0.256250X0.218750X-0.256250X0.218750X0.256250X-0.218750X0.256250X0*%
%ADD12RoundRect,0.218750X-0.256250X0.218750X-0.256250X-0.218750X0.256250X-0.218750X0.256250X0.218750X0*%
%ADD13RoundRect,0.218750X0.256250X-0.218750X0.256250X0.218750X-0.256250X0.218750X-0.256250X-0.218750X0*%
%ADD14RoundRect,0.250000X-1.075000X0.375000X-1.075000X-0.375000X1.075000X-0.375000X1.075000X0.375000X0*%
%ADD15R,0.700000X0.250000*%
%ADD16FreePoly0,0.000000*%
%ADD17FreePoly1,0.000000*%
%ADD18RoundRect,0.250000X-0.375000X-0.625000X0.375000X-0.625000X0.375000X0.625000X-0.375000X0.625000X0*%
%ADD19RoundRect,0.225000X-0.225000X-0.250000X0.225000X-0.250000X0.225000X0.250000X-0.225000X0.250000X0*%
%ADD20RoundRect,0.225000X-0.250000X0.225000X-0.250000X-0.225000X0.250000X-0.225000X0.250000X0.225000X0*%
%ADD21RoundRect,0.200000X-0.200000X-0.275000X0.200000X-0.275000X0.200000X0.275000X-0.200000X0.275000X0*%
%ADD22RoundRect,0.200000X0.200000X0.275000X-0.200000X0.275000X-0.200000X-0.275000X0.200000X-0.275000X0*%
%ADD23RoundRect,0.200000X-0.275000X0.200000X-0.275000X-0.200000X0.275000X-0.200000X0.275000X0.200000X0*%
%ADD24RoundRect,0.249998X-0.625002X0.312502X-0.625002X-0.312502X0.625002X-0.312502X0.625002X0.312502X0*%
%ADD25RoundRect,0.167500X0.167500X0.312500X-0.167500X0.312500X-0.167500X-0.312500X0.167500X-0.312500X0*%
%ADD26RoundRect,0.062500X0.362500X0.062500X-0.362500X0.062500X-0.362500X-0.062500X0.362500X-0.062500X0*%
%ADD27RoundRect,0.225000X0.225000X0.250000X-0.225000X0.250000X-0.225000X-0.250000X0.225000X-0.250000X0*%
%ADD28RoundRect,0.100000X0.300000X-0.100000X0.300000X0.100000X-0.300000X0.100000X-0.300000X-0.100000X0*%
%ADD29RoundRect,0.150000X-0.725000X-0.150000X0.725000X-0.150000X0.725000X0.150000X-0.725000X0.150000X0*%
%ADD30RoundRect,0.225000X0.250000X-0.225000X0.250000X0.225000X-0.250000X0.225000X-0.250000X-0.225000X0*%
G04 APERTURE END LIST*
D10*
X13830000Y-6370000D03*
X13830000Y-6090000D03*
X13830000Y-7360000D03*
X13830000Y-7080000D03*
D11*
X12286250Y-8988400D03*
X12443750Y-8988400D03*
D12*
X12185000Y-7466250D03*
X12185000Y-7623750D03*
D13*
X11900000Y-8363750D03*
X11900000Y-8206250D03*
D14*
X14745000Y-6265000D03*
X14745000Y-6545000D03*
X14745000Y-6805000D03*
X14745000Y-7085000D03*
D15*
X13735000Y-6575000D03*
X13735000Y-6625000D03*
X13735000Y-6675000D03*
D16*
X13875000Y-6646000D03*
D15*
X13735000Y-6775000D03*
X13735000Y-6825000D03*
X13735000Y-6875000D03*
X14015000Y-6875000D03*
D17*
X13875000Y-6839500D03*
D15*
X14015000Y-6775000D03*
X14015000Y-6725000D03*
X14015000Y-6675000D03*
X14015000Y-6625000D03*
X14015000Y-6575000D03*
D11*
X14246250Y-6725000D03*
X14403750Y-6725000D03*
D18*
X11227500Y-7020000D03*
X11507500Y-7020000D03*
D19*
X11245000Y-7290000D03*
X11400000Y-7290000D03*
D20*
X12365000Y-6930000D03*
X12365000Y-7085000D03*
D21*
X12282500Y-8545000D03*
X12447500Y-8545000D03*
D22*
X13487500Y-6435000D03*
X13322500Y-6435000D03*
X14417500Y-7015000D03*
X14252500Y-7015000D03*
X14417500Y-7195000D03*
X14252500Y-7195000D03*
X12447500Y-8810600D03*
X12282500Y-8810600D03*
D23*
X11695000Y-7522500D03*
X11695000Y-7687500D03*
X11695000Y-7872500D03*
X11695000Y-8037500D03*
D24*
X12595000Y-6938750D03*
X12595000Y-7231250D03*
D25*
X11999000Y-7865500D03*
X11999000Y-7984500D03*
X12081000Y-7984500D03*
X12081000Y-7865500D03*
D26*
X12185000Y-8025000D03*
X12185000Y-7975000D03*
X12185000Y-7925000D03*
X12185000Y-7875000D03*
X12185000Y-7825000D03*
X11895000Y-7825000D03*
X11895000Y-7875000D03*
X11895000Y-7925000D03*
X11895000Y-7975000D03*
X11895000Y-8025000D03*
D11*
X13326250Y-6815000D03*
X13483750Y-6815000D03*
D22*
X13487500Y-6625000D03*
X13322500Y-6625000D03*
D27*
X12442500Y-8365000D03*
X12287500Y-8365000D03*
D28*
X12530000Y-8035000D03*
X12530000Y-7875000D03*
D20*
X14405000Y-8412500D03*
X14405000Y-8567500D03*
D27*
X14552500Y-8975000D03*
X14397500Y-8975000D03*
D29*
X13672500Y-8589500D03*
X13672500Y-8716500D03*
X13672500Y-8843500D03*
X13672500Y-8970500D03*
X14187500Y-8970500D03*
X14187500Y-8843500D03*
X14187500Y-8716500D03*
X14187500Y-8589500D03*
D30*
X11692200Y-7338700D03*
X11692200Y-7183700D03*
M02*
