G04 #@! TF.FileFunction,Copper,L1,Top,Signal*
%FSLAX46Y46*%
G04 Gerber Fmt 4.6, Leading zero omitted, Abs format (unit mm)*
G04 Created by KiCad (PCBNEW 4.0.6) date 12/22/17 14:46:29*
%MOMM*%
%LPD*%
G01*
G04 APERTURE LIST*
%ADD10C,0.100000*%
%ADD11R,0.650000X0.300000*%
%ADD12R,0.775000X1.240000*%
%ADD13R,1.070000X1.650000*%
%ADD14R,0.250000X0.700000*%
%ADD15R,0.890000X0.825000*%
%ADD16R,1.000000X2.500000*%
%ADD17R,0.800000X0.750000*%
%ADD18R,0.750000X0.800000*%
%ADD19C,2.200000*%
%ADD20C,2.000000*%
%ADD21R,0.900000X0.500000*%
%ADD22R,1.700000X1.700000*%
%ADD23O,1.700000X1.700000*%
%ADD24R,1.000000X1.600000*%
%ADD25R,2.550000X2.700000*%
%ADD26R,2.700000X2.550000*%
%ADD27R,1.000000X1.250000*%
%ADD28R,1.250000X1.000000*%
%ADD29R,0.700000X1.300000*%
%ADD30C,0.750000*%
%ADD31R,0.500000X0.900000*%
%ADD32C,0.450000*%
%ADD33C,0.600000*%
%ADD34C,1.000000*%
%ADD35C,0.250000*%
%ADD36C,0.500000*%
%ADD37C,0.150000*%
%ADD38C,0.254000*%
G04 APERTURE END LIST*
D10*
D11*
X142800000Y-102850000D03*
X142800000Y-103350000D03*
X142800000Y-103850000D03*
X142800000Y-104350000D03*
X142800000Y-104850000D03*
X145900000Y-104850000D03*
X145900000Y-104350000D03*
X145900000Y-103850000D03*
X145900000Y-103350000D03*
X145900000Y-102850000D03*
D12*
X144737500Y-104470000D03*
X144737500Y-103230000D03*
X143962500Y-104470000D03*
X143962500Y-103230000D03*
D13*
X136150000Y-94050000D03*
D14*
X133550000Y-92600000D03*
X134050000Y-92600000D03*
X134550000Y-92600000D03*
X135050000Y-92600000D03*
X135550000Y-92600000D03*
X136050000Y-92600000D03*
X136550000Y-92600000D03*
X136550000Y-95500000D03*
X136050000Y-95500000D03*
X135550000Y-95500000D03*
X135050000Y-95500000D03*
X134550000Y-95500000D03*
X134050000Y-95500000D03*
X133550000Y-95500000D03*
D15*
X133805000Y-94462500D03*
X133805000Y-93637500D03*
X134695000Y-93637500D03*
X134695000Y-94462500D03*
D16*
X135150000Y-89450000D03*
X138150000Y-89450000D03*
X139750000Y-89450000D03*
X142750000Y-89450000D03*
D17*
X135450000Y-97000000D03*
X133950000Y-97000000D03*
D18*
X138850000Y-94650000D03*
X138850000Y-93150000D03*
D19*
X128210000Y-110790000D03*
X128210000Y-105710000D03*
X133290000Y-105710000D03*
X133290000Y-110790000D03*
D20*
X130750000Y-108250000D03*
D21*
X138850000Y-102900000D03*
X138850000Y-104400000D03*
D22*
X136470000Y-86050000D03*
D23*
X139010000Y-86050000D03*
X141550000Y-86050000D03*
D24*
X139750000Y-100650000D03*
X142750000Y-100650000D03*
D25*
X141800000Y-95050000D03*
X148150000Y-95050000D03*
D26*
X128650000Y-92650000D03*
X128650000Y-99000000D03*
D27*
X146450000Y-100750000D03*
X144450000Y-100750000D03*
X150050000Y-98850000D03*
X148050000Y-98850000D03*
D28*
X144250000Y-116150000D03*
X144250000Y-114150000D03*
D27*
X134150000Y-114350000D03*
X132150000Y-114350000D03*
D29*
X146400000Y-98850000D03*
X144500000Y-98850000D03*
X149800000Y-100750000D03*
X147900000Y-100750000D03*
D21*
X148950000Y-105000000D03*
X148950000Y-106500000D03*
X148950000Y-102400000D03*
X148950000Y-103900000D03*
D29*
X139100000Y-114350000D03*
X141000000Y-114350000D03*
X135700000Y-114350000D03*
X137600000Y-114350000D03*
D30*
X138320000Y-109520000D03*
X137050000Y-108250000D03*
X139590000Y-108250000D03*
D31*
X134182000Y-100298000D03*
X132682000Y-100298000D03*
X132682000Y-102076000D03*
X134182000Y-102076000D03*
X145866000Y-91408000D03*
X144366000Y-91408000D03*
X147160000Y-91408000D03*
X148660000Y-91408000D03*
D32*
X145866000Y-91408000D03*
X134182000Y-102076000D03*
X142150000Y-103950000D03*
X139750000Y-100650000D03*
X143850000Y-98850000D03*
X148050000Y-98850000D03*
X148950000Y-107150000D03*
D33*
X141000000Y-114350000D03*
X132150000Y-114350000D03*
X134695000Y-94462500D03*
X133805000Y-93637500D03*
X148150000Y-95050000D03*
X133805000Y-94462500D03*
X134695000Y-93637500D03*
D32*
X134182000Y-100298000D03*
X132162000Y-95472000D03*
X145950000Y-102050000D03*
D33*
X133950000Y-97000000D03*
X141750000Y-95150000D03*
D32*
X142750000Y-101200000D03*
X143950000Y-102950000D03*
X138850000Y-93150000D03*
X134950000Y-91650000D03*
X149750000Y-100850000D03*
X146850000Y-104750000D03*
X148850000Y-103950000D03*
X146850000Y-103950000D03*
X132682000Y-100298000D03*
X132670000Y-98012000D03*
X144350000Y-91350000D03*
X136750000Y-92650000D03*
D34*
X134276359Y-90728639D02*
X133654998Y-91350000D01*
X133654998Y-91350000D02*
X133274999Y-91729999D01*
D35*
X134550000Y-92600000D02*
X134550000Y-92000000D01*
X134550000Y-92000000D02*
X133900000Y-91350000D01*
X133900000Y-91350000D02*
X133654998Y-91350000D01*
D34*
X135150000Y-90728639D02*
X134276359Y-90728639D01*
X133274999Y-91729999D02*
X133274999Y-92574999D01*
D35*
X133550000Y-92600000D02*
X133550000Y-91750000D01*
X133550000Y-91750000D02*
X133750000Y-91550000D01*
D34*
X135150000Y-89450000D02*
X135150000Y-90728639D01*
X135250000Y-86050000D02*
X135150000Y-86150000D01*
X135150000Y-86150000D02*
X135150000Y-89450000D01*
X136470000Y-86050000D02*
X135250000Y-86050000D01*
X136370000Y-86650000D02*
X136370000Y-86570000D01*
D35*
X142800000Y-103850000D02*
X142250000Y-103850000D01*
X142250000Y-103850000D02*
X142150000Y-103950000D01*
X144500000Y-98850000D02*
X143850000Y-98850000D01*
X148950000Y-106500000D02*
X148950000Y-107150000D01*
D36*
X141050000Y-114350000D02*
X141000000Y-114350000D01*
X141075000Y-114325000D02*
X141050000Y-114350000D01*
X140450000Y-103650000D02*
X140550000Y-103650000D01*
X137250000Y-100650000D02*
X137250000Y-103750000D01*
X137250000Y-103750000D02*
X137350000Y-103650000D01*
X137350000Y-103650000D02*
X140450000Y-103650000D01*
X139750000Y-100650000D02*
X137250000Y-100650000D01*
X141450000Y-102750000D02*
X141850000Y-102750000D01*
X140550000Y-103650000D02*
X141450000Y-102750000D01*
D35*
X135050000Y-95500000D02*
X135050000Y-94817500D01*
X135050000Y-94817500D02*
X134695000Y-94462500D01*
X135050000Y-95500000D02*
X135550000Y-95500000D01*
D34*
X128650000Y-92650000D02*
X131000000Y-92650000D01*
X131000000Y-92650000D02*
X132724991Y-94374991D01*
X132724991Y-94374991D02*
X133957509Y-94374991D01*
X133957509Y-94374991D02*
X134695000Y-93637500D01*
X138150000Y-89450000D02*
X139750000Y-89450000D01*
X139010000Y-86050000D02*
X139010000Y-88710000D01*
X139010000Y-88710000D02*
X139750000Y-89450000D01*
D35*
X134550000Y-95500000D02*
X134550000Y-96003972D01*
X134550000Y-96003972D02*
X134800000Y-96253972D01*
X134800000Y-96253972D02*
X134800000Y-96375000D01*
X134800000Y-96375000D02*
X135425000Y-97000000D01*
X135425000Y-97000000D02*
X135450000Y-97000000D01*
X135200000Y-96750000D02*
X135450000Y-97000000D01*
D36*
X133350000Y-95500000D02*
X133206000Y-95500000D01*
X133206000Y-95500000D02*
X133178000Y-95472000D01*
D35*
X133550000Y-95500000D02*
X133350000Y-95500000D01*
D36*
X133178000Y-95472000D02*
X132162000Y-95472000D01*
D35*
X133206000Y-95500000D02*
X133178000Y-95472000D01*
D36*
X145900000Y-102500000D02*
X145900000Y-102100000D01*
X145900000Y-102100000D02*
X145950000Y-102050000D01*
D35*
X145900000Y-102850000D02*
X145900000Y-102650000D01*
X145900000Y-102650000D02*
X145900000Y-102500000D01*
X145900000Y-102500000D02*
X145950000Y-102450000D01*
D34*
X141750000Y-95150000D02*
X141800000Y-95100000D01*
D35*
X133950000Y-97000000D02*
X133950000Y-96750000D01*
X134200000Y-96750000D02*
X133950000Y-97000000D01*
X148660000Y-91408000D02*
X148660000Y-92740000D01*
X147050000Y-92950000D02*
X141050000Y-98950000D01*
X148450000Y-92950000D02*
X147050000Y-92950000D01*
X148660000Y-92740000D02*
X148450000Y-92950000D01*
D36*
X142750000Y-100650000D02*
X142750000Y-101200000D01*
X143950000Y-102950000D02*
X143962500Y-102962500D01*
X143962500Y-102962500D02*
X143962500Y-103230000D01*
D35*
X143962500Y-103230000D02*
X144737500Y-103230000D01*
X144737500Y-103230000D02*
X144737500Y-104470000D01*
X144737500Y-104470000D02*
X143962500Y-104470000D01*
X143962500Y-104470000D02*
X143962500Y-103230000D01*
D36*
X143962500Y-103230000D02*
X143962500Y-103695000D01*
X143962500Y-103695000D02*
X143962500Y-104470000D01*
D34*
X136950000Y-96125000D02*
X136950000Y-98825000D01*
X135050000Y-99000000D02*
X128650000Y-99000000D01*
X136950000Y-98825000D02*
X136775000Y-99000000D01*
D35*
X136950000Y-96050000D02*
X136950000Y-96125000D01*
X142800000Y-104350000D02*
X143842500Y-104350000D01*
X143842500Y-104350000D02*
X143962500Y-104470000D01*
D34*
X136950000Y-96050000D02*
X137450000Y-96050000D01*
X137450000Y-96050000D02*
X138850000Y-94650000D01*
X138850000Y-94650000D02*
X138850000Y-96750000D01*
X138850000Y-96750000D02*
X141050000Y-98950000D01*
X141050000Y-98950000D02*
X142750000Y-100650000D01*
X142750000Y-101300000D02*
X142750000Y-100650000D01*
X128650000Y-99000000D02*
X129000000Y-99000000D01*
D35*
X136550000Y-95500000D02*
X136550000Y-95650000D01*
X136550000Y-95650000D02*
X136950000Y-96050000D01*
X137450000Y-96050000D02*
X136950000Y-96250000D01*
X136950000Y-96250000D02*
X136950000Y-95900000D01*
X136950000Y-95900000D02*
X136550000Y-95500000D01*
D34*
X138850000Y-94675000D02*
X138850000Y-94650000D01*
D35*
X135050000Y-106350000D02*
X135050000Y-99000000D01*
D34*
X136775000Y-99000000D02*
X135050000Y-99000000D01*
D35*
X136990000Y-108250000D02*
X136950000Y-108250000D01*
X136950000Y-108250000D02*
X135050000Y-106350000D01*
X136950000Y-108210000D02*
X136990000Y-108250000D01*
X135050000Y-92600000D02*
X135050000Y-91650000D01*
X135050000Y-91650000D02*
X134950000Y-91650000D01*
X136050000Y-92600000D02*
X136050000Y-93950000D01*
X136050000Y-93950000D02*
X136150000Y-94050000D01*
X135550000Y-92600000D02*
X135550000Y-93450000D01*
X135550000Y-93450000D02*
X136150000Y-94050000D01*
D34*
X141400000Y-91550000D02*
X137750000Y-91550000D01*
X137750000Y-91550000D02*
X135954998Y-91550000D01*
X137329999Y-93470001D02*
X137750000Y-93050000D01*
X137750000Y-93050000D02*
X137750000Y-91550000D01*
X137325001Y-93470001D02*
X137329999Y-93470001D01*
D35*
X136150000Y-94050000D02*
X136050000Y-94150000D01*
X136050000Y-94150000D02*
X136050000Y-95500000D01*
X136050000Y-92600000D02*
X136050000Y-91745000D01*
X136050000Y-91745000D02*
X135904999Y-91599999D01*
X135550000Y-92600000D02*
X135550000Y-91954998D01*
X135550000Y-91954998D02*
X135904999Y-91599999D01*
X135550000Y-92600000D02*
X136050000Y-92600000D01*
D34*
X135904999Y-91599999D02*
X137195001Y-91599999D01*
X137325001Y-93470001D02*
X136745002Y-94050000D01*
X136745002Y-94050000D02*
X136150000Y-94050000D01*
X135954998Y-91550000D02*
X135904999Y-91599999D01*
X142750000Y-89450000D02*
X142750000Y-90200000D01*
X142750000Y-90200000D02*
X141400000Y-91550000D01*
X142750000Y-87250000D02*
X142750000Y-89450000D01*
X141550000Y-86050000D02*
X142750000Y-87250000D01*
D36*
X147900000Y-100750000D02*
X146450000Y-100750000D01*
X146450000Y-100750000D02*
X146400000Y-100700000D01*
X146400000Y-100700000D02*
X146400000Y-98850000D01*
D35*
X142800000Y-102850000D02*
X142800000Y-102650000D01*
X139600000Y-102150000D02*
X138850000Y-102900000D01*
X142300000Y-102150000D02*
X139600000Y-102150000D01*
X142800000Y-102650000D02*
X142300000Y-102150000D01*
X142750000Y-102900000D02*
X142800000Y-102850000D01*
X142750000Y-102900000D02*
X142800000Y-102850000D01*
X142800000Y-102850000D02*
X144125000Y-101525000D01*
X144125000Y-101525000D02*
X144125000Y-101075000D01*
X144125000Y-101075000D02*
X144450000Y-100750000D01*
X145900000Y-104350000D02*
X146450000Y-104350000D01*
X149750000Y-100850000D02*
X149800000Y-100800000D01*
X146450000Y-104350000D02*
X146850000Y-104750000D01*
X149800000Y-100800000D02*
X149800000Y-100750000D01*
D36*
X150050000Y-98850000D02*
X150050000Y-100500000D01*
X137600000Y-114350000D02*
X139100000Y-114350000D01*
X139100000Y-114350000D02*
X139100000Y-115625000D01*
X139625000Y-116150000D02*
X144250000Y-116150000D01*
X139100000Y-115625000D02*
X139625000Y-116150000D01*
X147575000Y-103350000D02*
X147575000Y-110825000D01*
X147575000Y-110825000D02*
X144250000Y-114150000D01*
D35*
X145900000Y-103350000D02*
X147575000Y-103350000D01*
X147575000Y-103350000D02*
X148000000Y-103350000D01*
X148000000Y-103350000D02*
X148950000Y-102400000D01*
D36*
X130750000Y-108250000D02*
X130750000Y-112075000D01*
X132725000Y-112925000D02*
X134150000Y-114350000D01*
X131600000Y-112925000D02*
X132725000Y-112925000D01*
X130750000Y-112075000D02*
X131600000Y-112925000D01*
X134150000Y-114350000D02*
X135700000Y-114350000D01*
D35*
X138850000Y-107550000D02*
X139550000Y-108250000D01*
D37*
X139550000Y-108250000D02*
X139550000Y-108200000D01*
D35*
X142800000Y-103350000D02*
X141750000Y-103350000D01*
X141225000Y-104400000D02*
X138850000Y-104400000D01*
X141225000Y-103875000D02*
X141225000Y-104400000D01*
X141750000Y-103350000D02*
X141225000Y-103875000D01*
X138850000Y-104400000D02*
X138850000Y-107550000D01*
X145900000Y-103850000D02*
X146750000Y-103850000D01*
X148850000Y-103950000D02*
X148900000Y-103900000D01*
X146750000Y-103850000D02*
X146850000Y-103950000D01*
X148900000Y-103900000D02*
X148950000Y-103900000D01*
X148950000Y-103900000D02*
X148950000Y-105000000D01*
X132682000Y-102076000D02*
X132682000Y-100298000D01*
X132670000Y-98012000D02*
X132670000Y-96234000D01*
X134050000Y-95500000D02*
X134050000Y-96124000D01*
X133940000Y-96234000D02*
X132670000Y-96234000D01*
X134050000Y-96124000D02*
X133940000Y-96234000D01*
X144366000Y-91408000D02*
X144366000Y-91334000D01*
X144366000Y-91334000D02*
X145450000Y-90250000D01*
X146002000Y-90250000D02*
X147160000Y-91408000D01*
X145450000Y-90250000D02*
X146002000Y-90250000D01*
X136550000Y-92600000D02*
X136700000Y-92600000D01*
X144350000Y-91350000D02*
X144366000Y-91366000D01*
X136700000Y-92600000D02*
X136750000Y-92650000D01*
X144366000Y-91366000D02*
X144366000Y-91408000D01*
D38*
G36*
X138223000Y-84795086D02*
X137959946Y-84970853D01*
X137930597Y-85014777D01*
X137858327Y-84840302D01*
X137679699Y-84661673D01*
X137446310Y-84565000D01*
X136755750Y-84565000D01*
X136597000Y-84723750D01*
X136597000Y-85923000D01*
X136617000Y-85923000D01*
X136617000Y-86177000D01*
X136597000Y-86177000D01*
X136597000Y-87376250D01*
X136755750Y-87535000D01*
X137446310Y-87535000D01*
X137679699Y-87438327D01*
X137858327Y-87259698D01*
X137875000Y-87219446D01*
X137875000Y-87552560D01*
X137650000Y-87552560D01*
X137414683Y-87596838D01*
X137198559Y-87735910D01*
X137053569Y-87948110D01*
X137002560Y-88200000D01*
X137002560Y-90415000D01*
X136285000Y-90415000D01*
X136285000Y-89735750D01*
X136126250Y-89577000D01*
X135277000Y-89577000D01*
X135277000Y-89597000D01*
X135023000Y-89597000D01*
X135023000Y-89577000D01*
X134173750Y-89577000D01*
X134015000Y-89735750D01*
X134015000Y-90826310D01*
X134111673Y-91059699D01*
X134219251Y-91167276D01*
X134090150Y-91478185D01*
X134090041Y-91602560D01*
X133925000Y-91602560D01*
X133819295Y-91622450D01*
X133801310Y-91615000D01*
X133771250Y-91615000D01*
X133750938Y-91635312D01*
X133689683Y-91646838D01*
X133487500Y-91776939D01*
X133487500Y-91773750D01*
X133328750Y-91615000D01*
X133298690Y-91615000D01*
X133065301Y-91711673D01*
X132886673Y-91890302D01*
X132790000Y-92123691D01*
X132790000Y-92314250D01*
X132948750Y-92473000D01*
X133277560Y-92473000D01*
X133277560Y-92593072D01*
X133124683Y-92621838D01*
X132961257Y-92727000D01*
X132948750Y-92727000D01*
X132926177Y-92749573D01*
X132908559Y-92760910D01*
X132895009Y-92780741D01*
X132815441Y-92860309D01*
X131802566Y-91847434D01*
X131729419Y-91798559D01*
X131434346Y-91601397D01*
X131377000Y-91589990D01*
X131377000Y-90850000D01*
X131366994Y-90800590D01*
X131338553Y-90758965D01*
X131296159Y-90731685D01*
X131250000Y-90723000D01*
X126060000Y-90723000D01*
X126060000Y-87268109D01*
X126414657Y-87268109D01*
X126716218Y-87997943D01*
X127274120Y-88556819D01*
X128003427Y-88859654D01*
X128793109Y-88860343D01*
X129522943Y-88558782D01*
X130008881Y-88073690D01*
X134015000Y-88073690D01*
X134015000Y-89164250D01*
X134173750Y-89323000D01*
X135023000Y-89323000D01*
X135023000Y-87723750D01*
X135277000Y-87723750D01*
X135277000Y-89323000D01*
X136126250Y-89323000D01*
X136285000Y-89164250D01*
X136285000Y-88073690D01*
X136188327Y-87840301D01*
X136009698Y-87661673D01*
X135776309Y-87565000D01*
X135435750Y-87565000D01*
X135277000Y-87723750D01*
X135023000Y-87723750D01*
X134864250Y-87565000D01*
X134523691Y-87565000D01*
X134290302Y-87661673D01*
X134111673Y-87840301D01*
X134015000Y-88073690D01*
X130008881Y-88073690D01*
X130081819Y-88000880D01*
X130384654Y-87271573D01*
X130385343Y-86481891D01*
X130324959Y-86335750D01*
X134985000Y-86335750D01*
X134985000Y-87026309D01*
X135081673Y-87259698D01*
X135260301Y-87438327D01*
X135493690Y-87535000D01*
X136184250Y-87535000D01*
X136343000Y-87376250D01*
X136343000Y-86177000D01*
X135143750Y-86177000D01*
X134985000Y-86335750D01*
X130324959Y-86335750D01*
X130083782Y-85752057D01*
X129525880Y-85193181D01*
X129238117Y-85073691D01*
X134985000Y-85073691D01*
X134985000Y-85764250D01*
X135143750Y-85923000D01*
X136343000Y-85923000D01*
X136343000Y-84723750D01*
X136184250Y-84565000D01*
X135493690Y-84565000D01*
X135260301Y-84661673D01*
X135081673Y-84840302D01*
X134985000Y-85073691D01*
X129238117Y-85073691D01*
X128796573Y-84890346D01*
X128006891Y-84889657D01*
X127277057Y-85191218D01*
X126718181Y-85749120D01*
X126415346Y-86478427D01*
X126414657Y-87268109D01*
X126060000Y-87268109D01*
X126060000Y-84560000D01*
X138223000Y-84560000D01*
X138223000Y-84795086D01*
X138223000Y-84795086D01*
G37*
X138223000Y-84795086D02*
X137959946Y-84970853D01*
X137930597Y-85014777D01*
X137858327Y-84840302D01*
X137679699Y-84661673D01*
X137446310Y-84565000D01*
X136755750Y-84565000D01*
X136597000Y-84723750D01*
X136597000Y-85923000D01*
X136617000Y-85923000D01*
X136617000Y-86177000D01*
X136597000Y-86177000D01*
X136597000Y-87376250D01*
X136755750Y-87535000D01*
X137446310Y-87535000D01*
X137679699Y-87438327D01*
X137858327Y-87259698D01*
X137875000Y-87219446D01*
X137875000Y-87552560D01*
X137650000Y-87552560D01*
X137414683Y-87596838D01*
X137198559Y-87735910D01*
X137053569Y-87948110D01*
X137002560Y-88200000D01*
X137002560Y-90415000D01*
X136285000Y-90415000D01*
X136285000Y-89735750D01*
X136126250Y-89577000D01*
X135277000Y-89577000D01*
X135277000Y-89597000D01*
X135023000Y-89597000D01*
X135023000Y-89577000D01*
X134173750Y-89577000D01*
X134015000Y-89735750D01*
X134015000Y-90826310D01*
X134111673Y-91059699D01*
X134219251Y-91167276D01*
X134090150Y-91478185D01*
X134090041Y-91602560D01*
X133925000Y-91602560D01*
X133819295Y-91622450D01*
X133801310Y-91615000D01*
X133771250Y-91615000D01*
X133750938Y-91635312D01*
X133689683Y-91646838D01*
X133487500Y-91776939D01*
X133487500Y-91773750D01*
X133328750Y-91615000D01*
X133298690Y-91615000D01*
X133065301Y-91711673D01*
X132886673Y-91890302D01*
X132790000Y-92123691D01*
X132790000Y-92314250D01*
X132948750Y-92473000D01*
X133277560Y-92473000D01*
X133277560Y-92593072D01*
X133124683Y-92621838D01*
X132961257Y-92727000D01*
X132948750Y-92727000D01*
X132926177Y-92749573D01*
X132908559Y-92760910D01*
X132895009Y-92780741D01*
X132815441Y-92860309D01*
X131802566Y-91847434D01*
X131729419Y-91798559D01*
X131434346Y-91601397D01*
X131377000Y-91589990D01*
X131377000Y-90850000D01*
X131366994Y-90800590D01*
X131338553Y-90758965D01*
X131296159Y-90731685D01*
X131250000Y-90723000D01*
X126060000Y-90723000D01*
X126060000Y-87268109D01*
X126414657Y-87268109D01*
X126716218Y-87997943D01*
X127274120Y-88556819D01*
X128003427Y-88859654D01*
X128793109Y-88860343D01*
X129522943Y-88558782D01*
X130008881Y-88073690D01*
X134015000Y-88073690D01*
X134015000Y-89164250D01*
X134173750Y-89323000D01*
X135023000Y-89323000D01*
X135023000Y-87723750D01*
X135277000Y-87723750D01*
X135277000Y-89323000D01*
X136126250Y-89323000D01*
X136285000Y-89164250D01*
X136285000Y-88073690D01*
X136188327Y-87840301D01*
X136009698Y-87661673D01*
X135776309Y-87565000D01*
X135435750Y-87565000D01*
X135277000Y-87723750D01*
X135023000Y-87723750D01*
X134864250Y-87565000D01*
X134523691Y-87565000D01*
X134290302Y-87661673D01*
X134111673Y-87840301D01*
X134015000Y-88073690D01*
X130008881Y-88073690D01*
X130081819Y-88000880D01*
X130384654Y-87271573D01*
X130385343Y-86481891D01*
X130324959Y-86335750D01*
X134985000Y-86335750D01*
X134985000Y-87026309D01*
X135081673Y-87259698D01*
X135260301Y-87438327D01*
X135493690Y-87535000D01*
X136184250Y-87535000D01*
X136343000Y-87376250D01*
X136343000Y-86177000D01*
X135143750Y-86177000D01*
X134985000Y-86335750D01*
X130324959Y-86335750D01*
X130083782Y-85752057D01*
X129525880Y-85193181D01*
X129238117Y-85073691D01*
X134985000Y-85073691D01*
X134985000Y-85764250D01*
X135143750Y-85923000D01*
X136343000Y-85923000D01*
X136343000Y-84723750D01*
X136184250Y-84565000D01*
X135493690Y-84565000D01*
X135260301Y-84661673D01*
X135081673Y-84840302D01*
X134985000Y-85073691D01*
X129238117Y-85073691D01*
X128796573Y-84890346D01*
X128006891Y-84889657D01*
X127277057Y-85191218D01*
X126718181Y-85749120D01*
X126415346Y-86478427D01*
X126414657Y-87268109D01*
X126060000Y-87268109D01*
X126060000Y-84560000D01*
X138223000Y-84560000D01*
X138223000Y-84795086D01*
G36*
X150640000Y-92123000D02*
X149497473Y-92123000D01*
X149506431Y-92109890D01*
X149557440Y-91858000D01*
X149557440Y-90958000D01*
X149513162Y-90722683D01*
X149374090Y-90506559D01*
X149161890Y-90361569D01*
X148910000Y-90310560D01*
X148410000Y-90310560D01*
X148174683Y-90354838D01*
X147958559Y-90493910D01*
X147910866Y-90563711D01*
X147874090Y-90506559D01*
X147661890Y-90361569D01*
X147410000Y-90310560D01*
X147137362Y-90310560D01*
X146539401Y-89712599D01*
X146292839Y-89547852D01*
X146002000Y-89490000D01*
X145450000Y-89490000D01*
X145159161Y-89547852D01*
X144912599Y-89712598D01*
X144314638Y-90310560D01*
X144116000Y-90310560D01*
X143885000Y-90354026D01*
X143885000Y-89735750D01*
X143726250Y-89577000D01*
X142877000Y-89577000D01*
X142877000Y-91176250D01*
X143035750Y-91335000D01*
X143376309Y-91335000D01*
X143468560Y-91296788D01*
X143468560Y-91858000D01*
X143512838Y-92093317D01*
X143531938Y-92123000D01*
X139325936Y-92123000D01*
X139225000Y-92102560D01*
X138475000Y-92102560D01*
X138366371Y-92123000D01*
X138250000Y-92123000D01*
X138200590Y-92133006D01*
X138158965Y-92161447D01*
X138131685Y-92203841D01*
X138129011Y-92218054D01*
X138023559Y-92285910D01*
X137878569Y-92498110D01*
X137827560Y-92750000D01*
X137827560Y-93550000D01*
X137871838Y-93785317D01*
X137945620Y-93899978D01*
X137878569Y-93998110D01*
X137873950Y-94020918D01*
X137320000Y-94574868D01*
X137320000Y-94335750D01*
X137161250Y-94177000D01*
X136277000Y-94177000D01*
X136277000Y-94197000D01*
X136023000Y-94197000D01*
X136023000Y-94177000D01*
X136003000Y-94177000D01*
X136003000Y-93923000D01*
X136023000Y-93923000D01*
X136023000Y-93903000D01*
X136277000Y-93903000D01*
X136277000Y-93923000D01*
X137161250Y-93923000D01*
X137320000Y-93764250D01*
X137320000Y-93296157D01*
X137478647Y-93137787D01*
X137609850Y-92821815D01*
X137610149Y-92479686D01*
X137479497Y-92163486D01*
X137237787Y-91921353D01*
X137210930Y-91910201D01*
X137139090Y-91798559D01*
X136926890Y-91653569D01*
X136675000Y-91602560D01*
X136425000Y-91602560D01*
X136319295Y-91622450D01*
X136301310Y-91615000D01*
X136271250Y-91615000D01*
X136250938Y-91635312D01*
X136189683Y-91646838D01*
X136055931Y-91732905D01*
X136034699Y-91711673D01*
X135848153Y-91634403D01*
X135828750Y-91615000D01*
X135827158Y-91615000D01*
X135952566Y-91531205D01*
X136084555Y-91333670D01*
X136183727Y-91277000D01*
X137369672Y-91277000D01*
X137398110Y-91296431D01*
X137650000Y-91347440D01*
X138650000Y-91347440D01*
X138885317Y-91303162D01*
X138925974Y-91277000D01*
X138969672Y-91277000D01*
X138998110Y-91296431D01*
X139250000Y-91347440D01*
X140250000Y-91347440D01*
X140485317Y-91303162D01*
X140701441Y-91164090D01*
X140846431Y-90951890D01*
X140897440Y-90700000D01*
X140897440Y-89735750D01*
X141615000Y-89735750D01*
X141615000Y-90826310D01*
X141711673Y-91059699D01*
X141890302Y-91238327D01*
X142123691Y-91335000D01*
X142464250Y-91335000D01*
X142623000Y-91176250D01*
X142623000Y-89577000D01*
X141773750Y-89577000D01*
X141615000Y-89735750D01*
X140897440Y-89735750D01*
X140897440Y-88200000D01*
X140873674Y-88073690D01*
X141615000Y-88073690D01*
X141615000Y-89164250D01*
X141773750Y-89323000D01*
X142623000Y-89323000D01*
X142623000Y-87723750D01*
X142877000Y-87723750D01*
X142877000Y-89323000D01*
X143726250Y-89323000D01*
X143885000Y-89164250D01*
X143885000Y-88073690D01*
X143788327Y-87840301D01*
X143609698Y-87661673D01*
X143376309Y-87565000D01*
X143035750Y-87565000D01*
X142877000Y-87723750D01*
X142623000Y-87723750D01*
X142464250Y-87565000D01*
X142123691Y-87565000D01*
X141890302Y-87661673D01*
X141711673Y-87840301D01*
X141615000Y-88073690D01*
X140873674Y-88073690D01*
X140853162Y-87964683D01*
X140714090Y-87748559D01*
X140501890Y-87603569D01*
X140250000Y-87552560D01*
X140145000Y-87552560D01*
X140145000Y-87002016D01*
X140287702Y-86788447D01*
X140354817Y-86931358D01*
X140783076Y-87321645D01*
X141193110Y-87491476D01*
X141423000Y-87370155D01*
X141423000Y-86177000D01*
X141677000Y-86177000D01*
X141677000Y-87370155D01*
X141906890Y-87491476D01*
X142316924Y-87321645D01*
X142375668Y-87268109D01*
X146339657Y-87268109D01*
X146641218Y-87997943D01*
X147199120Y-88556819D01*
X147928427Y-88859654D01*
X148718109Y-88860343D01*
X149447943Y-88558782D01*
X150006819Y-88000880D01*
X150309654Y-87271573D01*
X150310343Y-86481891D01*
X150008782Y-85752057D01*
X149450880Y-85193181D01*
X148721573Y-84890346D01*
X147931891Y-84889657D01*
X147202057Y-85191218D01*
X146643181Y-85749120D01*
X146340346Y-86478427D01*
X146339657Y-87268109D01*
X142375668Y-87268109D01*
X142745183Y-86931358D01*
X142991486Y-86406892D01*
X142870819Y-86177000D01*
X141677000Y-86177000D01*
X141423000Y-86177000D01*
X141403000Y-86177000D01*
X141403000Y-85923000D01*
X141423000Y-85923000D01*
X141423000Y-84729845D01*
X141677000Y-84729845D01*
X141677000Y-85923000D01*
X142870819Y-85923000D01*
X142991486Y-85693108D01*
X142745183Y-85168642D01*
X142316924Y-84778355D01*
X141906890Y-84608524D01*
X141677000Y-84729845D01*
X141423000Y-84729845D01*
X141193110Y-84608524D01*
X140783076Y-84778355D01*
X140354817Y-85168642D01*
X140287702Y-85311553D01*
X140060054Y-84970853D01*
X139877000Y-84848541D01*
X139877000Y-84560000D01*
X150640000Y-84560000D01*
X150640000Y-92123000D01*
X150640000Y-92123000D01*
G37*
X150640000Y-92123000D02*
X149497473Y-92123000D01*
X149506431Y-92109890D01*
X149557440Y-91858000D01*
X149557440Y-90958000D01*
X149513162Y-90722683D01*
X149374090Y-90506559D01*
X149161890Y-90361569D01*
X148910000Y-90310560D01*
X148410000Y-90310560D01*
X148174683Y-90354838D01*
X147958559Y-90493910D01*
X147910866Y-90563711D01*
X147874090Y-90506559D01*
X147661890Y-90361569D01*
X147410000Y-90310560D01*
X147137362Y-90310560D01*
X146539401Y-89712599D01*
X146292839Y-89547852D01*
X146002000Y-89490000D01*
X145450000Y-89490000D01*
X145159161Y-89547852D01*
X144912599Y-89712598D01*
X144314638Y-90310560D01*
X144116000Y-90310560D01*
X143885000Y-90354026D01*
X143885000Y-89735750D01*
X143726250Y-89577000D01*
X142877000Y-89577000D01*
X142877000Y-91176250D01*
X143035750Y-91335000D01*
X143376309Y-91335000D01*
X143468560Y-91296788D01*
X143468560Y-91858000D01*
X143512838Y-92093317D01*
X143531938Y-92123000D01*
X139325936Y-92123000D01*
X139225000Y-92102560D01*
X138475000Y-92102560D01*
X138366371Y-92123000D01*
X138250000Y-92123000D01*
X138200590Y-92133006D01*
X138158965Y-92161447D01*
X138131685Y-92203841D01*
X138129011Y-92218054D01*
X138023559Y-92285910D01*
X137878569Y-92498110D01*
X137827560Y-92750000D01*
X137827560Y-93550000D01*
X137871838Y-93785317D01*
X137945620Y-93899978D01*
X137878569Y-93998110D01*
X137873950Y-94020918D01*
X137320000Y-94574868D01*
X137320000Y-94335750D01*
X137161250Y-94177000D01*
X136277000Y-94177000D01*
X136277000Y-94197000D01*
X136023000Y-94197000D01*
X136023000Y-94177000D01*
X136003000Y-94177000D01*
X136003000Y-93923000D01*
X136023000Y-93923000D01*
X136023000Y-93903000D01*
X136277000Y-93903000D01*
X136277000Y-93923000D01*
X137161250Y-93923000D01*
X137320000Y-93764250D01*
X137320000Y-93296157D01*
X137478647Y-93137787D01*
X137609850Y-92821815D01*
X137610149Y-92479686D01*
X137479497Y-92163486D01*
X137237787Y-91921353D01*
X137210930Y-91910201D01*
X137139090Y-91798559D01*
X136926890Y-91653569D01*
X136675000Y-91602560D01*
X136425000Y-91602560D01*
X136319295Y-91622450D01*
X136301310Y-91615000D01*
X136271250Y-91615000D01*
X136250938Y-91635312D01*
X136189683Y-91646838D01*
X136055931Y-91732905D01*
X136034699Y-91711673D01*
X135848153Y-91634403D01*
X135828750Y-91615000D01*
X135827158Y-91615000D01*
X135952566Y-91531205D01*
X136084555Y-91333670D01*
X136183727Y-91277000D01*
X137369672Y-91277000D01*
X137398110Y-91296431D01*
X137650000Y-91347440D01*
X138650000Y-91347440D01*
X138885317Y-91303162D01*
X138925974Y-91277000D01*
X138969672Y-91277000D01*
X138998110Y-91296431D01*
X139250000Y-91347440D01*
X140250000Y-91347440D01*
X140485317Y-91303162D01*
X140701441Y-91164090D01*
X140846431Y-90951890D01*
X140897440Y-90700000D01*
X140897440Y-89735750D01*
X141615000Y-89735750D01*
X141615000Y-90826310D01*
X141711673Y-91059699D01*
X141890302Y-91238327D01*
X142123691Y-91335000D01*
X142464250Y-91335000D01*
X142623000Y-91176250D01*
X142623000Y-89577000D01*
X141773750Y-89577000D01*
X141615000Y-89735750D01*
X140897440Y-89735750D01*
X140897440Y-88200000D01*
X140873674Y-88073690D01*
X141615000Y-88073690D01*
X141615000Y-89164250D01*
X141773750Y-89323000D01*
X142623000Y-89323000D01*
X142623000Y-87723750D01*
X142877000Y-87723750D01*
X142877000Y-89323000D01*
X143726250Y-89323000D01*
X143885000Y-89164250D01*
X143885000Y-88073690D01*
X143788327Y-87840301D01*
X143609698Y-87661673D01*
X143376309Y-87565000D01*
X143035750Y-87565000D01*
X142877000Y-87723750D01*
X142623000Y-87723750D01*
X142464250Y-87565000D01*
X142123691Y-87565000D01*
X141890302Y-87661673D01*
X141711673Y-87840301D01*
X141615000Y-88073690D01*
X140873674Y-88073690D01*
X140853162Y-87964683D01*
X140714090Y-87748559D01*
X140501890Y-87603569D01*
X140250000Y-87552560D01*
X140145000Y-87552560D01*
X140145000Y-87002016D01*
X140287702Y-86788447D01*
X140354817Y-86931358D01*
X140783076Y-87321645D01*
X141193110Y-87491476D01*
X141423000Y-87370155D01*
X141423000Y-86177000D01*
X141677000Y-86177000D01*
X141677000Y-87370155D01*
X141906890Y-87491476D01*
X142316924Y-87321645D01*
X142375668Y-87268109D01*
X146339657Y-87268109D01*
X146641218Y-87997943D01*
X147199120Y-88556819D01*
X147928427Y-88859654D01*
X148718109Y-88860343D01*
X149447943Y-88558782D01*
X150006819Y-88000880D01*
X150309654Y-87271573D01*
X150310343Y-86481891D01*
X150008782Y-85752057D01*
X149450880Y-85193181D01*
X148721573Y-84890346D01*
X147931891Y-84889657D01*
X147202057Y-85191218D01*
X146643181Y-85749120D01*
X146340346Y-86478427D01*
X146339657Y-87268109D01*
X142375668Y-87268109D01*
X142745183Y-86931358D01*
X142991486Y-86406892D01*
X142870819Y-86177000D01*
X141677000Y-86177000D01*
X141423000Y-86177000D01*
X141403000Y-86177000D01*
X141403000Y-85923000D01*
X141423000Y-85923000D01*
X141423000Y-84729845D01*
X141677000Y-84729845D01*
X141677000Y-85923000D01*
X142870819Y-85923000D01*
X142991486Y-85693108D01*
X142745183Y-85168642D01*
X142316924Y-84778355D01*
X141906890Y-84608524D01*
X141677000Y-84729845D01*
X141423000Y-84729845D01*
X141193110Y-84608524D01*
X140783076Y-84778355D01*
X140354817Y-85168642D01*
X140287702Y-85311553D01*
X140060054Y-84970853D01*
X139877000Y-84848541D01*
X139877000Y-84560000D01*
X150640000Y-84560000D01*
X150640000Y-92123000D01*
M02*
