G04 #@! TF.GenerationSoftware,KiCad,Pcbnew,(6.0.5)*
G04 #@! TF.CreationDate,2022-06-03T12:50:17+02:00*
G04 #@! TF.ProjectId,PDH_photodiode,5044485f-7068-46f7-946f-64696f64652e,1.3*
G04 #@! TF.SameCoordinates,Original*
G04 #@! TF.FileFunction,Copper,L2,Bot*
G04 #@! TF.FilePolarity,Positive*
%FSLAX45Y45*%
G04 Gerber Fmt 4.5, Leading zero omitted, Abs format (unit mm)*
G04 Created by KiCad (PCBNEW (6.0.5)) date 2022-06-03 12:50:17*
%MOMM*%
%LPD*%
G01*
G04 APERTURE LIST*
G04 #@! TA.AperFunction,ComponentPad*
%ADD10R,1.700000X1.700000*%
G04 #@! TD*
G04 #@! TA.AperFunction,ComponentPad*
%ADD11O,1.700000X1.700000*%
G04 #@! TD*
G04 #@! TA.AperFunction,ComponentPad*
%ADD12C,2.050000*%
G04 #@! TD*
G04 #@! TA.AperFunction,ComponentPad*
%ADD13C,2.250000*%
G04 #@! TD*
G04 #@! TA.AperFunction,ComponentPad*
%ADD14C,0.900000*%
G04 #@! TD*
G04 #@! TA.AperFunction,ViaPad*
%ADD15C,0.600000*%
G04 #@! TD*
G04 #@! TA.AperFunction,Conductor*
%ADD16C,0.200000*%
G04 #@! TD*
G04 #@! TA.AperFunction,Conductor*
%ADD17C,0.500000*%
G04 #@! TD*
G04 APERTURE END LIST*
D10*
X15125000Y-6421000D03*
D11*
X15125000Y-6675000D03*
X15125000Y-6929000D03*
D12*
X12607500Y-6372500D03*
D13*
X12861500Y-6118500D03*
X12861500Y-6626500D03*
X12353500Y-6626500D03*
X12353500Y-6118500D03*
X11225000Y-6375000D03*
X11479000Y-6629000D03*
X11479000Y-6121000D03*
X10971000Y-6121000D03*
X10971000Y-6629000D03*
D14*
X12979000Y-7925000D03*
X13106000Y-7798000D03*
X13233000Y-7925000D03*
D15*
X12155000Y-8545000D03*
X13835000Y-5925000D03*
X11552500Y-7451700D03*
X13830000Y-7545000D03*
X13875000Y-6645000D03*
X14405000Y-8265000D03*
X12185000Y-7355000D03*
X12593900Y-8988400D03*
X13175000Y-6625000D03*
X12660000Y-7955000D03*
X14535000Y-7025000D03*
X12380000Y-7820000D03*
X12365000Y-7205000D03*
X14585000Y-8840000D03*
X12415000Y-7955000D03*
X11392500Y-7410000D03*
X11895000Y-8485000D03*
X11675000Y-8205000D03*
X13680000Y-9272500D03*
X11905000Y-7545000D03*
X14185000Y-8415000D03*
X14525000Y-6725000D03*
X14135000Y-7145000D03*
X13280000Y-7220000D03*
X13900000Y-7825000D03*
X11795000Y-7785000D03*
X12065000Y-8155000D03*
D16*
X13106000Y-7798000D02*
X13106000Y-7554000D01*
D17*
X11675000Y-7725000D02*
X11855000Y-7545000D01*
X13702500Y-9272500D02*
X13680000Y-9272500D01*
X11855000Y-7545000D02*
X11905000Y-7545000D01*
X11675000Y-8205000D02*
X11675000Y-7725000D01*
X14185000Y-8415000D02*
X13990000Y-8610000D01*
X13990000Y-8985000D02*
X13702500Y-9272500D01*
X13990000Y-8610000D02*
X13990000Y-8985000D01*
D16*
X14275000Y-7035000D02*
X14245000Y-7035000D01*
X14525000Y-6785000D02*
X14275000Y-7035000D01*
X14525000Y-6725000D02*
X14525000Y-6785000D01*
X14245000Y-7035000D02*
X14135000Y-7145000D01*
X13290000Y-7215000D02*
X13285000Y-7220000D01*
X13285000Y-7220000D02*
X13280000Y-7220000D01*
X13900000Y-7825000D02*
X13290000Y-7215000D01*
X12065000Y-7885000D02*
X12065000Y-8155000D01*
X11965000Y-7785000D02*
X12065000Y-7885000D01*
X11795000Y-7785000D02*
X11965000Y-7785000D01*
G04 #@! TA.AperFunction,Conductor*
G36*
X14472064Y-3875200D02*
G01*
X14473495Y-3875423D01*
X14473495Y-3875423D01*
X14474382Y-3875561D01*
X14475272Y-3875444D01*
X14475273Y-3875444D01*
X14476056Y-3875342D01*
X14478450Y-3875259D01*
X14504367Y-3876826D01*
X14505878Y-3877010D01*
X14534067Y-3882176D01*
X14535544Y-3882540D01*
X14562907Y-3891066D01*
X14564328Y-3891605D01*
X14568250Y-3893370D01*
X14590462Y-3903367D01*
X14591810Y-3904074D01*
X14616336Y-3918901D01*
X14617588Y-3919765D01*
X14640148Y-3937440D01*
X14641286Y-3938449D01*
X14661551Y-3958713D01*
X14662560Y-3959852D01*
X14680235Y-3982412D01*
X14681099Y-3983664D01*
X14695925Y-4008190D01*
X14696633Y-4009538D01*
X14708394Y-4035671D01*
X14708934Y-4037094D01*
X14717460Y-4064455D01*
X14717824Y-4065933D01*
X14722990Y-4094122D01*
X14723174Y-4095633D01*
X14724698Y-4120836D01*
X14724579Y-4123373D01*
X14724577Y-4123495D01*
X14724439Y-4124382D01*
X14724555Y-4125272D01*
X14724555Y-4125273D01*
X14724844Y-4127476D01*
X14724950Y-4129109D01*
X14724950Y-4965126D01*
X14724800Y-4967064D01*
X14724439Y-4969382D01*
X14724520Y-4970000D01*
X14724480Y-4970000D01*
X14726360Y-5015455D01*
X14726392Y-5015713D01*
X14726392Y-5015714D01*
X14731957Y-5060341D01*
X14731989Y-5060600D01*
X14741328Y-5105126D01*
X14741403Y-5105374D01*
X14741403Y-5105375D01*
X14753973Y-5147584D01*
X14754314Y-5148727D01*
X14770856Y-5191107D01*
X14770970Y-5191340D01*
X14770970Y-5191341D01*
X14778954Y-5207666D01*
X14790843Y-5231976D01*
X14814138Y-5271054D01*
X14840581Y-5308075D01*
X14869991Y-5342784D01*
X14902169Y-5374945D01*
X14902368Y-5375114D01*
X14902368Y-5375114D01*
X14936693Y-5404170D01*
X14936893Y-5404339D01*
X14937105Y-5404490D01*
X14937105Y-5404490D01*
X14967204Y-5425967D01*
X14973926Y-5430763D01*
X15013016Y-5454038D01*
X15053895Y-5474004D01*
X15096283Y-5490526D01*
X15118717Y-5497195D01*
X15139643Y-5503415D01*
X15139644Y-5503415D01*
X15139891Y-5503489D01*
X15184421Y-5512806D01*
X15184679Y-5512838D01*
X15229311Y-5518380D01*
X15229312Y-5518380D01*
X15229569Y-5518412D01*
X15257600Y-5519558D01*
X15272598Y-5520171D01*
X15273202Y-5520210D01*
X15273309Y-5520220D01*
X15273790Y-5520300D01*
X15274356Y-5520307D01*
X15274382Y-5520311D01*
X15274409Y-5520308D01*
X15275025Y-5520315D01*
X15275507Y-5520246D01*
X15275508Y-5520246D01*
X15276029Y-5520171D01*
X15278748Y-5520077D01*
X15287909Y-5520753D01*
X15296124Y-5521359D01*
X15297957Y-5521631D01*
X15310244Y-5524392D01*
X15317716Y-5526071D01*
X15319491Y-5526610D01*
X15338383Y-5533901D01*
X15340060Y-5534695D01*
X15357678Y-5544682D01*
X15359219Y-5545713D01*
X15375179Y-5558177D01*
X15376553Y-5559423D01*
X15390511Y-5574096D01*
X15391686Y-5575530D01*
X15403338Y-5592093D01*
X15404291Y-5593684D01*
X15413385Y-5611778D01*
X15414094Y-5613492D01*
X15420433Y-5632725D01*
X15420883Y-5634525D01*
X15424330Y-5654479D01*
X15424510Y-5656325D01*
X15424915Y-5673406D01*
X15424763Y-5675083D01*
X15424771Y-5675083D01*
X15424715Y-5675979D01*
X15424533Y-5676858D01*
X15424905Y-5681494D01*
X15424945Y-5682523D01*
X15420072Y-8352719D01*
X15420059Y-8360093D01*
X15419909Y-8362009D01*
X15419677Y-8363496D01*
X15419677Y-8363496D01*
X15419539Y-8364383D01*
X15419655Y-8365274D01*
X15419655Y-8365274D01*
X15419720Y-8365768D01*
X15419789Y-8368374D01*
X15418397Y-8386345D01*
X15418098Y-8388267D01*
X15413404Y-8408155D01*
X15412812Y-8410008D01*
X15405114Y-8428935D01*
X15404244Y-8430675D01*
X15393724Y-8448193D01*
X15392597Y-8449778D01*
X15379506Y-8465468D01*
X15378149Y-8466861D01*
X15363735Y-8479527D01*
X15362800Y-8480348D01*
X15361244Y-8481515D01*
X15344001Y-8492481D01*
X15342285Y-8493394D01*
X15323560Y-8501575D01*
X15321723Y-8502214D01*
X15301963Y-8507415D01*
X15300050Y-8507764D01*
X15283495Y-8509473D01*
X15282718Y-8509509D01*
X15282586Y-8509501D01*
X15282264Y-8509531D01*
X15282088Y-8509539D01*
X15280395Y-8509524D01*
X15280395Y-8509524D01*
X15279965Y-8509520D01*
X15279358Y-8509441D01*
X15278958Y-8509504D01*
X15278917Y-8509493D01*
X15278916Y-8509511D01*
X15237486Y-8509141D01*
X15237485Y-8509141D01*
X15237224Y-8509139D01*
X15236965Y-8509158D01*
X15236964Y-8509158D01*
X15196953Y-8512131D01*
X15191988Y-8512500D01*
X15166565Y-8516531D01*
X15147446Y-8519562D01*
X15147445Y-8519563D01*
X15147187Y-8519604D01*
X15146933Y-8519666D01*
X15146933Y-8519666D01*
X15125158Y-8525002D01*
X15103129Y-8530400D01*
X15102882Y-8530483D01*
X15102881Y-8530483D01*
X15072737Y-8540587D01*
X15060120Y-8544816D01*
X15059880Y-8544919D01*
X15059879Y-8544919D01*
X15056143Y-8546528D01*
X15018455Y-8562751D01*
X15018226Y-8562873D01*
X15018225Y-8562873D01*
X15003051Y-8570959D01*
X14978422Y-8584081D01*
X14977077Y-8584949D01*
X14940518Y-8608519D01*
X14940517Y-8608519D01*
X14940298Y-8608661D01*
X14940091Y-8608820D01*
X14940091Y-8608820D01*
X14934837Y-8612861D01*
X14904344Y-8636319D01*
X14904152Y-8636494D01*
X14904151Y-8636494D01*
X14893380Y-8646306D01*
X14870810Y-8666865D01*
X14839926Y-8700088D01*
X14811906Y-8735760D01*
X14786943Y-8773635D01*
X14765208Y-8813450D01*
X14759929Y-8825381D01*
X14746959Y-8854691D01*
X14746959Y-8854692D01*
X14746853Y-8854931D01*
X14732003Y-8897792D01*
X14720761Y-8941738D01*
X14713205Y-8986466D01*
X14709387Y-9031666D01*
X14709338Y-9072275D01*
X14709293Y-9072275D01*
X14709315Y-9072392D01*
X14709308Y-9072429D01*
X14709338Y-9072752D01*
X14709337Y-9073520D01*
X14709336Y-9074515D01*
X14709320Y-9075119D01*
X14709311Y-9075310D01*
X14709250Y-9075794D01*
X14709263Y-9076280D01*
X14709284Y-9077000D01*
X14709223Y-9078640D01*
X14707142Y-9098917D01*
X14706876Y-9100503D01*
X14701136Y-9125020D01*
X14700670Y-9126559D01*
X14691854Y-9150147D01*
X14691197Y-9151613D01*
X14682771Y-9167588D01*
X14679449Y-9173885D01*
X14678610Y-9175257D01*
X14664121Y-9195852D01*
X14663114Y-9197106D01*
X14646121Y-9215688D01*
X14644962Y-9216802D01*
X14639310Y-9221586D01*
X14625741Y-9233069D01*
X14624451Y-9234027D01*
X14608113Y-9244606D01*
X14603314Y-9247714D01*
X14601911Y-9248500D01*
X14579204Y-9259383D01*
X14577712Y-9259984D01*
X14565893Y-9263891D01*
X14554409Y-9267687D01*
X14553804Y-9267887D01*
X14552248Y-9268293D01*
X14527528Y-9273087D01*
X14525933Y-9273292D01*
X14511129Y-9274238D01*
X14504142Y-9274685D01*
X14501857Y-9274582D01*
X14501505Y-9274577D01*
X14500618Y-9274439D01*
X14499727Y-9274556D01*
X14499727Y-9274556D01*
X14497524Y-9274844D01*
X14495891Y-9274950D01*
X13836606Y-9274950D01*
X13829794Y-9272950D01*
X13825144Y-9267584D01*
X13824134Y-9260557D01*
X13827083Y-9254099D01*
X13827696Y-9253441D01*
X14038369Y-9042768D01*
X14039810Y-9041529D01*
X14040942Y-9040696D01*
X14040943Y-9040696D01*
X14041532Y-9040262D01*
X14044915Y-9036280D01*
X14045607Y-9035530D01*
X14046167Y-9034970D01*
X14047911Y-9032765D01*
X14048188Y-9032427D01*
X14052389Y-9027483D01*
X14052389Y-9027482D01*
X14052863Y-9026925D01*
X14053196Y-9026273D01*
X14053523Y-9025782D01*
X14053834Y-9025280D01*
X14054288Y-9024705D01*
X14057345Y-9018165D01*
X14057537Y-9017771D01*
X14060489Y-9011990D01*
X14060822Y-9011338D01*
X14060996Y-9010628D01*
X14061202Y-9010074D01*
X14061388Y-9009513D01*
X14061698Y-9008851D01*
X14063168Y-9001781D01*
X14063266Y-9001352D01*
X14063672Y-8999690D01*
X14064981Y-8994339D01*
X14065050Y-8993235D01*
X14065053Y-8993235D01*
X14065078Y-8992822D01*
X14065112Y-8992434D01*
X14065262Y-8991717D01*
X14065055Y-8984060D01*
X14065050Y-8983719D01*
X14065050Y-8646306D01*
X14067050Y-8639494D01*
X14068740Y-8637396D01*
X14215923Y-8490214D01*
X14218381Y-8488300D01*
X14233099Y-8479527D01*
X14233099Y-8479526D01*
X14233704Y-8479166D01*
X14246710Y-8466781D01*
X14256648Y-8451822D01*
X14258117Y-8447956D01*
X14262776Y-8435692D01*
X14262776Y-8435691D01*
X14263026Y-8435034D01*
X14263726Y-8430050D01*
X14265470Y-8417642D01*
X14265470Y-8417641D01*
X14265525Y-8417249D01*
X14265556Y-8415000D01*
X14263555Y-8397153D01*
X14257648Y-8380193D01*
X14250263Y-8368374D01*
X14248505Y-8365560D01*
X14248132Y-8364962D01*
X14241777Y-8358563D01*
X14235973Y-8352719D01*
X14235973Y-8352719D01*
X14235477Y-8352219D01*
X14234376Y-8351521D01*
X14225379Y-8345811D01*
X14220314Y-8342596D01*
X14211599Y-8339493D01*
X14204059Y-8336808D01*
X14204058Y-8336808D01*
X14203395Y-8336572D01*
X14202696Y-8336489D01*
X14202696Y-8336488D01*
X14189918Y-8334965D01*
X14185562Y-8334445D01*
X14184862Y-8334519D01*
X14184862Y-8334519D01*
X14168402Y-8336249D01*
X14168402Y-8336249D01*
X14167702Y-8336323D01*
X14167035Y-8336550D01*
X14151368Y-8341883D01*
X14151367Y-8341883D01*
X14150701Y-8342110D01*
X14150101Y-8342479D01*
X14150101Y-8342479D01*
X14144685Y-8345811D01*
X14135404Y-8351521D01*
X14134901Y-8352013D01*
X14134901Y-8352013D01*
X14134181Y-8352719D01*
X14122573Y-8364086D01*
X14122191Y-8364678D01*
X14122191Y-8364679D01*
X14119776Y-8368426D01*
X14112845Y-8379182D01*
X14112604Y-8379844D01*
X14112290Y-8380475D01*
X14112140Y-8380400D01*
X14109818Y-8384045D01*
X13941631Y-8552232D01*
X13940190Y-8553471D01*
X13939057Y-8554304D01*
X13939057Y-8554305D01*
X13938468Y-8554738D01*
X13935085Y-8558720D01*
X13934393Y-8559470D01*
X13933833Y-8560030D01*
X13932089Y-8562235D01*
X13931812Y-8562573D01*
X13927611Y-8567518D01*
X13927611Y-8567518D01*
X13927137Y-8568076D01*
X13926804Y-8568727D01*
X13926476Y-8569218D01*
X13926166Y-8569720D01*
X13925712Y-8570295D01*
X13925402Y-8570959D01*
X13925402Y-8570959D01*
X13922656Y-8576834D01*
X13922463Y-8577229D01*
X13919178Y-8583662D01*
X13919004Y-8584373D01*
X13918798Y-8584926D01*
X13918612Y-8585487D01*
X13918302Y-8586149D01*
X13918153Y-8586865D01*
X13918153Y-8586866D01*
X13916831Y-8593219D01*
X13916734Y-8593648D01*
X13915018Y-8600661D01*
X13914950Y-8601765D01*
X13914947Y-8601765D01*
X13914922Y-8602178D01*
X13914887Y-8602566D01*
X13914738Y-8603283D01*
X13914758Y-8604015D01*
X13914758Y-8604015D01*
X13914945Y-8610940D01*
X13914950Y-8611281D01*
X13914950Y-8948694D01*
X13912950Y-8955506D01*
X13911259Y-8957604D01*
X13679645Y-9189218D01*
X13673414Y-9192621D01*
X13672052Y-9192840D01*
X13669539Y-9193104D01*
X13663402Y-9193749D01*
X13663402Y-9193749D01*
X13662702Y-9193823D01*
X13653754Y-9196869D01*
X13646368Y-9199383D01*
X13646367Y-9199383D01*
X13645701Y-9199610D01*
X13630404Y-9209021D01*
X13629901Y-9209513D01*
X13629901Y-9209514D01*
X13623688Y-9215598D01*
X13617573Y-9221586D01*
X13617191Y-9222178D01*
X13617191Y-9222179D01*
X13611442Y-9231099D01*
X13607845Y-9236682D01*
X13601702Y-9253558D01*
X13601614Y-9254257D01*
X13601614Y-9254258D01*
X13600392Y-9263929D01*
X13597554Y-9270437D01*
X13591648Y-9274377D01*
X13587891Y-9274950D01*
X11779874Y-9274950D01*
X11777936Y-9274800D01*
X11776505Y-9274577D01*
X11776505Y-9274577D01*
X11775618Y-9274439D01*
X11774728Y-9274556D01*
X11774727Y-9274556D01*
X11773944Y-9274658D01*
X11771550Y-9274741D01*
X11745633Y-9273174D01*
X11744122Y-9272990D01*
X11715933Y-9267824D01*
X11714455Y-9267460D01*
X11703124Y-9263929D01*
X11687093Y-9258934D01*
X11685672Y-9258395D01*
X11659537Y-9246633D01*
X11658190Y-9245926D01*
X11633664Y-9231099D01*
X11632412Y-9230235D01*
X11609852Y-9212560D01*
X11608713Y-9211551D01*
X11588449Y-9191287D01*
X11587440Y-9190148D01*
X11569765Y-9167588D01*
X11568901Y-9166336D01*
X11554074Y-9141810D01*
X11553367Y-9140462D01*
X11541606Y-9114329D01*
X11541066Y-9112906D01*
X11532540Y-9085545D01*
X11532176Y-9084067D01*
X11527010Y-9055878D01*
X11526826Y-9054367D01*
X11525324Y-9029527D01*
X11525447Y-9027202D01*
X11525425Y-9027200D01*
X11525469Y-9026715D01*
X11525550Y-9026235D01*
X11525565Y-9025000D01*
X11525177Y-9022295D01*
X11525050Y-9020509D01*
X11525050Y-8203875D01*
X11594451Y-8203875D01*
X11594520Y-8204576D01*
X11594520Y-8204576D01*
X11594600Y-8205396D01*
X11596204Y-8221749D01*
X11596426Y-8222417D01*
X11596426Y-8222417D01*
X11600271Y-8233975D01*
X11601873Y-8238790D01*
X11602237Y-8239392D01*
X11604813Y-8243645D01*
X11611176Y-8254151D01*
X11611665Y-8254657D01*
X11611665Y-8254658D01*
X11613148Y-8256194D01*
X11623651Y-8267070D01*
X11638679Y-8276904D01*
X11655512Y-8283164D01*
X11656210Y-8283257D01*
X11656210Y-8283257D01*
X11672615Y-8285446D01*
X11672615Y-8285446D01*
X11673313Y-8285539D01*
X11674014Y-8285475D01*
X11674015Y-8285475D01*
X11690496Y-8283975D01*
X11690496Y-8283975D01*
X11691198Y-8283911D01*
X11708278Y-8278361D01*
X11711371Y-8276518D01*
X11723099Y-8269526D01*
X11723099Y-8269526D01*
X11723704Y-8269166D01*
X11736710Y-8256781D01*
X11737591Y-8255455D01*
X11744537Y-8245000D01*
X12795855Y-8245000D01*
X13415855Y-8245000D01*
X13415855Y-8169635D01*
X14854487Y-8169635D01*
X14857031Y-8201958D01*
X14863495Y-8233730D01*
X14866812Y-8243645D01*
X14870497Y-8254658D01*
X14873783Y-8264478D01*
X14887741Y-8293743D01*
X14905162Y-8321088D01*
X14925786Y-8346107D01*
X14949305Y-8368426D01*
X14975369Y-8387712D01*
X14976351Y-8388267D01*
X15003253Y-8403488D01*
X15003254Y-8403488D01*
X15003589Y-8403678D01*
X15033544Y-8416086D01*
X15064788Y-8424751D01*
X15096855Y-8429543D01*
X15097185Y-8429558D01*
X15108326Y-8430044D01*
X15108326Y-8430044D01*
X15108463Y-8430050D01*
X15128235Y-8430050D01*
X15152363Y-8428574D01*
X15152741Y-8428504D01*
X15152742Y-8428504D01*
X15172993Y-8424751D01*
X15184243Y-8422666D01*
X15208555Y-8415000D01*
X15214799Y-8413032D01*
X15214799Y-8413031D01*
X15215166Y-8412916D01*
X15215516Y-8412756D01*
X15215516Y-8412756D01*
X15244319Y-8399630D01*
X15244319Y-8399630D01*
X15244670Y-8399470D01*
X15247309Y-8397853D01*
X15271987Y-8382730D01*
X15271988Y-8382730D01*
X15272315Y-8382529D01*
X15272616Y-8382290D01*
X15272616Y-8382290D01*
X15285003Y-8372437D01*
X15297690Y-8362345D01*
X15297959Y-8362071D01*
X15297960Y-8362070D01*
X15317212Y-8342479D01*
X15320416Y-8339219D01*
X15329094Y-8327909D01*
X15339920Y-8313800D01*
X15339921Y-8313799D01*
X15340154Y-8313496D01*
X15356610Y-8285559D01*
X15369539Y-8255825D01*
X15372919Y-8244413D01*
X15376011Y-8233975D01*
X15378748Y-8224737D01*
X15384099Y-8192758D01*
X15385513Y-8160365D01*
X15383600Y-8136058D01*
X15382999Y-8128426D01*
X15382999Y-8128425D01*
X15382969Y-8128042D01*
X15376505Y-8096270D01*
X15366217Y-8065522D01*
X15352258Y-8036257D01*
X15334837Y-8008911D01*
X15314214Y-7983893D01*
X15290695Y-7961574D01*
X15264631Y-7942288D01*
X15250521Y-7934305D01*
X15236747Y-7926512D01*
X15236746Y-7926512D01*
X15236411Y-7926322D01*
X15206456Y-7913914D01*
X15175212Y-7905249D01*
X15143144Y-7900457D01*
X15142815Y-7900442D01*
X15131674Y-7899956D01*
X15131674Y-7899956D01*
X15131537Y-7899950D01*
X15111765Y-7899950D01*
X15087637Y-7901426D01*
X15087259Y-7901496D01*
X15087258Y-7901496D01*
X15073882Y-7903975D01*
X15055757Y-7907334D01*
X15039646Y-7912414D01*
X15025201Y-7916968D01*
X15025201Y-7916969D01*
X15024834Y-7917084D01*
X15024484Y-7917244D01*
X15024484Y-7917244D01*
X14995681Y-7930370D01*
X14995680Y-7930370D01*
X14995330Y-7930530D01*
X14967685Y-7947471D01*
X14967384Y-7947710D01*
X14967384Y-7947710D01*
X14964474Y-7950025D01*
X14942310Y-7967655D01*
X14942040Y-7967929D01*
X14942040Y-7967930D01*
X14930551Y-7979621D01*
X14919584Y-7990781D01*
X14915199Y-7996496D01*
X14900079Y-8016200D01*
X14900079Y-8016201D01*
X14899846Y-8016504D01*
X14883390Y-8044441D01*
X14870461Y-8074175D01*
X14870352Y-8074545D01*
X14870351Y-8074545D01*
X14867436Y-8084387D01*
X14861252Y-8105263D01*
X14855901Y-8137242D01*
X14854487Y-8169635D01*
X13415855Y-8169635D01*
X13415855Y-7605000D01*
X12795855Y-7605000D01*
X12795855Y-8245000D01*
X11744537Y-8245000D01*
X11744648Y-8244833D01*
X11746648Y-8241822D01*
X11748117Y-8237956D01*
X11752776Y-8225692D01*
X11752776Y-8225691D01*
X11753026Y-8225034D01*
X11753850Y-8219166D01*
X11755470Y-8207642D01*
X11755470Y-8207641D01*
X11755525Y-8207249D01*
X11755556Y-8205000D01*
X11753555Y-8187153D01*
X11750751Y-8179101D01*
X11750050Y-8174958D01*
X11750050Y-7871824D01*
X11752050Y-7865011D01*
X11757416Y-7860362D01*
X11764443Y-7859352D01*
X11767042Y-7860014D01*
X11775512Y-7863164D01*
X11776210Y-7863257D01*
X11776210Y-7863257D01*
X11792615Y-7865446D01*
X11792615Y-7865446D01*
X11793313Y-7865539D01*
X11794014Y-7865475D01*
X11794015Y-7865475D01*
X11810496Y-7863975D01*
X11810496Y-7863975D01*
X11811198Y-7863911D01*
X11828278Y-7858361D01*
X11830835Y-7856837D01*
X11843099Y-7849526D01*
X11843099Y-7849526D01*
X11843704Y-7849166D01*
X11844214Y-7848680D01*
X11844215Y-7848680D01*
X11844377Y-7848525D01*
X11844505Y-7848459D01*
X11844776Y-7848254D01*
X11844812Y-7848301D01*
X11850689Y-7845276D01*
X11853066Y-7845050D01*
X11934907Y-7845050D01*
X11941720Y-7847050D01*
X11943817Y-7848740D01*
X12001259Y-7906183D01*
X12004662Y-7912414D01*
X12004950Y-7915092D01*
X12004950Y-8096809D01*
X12002950Y-8103621D01*
X12002710Y-8103952D01*
X12002573Y-8104086D01*
X12002259Y-8104573D01*
X12002259Y-8104574D01*
X12001570Y-8105643D01*
X11992845Y-8119182D01*
X11986702Y-8136058D01*
X11984451Y-8153875D01*
X11984520Y-8154576D01*
X11984520Y-8154576D01*
X11985088Y-8160365D01*
X11986204Y-8171749D01*
X11986426Y-8172417D01*
X11986426Y-8172417D01*
X11990964Y-8186058D01*
X11991873Y-8188790D01*
X11992237Y-8189392D01*
X12000586Y-8203177D01*
X12001176Y-8204151D01*
X12001665Y-8204657D01*
X12001665Y-8204658D01*
X12009371Y-8212638D01*
X12013651Y-8217070D01*
X12028679Y-8226904D01*
X12045512Y-8233164D01*
X12046210Y-8233257D01*
X12046210Y-8233257D01*
X12062615Y-8235446D01*
X12062615Y-8235446D01*
X12063313Y-8235539D01*
X12064014Y-8235475D01*
X12064015Y-8235475D01*
X12080496Y-8233975D01*
X12080496Y-8233975D01*
X12081198Y-8233911D01*
X12098278Y-8228361D01*
X12101371Y-8226518D01*
X12113099Y-8219526D01*
X12113099Y-8219526D01*
X12113704Y-8219166D01*
X12126710Y-8206781D01*
X12128155Y-8204606D01*
X12131679Y-8199301D01*
X12136648Y-8191822D01*
X12141441Y-8179205D01*
X12142776Y-8175692D01*
X12142776Y-8175691D01*
X12143026Y-8175034D01*
X12143784Y-8169635D01*
X12145470Y-8157642D01*
X12145470Y-8157641D01*
X12145525Y-8157249D01*
X12145556Y-8155000D01*
X12143555Y-8137153D01*
X12143078Y-8135784D01*
X12140382Y-8128042D01*
X12137648Y-8120193D01*
X12128132Y-8104962D01*
X12127751Y-8104579D01*
X12125112Y-8098058D01*
X12125050Y-8096813D01*
X12125050Y-7889763D01*
X12125158Y-7888118D01*
X12125460Y-7885819D01*
X12125568Y-7885000D01*
X12123504Y-7869324D01*
X12117454Y-7854716D01*
X12111587Y-7847070D01*
X12107828Y-7842172D01*
X12105333Y-7840257D01*
X12104094Y-7839170D01*
X12010830Y-7745906D01*
X12009743Y-7744667D01*
X12008330Y-7742826D01*
X12007828Y-7742172D01*
X11995284Y-7732546D01*
X11980676Y-7726496D01*
X11973545Y-7725557D01*
X11968936Y-7724950D01*
X11965819Y-7724540D01*
X11965000Y-7724432D01*
X11964181Y-7724540D01*
X11961883Y-7724842D01*
X11960238Y-7724950D01*
X11853185Y-7724950D01*
X11846373Y-7722950D01*
X11845774Y-7722518D01*
X11845477Y-7722219D01*
X11844882Y-7721842D01*
X11844882Y-7721841D01*
X11836025Y-7716221D01*
X11830314Y-7712596D01*
X11825645Y-7710934D01*
X11821973Y-7709626D01*
X11816226Y-7705457D01*
X11813646Y-7698842D01*
X11815052Y-7691883D01*
X11817290Y-7688847D01*
X11878868Y-7627268D01*
X11885100Y-7623866D01*
X11889444Y-7623688D01*
X11896126Y-7624580D01*
X11903313Y-7625539D01*
X11904014Y-7625475D01*
X11904015Y-7625475D01*
X11920496Y-7623975D01*
X11920496Y-7623975D01*
X11921198Y-7623911D01*
X11938278Y-7618361D01*
X11938883Y-7618001D01*
X11953099Y-7609526D01*
X11953099Y-7609526D01*
X11953704Y-7609166D01*
X11966710Y-7596781D01*
X11976648Y-7581822D01*
X11979683Y-7573834D01*
X11982776Y-7565692D01*
X11982776Y-7565691D01*
X11983026Y-7565034D01*
X11985525Y-7547249D01*
X11985556Y-7545000D01*
X11983555Y-7527153D01*
X11977648Y-7510193D01*
X11968132Y-7494962D01*
X11961777Y-7488563D01*
X11955973Y-7482719D01*
X11955973Y-7482719D01*
X11955477Y-7482219D01*
X11954548Y-7481629D01*
X11948573Y-7477838D01*
X11940314Y-7472596D01*
X11937138Y-7471466D01*
X11924059Y-7466808D01*
X11924058Y-7466808D01*
X11923395Y-7466572D01*
X11922696Y-7466489D01*
X11922696Y-7466488D01*
X11909918Y-7464965D01*
X11905562Y-7464445D01*
X11904862Y-7464519D01*
X11904862Y-7464519D01*
X11900216Y-7465007D01*
X11887702Y-7466323D01*
X11887035Y-7466550D01*
X11879021Y-7469278D01*
X11874961Y-7469950D01*
X11861645Y-7469950D01*
X11859750Y-7469807D01*
X11858360Y-7469595D01*
X11858360Y-7469595D01*
X11857637Y-7469485D01*
X11856908Y-7469544D01*
X11856907Y-7469544D01*
X11852432Y-7469908D01*
X11851411Y-7469950D01*
X11850618Y-7469950D01*
X11849688Y-7470058D01*
X11847826Y-7470275D01*
X11847389Y-7470319D01*
X11844373Y-7470564D01*
X11840194Y-7470904D01*
X11839498Y-7471129D01*
X11838918Y-7471245D01*
X11838344Y-7471381D01*
X11837617Y-7471466D01*
X11830826Y-7473931D01*
X11830414Y-7474072D01*
X11824242Y-7476072D01*
X11824241Y-7476072D01*
X11823545Y-7476297D01*
X11822920Y-7476677D01*
X11822382Y-7476923D01*
X11821854Y-7477187D01*
X11821167Y-7477437D01*
X11815130Y-7481395D01*
X11814758Y-7481629D01*
X11809064Y-7485085D01*
X11809063Y-7485085D01*
X11808584Y-7485376D01*
X11807755Y-7486108D01*
X11807753Y-7486106D01*
X11807443Y-7486381D01*
X11807144Y-7486631D01*
X11806531Y-7487032D01*
X11806028Y-7487564D01*
X11801262Y-7492595D01*
X11801024Y-7492839D01*
X11626631Y-7667232D01*
X11625190Y-7668471D01*
X11624057Y-7669304D01*
X11624057Y-7669304D01*
X11623468Y-7669738D01*
X11620085Y-7673720D01*
X11619393Y-7674470D01*
X11618833Y-7675030D01*
X11617089Y-7677235D01*
X11616812Y-7677573D01*
X11612611Y-7682517D01*
X11612611Y-7682518D01*
X11612137Y-7683075D01*
X11611804Y-7683727D01*
X11611476Y-7684218D01*
X11611166Y-7684720D01*
X11610712Y-7685295D01*
X11610402Y-7685959D01*
X11610402Y-7685959D01*
X11607656Y-7691834D01*
X11607463Y-7692229D01*
X11604178Y-7698662D01*
X11604004Y-7699372D01*
X11603798Y-7699926D01*
X11603612Y-7700487D01*
X11603302Y-7701149D01*
X11603153Y-7701865D01*
X11603153Y-7701865D01*
X11601831Y-7708219D01*
X11601734Y-7708648D01*
X11600018Y-7715661D01*
X11599950Y-7716765D01*
X11599947Y-7716765D01*
X11599922Y-7717178D01*
X11599887Y-7717566D01*
X11599738Y-7718283D01*
X11599758Y-7719015D01*
X11599758Y-7719015D01*
X11599945Y-7725940D01*
X11599950Y-7726281D01*
X11599950Y-8174913D01*
X11599190Y-8179222D01*
X11596702Y-8186058D01*
X11594451Y-8203875D01*
X11525050Y-8203875D01*
X11525050Y-8180258D01*
X11525225Y-8178167D01*
X11525469Y-8176715D01*
X11525550Y-8176235D01*
X11525565Y-8175000D01*
X11525502Y-8174564D01*
X11523640Y-8129538D01*
X11518012Y-8084387D01*
X11508674Y-8039855D01*
X11495692Y-7996246D01*
X11493559Y-7990781D01*
X11479247Y-7954102D01*
X11479247Y-7954101D01*
X11479152Y-7953858D01*
X11473402Y-7942098D01*
X11459283Y-7913216D01*
X11459282Y-7913215D01*
X11459168Y-7912981D01*
X11458830Y-7912414D01*
X11436011Y-7874118D01*
X11436010Y-7874117D01*
X11435877Y-7873894D01*
X11409438Y-7836863D01*
X11399057Y-7824606D01*
X11380199Y-7802342D01*
X11380199Y-7802341D01*
X11380031Y-7802143D01*
X11347857Y-7769969D01*
X11347659Y-7769801D01*
X11347658Y-7769800D01*
X11320134Y-7746488D01*
X11313137Y-7740562D01*
X11276106Y-7714123D01*
X11275883Y-7713990D01*
X11275882Y-7713989D01*
X11237243Y-7690965D01*
X11237242Y-7690965D01*
X11237019Y-7690832D01*
X11236785Y-7690718D01*
X11236784Y-7690717D01*
X11196376Y-7670963D01*
X11196141Y-7670848D01*
X11195899Y-7670753D01*
X11195898Y-7670753D01*
X11153996Y-7654403D01*
X11153996Y-7654403D01*
X11153754Y-7654308D01*
X11110145Y-7641325D01*
X11065613Y-7631988D01*
X11020462Y-7626360D01*
X10978506Y-7624625D01*
X10977423Y-7624580D01*
X10976818Y-7624540D01*
X10976716Y-7624531D01*
X10976235Y-7624450D01*
X10975644Y-7624443D01*
X10975618Y-7624439D01*
X10975592Y-7624442D01*
X10975000Y-7624435D01*
X10974519Y-7624504D01*
X10974519Y-7624504D01*
X10973941Y-7624587D01*
X10971256Y-7624682D01*
X10954559Y-7623488D01*
X10952780Y-7623232D01*
X10949301Y-7622475D01*
X10933634Y-7619067D01*
X10931910Y-7618561D01*
X10913553Y-7611714D01*
X10911917Y-7610967D01*
X10894722Y-7601578D01*
X10893209Y-7600606D01*
X10877525Y-7588864D01*
X10876166Y-7587687D01*
X10862313Y-7573834D01*
X10861136Y-7572475D01*
X10849394Y-7556791D01*
X10848422Y-7555278D01*
X10839033Y-7538083D01*
X10838286Y-7536447D01*
X10831439Y-7518090D01*
X10830932Y-7516365D01*
X10826768Y-7497220D01*
X10826512Y-7495441D01*
X10825369Y-7479454D01*
X10825476Y-7477204D01*
X10825425Y-7477200D01*
X10825469Y-7476716D01*
X10825550Y-7476235D01*
X10825565Y-7475000D01*
X10825177Y-7472295D01*
X10825050Y-7470509D01*
X10825050Y-7218875D01*
X13199451Y-7218875D01*
X13201204Y-7236749D01*
X13206873Y-7253790D01*
X13216176Y-7269151D01*
X13228651Y-7282070D01*
X13243679Y-7291904D01*
X13260512Y-7298164D01*
X13261210Y-7298257D01*
X13261210Y-7298257D01*
X13266728Y-7298993D01*
X13278313Y-7300539D01*
X13279014Y-7300475D01*
X13279014Y-7300475D01*
X13281486Y-7300250D01*
X13283711Y-7300047D01*
X13290676Y-7301422D01*
X13293763Y-7303686D01*
X13816859Y-7826783D01*
X13820262Y-7833014D01*
X13820489Y-7834463D01*
X13821204Y-7841749D01*
X13821426Y-7842417D01*
X13821426Y-7842417D01*
X13826223Y-7856837D01*
X13826873Y-7858790D01*
X13827237Y-7859392D01*
X13834766Y-7871824D01*
X13836176Y-7874151D01*
X13848651Y-7887070D01*
X13863679Y-7896904D01*
X13880512Y-7903164D01*
X13881210Y-7903257D01*
X13881210Y-7903257D01*
X13897615Y-7905446D01*
X13897615Y-7905446D01*
X13898313Y-7905539D01*
X13899014Y-7905475D01*
X13899015Y-7905475D01*
X13915496Y-7903975D01*
X13915496Y-7903975D01*
X13916198Y-7903911D01*
X13933278Y-7898361D01*
X13947703Y-7889763D01*
X13948099Y-7889526D01*
X13948099Y-7889526D01*
X13948704Y-7889166D01*
X13961710Y-7876781D01*
X13963457Y-7874151D01*
X13966679Y-7869301D01*
X13971648Y-7861822D01*
X13974058Y-7855479D01*
X13977776Y-7845692D01*
X13977776Y-7845691D01*
X13978026Y-7845034D01*
X13978487Y-7841749D01*
X13980470Y-7827642D01*
X13980470Y-7827641D01*
X13980525Y-7827249D01*
X13980556Y-7825000D01*
X13978555Y-7807153D01*
X13976745Y-7801957D01*
X13972880Y-7790858D01*
X13972648Y-7790193D01*
X13963132Y-7774962D01*
X13955430Y-7767207D01*
X13950973Y-7762719D01*
X13950973Y-7762719D01*
X13950477Y-7762219D01*
X13935314Y-7752596D01*
X13918395Y-7746572D01*
X13909217Y-7745477D01*
X13902689Y-7742685D01*
X13901799Y-7741876D01*
X13358714Y-7198790D01*
X13355724Y-7194024D01*
X13352880Y-7185858D01*
X13352648Y-7185193D01*
X13350909Y-7182409D01*
X13343505Y-7170560D01*
X13343132Y-7169962D01*
X13334279Y-7161048D01*
X13330973Y-7157719D01*
X13330973Y-7157719D01*
X13330477Y-7157219D01*
X13329376Y-7156521D01*
X13324686Y-7153544D01*
X13315314Y-7147596D01*
X13312335Y-7146536D01*
X13304864Y-7143875D01*
X14054451Y-7143875D01*
X14054520Y-7144576D01*
X14054520Y-7144576D01*
X14054803Y-7147457D01*
X14056204Y-7161749D01*
X14056426Y-7162417D01*
X14056426Y-7162417D01*
X14058936Y-7169962D01*
X14061873Y-7178790D01*
X14071176Y-7194151D01*
X14071665Y-7194657D01*
X14071665Y-7194658D01*
X14077206Y-7200395D01*
X14083651Y-7207070D01*
X14098679Y-7216904D01*
X14115512Y-7223164D01*
X14116210Y-7223257D01*
X14116210Y-7223257D01*
X14132615Y-7225446D01*
X14132615Y-7225446D01*
X14133313Y-7225539D01*
X14134014Y-7225475D01*
X14134015Y-7225475D01*
X14150496Y-7223975D01*
X14150496Y-7223975D01*
X14151198Y-7223911D01*
X14168278Y-7218361D01*
X14171371Y-7216518D01*
X14183099Y-7209526D01*
X14183099Y-7209526D01*
X14183704Y-7209166D01*
X14196710Y-7196781D01*
X14198457Y-7194151D01*
X14201679Y-7189301D01*
X14206648Y-7181822D01*
X14211153Y-7169962D01*
X14212776Y-7165692D01*
X14212776Y-7165691D01*
X14213026Y-7165034D01*
X14214587Y-7153924D01*
X14217516Y-7147457D01*
X14218155Y-7146769D01*
X14265773Y-7099151D01*
X14272004Y-7095748D01*
X14274406Y-7095490D01*
X14275000Y-7095568D01*
X14275819Y-7095460D01*
X14278936Y-7095050D01*
X14279601Y-7094962D01*
X14279601Y-7094962D01*
X14289857Y-7093612D01*
X14290676Y-7093504D01*
X14305284Y-7087454D01*
X14312106Y-7082219D01*
X14317828Y-7077828D01*
X14319743Y-7075333D01*
X14320830Y-7074094D01*
X14465923Y-6929000D01*
X14989434Y-6929000D01*
X14991494Y-6952541D01*
X14997610Y-6975366D01*
X14997842Y-6975864D01*
X14997842Y-6975864D01*
X15007187Y-6995906D01*
X15007596Y-6996783D01*
X15021150Y-7016140D01*
X15037860Y-7032849D01*
X15038311Y-7033165D01*
X15038311Y-7033165D01*
X15056766Y-7046088D01*
X15057217Y-7046403D01*
X15057715Y-7046636D01*
X15057716Y-7046636D01*
X15078135Y-7056158D01*
X15078634Y-7056390D01*
X15079164Y-7056532D01*
X15079165Y-7056533D01*
X15100928Y-7062364D01*
X15101459Y-7062506D01*
X15125000Y-7064566D01*
X15148541Y-7062506D01*
X15149072Y-7062364D01*
X15170835Y-7056533D01*
X15170835Y-7056532D01*
X15171366Y-7056390D01*
X15171864Y-7056158D01*
X15192284Y-7046636D01*
X15192285Y-7046636D01*
X15192783Y-7046403D01*
X15193234Y-7046088D01*
X15211689Y-7033165D01*
X15211689Y-7033165D01*
X15212140Y-7032849D01*
X15228849Y-7016140D01*
X15242403Y-6996783D01*
X15242813Y-6995906D01*
X15252158Y-6975864D01*
X15252158Y-6975864D01*
X15252390Y-6975366D01*
X15258506Y-6952541D01*
X15260566Y-6929000D01*
X15258506Y-6905459D01*
X15252390Y-6882634D01*
X15242403Y-6861217D01*
X15228849Y-6841860D01*
X15212140Y-6825150D01*
X15211689Y-6824835D01*
X15211689Y-6824835D01*
X15198049Y-6815284D01*
X15194534Y-6812822D01*
X15190101Y-6807277D01*
X15189370Y-6800215D01*
X15192573Y-6793879D01*
X15194802Y-6792086D01*
X15194774Y-6792046D01*
X15212533Y-6779379D01*
X15213320Y-6778714D01*
X15228405Y-6763681D01*
X15229073Y-6762896D01*
X15241500Y-6745602D01*
X15242031Y-6744718D01*
X15251467Y-6725627D01*
X15251847Y-6724667D01*
X15258038Y-6704291D01*
X15258255Y-6703284D01*
X15258399Y-6702196D01*
X15258177Y-6700778D01*
X15256862Y-6700400D01*
X14993322Y-6700400D01*
X14991969Y-6700797D01*
X14991826Y-6701797D01*
X14994856Y-6715245D01*
X14995164Y-6716227D01*
X15003177Y-6735960D01*
X15003641Y-6736879D01*
X15014769Y-6755039D01*
X15015378Y-6755870D01*
X15029321Y-6771967D01*
X15030058Y-6772688D01*
X15046443Y-6786292D01*
X15047288Y-6786883D01*
X15054961Y-6791367D01*
X15059833Y-6796531D01*
X15061141Y-6803509D01*
X15058467Y-6810086D01*
X15055831Y-6812567D01*
X15037860Y-6825150D01*
X15021150Y-6841860D01*
X15007596Y-6861217D01*
X14997610Y-6882634D01*
X14991494Y-6905459D01*
X14989434Y-6929000D01*
X14465923Y-6929000D01*
X14564094Y-6830830D01*
X14565333Y-6829743D01*
X14567174Y-6828330D01*
X14567828Y-6827828D01*
X14577454Y-6815284D01*
X14583504Y-6800676D01*
X14584050Y-6796531D01*
X14585050Y-6788936D01*
X14585460Y-6785819D01*
X14585568Y-6785000D01*
X14585460Y-6784181D01*
X14585460Y-6783355D01*
X14585611Y-6783355D01*
X14586564Y-6777242D01*
X14587467Y-6775641D01*
X14596648Y-6761822D01*
X14599225Y-6755039D01*
X14602776Y-6745692D01*
X14602776Y-6745691D01*
X14603026Y-6745034D01*
X14605525Y-6727249D01*
X14605556Y-6725000D01*
X14603555Y-6707153D01*
X14602943Y-6705395D01*
X14597880Y-6690858D01*
X14597648Y-6690193D01*
X14591327Y-6680076D01*
X14588505Y-6675560D01*
X14588132Y-6674962D01*
X14579111Y-6665879D01*
X14575973Y-6662719D01*
X14575973Y-6662719D01*
X14575477Y-6662219D01*
X14574376Y-6661521D01*
X14564268Y-6655106D01*
X14560314Y-6652596D01*
X14557335Y-6651536D01*
X14544059Y-6646808D01*
X14544058Y-6646808D01*
X14543395Y-6646572D01*
X14542696Y-6646489D01*
X14542696Y-6646488D01*
X14529918Y-6644965D01*
X14525562Y-6644445D01*
X14524862Y-6644519D01*
X14524862Y-6644519D01*
X14508402Y-6646249D01*
X14508402Y-6646249D01*
X14507702Y-6646323D01*
X14507035Y-6646550D01*
X14491368Y-6651883D01*
X14491367Y-6651883D01*
X14490701Y-6652110D01*
X14490101Y-6652479D01*
X14490101Y-6652479D01*
X14487416Y-6654131D01*
X14475404Y-6661521D01*
X14474901Y-6662013D01*
X14474901Y-6662013D01*
X14473177Y-6663702D01*
X14462573Y-6674086D01*
X14462191Y-6674678D01*
X14462191Y-6674679D01*
X14453226Y-6688589D01*
X14452845Y-6689182D01*
X14446702Y-6706058D01*
X14444451Y-6723875D01*
X14444520Y-6724576D01*
X14444520Y-6724576D01*
X14444600Y-6725396D01*
X14446204Y-6741749D01*
X14446426Y-6742417D01*
X14446426Y-6742417D01*
X14450901Y-6755870D01*
X14451873Y-6758790D01*
X14452237Y-6759392D01*
X14452533Y-6760031D01*
X14452398Y-6760094D01*
X14454009Y-6766180D01*
X14451828Y-6772936D01*
X14450323Y-6774753D01*
X14254227Y-6970849D01*
X14247996Y-6974252D01*
X14245594Y-6974510D01*
X14245000Y-6974432D01*
X14229324Y-6976496D01*
X14214716Y-6982546D01*
X14202172Y-6992172D01*
X14200257Y-6994667D01*
X14199171Y-6995906D01*
X14133207Y-7061870D01*
X14126976Y-7065272D01*
X14125615Y-7065491D01*
X14117702Y-7066323D01*
X14117035Y-7066550D01*
X14101368Y-7071883D01*
X14101367Y-7071883D01*
X14100701Y-7072110D01*
X14100101Y-7072479D01*
X14100101Y-7072479D01*
X14096526Y-7074678D01*
X14085404Y-7081521D01*
X14084901Y-7082013D01*
X14084901Y-7082013D01*
X14079859Y-7086951D01*
X14072573Y-7094086D01*
X14072191Y-7094678D01*
X14072191Y-7094679D01*
X14069309Y-7099151D01*
X14062845Y-7109182D01*
X14056702Y-7126058D01*
X14054451Y-7143875D01*
X13304864Y-7143875D01*
X13299059Y-7141808D01*
X13299058Y-7141808D01*
X13298395Y-7141572D01*
X13297696Y-7141489D01*
X13297696Y-7141488D01*
X13284918Y-7139965D01*
X13280562Y-7139445D01*
X13279862Y-7139519D01*
X13279862Y-7139519D01*
X13263402Y-7141249D01*
X13263402Y-7141249D01*
X13262702Y-7141323D01*
X13262035Y-7141550D01*
X13246368Y-7146883D01*
X13246367Y-7146883D01*
X13245701Y-7147110D01*
X13245101Y-7147479D01*
X13245101Y-7147479D01*
X13238053Y-7151815D01*
X13230404Y-7156521D01*
X13229901Y-7157013D01*
X13229901Y-7157013D01*
X13225066Y-7161749D01*
X13217573Y-7169086D01*
X13217191Y-7169678D01*
X13217191Y-7169679D01*
X13211750Y-7178122D01*
X13207845Y-7184182D01*
X13201702Y-7201058D01*
X13199451Y-7218875D01*
X10825050Y-7218875D01*
X10825050Y-6761447D01*
X10875088Y-6761447D01*
X10875457Y-6761974D01*
X10896212Y-6774693D01*
X10897092Y-6775141D01*
X10919924Y-6784598D01*
X10920863Y-6784903D01*
X10944894Y-6790673D01*
X10945869Y-6790827D01*
X10970507Y-6792766D01*
X10971493Y-6792766D01*
X10996131Y-6790827D01*
X10997106Y-6790673D01*
X11021137Y-6784903D01*
X11022076Y-6784598D01*
X11044909Y-6775141D01*
X11045788Y-6774693D01*
X11066393Y-6762066D01*
X11066797Y-6761447D01*
X11383088Y-6761447D01*
X11383457Y-6761974D01*
X11404212Y-6774693D01*
X11405091Y-6775141D01*
X11427924Y-6784598D01*
X11428863Y-6784903D01*
X11452894Y-6790673D01*
X11453869Y-6790827D01*
X11478507Y-6792766D01*
X11479493Y-6792766D01*
X11504131Y-6790827D01*
X11505106Y-6790673D01*
X11529137Y-6784903D01*
X11530076Y-6784598D01*
X11552908Y-6775141D01*
X11553788Y-6774693D01*
X11574393Y-6762066D01*
X11574919Y-6761260D01*
X11574318Y-6760239D01*
X11573026Y-6758947D01*
X12257588Y-6758947D01*
X12257957Y-6759474D01*
X12278712Y-6772193D01*
X12279591Y-6772641D01*
X12302424Y-6782098D01*
X12303363Y-6782403D01*
X12327394Y-6788173D01*
X12328369Y-6788327D01*
X12353007Y-6790266D01*
X12353993Y-6790266D01*
X12378631Y-6788327D01*
X12379606Y-6788173D01*
X12403637Y-6782403D01*
X12404576Y-6782098D01*
X12427408Y-6772641D01*
X12428288Y-6772193D01*
X12448893Y-6759566D01*
X12449297Y-6758947D01*
X12765588Y-6758947D01*
X12765957Y-6759474D01*
X12786712Y-6772193D01*
X12787591Y-6772641D01*
X12810424Y-6782098D01*
X12811363Y-6782403D01*
X12835394Y-6788173D01*
X12836369Y-6788327D01*
X12861007Y-6790266D01*
X12861993Y-6790266D01*
X12886631Y-6788327D01*
X12887606Y-6788173D01*
X12911637Y-6782403D01*
X12912576Y-6782098D01*
X12935408Y-6772641D01*
X12936288Y-6772193D01*
X12956893Y-6759566D01*
X12957419Y-6758760D01*
X12956818Y-6757739D01*
X12862781Y-6663702D01*
X12861387Y-6662941D01*
X12861203Y-6662954D01*
X12860542Y-6663379D01*
X12766328Y-6757593D01*
X12765588Y-6758947D01*
X12449297Y-6758947D01*
X12449419Y-6758760D01*
X12448818Y-6757739D01*
X12354781Y-6663702D01*
X12353387Y-6662941D01*
X12353203Y-6662954D01*
X12352542Y-6663379D01*
X12258328Y-6757593D01*
X12257588Y-6758947D01*
X11573026Y-6758947D01*
X11480281Y-6666202D01*
X11478887Y-6665441D01*
X11478703Y-6665454D01*
X11478042Y-6665879D01*
X11383828Y-6760093D01*
X11383088Y-6761447D01*
X11066797Y-6761447D01*
X11066919Y-6761260D01*
X11066318Y-6760239D01*
X10972281Y-6666202D01*
X10970887Y-6665441D01*
X10970704Y-6665454D01*
X10970042Y-6665879D01*
X10875828Y-6760093D01*
X10875088Y-6761447D01*
X10825050Y-6761447D01*
X10825050Y-6737537D01*
X10827050Y-6730724D01*
X10832416Y-6726075D01*
X10837739Y-6724937D01*
X10838698Y-6724944D01*
X10839761Y-6724318D01*
X10933798Y-6630281D01*
X10934436Y-6629113D01*
X11007441Y-6629113D01*
X11007454Y-6629296D01*
X11007879Y-6629958D01*
X11102093Y-6724172D01*
X11103447Y-6724912D01*
X11103974Y-6724543D01*
X11116693Y-6703788D01*
X11117141Y-6702908D01*
X11126598Y-6680076D01*
X11126903Y-6679137D01*
X11132673Y-6655106D01*
X11132827Y-6654131D01*
X11134766Y-6629493D01*
X11315234Y-6629493D01*
X11317173Y-6654131D01*
X11317327Y-6655106D01*
X11323097Y-6679137D01*
X11323402Y-6680076D01*
X11332859Y-6702908D01*
X11333307Y-6703788D01*
X11345934Y-6724393D01*
X11346740Y-6724919D01*
X11347761Y-6724318D01*
X11441798Y-6630281D01*
X11442436Y-6629113D01*
X11515441Y-6629113D01*
X11515454Y-6629296D01*
X11515879Y-6629958D01*
X11610093Y-6724172D01*
X11611447Y-6724912D01*
X11611974Y-6724543D01*
X11624693Y-6703788D01*
X11625141Y-6702908D01*
X11634598Y-6680076D01*
X11634903Y-6679137D01*
X11640673Y-6655106D01*
X11640827Y-6654131D01*
X11642766Y-6629493D01*
X11642766Y-6628507D01*
X11642647Y-6626993D01*
X12189734Y-6626993D01*
X12191673Y-6651631D01*
X12191827Y-6652606D01*
X12197597Y-6676637D01*
X12197902Y-6677576D01*
X12207359Y-6700408D01*
X12207807Y-6701288D01*
X12220434Y-6721893D01*
X12221240Y-6722419D01*
X12222261Y-6721818D01*
X12316298Y-6627781D01*
X12316936Y-6626613D01*
X12389941Y-6626613D01*
X12389954Y-6626796D01*
X12390379Y-6627458D01*
X12484593Y-6721672D01*
X12485947Y-6722412D01*
X12486474Y-6722043D01*
X12499193Y-6701288D01*
X12499641Y-6700408D01*
X12509098Y-6677576D01*
X12509403Y-6676637D01*
X12515173Y-6652606D01*
X12515327Y-6651631D01*
X12517266Y-6626993D01*
X12697734Y-6626993D01*
X12699673Y-6651631D01*
X12699827Y-6652606D01*
X12705597Y-6676637D01*
X12705902Y-6677576D01*
X12715359Y-6700408D01*
X12715807Y-6701288D01*
X12728434Y-6721893D01*
X12729240Y-6722419D01*
X12730261Y-6721818D01*
X12824298Y-6627781D01*
X12824936Y-6626613D01*
X12897941Y-6626613D01*
X12897954Y-6626796D01*
X12898379Y-6627458D01*
X12992593Y-6721672D01*
X12993947Y-6722412D01*
X12994474Y-6722043D01*
X13007193Y-6701288D01*
X13007641Y-6700408D01*
X13017098Y-6677576D01*
X13017403Y-6676637D01*
X13023173Y-6652606D01*
X13023327Y-6651631D01*
X13025266Y-6626993D01*
X13025266Y-6626007D01*
X13023327Y-6601369D01*
X13023173Y-6600394D01*
X13017403Y-6576363D01*
X13017098Y-6575424D01*
X13007641Y-6552591D01*
X13007193Y-6551712D01*
X12994566Y-6531107D01*
X12993760Y-6530581D01*
X12992739Y-6531182D01*
X12898702Y-6625219D01*
X12897941Y-6626613D01*
X12824936Y-6626613D01*
X12825059Y-6626387D01*
X12825046Y-6626203D01*
X12824621Y-6625542D01*
X12730407Y-6531328D01*
X12729053Y-6530588D01*
X12728526Y-6530957D01*
X12715807Y-6551712D01*
X12715359Y-6552591D01*
X12705902Y-6575424D01*
X12705597Y-6576363D01*
X12699827Y-6600394D01*
X12699673Y-6601369D01*
X12697734Y-6626007D01*
X12697734Y-6626993D01*
X12517266Y-6626993D01*
X12517266Y-6626007D01*
X12515327Y-6601369D01*
X12515173Y-6600394D01*
X12509403Y-6576363D01*
X12509098Y-6575424D01*
X12499641Y-6552591D01*
X12499193Y-6551712D01*
X12486566Y-6531107D01*
X12485760Y-6530581D01*
X12484739Y-6531182D01*
X12390702Y-6625219D01*
X12389941Y-6626613D01*
X12316936Y-6626613D01*
X12317059Y-6626387D01*
X12317046Y-6626203D01*
X12316621Y-6625542D01*
X12222407Y-6531328D01*
X12221053Y-6530588D01*
X12220526Y-6530957D01*
X12207807Y-6551712D01*
X12207359Y-6552591D01*
X12197902Y-6575424D01*
X12197597Y-6576363D01*
X12191827Y-6600394D01*
X12191673Y-6601369D01*
X12189734Y-6626007D01*
X12189734Y-6626993D01*
X11642647Y-6626993D01*
X11640827Y-6603869D01*
X11640673Y-6602894D01*
X11634903Y-6578863D01*
X11634598Y-6577924D01*
X11625141Y-6555091D01*
X11624693Y-6554212D01*
X11612066Y-6533607D01*
X11611260Y-6533081D01*
X11610239Y-6533682D01*
X11516202Y-6627719D01*
X11515441Y-6629113D01*
X11442436Y-6629113D01*
X11442559Y-6628887D01*
X11442546Y-6628703D01*
X11442121Y-6628042D01*
X11347907Y-6533828D01*
X11346553Y-6533088D01*
X11346026Y-6533457D01*
X11333307Y-6554212D01*
X11332859Y-6555091D01*
X11323402Y-6577924D01*
X11323097Y-6578863D01*
X11317327Y-6602894D01*
X11317173Y-6603869D01*
X11315234Y-6628507D01*
X11315234Y-6629493D01*
X11134766Y-6629493D01*
X11134766Y-6628507D01*
X11132827Y-6603869D01*
X11132673Y-6602894D01*
X11126903Y-6578863D01*
X11126598Y-6577924D01*
X11117141Y-6555091D01*
X11116693Y-6554212D01*
X11104066Y-6533607D01*
X11103260Y-6533081D01*
X11102239Y-6533682D01*
X11008202Y-6627719D01*
X11007441Y-6629113D01*
X10934436Y-6629113D01*
X10934559Y-6628887D01*
X10934546Y-6628703D01*
X10934121Y-6628042D01*
X10839907Y-6533828D01*
X10838480Y-6533048D01*
X10831611Y-6531554D01*
X10826591Y-6526534D01*
X10825050Y-6520496D01*
X10825050Y-6496740D01*
X10875081Y-6496740D01*
X10875682Y-6497761D01*
X10969719Y-6591798D01*
X10971113Y-6592559D01*
X10971297Y-6592546D01*
X10971958Y-6592121D01*
X11066172Y-6497907D01*
X11066912Y-6496553D01*
X11066543Y-6496026D01*
X11045788Y-6483307D01*
X11044909Y-6482859D01*
X11022076Y-6473402D01*
X11021137Y-6473097D01*
X10997106Y-6467327D01*
X10996131Y-6467173D01*
X10971493Y-6465234D01*
X10970507Y-6465234D01*
X10945869Y-6467173D01*
X10944894Y-6467327D01*
X10920863Y-6473097D01*
X10919924Y-6473402D01*
X10897092Y-6482859D01*
X10896212Y-6483307D01*
X10875607Y-6495934D01*
X10875081Y-6496740D01*
X10825050Y-6496740D01*
X10825050Y-6375000D01*
X11061947Y-6375000D01*
X11063955Y-6400507D01*
X11064070Y-6400988D01*
X11064070Y-6400988D01*
X11067815Y-6416584D01*
X11069928Y-6425386D01*
X11070117Y-6425843D01*
X11070117Y-6425843D01*
X11076972Y-6442392D01*
X11079719Y-6449024D01*
X11093088Y-6470840D01*
X11109704Y-6490296D01*
X11129160Y-6506912D01*
X11150976Y-6520281D01*
X11151433Y-6520470D01*
X11151433Y-6520470D01*
X11174157Y-6529883D01*
X11174614Y-6530072D01*
X11180787Y-6531554D01*
X11199012Y-6535930D01*
X11199012Y-6535930D01*
X11199493Y-6536045D01*
X11225000Y-6538053D01*
X11250507Y-6536045D01*
X11250988Y-6535930D01*
X11250988Y-6535930D01*
X11269213Y-6531554D01*
X11275386Y-6530072D01*
X11275843Y-6529883D01*
X11298567Y-6520470D01*
X11298567Y-6520470D01*
X11299024Y-6520281D01*
X11320840Y-6506912D01*
X11332750Y-6496740D01*
X11383081Y-6496740D01*
X11383682Y-6497761D01*
X11477719Y-6591798D01*
X11479113Y-6592559D01*
X11479296Y-6592546D01*
X11479958Y-6592121D01*
X11574172Y-6497907D01*
X11574912Y-6496553D01*
X11574543Y-6496026D01*
X11571629Y-6494240D01*
X12257581Y-6494240D01*
X12258182Y-6495261D01*
X12352219Y-6589298D01*
X12353613Y-6590059D01*
X12353796Y-6590046D01*
X12354458Y-6589621D01*
X12448672Y-6495407D01*
X12449412Y-6494053D01*
X12449043Y-6493526D01*
X12428288Y-6480807D01*
X12427408Y-6480359D01*
X12404576Y-6470902D01*
X12403637Y-6470597D01*
X12379606Y-6464827D01*
X12378631Y-6464673D01*
X12353993Y-6462734D01*
X12353007Y-6462734D01*
X12328369Y-6464673D01*
X12327394Y-6464827D01*
X12303363Y-6470597D01*
X12302424Y-6470902D01*
X12279591Y-6480359D01*
X12278712Y-6480807D01*
X12258107Y-6493434D01*
X12257581Y-6494240D01*
X11571629Y-6494240D01*
X11553788Y-6483307D01*
X11552908Y-6482859D01*
X11530076Y-6473402D01*
X11529137Y-6473097D01*
X11505106Y-6467327D01*
X11504131Y-6467173D01*
X11479493Y-6465234D01*
X11478507Y-6465234D01*
X11453869Y-6467173D01*
X11452894Y-6467327D01*
X11428863Y-6473097D01*
X11427924Y-6473402D01*
X11405091Y-6482859D01*
X11404212Y-6483307D01*
X11383607Y-6495934D01*
X11383081Y-6496740D01*
X11332750Y-6496740D01*
X11340296Y-6490296D01*
X11356912Y-6470840D01*
X11370281Y-6449024D01*
X11373028Y-6442392D01*
X11379883Y-6425843D01*
X11379883Y-6425843D01*
X11380072Y-6425386D01*
X11382185Y-6416584D01*
X11385930Y-6400988D01*
X11385930Y-6400988D01*
X11386045Y-6400507D01*
X11388053Y-6375000D01*
X11387856Y-6372500D01*
X12454478Y-6372500D01*
X12456362Y-6396438D01*
X12461968Y-6419786D01*
X12462157Y-6420243D01*
X12462157Y-6420244D01*
X12464088Y-6424905D01*
X12471157Y-6441970D01*
X12483703Y-6462444D01*
X12484024Y-6462820D01*
X12484024Y-6462820D01*
X12497773Y-6478918D01*
X12499297Y-6480703D01*
X12499673Y-6481024D01*
X12517180Y-6495976D01*
X12517180Y-6495976D01*
X12517556Y-6496297D01*
X12538030Y-6508843D01*
X12538487Y-6509033D01*
X12538487Y-6509033D01*
X12559756Y-6517843D01*
X12559757Y-6517843D01*
X12560214Y-6518032D01*
X12568234Y-6519958D01*
X12583081Y-6523522D01*
X12583081Y-6523522D01*
X12583562Y-6523638D01*
X12607500Y-6525522D01*
X12631438Y-6523638D01*
X12631919Y-6523522D01*
X12631919Y-6523522D01*
X12646766Y-6519958D01*
X12654786Y-6518032D01*
X12655243Y-6517843D01*
X12655244Y-6517843D01*
X12676513Y-6509033D01*
X12676513Y-6509033D01*
X12676970Y-6508843D01*
X12697444Y-6496297D01*
X12697820Y-6495976D01*
X12697820Y-6495976D01*
X12699852Y-6494240D01*
X12765581Y-6494240D01*
X12766182Y-6495261D01*
X12860219Y-6589298D01*
X12861613Y-6590059D01*
X12861796Y-6590046D01*
X12862458Y-6589621D01*
X12956672Y-6495407D01*
X12957412Y-6494053D01*
X12957043Y-6493526D01*
X12936288Y-6480807D01*
X12935408Y-6480359D01*
X12912576Y-6470902D01*
X12911637Y-6470597D01*
X12887606Y-6464827D01*
X12886631Y-6464673D01*
X12861993Y-6462734D01*
X12861007Y-6462734D01*
X12836369Y-6464673D01*
X12835394Y-6464827D01*
X12811363Y-6470597D01*
X12810424Y-6470902D01*
X12787591Y-6480359D01*
X12786712Y-6480807D01*
X12766107Y-6493434D01*
X12765581Y-6494240D01*
X12699852Y-6494240D01*
X12715326Y-6481024D01*
X12715703Y-6480703D01*
X12717227Y-6478918D01*
X12730976Y-6462820D01*
X12730976Y-6462820D01*
X12731297Y-6462444D01*
X12743843Y-6441970D01*
X12750912Y-6424905D01*
X12752843Y-6420244D01*
X12752843Y-6420243D01*
X12753032Y-6419786D01*
X12758638Y-6396438D01*
X12760522Y-6372500D01*
X12758638Y-6348562D01*
X12754484Y-6331262D01*
X14989950Y-6331262D01*
X14989950Y-6510738D01*
X14990615Y-6516858D01*
X14995647Y-6530282D01*
X14996185Y-6531000D01*
X14996186Y-6531001D01*
X14998304Y-6533828D01*
X15004245Y-6541755D01*
X15004963Y-6542293D01*
X15014999Y-6549814D01*
X15015000Y-6549815D01*
X15015718Y-6550353D01*
X15021690Y-6552591D01*
X15027697Y-6554843D01*
X15033374Y-6559108D01*
X15035844Y-6565764D01*
X15034323Y-6572699D01*
X15032384Y-6575347D01*
X15019459Y-6588872D01*
X15018810Y-6589673D01*
X15006810Y-6607265D01*
X15006300Y-6608162D01*
X14997334Y-6627478D01*
X14996977Y-6628447D01*
X14991439Y-6648418D01*
X14991591Y-6649261D01*
X14992829Y-6649600D01*
X15256834Y-6649600D01*
X15258187Y-6649203D01*
X15258318Y-6648295D01*
X15254121Y-6631587D01*
X15253789Y-6630612D01*
X15245297Y-6611081D01*
X15244810Y-6610174D01*
X15233243Y-6592293D01*
X15232614Y-6591476D01*
X15217933Y-6575342D01*
X15218029Y-6575254D01*
X15214721Y-6569669D01*
X15214981Y-6562574D01*
X15219035Y-6556746D01*
X15222510Y-6554766D01*
X15228310Y-6552591D01*
X15234282Y-6550353D01*
X15235000Y-6549815D01*
X15235001Y-6549814D01*
X15245036Y-6542293D01*
X15245755Y-6541755D01*
X15251696Y-6533828D01*
X15253814Y-6531001D01*
X15253815Y-6531000D01*
X15254353Y-6530282D01*
X15257703Y-6521344D01*
X15259108Y-6517597D01*
X15259108Y-6517597D01*
X15259385Y-6516858D01*
X15260050Y-6510738D01*
X15260050Y-6331262D01*
X15259385Y-6325142D01*
X15254353Y-6311718D01*
X15253815Y-6311000D01*
X15253814Y-6310999D01*
X15246293Y-6300963D01*
X15245755Y-6300245D01*
X15245036Y-6299707D01*
X15235001Y-6292186D01*
X15235000Y-6292185D01*
X15234282Y-6291647D01*
X15225344Y-6288297D01*
X15221597Y-6286892D01*
X15221597Y-6286892D01*
X15220858Y-6286615D01*
X15220073Y-6286530D01*
X15220073Y-6286530D01*
X15215077Y-6285987D01*
X15215077Y-6285987D01*
X15214738Y-6285950D01*
X15125013Y-6285950D01*
X15035262Y-6285950D01*
X15034923Y-6285987D01*
X15034922Y-6285987D01*
X15029928Y-6286529D01*
X15029927Y-6286530D01*
X15029142Y-6286615D01*
X15015718Y-6291647D01*
X15015000Y-6292185D01*
X15014999Y-6292186D01*
X15004963Y-6299707D01*
X15004245Y-6300245D01*
X15003707Y-6300963D01*
X14996186Y-6310999D01*
X14996185Y-6311000D01*
X14995647Y-6311718D01*
X14995332Y-6312558D01*
X14990984Y-6324157D01*
X14990615Y-6325142D01*
X14989950Y-6331262D01*
X12754484Y-6331262D01*
X12753032Y-6325214D01*
X12752696Y-6324402D01*
X12744033Y-6303487D01*
X12744033Y-6303487D01*
X12743843Y-6303030D01*
X12731297Y-6282556D01*
X12730976Y-6282180D01*
X12730976Y-6282180D01*
X12716024Y-6264673D01*
X12715703Y-6264297D01*
X12702780Y-6253260D01*
X12700072Y-6250947D01*
X12765588Y-6250947D01*
X12765957Y-6251474D01*
X12786712Y-6264193D01*
X12787591Y-6264641D01*
X12810424Y-6274098D01*
X12811363Y-6274403D01*
X12835394Y-6280173D01*
X12836369Y-6280327D01*
X12861007Y-6282266D01*
X12861993Y-6282266D01*
X12886631Y-6280327D01*
X12887606Y-6280173D01*
X12911637Y-6274403D01*
X12912576Y-6274098D01*
X12935408Y-6264641D01*
X12936288Y-6264193D01*
X12956893Y-6251566D01*
X12957419Y-6250760D01*
X12956818Y-6249739D01*
X12862781Y-6155702D01*
X12861387Y-6154941D01*
X12861203Y-6154954D01*
X12860542Y-6155379D01*
X12766328Y-6249593D01*
X12765588Y-6250947D01*
X12700072Y-6250947D01*
X12697820Y-6249024D01*
X12697820Y-6249024D01*
X12697444Y-6248703D01*
X12676970Y-6236157D01*
X12676513Y-6235967D01*
X12676513Y-6235967D01*
X12655244Y-6227157D01*
X12655243Y-6227157D01*
X12654786Y-6226968D01*
X12646766Y-6225042D01*
X12631919Y-6221478D01*
X12631919Y-6221478D01*
X12631438Y-6221362D01*
X12607500Y-6219478D01*
X12583562Y-6221362D01*
X12583081Y-6221478D01*
X12583081Y-6221478D01*
X12568234Y-6225042D01*
X12560214Y-6226968D01*
X12559757Y-6227157D01*
X12559756Y-6227157D01*
X12538487Y-6235967D01*
X12538487Y-6235967D01*
X12538030Y-6236157D01*
X12517556Y-6248703D01*
X12517180Y-6249024D01*
X12517180Y-6249024D01*
X12512220Y-6253260D01*
X12499297Y-6264297D01*
X12498976Y-6264673D01*
X12484024Y-6282180D01*
X12484024Y-6282180D01*
X12483703Y-6282556D01*
X12471157Y-6303030D01*
X12470967Y-6303487D01*
X12470967Y-6303487D01*
X12462304Y-6324402D01*
X12461968Y-6325214D01*
X12456362Y-6348562D01*
X12454478Y-6372500D01*
X11387856Y-6372500D01*
X11386045Y-6349493D01*
X11385930Y-6349012D01*
X11385930Y-6349012D01*
X11380388Y-6325928D01*
X11380072Y-6324614D01*
X11379883Y-6324157D01*
X11370470Y-6301433D01*
X11370470Y-6301433D01*
X11370281Y-6300976D01*
X11356912Y-6279160D01*
X11340296Y-6259704D01*
X11332969Y-6253447D01*
X11383088Y-6253447D01*
X11383457Y-6253974D01*
X11404212Y-6266693D01*
X11405091Y-6267141D01*
X11427924Y-6276598D01*
X11428863Y-6276903D01*
X11452894Y-6282673D01*
X11453869Y-6282827D01*
X11478507Y-6284766D01*
X11479493Y-6284766D01*
X11504131Y-6282827D01*
X11505106Y-6282673D01*
X11529137Y-6276903D01*
X11530076Y-6276598D01*
X11552908Y-6267141D01*
X11553788Y-6266693D01*
X11574393Y-6254066D01*
X11574919Y-6253260D01*
X11574318Y-6252239D01*
X11573026Y-6250947D01*
X12257588Y-6250947D01*
X12257957Y-6251474D01*
X12278712Y-6264193D01*
X12279591Y-6264641D01*
X12302424Y-6274098D01*
X12303363Y-6274403D01*
X12327394Y-6280173D01*
X12328369Y-6280327D01*
X12353007Y-6282266D01*
X12353993Y-6282266D01*
X12378631Y-6280327D01*
X12379606Y-6280173D01*
X12403637Y-6274403D01*
X12404576Y-6274098D01*
X12427408Y-6264641D01*
X12428288Y-6264193D01*
X12448893Y-6251566D01*
X12449419Y-6250760D01*
X12448818Y-6249739D01*
X12354781Y-6155702D01*
X12353387Y-6154941D01*
X12353203Y-6154954D01*
X12352542Y-6155379D01*
X12258328Y-6249593D01*
X12257588Y-6250947D01*
X11573026Y-6250947D01*
X11480281Y-6158202D01*
X11478887Y-6157441D01*
X11478703Y-6157454D01*
X11478042Y-6157879D01*
X11383828Y-6252093D01*
X11383088Y-6253447D01*
X11332969Y-6253447D01*
X11320840Y-6243088D01*
X11299024Y-6229719D01*
X11298567Y-6229530D01*
X11298567Y-6229530D01*
X11275843Y-6220117D01*
X11275843Y-6220117D01*
X11275386Y-6219928D01*
X11262928Y-6216937D01*
X11250988Y-6214070D01*
X11250988Y-6214070D01*
X11250507Y-6213955D01*
X11225000Y-6211947D01*
X11199493Y-6213955D01*
X11199012Y-6214070D01*
X11199012Y-6214070D01*
X11187072Y-6216937D01*
X11174614Y-6219928D01*
X11174157Y-6220117D01*
X11174157Y-6220117D01*
X11151433Y-6229530D01*
X11151433Y-6229530D01*
X11150976Y-6229719D01*
X11129160Y-6243088D01*
X11109704Y-6259704D01*
X11093088Y-6279160D01*
X11079719Y-6300976D01*
X11079530Y-6301433D01*
X11079530Y-6301433D01*
X11070117Y-6324157D01*
X11069928Y-6324614D01*
X11069612Y-6325928D01*
X11064070Y-6349012D01*
X11064070Y-6349012D01*
X11063955Y-6349493D01*
X11061947Y-6375000D01*
X10825050Y-6375000D01*
X10825050Y-6253447D01*
X10875088Y-6253447D01*
X10875457Y-6253974D01*
X10896212Y-6266693D01*
X10897092Y-6267141D01*
X10919924Y-6276598D01*
X10920863Y-6276903D01*
X10944894Y-6282673D01*
X10945869Y-6282827D01*
X10970507Y-6284766D01*
X10971493Y-6284766D01*
X10996131Y-6282827D01*
X10997106Y-6282673D01*
X11021137Y-6276903D01*
X11022076Y-6276598D01*
X11044909Y-6267141D01*
X11045788Y-6266693D01*
X11066393Y-6254066D01*
X11066919Y-6253260D01*
X11066318Y-6252239D01*
X10972281Y-6158202D01*
X10970887Y-6157441D01*
X10970704Y-6157454D01*
X10970042Y-6157879D01*
X10875828Y-6252093D01*
X10875088Y-6253447D01*
X10825050Y-6253447D01*
X10825050Y-6229537D01*
X10827050Y-6222724D01*
X10832416Y-6218075D01*
X10837739Y-6216937D01*
X10838698Y-6216944D01*
X10839761Y-6216318D01*
X10933798Y-6122281D01*
X10934436Y-6121113D01*
X11007441Y-6121113D01*
X11007454Y-6121296D01*
X11007879Y-6121958D01*
X11102093Y-6216172D01*
X11103447Y-6216912D01*
X11103974Y-6216543D01*
X11116693Y-6195788D01*
X11117141Y-6194908D01*
X11126598Y-6172076D01*
X11126903Y-6171137D01*
X11132673Y-6147106D01*
X11132827Y-6146131D01*
X11134766Y-6121493D01*
X11315234Y-6121493D01*
X11317173Y-6146131D01*
X11317327Y-6147106D01*
X11323097Y-6171137D01*
X11323402Y-6172076D01*
X11332859Y-6194908D01*
X11333307Y-6195788D01*
X11345934Y-6216393D01*
X11346740Y-6216919D01*
X11347761Y-6216318D01*
X11441798Y-6122281D01*
X11442436Y-6121113D01*
X11515441Y-6121113D01*
X11515454Y-6121296D01*
X11515879Y-6121958D01*
X11610093Y-6216172D01*
X11611447Y-6216912D01*
X11611974Y-6216543D01*
X11624693Y-6195788D01*
X11625141Y-6194908D01*
X11634598Y-6172076D01*
X11634903Y-6171137D01*
X11640673Y-6147106D01*
X11640827Y-6146131D01*
X11642766Y-6121493D01*
X11642766Y-6120507D01*
X11642647Y-6118993D01*
X12189734Y-6118993D01*
X12191673Y-6143631D01*
X12191827Y-6144606D01*
X12197597Y-6168637D01*
X12197902Y-6169576D01*
X12207359Y-6192408D01*
X12207807Y-6193288D01*
X12220434Y-6213893D01*
X12221240Y-6214419D01*
X12222261Y-6213818D01*
X12316298Y-6119781D01*
X12316936Y-6118613D01*
X12389941Y-6118613D01*
X12389954Y-6118796D01*
X12390379Y-6119458D01*
X12484593Y-6213672D01*
X12485947Y-6214412D01*
X12486474Y-6214043D01*
X12499193Y-6193288D01*
X12499641Y-6192408D01*
X12509098Y-6169576D01*
X12509403Y-6168637D01*
X12515173Y-6144606D01*
X12515327Y-6143631D01*
X12517266Y-6118993D01*
X12697734Y-6118993D01*
X12699673Y-6143631D01*
X12699827Y-6144606D01*
X12705597Y-6168637D01*
X12705902Y-6169576D01*
X12715359Y-6192408D01*
X12715807Y-6193288D01*
X12728434Y-6213893D01*
X12729240Y-6214419D01*
X12730261Y-6213818D01*
X12824298Y-6119781D01*
X12824936Y-6118613D01*
X12897941Y-6118613D01*
X12897954Y-6118796D01*
X12898379Y-6119458D01*
X12992593Y-6213672D01*
X12993947Y-6214412D01*
X12994474Y-6214043D01*
X13007193Y-6193288D01*
X13007641Y-6192408D01*
X13017098Y-6169576D01*
X13017403Y-6168637D01*
X13023173Y-6144606D01*
X13023327Y-6143631D01*
X13025266Y-6118993D01*
X13025266Y-6118007D01*
X13023327Y-6093369D01*
X13023173Y-6092394D01*
X13017403Y-6068363D01*
X13017098Y-6067424D01*
X13007641Y-6044591D01*
X13007193Y-6043712D01*
X12994566Y-6023107D01*
X12993760Y-6022581D01*
X12992739Y-6023182D01*
X12898702Y-6117219D01*
X12897941Y-6118613D01*
X12824936Y-6118613D01*
X12825059Y-6118387D01*
X12825046Y-6118203D01*
X12824621Y-6117542D01*
X12730407Y-6023328D01*
X12729053Y-6022588D01*
X12728526Y-6022957D01*
X12715807Y-6043712D01*
X12715359Y-6044591D01*
X12705902Y-6067424D01*
X12705597Y-6068363D01*
X12699827Y-6092394D01*
X12699673Y-6093369D01*
X12697734Y-6118007D01*
X12697734Y-6118993D01*
X12517266Y-6118993D01*
X12517266Y-6118007D01*
X12515327Y-6093369D01*
X12515173Y-6092394D01*
X12509403Y-6068363D01*
X12509098Y-6067424D01*
X12499641Y-6044591D01*
X12499193Y-6043712D01*
X12486566Y-6023107D01*
X12485760Y-6022581D01*
X12484739Y-6023182D01*
X12390702Y-6117219D01*
X12389941Y-6118613D01*
X12316936Y-6118613D01*
X12317059Y-6118387D01*
X12317046Y-6118203D01*
X12316621Y-6117542D01*
X12222407Y-6023328D01*
X12221053Y-6022588D01*
X12220526Y-6022957D01*
X12207807Y-6043712D01*
X12207359Y-6044591D01*
X12197902Y-6067424D01*
X12197597Y-6068363D01*
X12191827Y-6092394D01*
X12191673Y-6093369D01*
X12189734Y-6118007D01*
X12189734Y-6118993D01*
X11642647Y-6118993D01*
X11640827Y-6095869D01*
X11640673Y-6094894D01*
X11634903Y-6070863D01*
X11634598Y-6069924D01*
X11625141Y-6047091D01*
X11624693Y-6046212D01*
X11612066Y-6025607D01*
X11611260Y-6025081D01*
X11610239Y-6025682D01*
X11516202Y-6119719D01*
X11515441Y-6121113D01*
X11442436Y-6121113D01*
X11442559Y-6120887D01*
X11442546Y-6120703D01*
X11442121Y-6120042D01*
X11347907Y-6025828D01*
X11346553Y-6025088D01*
X11346026Y-6025457D01*
X11333307Y-6046212D01*
X11332859Y-6047091D01*
X11323402Y-6069924D01*
X11323097Y-6070863D01*
X11317327Y-6094894D01*
X11317173Y-6095869D01*
X11315234Y-6120507D01*
X11315234Y-6121493D01*
X11134766Y-6121493D01*
X11134766Y-6120507D01*
X11132827Y-6095869D01*
X11132673Y-6094894D01*
X11126903Y-6070863D01*
X11126598Y-6069924D01*
X11117141Y-6047091D01*
X11116693Y-6046212D01*
X11104066Y-6025607D01*
X11103260Y-6025081D01*
X11102239Y-6025682D01*
X11008202Y-6119719D01*
X11007441Y-6121113D01*
X10934436Y-6121113D01*
X10934559Y-6120887D01*
X10934546Y-6120703D01*
X10934121Y-6120042D01*
X10839907Y-6025828D01*
X10838480Y-6025048D01*
X10831611Y-6023554D01*
X10826591Y-6018534D01*
X10825050Y-6012496D01*
X10825050Y-5988740D01*
X10875081Y-5988740D01*
X10875682Y-5989761D01*
X10969719Y-6083798D01*
X10971113Y-6084559D01*
X10971297Y-6084546D01*
X10971958Y-6084121D01*
X11066172Y-5989907D01*
X11066809Y-5988740D01*
X11383081Y-5988740D01*
X11383682Y-5989761D01*
X11477719Y-6083798D01*
X11479113Y-6084559D01*
X11479296Y-6084546D01*
X11479958Y-6084121D01*
X11574172Y-5989907D01*
X11574912Y-5988553D01*
X11574543Y-5988026D01*
X11571629Y-5986240D01*
X12257581Y-5986240D01*
X12258182Y-5987261D01*
X12352219Y-6081298D01*
X12353613Y-6082059D01*
X12353796Y-6082046D01*
X12354458Y-6081621D01*
X12448672Y-5987407D01*
X12449309Y-5986240D01*
X12765581Y-5986240D01*
X12766182Y-5987261D01*
X12860219Y-6081298D01*
X12861613Y-6082059D01*
X12861796Y-6082046D01*
X12862458Y-6081621D01*
X12956672Y-5987407D01*
X12957412Y-5986053D01*
X12957043Y-5985526D01*
X12936288Y-5972807D01*
X12935408Y-5972359D01*
X12912576Y-5962902D01*
X12911637Y-5962597D01*
X12887606Y-5956827D01*
X12886631Y-5956673D01*
X12861993Y-5954734D01*
X12861007Y-5954734D01*
X12836369Y-5956673D01*
X12835394Y-5956827D01*
X12811363Y-5962597D01*
X12810424Y-5962902D01*
X12787591Y-5972359D01*
X12786712Y-5972807D01*
X12766107Y-5985434D01*
X12765581Y-5986240D01*
X12449309Y-5986240D01*
X12449412Y-5986053D01*
X12449043Y-5985526D01*
X12428288Y-5972807D01*
X12427408Y-5972359D01*
X12404576Y-5962902D01*
X12403637Y-5962597D01*
X12379606Y-5956827D01*
X12378631Y-5956673D01*
X12353993Y-5954734D01*
X12353007Y-5954734D01*
X12328369Y-5956673D01*
X12327394Y-5956827D01*
X12303363Y-5962597D01*
X12302424Y-5962902D01*
X12279591Y-5972359D01*
X12278712Y-5972807D01*
X12258107Y-5985434D01*
X12257581Y-5986240D01*
X11571629Y-5986240D01*
X11553788Y-5975307D01*
X11552908Y-5974859D01*
X11530076Y-5965402D01*
X11529137Y-5965097D01*
X11505106Y-5959327D01*
X11504131Y-5959173D01*
X11479493Y-5957234D01*
X11478507Y-5957234D01*
X11453869Y-5959173D01*
X11452894Y-5959327D01*
X11428863Y-5965097D01*
X11427924Y-5965402D01*
X11405091Y-5974859D01*
X11404212Y-5975307D01*
X11383607Y-5987934D01*
X11383081Y-5988740D01*
X11066809Y-5988740D01*
X11066912Y-5988553D01*
X11066543Y-5988026D01*
X11045788Y-5975307D01*
X11044909Y-5974859D01*
X11022076Y-5965402D01*
X11021137Y-5965097D01*
X10997106Y-5959327D01*
X10996131Y-5959173D01*
X10971493Y-5957234D01*
X10970507Y-5957234D01*
X10945869Y-5959173D01*
X10944894Y-5959327D01*
X10920863Y-5965097D01*
X10919924Y-5965402D01*
X10897092Y-5974859D01*
X10896212Y-5975307D01*
X10875607Y-5987934D01*
X10875081Y-5988740D01*
X10825050Y-5988740D01*
X10825050Y-4954635D01*
X10859487Y-4954635D01*
X10859517Y-4955018D01*
X10860959Y-4973339D01*
X10862031Y-4986958D01*
X10868495Y-5018730D01*
X10878783Y-5049478D01*
X10892742Y-5078743D01*
X10910163Y-5106089D01*
X10930786Y-5131107D01*
X10954305Y-5153426D01*
X10980369Y-5172712D01*
X10994479Y-5180695D01*
X11008253Y-5188488D01*
X11008254Y-5188488D01*
X11008589Y-5188678D01*
X11008945Y-5188826D01*
X11008945Y-5188826D01*
X11014454Y-5191107D01*
X11038544Y-5201086D01*
X11069788Y-5209751D01*
X11101856Y-5214543D01*
X11102185Y-5214558D01*
X11113326Y-5215044D01*
X11113326Y-5215044D01*
X11113463Y-5215050D01*
X11133235Y-5215050D01*
X11157363Y-5213574D01*
X11157741Y-5213504D01*
X11157742Y-5213504D01*
X11177993Y-5209751D01*
X11189243Y-5207666D01*
X11210578Y-5200939D01*
X11219799Y-5198032D01*
X11219799Y-5198031D01*
X11220166Y-5197916D01*
X11220516Y-5197756D01*
X11220516Y-5197756D01*
X11249319Y-5184630D01*
X11249319Y-5184630D01*
X11249670Y-5184470D01*
X11277315Y-5167529D01*
X11277616Y-5167290D01*
X11277616Y-5167290D01*
X11290003Y-5157437D01*
X11302690Y-5147345D01*
X11302959Y-5147071D01*
X11302960Y-5147070D01*
X11325146Y-5124493D01*
X11325416Y-5124219D01*
X11334094Y-5112909D01*
X11344920Y-5098800D01*
X11344921Y-5098799D01*
X11345154Y-5098496D01*
X11361610Y-5070559D01*
X11374539Y-5040825D01*
X11383748Y-5009737D01*
X11389099Y-4977758D01*
X11390513Y-4945365D01*
X11387969Y-4913042D01*
X11381505Y-4881270D01*
X11371217Y-4850522D01*
X11357258Y-4821257D01*
X11339837Y-4793912D01*
X11319214Y-4768893D01*
X11295695Y-4746574D01*
X11269631Y-4727288D01*
X11255521Y-4719305D01*
X11241747Y-4711512D01*
X11241746Y-4711512D01*
X11241411Y-4711322D01*
X11234712Y-4708547D01*
X11219495Y-4702244D01*
X11211456Y-4698914D01*
X11180212Y-4690249D01*
X11148145Y-4685457D01*
X11147815Y-4685442D01*
X11136674Y-4684956D01*
X11136674Y-4684956D01*
X11136537Y-4684950D01*
X11116765Y-4684950D01*
X11092637Y-4686426D01*
X11092259Y-4686496D01*
X11092258Y-4686496D01*
X11076697Y-4689380D01*
X11060757Y-4692334D01*
X11042293Y-4698156D01*
X11030201Y-4701969D01*
X11030201Y-4701969D01*
X11029834Y-4702084D01*
X11029484Y-4702244D01*
X11029484Y-4702244D01*
X11000681Y-4715370D01*
X11000681Y-4715370D01*
X11000330Y-4715530D01*
X10972685Y-4732471D01*
X10972384Y-4732710D01*
X10972384Y-4732710D01*
X10959997Y-4742563D01*
X10947310Y-4752655D01*
X10947041Y-4752929D01*
X10947040Y-4752930D01*
X10935552Y-4764621D01*
X10924584Y-4775781D01*
X10915906Y-4787091D01*
X10905080Y-4801200D01*
X10905079Y-4801201D01*
X10904846Y-4801504D01*
X10888390Y-4829441D01*
X10875461Y-4859175D01*
X10866252Y-4890263D01*
X10860901Y-4922242D01*
X10859487Y-4954635D01*
X10825050Y-4954635D01*
X10825050Y-4778313D01*
X10825119Y-4777000D01*
X10825193Y-4776294D01*
X10825529Y-4773089D01*
X10825268Y-4771659D01*
X10825068Y-4769103D01*
X10825458Y-4752655D01*
X10825489Y-4751342D01*
X10825670Y-4749495D01*
X10825838Y-4748520D01*
X10829116Y-4729560D01*
X10829566Y-4727759D01*
X10835903Y-4708547D01*
X10836613Y-4706832D01*
X10845705Y-4688760D01*
X10846659Y-4687167D01*
X10847873Y-4685442D01*
X10858307Y-4670627D01*
X10859484Y-4669192D01*
X10873437Y-4654542D01*
X10874812Y-4653296D01*
X10890765Y-4640855D01*
X10892309Y-4639825D01*
X10894596Y-4638531D01*
X10909917Y-4629863D01*
X10911595Y-4629071D01*
X10930476Y-4621804D01*
X10932252Y-4621267D01*
X10939547Y-4619636D01*
X10951996Y-4616853D01*
X10953832Y-4616582D01*
X10959551Y-4616167D01*
X10970534Y-4615370D01*
X10972795Y-4615477D01*
X10972800Y-4615425D01*
X10973285Y-4615469D01*
X10973765Y-4615550D01*
X10974293Y-4615556D01*
X10974319Y-4615560D01*
X10974345Y-4615557D01*
X10975000Y-4615565D01*
X10975482Y-4615496D01*
X10975967Y-4615464D01*
X10975968Y-4615475D01*
X10976302Y-4615445D01*
X11018998Y-4613735D01*
X11062714Y-4608460D01*
X11062961Y-4608410D01*
X11062962Y-4608410D01*
X11105621Y-4599756D01*
X11105622Y-4599756D01*
X11105869Y-4599706D01*
X11106112Y-4599636D01*
X11147943Y-4587599D01*
X11147944Y-4587598D01*
X11148185Y-4587529D01*
X11148419Y-4587441D01*
X11148420Y-4587440D01*
X11189157Y-4572095D01*
X11189158Y-4572095D01*
X11189392Y-4572007D01*
X11229225Y-4553239D01*
X11267430Y-4531347D01*
X11303762Y-4506469D01*
X11337989Y-4478765D01*
X11369890Y-4448413D01*
X11399261Y-4415607D01*
X11425916Y-4380557D01*
X11449682Y-4343488D01*
X11470407Y-4304637D01*
X11487959Y-4264253D01*
X11502226Y-4222595D01*
X11513115Y-4179929D01*
X11513157Y-4179682D01*
X11513158Y-4179681D01*
X11520078Y-4139328D01*
X11520225Y-4138708D01*
X11520203Y-4138703D01*
X11520308Y-4138228D01*
X11520451Y-4137762D01*
X11520626Y-4136538D01*
X11520596Y-4134168D01*
X11520719Y-4132248D01*
X11520925Y-4130790D01*
X11520925Y-4130790D01*
X11521051Y-4129901D01*
X11520808Y-4128226D01*
X11520691Y-4125836D01*
X11521886Y-4099929D01*
X11522047Y-4098423D01*
X11526790Y-4070184D01*
X11527131Y-4068708D01*
X11528384Y-4064455D01*
X11535228Y-4041244D01*
X11535743Y-4039819D01*
X11547079Y-4013524D01*
X11547761Y-4012171D01*
X11562170Y-3987427D01*
X11563010Y-3986166D01*
X11580284Y-3963331D01*
X11581269Y-3962180D01*
X11601160Y-3941581D01*
X11602276Y-3940556D01*
X11624495Y-3922494D01*
X11625724Y-3921612D01*
X11649951Y-3906347D01*
X11651279Y-3905617D01*
X11677161Y-3893370D01*
X11678567Y-3892806D01*
X11692149Y-3888280D01*
X11705732Y-3883753D01*
X11707195Y-3883362D01*
X11721223Y-3880498D01*
X11735250Y-3877635D01*
X11736750Y-3877422D01*
X11759632Y-3875563D01*
X11761898Y-3875379D01*
X11764407Y-3875444D01*
X11764550Y-3875443D01*
X11765440Y-3875563D01*
X11767869Y-3875193D01*
X11769764Y-3875050D01*
X14470126Y-3875050D01*
X14472064Y-3875200D01*
G37*
G04 #@! TD.AperFunction*
M02*
