G04 #@! TF.FileFunction,Copper,L2,Bot,Signal*
%FSLAX46Y46*%
G04 Gerber Fmt 4.6, Leading zero omitted, Abs format (unit mm)*
G04 Created by KiCad (PCBNEW 4.0.6) date 12/13/17 11:39:51*
%MOMM*%
%LPD*%
G01*
G04 APERTURE LIST*
%ADD10C,0.100000*%
%ADD11C,2.200000*%
%ADD12C,2.000000*%
%ADD13R,1.700000X1.700000*%
%ADD14O,1.700000X1.700000*%
%ADD15C,0.750000*%
%ADD16C,0.450000*%
%ADD17C,0.600000*%
%ADD18C,0.500000*%
%ADD19C,0.250000*%
%ADD20C,1.000000*%
%ADD21C,0.254000*%
G04 APERTURE END LIST*
D10*
D11*
X128210000Y-110790000D03*
X128210000Y-105710000D03*
X133290000Y-105710000D03*
X133290000Y-110790000D03*
D12*
X130750000Y-108250000D03*
D13*
X136470000Y-86050000D03*
D14*
X139010000Y-86050000D03*
X141550000Y-86050000D03*
D15*
X138320000Y-109520000D03*
X137050000Y-108250000D03*
X139590000Y-108250000D03*
D16*
X142150000Y-103950000D03*
X139750000Y-100650000D03*
X143850000Y-98850000D03*
X148050000Y-98850000D03*
X148950000Y-107150000D03*
D17*
X141000000Y-114350000D03*
X132150000Y-114350000D03*
X134695000Y-94462500D03*
X133805000Y-93637500D03*
X148150000Y-95050000D03*
X133805000Y-94462500D03*
X134695000Y-93637500D03*
D16*
X145950000Y-102050000D03*
D17*
X133950000Y-97000000D03*
X141750000Y-95150000D03*
D16*
X142750000Y-101200000D03*
X143950000Y-102950000D03*
X138850000Y-93150000D03*
X134950000Y-91650000D03*
X149750000Y-100850000D03*
X146850000Y-104750000D03*
X148850000Y-103950000D03*
X146850000Y-103950000D03*
D18*
X141050000Y-114325000D02*
X141075000Y-114325000D01*
D19*
X141025000Y-114325000D02*
X141050000Y-114325000D01*
X141000000Y-114350000D02*
X141025000Y-114325000D01*
D18*
X132125000Y-114375000D02*
X132150000Y-114350000D01*
D19*
X132150000Y-114350000D02*
X132125000Y-114375000D01*
X132125000Y-114375000D02*
X132125000Y-114400000D01*
D18*
X132125000Y-114400000D02*
X132125000Y-114375000D01*
D20*
X148150000Y-95050000D02*
X148150000Y-93850000D01*
D18*
X143150000Y-95150000D02*
X141750000Y-95150000D01*
X145550000Y-97550000D02*
X143150000Y-95150000D01*
X145550000Y-101650000D02*
X145550000Y-97550000D01*
X145950000Y-102050000D02*
X145550000Y-101650000D01*
D20*
X141750000Y-95150000D02*
X139950000Y-96950000D01*
X134050000Y-96950000D02*
X139950000Y-96950000D01*
X133950000Y-97050000D02*
X134050000Y-96950000D01*
X133950000Y-97050000D02*
X133950000Y-97000000D01*
X141800000Y-95100000D02*
X141750000Y-95150000D01*
D18*
X143950000Y-102400000D02*
X143950000Y-102950000D01*
X142750000Y-101200000D02*
X143950000Y-102400000D01*
D19*
X138850000Y-92450000D02*
X138850000Y-93150000D01*
X138050000Y-91650000D02*
X138850000Y-92450000D01*
X134950000Y-91650000D02*
X138050000Y-91650000D01*
X149750000Y-101050000D02*
X149750000Y-100850000D01*
X150250000Y-101550000D02*
X149750000Y-101050000D01*
X150250000Y-105750000D02*
X150250000Y-101550000D01*
X147850000Y-105750000D02*
X150250000Y-105750000D01*
X146850000Y-104750000D02*
X147850000Y-105750000D01*
X146850000Y-103950000D02*
X148850000Y-103950000D01*
D21*
G36*
X135384683Y-84596838D02*
X135168559Y-84735910D01*
X135023569Y-84948110D01*
X134972560Y-85200000D01*
X134972560Y-86900000D01*
X135016838Y-87135317D01*
X135155910Y-87351441D01*
X135368110Y-87496431D01*
X135620000Y-87547440D01*
X137320000Y-87547440D01*
X137555317Y-87503162D01*
X137771441Y-87364090D01*
X137916431Y-87151890D01*
X137938301Y-87043893D01*
X138243076Y-87321645D01*
X138653110Y-87491476D01*
X138883000Y-87370155D01*
X138883000Y-86177000D01*
X138863000Y-86177000D01*
X138863000Y-85923000D01*
X138883000Y-85923000D01*
X138883000Y-84729845D01*
X138653110Y-84608524D01*
X138243076Y-84778355D01*
X137940063Y-85054501D01*
X137923162Y-84964683D01*
X137784090Y-84748559D01*
X137571890Y-84603569D01*
X137356740Y-84560000D01*
X141428876Y-84560000D01*
X140981715Y-84648946D01*
X140499946Y-84970853D01*
X140272298Y-85311553D01*
X140205183Y-85168642D01*
X139776924Y-84778355D01*
X139366890Y-84608524D01*
X139137000Y-84729845D01*
X139137000Y-85923000D01*
X139157000Y-85923000D01*
X139157000Y-86177000D01*
X139137000Y-86177000D01*
X139137000Y-87370155D01*
X139366890Y-87491476D01*
X139776924Y-87321645D01*
X140205183Y-86931358D01*
X140272298Y-86788447D01*
X140499946Y-87129147D01*
X140981715Y-87451054D01*
X141550000Y-87564093D01*
X142118285Y-87451054D01*
X142392082Y-87268109D01*
X146339657Y-87268109D01*
X146641218Y-87997943D01*
X147199120Y-88556819D01*
X147928427Y-88859654D01*
X148718109Y-88860343D01*
X149447943Y-88558782D01*
X150006819Y-88000880D01*
X150309654Y-87271573D01*
X150310343Y-86481891D01*
X150008782Y-85752057D01*
X149450880Y-85193181D01*
X148721573Y-84890346D01*
X147931891Y-84889657D01*
X147202057Y-85191218D01*
X146643181Y-85749120D01*
X146340346Y-86478427D01*
X146339657Y-87268109D01*
X142392082Y-87268109D01*
X142600054Y-87129147D01*
X142921961Y-86647378D01*
X143035000Y-86079093D01*
X143035000Y-86020907D01*
X142921961Y-85452622D01*
X142600054Y-84970853D01*
X142118285Y-84648946D01*
X141671124Y-84560000D01*
X150640000Y-84560000D01*
X150640000Y-100865198D01*
X150610013Y-100835211D01*
X150610149Y-100679686D01*
X150479497Y-100363486D01*
X150237787Y-100121353D01*
X149921815Y-99990150D01*
X149579686Y-99989851D01*
X149263486Y-100120503D01*
X149021353Y-100362213D01*
X148890150Y-100678185D01*
X148889851Y-101020314D01*
X149020503Y-101336514D01*
X149094475Y-101410615D01*
X149212599Y-101587401D01*
X149490000Y-101864802D01*
X149490000Y-103373832D01*
X149337787Y-103221353D01*
X149021815Y-103090150D01*
X148679686Y-103089851D01*
X148437308Y-103190000D01*
X147262281Y-103190000D01*
X147021815Y-103090150D01*
X146679686Y-103089851D01*
X146363486Y-103220503D01*
X146121353Y-103462213D01*
X145990150Y-103778185D01*
X145989851Y-104120314D01*
X146084828Y-104350175D01*
X145990150Y-104578185D01*
X145989851Y-104920314D01*
X146120503Y-105236514D01*
X146362213Y-105478647D01*
X146604417Y-105579219D01*
X147312599Y-106287401D01*
X147559161Y-106452148D01*
X147850000Y-106510000D01*
X150250000Y-106510000D01*
X150540839Y-106452148D01*
X150640000Y-106385891D01*
X150640000Y-118540000D01*
X126060000Y-118540000D01*
X126060000Y-116593109D01*
X126389657Y-116593109D01*
X126691218Y-117322943D01*
X127249120Y-117881819D01*
X127978427Y-118184654D01*
X128768109Y-118185343D01*
X129497943Y-117883782D01*
X130056819Y-117325880D01*
X130350711Y-116618109D01*
X146314657Y-116618109D01*
X146616218Y-117347943D01*
X147174120Y-117906819D01*
X147903427Y-118209654D01*
X148693109Y-118210343D01*
X149422943Y-117908782D01*
X149981819Y-117350880D01*
X150284654Y-116621573D01*
X150285343Y-115831891D01*
X149983782Y-115102057D01*
X149425880Y-114543181D01*
X148696573Y-114240346D01*
X147906891Y-114239657D01*
X147177057Y-114541218D01*
X146618181Y-115099120D01*
X146315346Y-115828427D01*
X146314657Y-116618109D01*
X130350711Y-116618109D01*
X130359654Y-116596573D01*
X130360343Y-115806891D01*
X130058782Y-115077057D01*
X129500880Y-114518181D01*
X128771573Y-114215346D01*
X127981891Y-114214657D01*
X127252057Y-114516218D01*
X126693181Y-115074120D01*
X126390346Y-115803427D01*
X126389657Y-116593109D01*
X126060000Y-116593109D01*
X126060000Y-112014868D01*
X127164737Y-112014868D01*
X127275641Y-112292099D01*
X127921593Y-112535323D01*
X128611453Y-112512836D01*
X129144359Y-112292099D01*
X129255263Y-112014868D01*
X132244737Y-112014868D01*
X132355641Y-112292099D01*
X133001593Y-112535323D01*
X133691453Y-112512836D01*
X134224359Y-112292099D01*
X134335263Y-112014868D01*
X133290000Y-110969605D01*
X132244737Y-112014868D01*
X129255263Y-112014868D01*
X128210000Y-110969605D01*
X127164737Y-112014868D01*
X126060000Y-112014868D01*
X126060000Y-110501593D01*
X126464677Y-110501593D01*
X126487164Y-111191453D01*
X126707901Y-111724359D01*
X126985132Y-111835263D01*
X128030395Y-110790000D01*
X128389605Y-110790000D01*
X129434868Y-111835263D01*
X129712099Y-111724359D01*
X129955323Y-111078407D01*
X129936521Y-110501593D01*
X131544677Y-110501593D01*
X131567164Y-111191453D01*
X131787901Y-111724359D01*
X132065132Y-111835263D01*
X133110395Y-110790000D01*
X133469605Y-110790000D01*
X134514868Y-111835263D01*
X134792099Y-111724359D01*
X135035323Y-111078407D01*
X135012836Y-110388547D01*
X134942665Y-110219137D01*
X137800468Y-110219137D01*
X137822072Y-110421404D01*
X138204927Y-110543338D01*
X138605301Y-110509477D01*
X138817928Y-110421404D01*
X138839532Y-110219137D01*
X138320000Y-109699605D01*
X137800468Y-110219137D01*
X134942665Y-110219137D01*
X134792099Y-109855641D01*
X134514868Y-109744737D01*
X133469605Y-110790000D01*
X133110395Y-110790000D01*
X132065132Y-109744737D01*
X131787901Y-109855641D01*
X131544677Y-110501593D01*
X129936521Y-110501593D01*
X129932836Y-110388547D01*
X129712099Y-109855641D01*
X129434868Y-109744737D01*
X128389605Y-110790000D01*
X128030395Y-110790000D01*
X126985132Y-109744737D01*
X126707901Y-109855641D01*
X126464677Y-110501593D01*
X126060000Y-110501593D01*
X126060000Y-109565132D01*
X127164737Y-109565132D01*
X128210000Y-110610395D01*
X129255263Y-109565132D01*
X129144359Y-109287901D01*
X128498407Y-109044677D01*
X127808547Y-109067164D01*
X127275641Y-109287901D01*
X127164737Y-109565132D01*
X126060000Y-109565132D01*
X126060000Y-108573795D01*
X129114716Y-108573795D01*
X129363106Y-109174943D01*
X129822637Y-109635278D01*
X130423352Y-109884716D01*
X131073795Y-109885284D01*
X131674943Y-109636894D01*
X131746830Y-109565132D01*
X132244737Y-109565132D01*
X133290000Y-110610395D01*
X134335263Y-109565132D01*
X134224359Y-109287901D01*
X133578407Y-109044677D01*
X132888547Y-109067164D01*
X132355641Y-109287901D01*
X132244737Y-109565132D01*
X131746830Y-109565132D01*
X132135278Y-109177363D01*
X132384716Y-108576648D01*
X132384826Y-108450020D01*
X136039825Y-108450020D01*
X136193264Y-108821372D01*
X136477134Y-109105737D01*
X136848217Y-109259824D01*
X137250020Y-109260175D01*
X137356818Y-109216047D01*
X137296662Y-109404927D01*
X137330523Y-109805301D01*
X137418596Y-110017928D01*
X137620863Y-110039532D01*
X138140395Y-109520000D01*
X138126253Y-109505858D01*
X138305858Y-109326253D01*
X138320000Y-109340395D01*
X138334143Y-109326253D01*
X138513748Y-109505858D01*
X138499605Y-109520000D01*
X139019137Y-110039532D01*
X139221404Y-110017928D01*
X139343338Y-109635073D01*
X139309477Y-109234699D01*
X139305690Y-109225556D01*
X139388217Y-109259824D01*
X139790020Y-109260175D01*
X140161372Y-109106736D01*
X140445737Y-108822866D01*
X140599824Y-108451783D01*
X140600175Y-108049980D01*
X140446736Y-107678628D01*
X140162866Y-107394263D01*
X139791783Y-107240176D01*
X139389980Y-107239825D01*
X139018628Y-107393264D01*
X138734263Y-107677134D01*
X138580176Y-108048217D01*
X138579825Y-108450020D01*
X138623953Y-108556818D01*
X138435073Y-108496662D01*
X138034699Y-108530523D01*
X138025556Y-108534310D01*
X138059824Y-108451783D01*
X138060175Y-108049980D01*
X137906736Y-107678628D01*
X137622866Y-107394263D01*
X137251783Y-107240176D01*
X136849980Y-107239825D01*
X136478628Y-107393264D01*
X136194263Y-107677134D01*
X136040176Y-108048217D01*
X136039825Y-108450020D01*
X132384826Y-108450020D01*
X132385284Y-107926205D01*
X132136894Y-107325057D01*
X131747387Y-106934868D01*
X132244737Y-106934868D01*
X132355641Y-107212099D01*
X133001593Y-107455323D01*
X133691453Y-107432836D01*
X134224359Y-107212099D01*
X134335263Y-106934868D01*
X133290000Y-105889605D01*
X132244737Y-106934868D01*
X131747387Y-106934868D01*
X131677363Y-106864722D01*
X131076648Y-106615284D01*
X130426205Y-106614716D01*
X129825057Y-106863106D01*
X129364722Y-107322637D01*
X129115284Y-107923352D01*
X129114716Y-108573795D01*
X126060000Y-108573795D01*
X126060000Y-106934868D01*
X127164737Y-106934868D01*
X127275641Y-107212099D01*
X127921593Y-107455323D01*
X128611453Y-107432836D01*
X129144359Y-107212099D01*
X129255263Y-106934868D01*
X128210000Y-105889605D01*
X127164737Y-106934868D01*
X126060000Y-106934868D01*
X126060000Y-105421593D01*
X126464677Y-105421593D01*
X126487164Y-106111453D01*
X126707901Y-106644359D01*
X126985132Y-106755263D01*
X128030395Y-105710000D01*
X128389605Y-105710000D01*
X129434868Y-106755263D01*
X129712099Y-106644359D01*
X129955323Y-105998407D01*
X129936521Y-105421593D01*
X131544677Y-105421593D01*
X131567164Y-106111453D01*
X131787901Y-106644359D01*
X132065132Y-106755263D01*
X133110395Y-105710000D01*
X133469605Y-105710000D01*
X134514868Y-106755263D01*
X134792099Y-106644359D01*
X135035323Y-105998407D01*
X135012836Y-105308547D01*
X134792099Y-104775641D01*
X134514868Y-104664737D01*
X133469605Y-105710000D01*
X133110395Y-105710000D01*
X132065132Y-104664737D01*
X131787901Y-104775641D01*
X131544677Y-105421593D01*
X129936521Y-105421593D01*
X129932836Y-105308547D01*
X129712099Y-104775641D01*
X129434868Y-104664737D01*
X128389605Y-105710000D01*
X128030395Y-105710000D01*
X126985132Y-104664737D01*
X126707901Y-104775641D01*
X126464677Y-105421593D01*
X126060000Y-105421593D01*
X126060000Y-104485132D01*
X127164737Y-104485132D01*
X128210000Y-105530395D01*
X129255263Y-104485132D01*
X132244737Y-104485132D01*
X133290000Y-105530395D01*
X134335263Y-104485132D01*
X134224359Y-104207901D01*
X133578407Y-103964677D01*
X132888547Y-103987164D01*
X132355641Y-104207901D01*
X132244737Y-104485132D01*
X129255263Y-104485132D01*
X129144359Y-104207901D01*
X128498407Y-103964677D01*
X127808547Y-103987164D01*
X127275641Y-104207901D01*
X127164737Y-104485132D01*
X126060000Y-104485132D01*
X126060000Y-101200000D01*
X141864999Y-101200000D01*
X141889890Y-101325135D01*
X141889851Y-101370314D01*
X141907257Y-101412439D01*
X141932367Y-101538674D01*
X142003250Y-101644759D01*
X142020503Y-101686514D01*
X142052701Y-101718769D01*
X142124210Y-101825790D01*
X143065000Y-102766579D01*
X143065000Y-102950000D01*
X143089890Y-103075132D01*
X143089851Y-103120314D01*
X143107257Y-103162440D01*
X143132367Y-103288675D01*
X143203251Y-103394761D01*
X143220503Y-103436514D01*
X143252700Y-103468768D01*
X143324210Y-103575790D01*
X143430296Y-103646674D01*
X143462213Y-103678647D01*
X143504306Y-103696125D01*
X143611325Y-103767633D01*
X143736459Y-103792524D01*
X143778185Y-103809850D01*
X143823763Y-103809890D01*
X143950000Y-103835000D01*
X144075132Y-103810110D01*
X144120314Y-103810149D01*
X144162440Y-103792743D01*
X144288675Y-103767633D01*
X144394761Y-103696749D01*
X144436514Y-103679497D01*
X144468768Y-103647300D01*
X144575790Y-103575790D01*
X144646674Y-103469704D01*
X144678647Y-103437787D01*
X144696125Y-103395694D01*
X144767633Y-103288675D01*
X144792524Y-103163541D01*
X144809850Y-103121815D01*
X144809890Y-103076237D01*
X144835000Y-102950000D01*
X144835000Y-102400005D01*
X144835001Y-102400000D01*
X144767633Y-102061325D01*
X144719089Y-101988674D01*
X144575790Y-101774210D01*
X144575787Y-101774208D01*
X143375790Y-100574210D01*
X143269705Y-100503327D01*
X143237787Y-100471353D01*
X143195693Y-100453874D01*
X143088674Y-100382367D01*
X142963540Y-100357476D01*
X142921815Y-100340150D01*
X142876239Y-100340110D01*
X142750000Y-100314999D01*
X142624865Y-100339890D01*
X142579686Y-100339851D01*
X142537561Y-100357257D01*
X142411326Y-100382367D01*
X142305241Y-100453250D01*
X142263486Y-100470503D01*
X142231231Y-100502701D01*
X142124210Y-100574210D01*
X142053327Y-100680295D01*
X142021353Y-100712213D01*
X142003874Y-100754307D01*
X141932367Y-100861326D01*
X141907476Y-100986460D01*
X141890150Y-101028185D01*
X141890110Y-101073761D01*
X141864999Y-101200000D01*
X126060000Y-101200000D01*
X126060000Y-97000000D01*
X132815000Y-97000000D01*
X132815000Y-97050000D01*
X132901397Y-97484346D01*
X133147434Y-97852566D01*
X133515654Y-98098603D01*
X133950000Y-98185000D01*
X134384346Y-98098603D01*
X134404704Y-98085000D01*
X139950000Y-98085000D01*
X140384346Y-97998603D01*
X140752566Y-97752566D01*
X142470132Y-96035000D01*
X142783420Y-96035000D01*
X144665000Y-97916579D01*
X144665000Y-101649995D01*
X144664999Y-101650000D01*
X144720427Y-101928647D01*
X144732367Y-101988675D01*
X144800170Y-102090150D01*
X144924210Y-102275790D01*
X145324210Y-102675789D01*
X145430294Y-102746672D01*
X145462213Y-102778647D01*
X145504307Y-102796126D01*
X145611325Y-102867633D01*
X145736459Y-102892524D01*
X145778185Y-102909850D01*
X145823763Y-102909890D01*
X145950000Y-102935000D01*
X146075132Y-102910110D01*
X146120314Y-102910149D01*
X146162440Y-102892743D01*
X146288674Y-102867633D01*
X146394757Y-102796751D01*
X146436514Y-102779497D01*
X146468772Y-102747296D01*
X146575789Y-102675789D01*
X146646670Y-102569708D01*
X146678647Y-102537787D01*
X146696127Y-102495690D01*
X146767633Y-102388674D01*
X146792524Y-102263542D01*
X146809850Y-102221815D01*
X146809890Y-102176236D01*
X146835000Y-102050000D01*
X146810110Y-101924868D01*
X146810149Y-101879686D01*
X146792743Y-101837560D01*
X146767633Y-101711325D01*
X146696750Y-101605241D01*
X146679497Y-101563486D01*
X146647298Y-101531230D01*
X146575789Y-101424210D01*
X146435000Y-101283421D01*
X146435000Y-97550005D01*
X146435001Y-97550000D01*
X146367634Y-97211326D01*
X146303975Y-97116054D01*
X146175790Y-96924210D01*
X146175787Y-96924208D01*
X143775790Y-94524210D01*
X143526750Y-94357808D01*
X143488675Y-94332367D01*
X143432484Y-94321190D01*
X143150000Y-94264999D01*
X143149995Y-94265000D01*
X142554025Y-94265000D01*
X142234346Y-94051396D01*
X141800000Y-93965000D01*
X141365655Y-94051396D01*
X140997434Y-94297434D01*
X139479868Y-95815000D01*
X134050000Y-95815000D01*
X133615654Y-95901397D01*
X133551493Y-95944268D01*
X133515654Y-95951397D01*
X133147434Y-96197434D01*
X132901397Y-96565654D01*
X132815000Y-97000000D01*
X126060000Y-97000000D01*
X126060000Y-91820314D01*
X134089851Y-91820314D01*
X134220503Y-92136514D01*
X134462213Y-92378647D01*
X134778185Y-92509850D01*
X135120314Y-92510149D01*
X135362692Y-92410000D01*
X137735198Y-92410000D01*
X138082054Y-92756856D01*
X137990150Y-92978185D01*
X137989851Y-93320314D01*
X138120503Y-93636514D01*
X138362213Y-93878647D01*
X138678185Y-94009850D01*
X139020314Y-94010149D01*
X139336514Y-93879497D01*
X139578647Y-93637787D01*
X139709850Y-93321815D01*
X139710149Y-92979686D01*
X139610000Y-92737308D01*
X139610000Y-92450000D01*
X139552148Y-92159161D01*
X139387401Y-91912599D01*
X138587401Y-91112599D01*
X138340839Y-90947852D01*
X138050000Y-90890000D01*
X135362281Y-90890000D01*
X135121815Y-90790150D01*
X134779686Y-90789851D01*
X134463486Y-90920503D01*
X134221353Y-91162213D01*
X134090150Y-91478185D01*
X134089851Y-91820314D01*
X126060000Y-91820314D01*
X126060000Y-87268109D01*
X126414657Y-87268109D01*
X126716218Y-87997943D01*
X127274120Y-88556819D01*
X128003427Y-88859654D01*
X128793109Y-88860343D01*
X129522943Y-88558782D01*
X130081819Y-88000880D01*
X130384654Y-87271573D01*
X130385343Y-86481891D01*
X130083782Y-85752057D01*
X129525880Y-85193181D01*
X128796573Y-84890346D01*
X128006891Y-84889657D01*
X127277057Y-85191218D01*
X126718181Y-85749120D01*
X126415346Y-86478427D01*
X126414657Y-87268109D01*
X126060000Y-87268109D01*
X126060000Y-84560000D01*
X135580460Y-84560000D01*
X135384683Y-84596838D01*
X135384683Y-84596838D01*
G37*
X135384683Y-84596838D02*
X135168559Y-84735910D01*
X135023569Y-84948110D01*
X134972560Y-85200000D01*
X134972560Y-86900000D01*
X135016838Y-87135317D01*
X135155910Y-87351441D01*
X135368110Y-87496431D01*
X135620000Y-87547440D01*
X137320000Y-87547440D01*
X137555317Y-87503162D01*
X137771441Y-87364090D01*
X137916431Y-87151890D01*
X137938301Y-87043893D01*
X138243076Y-87321645D01*
X138653110Y-87491476D01*
X138883000Y-87370155D01*
X138883000Y-86177000D01*
X138863000Y-86177000D01*
X138863000Y-85923000D01*
X138883000Y-85923000D01*
X138883000Y-84729845D01*
X138653110Y-84608524D01*
X138243076Y-84778355D01*
X137940063Y-85054501D01*
X137923162Y-84964683D01*
X137784090Y-84748559D01*
X137571890Y-84603569D01*
X137356740Y-84560000D01*
X141428876Y-84560000D01*
X140981715Y-84648946D01*
X140499946Y-84970853D01*
X140272298Y-85311553D01*
X140205183Y-85168642D01*
X139776924Y-84778355D01*
X139366890Y-84608524D01*
X139137000Y-84729845D01*
X139137000Y-85923000D01*
X139157000Y-85923000D01*
X139157000Y-86177000D01*
X139137000Y-86177000D01*
X139137000Y-87370155D01*
X139366890Y-87491476D01*
X139776924Y-87321645D01*
X140205183Y-86931358D01*
X140272298Y-86788447D01*
X140499946Y-87129147D01*
X140981715Y-87451054D01*
X141550000Y-87564093D01*
X142118285Y-87451054D01*
X142392082Y-87268109D01*
X146339657Y-87268109D01*
X146641218Y-87997943D01*
X147199120Y-88556819D01*
X147928427Y-88859654D01*
X148718109Y-88860343D01*
X149447943Y-88558782D01*
X150006819Y-88000880D01*
X150309654Y-87271573D01*
X150310343Y-86481891D01*
X150008782Y-85752057D01*
X149450880Y-85193181D01*
X148721573Y-84890346D01*
X147931891Y-84889657D01*
X147202057Y-85191218D01*
X146643181Y-85749120D01*
X146340346Y-86478427D01*
X146339657Y-87268109D01*
X142392082Y-87268109D01*
X142600054Y-87129147D01*
X142921961Y-86647378D01*
X143035000Y-86079093D01*
X143035000Y-86020907D01*
X142921961Y-85452622D01*
X142600054Y-84970853D01*
X142118285Y-84648946D01*
X141671124Y-84560000D01*
X150640000Y-84560000D01*
X150640000Y-100865198D01*
X150610013Y-100835211D01*
X150610149Y-100679686D01*
X150479497Y-100363486D01*
X150237787Y-100121353D01*
X149921815Y-99990150D01*
X149579686Y-99989851D01*
X149263486Y-100120503D01*
X149021353Y-100362213D01*
X148890150Y-100678185D01*
X148889851Y-101020314D01*
X149020503Y-101336514D01*
X149094475Y-101410615D01*
X149212599Y-101587401D01*
X149490000Y-101864802D01*
X149490000Y-103373832D01*
X149337787Y-103221353D01*
X149021815Y-103090150D01*
X148679686Y-103089851D01*
X148437308Y-103190000D01*
X147262281Y-103190000D01*
X147021815Y-103090150D01*
X146679686Y-103089851D01*
X146363486Y-103220503D01*
X146121353Y-103462213D01*
X145990150Y-103778185D01*
X145989851Y-104120314D01*
X146084828Y-104350175D01*
X145990150Y-104578185D01*
X145989851Y-104920314D01*
X146120503Y-105236514D01*
X146362213Y-105478647D01*
X146604417Y-105579219D01*
X147312599Y-106287401D01*
X147559161Y-106452148D01*
X147850000Y-106510000D01*
X150250000Y-106510000D01*
X150540839Y-106452148D01*
X150640000Y-106385891D01*
X150640000Y-118540000D01*
X126060000Y-118540000D01*
X126060000Y-116593109D01*
X126389657Y-116593109D01*
X126691218Y-117322943D01*
X127249120Y-117881819D01*
X127978427Y-118184654D01*
X128768109Y-118185343D01*
X129497943Y-117883782D01*
X130056819Y-117325880D01*
X130350711Y-116618109D01*
X146314657Y-116618109D01*
X146616218Y-117347943D01*
X147174120Y-117906819D01*
X147903427Y-118209654D01*
X148693109Y-118210343D01*
X149422943Y-117908782D01*
X149981819Y-117350880D01*
X150284654Y-116621573D01*
X150285343Y-115831891D01*
X149983782Y-115102057D01*
X149425880Y-114543181D01*
X148696573Y-114240346D01*
X147906891Y-114239657D01*
X147177057Y-114541218D01*
X146618181Y-115099120D01*
X146315346Y-115828427D01*
X146314657Y-116618109D01*
X130350711Y-116618109D01*
X130359654Y-116596573D01*
X130360343Y-115806891D01*
X130058782Y-115077057D01*
X129500880Y-114518181D01*
X128771573Y-114215346D01*
X127981891Y-114214657D01*
X127252057Y-114516218D01*
X126693181Y-115074120D01*
X126390346Y-115803427D01*
X126389657Y-116593109D01*
X126060000Y-116593109D01*
X126060000Y-112014868D01*
X127164737Y-112014868D01*
X127275641Y-112292099D01*
X127921593Y-112535323D01*
X128611453Y-112512836D01*
X129144359Y-112292099D01*
X129255263Y-112014868D01*
X132244737Y-112014868D01*
X132355641Y-112292099D01*
X133001593Y-112535323D01*
X133691453Y-112512836D01*
X134224359Y-112292099D01*
X134335263Y-112014868D01*
X133290000Y-110969605D01*
X132244737Y-112014868D01*
X129255263Y-112014868D01*
X128210000Y-110969605D01*
X127164737Y-112014868D01*
X126060000Y-112014868D01*
X126060000Y-110501593D01*
X126464677Y-110501593D01*
X126487164Y-111191453D01*
X126707901Y-111724359D01*
X126985132Y-111835263D01*
X128030395Y-110790000D01*
X128389605Y-110790000D01*
X129434868Y-111835263D01*
X129712099Y-111724359D01*
X129955323Y-111078407D01*
X129936521Y-110501593D01*
X131544677Y-110501593D01*
X131567164Y-111191453D01*
X131787901Y-111724359D01*
X132065132Y-111835263D01*
X133110395Y-110790000D01*
X133469605Y-110790000D01*
X134514868Y-111835263D01*
X134792099Y-111724359D01*
X135035323Y-111078407D01*
X135012836Y-110388547D01*
X134942665Y-110219137D01*
X137800468Y-110219137D01*
X137822072Y-110421404D01*
X138204927Y-110543338D01*
X138605301Y-110509477D01*
X138817928Y-110421404D01*
X138839532Y-110219137D01*
X138320000Y-109699605D01*
X137800468Y-110219137D01*
X134942665Y-110219137D01*
X134792099Y-109855641D01*
X134514868Y-109744737D01*
X133469605Y-110790000D01*
X133110395Y-110790000D01*
X132065132Y-109744737D01*
X131787901Y-109855641D01*
X131544677Y-110501593D01*
X129936521Y-110501593D01*
X129932836Y-110388547D01*
X129712099Y-109855641D01*
X129434868Y-109744737D01*
X128389605Y-110790000D01*
X128030395Y-110790000D01*
X126985132Y-109744737D01*
X126707901Y-109855641D01*
X126464677Y-110501593D01*
X126060000Y-110501593D01*
X126060000Y-109565132D01*
X127164737Y-109565132D01*
X128210000Y-110610395D01*
X129255263Y-109565132D01*
X129144359Y-109287901D01*
X128498407Y-109044677D01*
X127808547Y-109067164D01*
X127275641Y-109287901D01*
X127164737Y-109565132D01*
X126060000Y-109565132D01*
X126060000Y-108573795D01*
X129114716Y-108573795D01*
X129363106Y-109174943D01*
X129822637Y-109635278D01*
X130423352Y-109884716D01*
X131073795Y-109885284D01*
X131674943Y-109636894D01*
X131746830Y-109565132D01*
X132244737Y-109565132D01*
X133290000Y-110610395D01*
X134335263Y-109565132D01*
X134224359Y-109287901D01*
X133578407Y-109044677D01*
X132888547Y-109067164D01*
X132355641Y-109287901D01*
X132244737Y-109565132D01*
X131746830Y-109565132D01*
X132135278Y-109177363D01*
X132384716Y-108576648D01*
X132384826Y-108450020D01*
X136039825Y-108450020D01*
X136193264Y-108821372D01*
X136477134Y-109105737D01*
X136848217Y-109259824D01*
X137250020Y-109260175D01*
X137356818Y-109216047D01*
X137296662Y-109404927D01*
X137330523Y-109805301D01*
X137418596Y-110017928D01*
X137620863Y-110039532D01*
X138140395Y-109520000D01*
X138126253Y-109505858D01*
X138305858Y-109326253D01*
X138320000Y-109340395D01*
X138334143Y-109326253D01*
X138513748Y-109505858D01*
X138499605Y-109520000D01*
X139019137Y-110039532D01*
X139221404Y-110017928D01*
X139343338Y-109635073D01*
X139309477Y-109234699D01*
X139305690Y-109225556D01*
X139388217Y-109259824D01*
X139790020Y-109260175D01*
X140161372Y-109106736D01*
X140445737Y-108822866D01*
X140599824Y-108451783D01*
X140600175Y-108049980D01*
X140446736Y-107678628D01*
X140162866Y-107394263D01*
X139791783Y-107240176D01*
X139389980Y-107239825D01*
X139018628Y-107393264D01*
X138734263Y-107677134D01*
X138580176Y-108048217D01*
X138579825Y-108450020D01*
X138623953Y-108556818D01*
X138435073Y-108496662D01*
X138034699Y-108530523D01*
X138025556Y-108534310D01*
X138059824Y-108451783D01*
X138060175Y-108049980D01*
X137906736Y-107678628D01*
X137622866Y-107394263D01*
X137251783Y-107240176D01*
X136849980Y-107239825D01*
X136478628Y-107393264D01*
X136194263Y-107677134D01*
X136040176Y-108048217D01*
X136039825Y-108450020D01*
X132384826Y-108450020D01*
X132385284Y-107926205D01*
X132136894Y-107325057D01*
X131747387Y-106934868D01*
X132244737Y-106934868D01*
X132355641Y-107212099D01*
X133001593Y-107455323D01*
X133691453Y-107432836D01*
X134224359Y-107212099D01*
X134335263Y-106934868D01*
X133290000Y-105889605D01*
X132244737Y-106934868D01*
X131747387Y-106934868D01*
X131677363Y-106864722D01*
X131076648Y-106615284D01*
X130426205Y-106614716D01*
X129825057Y-106863106D01*
X129364722Y-107322637D01*
X129115284Y-107923352D01*
X129114716Y-108573795D01*
X126060000Y-108573795D01*
X126060000Y-106934868D01*
X127164737Y-106934868D01*
X127275641Y-107212099D01*
X127921593Y-107455323D01*
X128611453Y-107432836D01*
X129144359Y-107212099D01*
X129255263Y-106934868D01*
X128210000Y-105889605D01*
X127164737Y-106934868D01*
X126060000Y-106934868D01*
X126060000Y-105421593D01*
X126464677Y-105421593D01*
X126487164Y-106111453D01*
X126707901Y-106644359D01*
X126985132Y-106755263D01*
X128030395Y-105710000D01*
X128389605Y-105710000D01*
X129434868Y-106755263D01*
X129712099Y-106644359D01*
X129955323Y-105998407D01*
X129936521Y-105421593D01*
X131544677Y-105421593D01*
X131567164Y-106111453D01*
X131787901Y-106644359D01*
X132065132Y-106755263D01*
X133110395Y-105710000D01*
X133469605Y-105710000D01*
X134514868Y-106755263D01*
X134792099Y-106644359D01*
X135035323Y-105998407D01*
X135012836Y-105308547D01*
X134792099Y-104775641D01*
X134514868Y-104664737D01*
X133469605Y-105710000D01*
X133110395Y-105710000D01*
X132065132Y-104664737D01*
X131787901Y-104775641D01*
X131544677Y-105421593D01*
X129936521Y-105421593D01*
X129932836Y-105308547D01*
X129712099Y-104775641D01*
X129434868Y-104664737D01*
X128389605Y-105710000D01*
X128030395Y-105710000D01*
X126985132Y-104664737D01*
X126707901Y-104775641D01*
X126464677Y-105421593D01*
X126060000Y-105421593D01*
X126060000Y-104485132D01*
X127164737Y-104485132D01*
X128210000Y-105530395D01*
X129255263Y-104485132D01*
X132244737Y-104485132D01*
X133290000Y-105530395D01*
X134335263Y-104485132D01*
X134224359Y-104207901D01*
X133578407Y-103964677D01*
X132888547Y-103987164D01*
X132355641Y-104207901D01*
X132244737Y-104485132D01*
X129255263Y-104485132D01*
X129144359Y-104207901D01*
X128498407Y-103964677D01*
X127808547Y-103987164D01*
X127275641Y-104207901D01*
X127164737Y-104485132D01*
X126060000Y-104485132D01*
X126060000Y-101200000D01*
X141864999Y-101200000D01*
X141889890Y-101325135D01*
X141889851Y-101370314D01*
X141907257Y-101412439D01*
X141932367Y-101538674D01*
X142003250Y-101644759D01*
X142020503Y-101686514D01*
X142052701Y-101718769D01*
X142124210Y-101825790D01*
X143065000Y-102766579D01*
X143065000Y-102950000D01*
X143089890Y-103075132D01*
X143089851Y-103120314D01*
X143107257Y-103162440D01*
X143132367Y-103288675D01*
X143203251Y-103394761D01*
X143220503Y-103436514D01*
X143252700Y-103468768D01*
X143324210Y-103575790D01*
X143430296Y-103646674D01*
X143462213Y-103678647D01*
X143504306Y-103696125D01*
X143611325Y-103767633D01*
X143736459Y-103792524D01*
X143778185Y-103809850D01*
X143823763Y-103809890D01*
X143950000Y-103835000D01*
X144075132Y-103810110D01*
X144120314Y-103810149D01*
X144162440Y-103792743D01*
X144288675Y-103767633D01*
X144394761Y-103696749D01*
X144436514Y-103679497D01*
X144468768Y-103647300D01*
X144575790Y-103575790D01*
X144646674Y-103469704D01*
X144678647Y-103437787D01*
X144696125Y-103395694D01*
X144767633Y-103288675D01*
X144792524Y-103163541D01*
X144809850Y-103121815D01*
X144809890Y-103076237D01*
X144835000Y-102950000D01*
X144835000Y-102400005D01*
X144835001Y-102400000D01*
X144767633Y-102061325D01*
X144719089Y-101988674D01*
X144575790Y-101774210D01*
X144575787Y-101774208D01*
X143375790Y-100574210D01*
X143269705Y-100503327D01*
X143237787Y-100471353D01*
X143195693Y-100453874D01*
X143088674Y-100382367D01*
X142963540Y-100357476D01*
X142921815Y-100340150D01*
X142876239Y-100340110D01*
X142750000Y-100314999D01*
X142624865Y-100339890D01*
X142579686Y-100339851D01*
X142537561Y-100357257D01*
X142411326Y-100382367D01*
X142305241Y-100453250D01*
X142263486Y-100470503D01*
X142231231Y-100502701D01*
X142124210Y-100574210D01*
X142053327Y-100680295D01*
X142021353Y-100712213D01*
X142003874Y-100754307D01*
X141932367Y-100861326D01*
X141907476Y-100986460D01*
X141890150Y-101028185D01*
X141890110Y-101073761D01*
X141864999Y-101200000D01*
X126060000Y-101200000D01*
X126060000Y-97000000D01*
X132815000Y-97000000D01*
X132815000Y-97050000D01*
X132901397Y-97484346D01*
X133147434Y-97852566D01*
X133515654Y-98098603D01*
X133950000Y-98185000D01*
X134384346Y-98098603D01*
X134404704Y-98085000D01*
X139950000Y-98085000D01*
X140384346Y-97998603D01*
X140752566Y-97752566D01*
X142470132Y-96035000D01*
X142783420Y-96035000D01*
X144665000Y-97916579D01*
X144665000Y-101649995D01*
X144664999Y-101650000D01*
X144720427Y-101928647D01*
X144732367Y-101988675D01*
X144800170Y-102090150D01*
X144924210Y-102275790D01*
X145324210Y-102675789D01*
X145430294Y-102746672D01*
X145462213Y-102778647D01*
X145504307Y-102796126D01*
X145611325Y-102867633D01*
X145736459Y-102892524D01*
X145778185Y-102909850D01*
X145823763Y-102909890D01*
X145950000Y-102935000D01*
X146075132Y-102910110D01*
X146120314Y-102910149D01*
X146162440Y-102892743D01*
X146288674Y-102867633D01*
X146394757Y-102796751D01*
X146436514Y-102779497D01*
X146468772Y-102747296D01*
X146575789Y-102675789D01*
X146646670Y-102569708D01*
X146678647Y-102537787D01*
X146696127Y-102495690D01*
X146767633Y-102388674D01*
X146792524Y-102263542D01*
X146809850Y-102221815D01*
X146809890Y-102176236D01*
X146835000Y-102050000D01*
X146810110Y-101924868D01*
X146810149Y-101879686D01*
X146792743Y-101837560D01*
X146767633Y-101711325D01*
X146696750Y-101605241D01*
X146679497Y-101563486D01*
X146647298Y-101531230D01*
X146575789Y-101424210D01*
X146435000Y-101283421D01*
X146435000Y-97550005D01*
X146435001Y-97550000D01*
X146367634Y-97211326D01*
X146303975Y-97116054D01*
X146175790Y-96924210D01*
X146175787Y-96924208D01*
X143775790Y-94524210D01*
X143526750Y-94357808D01*
X143488675Y-94332367D01*
X143432484Y-94321190D01*
X143150000Y-94264999D01*
X143149995Y-94265000D01*
X142554025Y-94265000D01*
X142234346Y-94051396D01*
X141800000Y-93965000D01*
X141365655Y-94051396D01*
X140997434Y-94297434D01*
X139479868Y-95815000D01*
X134050000Y-95815000D01*
X133615654Y-95901397D01*
X133551493Y-95944268D01*
X133515654Y-95951397D01*
X133147434Y-96197434D01*
X132901397Y-96565654D01*
X132815000Y-97000000D01*
X126060000Y-97000000D01*
X126060000Y-91820314D01*
X134089851Y-91820314D01*
X134220503Y-92136514D01*
X134462213Y-92378647D01*
X134778185Y-92509850D01*
X135120314Y-92510149D01*
X135362692Y-92410000D01*
X137735198Y-92410000D01*
X138082054Y-92756856D01*
X137990150Y-92978185D01*
X137989851Y-93320314D01*
X138120503Y-93636514D01*
X138362213Y-93878647D01*
X138678185Y-94009850D01*
X139020314Y-94010149D01*
X139336514Y-93879497D01*
X139578647Y-93637787D01*
X139709850Y-93321815D01*
X139710149Y-92979686D01*
X139610000Y-92737308D01*
X139610000Y-92450000D01*
X139552148Y-92159161D01*
X139387401Y-91912599D01*
X138587401Y-91112599D01*
X138340839Y-90947852D01*
X138050000Y-90890000D01*
X135362281Y-90890000D01*
X135121815Y-90790150D01*
X134779686Y-90789851D01*
X134463486Y-90920503D01*
X134221353Y-91162213D01*
X134090150Y-91478185D01*
X134089851Y-91820314D01*
X126060000Y-91820314D01*
X126060000Y-87268109D01*
X126414657Y-87268109D01*
X126716218Y-87997943D01*
X127274120Y-88556819D01*
X128003427Y-88859654D01*
X128793109Y-88860343D01*
X129522943Y-88558782D01*
X130081819Y-88000880D01*
X130384654Y-87271573D01*
X130385343Y-86481891D01*
X130083782Y-85752057D01*
X129525880Y-85193181D01*
X128796573Y-84890346D01*
X128006891Y-84889657D01*
X127277057Y-85191218D01*
X126718181Y-85749120D01*
X126415346Y-86478427D01*
X126414657Y-87268109D01*
X126060000Y-87268109D01*
X126060000Y-84560000D01*
X135580460Y-84560000D01*
X135384683Y-84596838D01*
M02*
