G04 #@! TF.GenerationSoftware,KiCad,Pcbnew,(5.1.9)-1*
G04 #@! TF.CreationDate,2021-09-01T16:09:47+02:00*
G04 #@! TF.ProjectId,PDH_photodiode,5044485f-7068-46f7-946f-64696f64652e,1.2*
G04 #@! TF.SameCoordinates,Original*
G04 #@! TF.FileFunction,Soldermask,Top*
G04 #@! TF.FilePolarity,Negative*
%FSLAX45Y45*%
G04 Gerber Fmt 4.5, Leading zero omitted, Abs format (unit mm)*
G04 Created by KiCad (PCBNEW (5.1.9)-1) date 2021-09-01 16:09:47*
%MOMM*%
%LPD*%
G01*
G04 APERTURE LIST*
%ADD10C,0.100000*%
%ADD11O,2.100000X2.100000*%
%ADD12C,1.300000*%
%ADD13C,2.650000*%
%ADD14C,2.450000*%
%ADD15C,4.700000*%
G04 APERTURE END LIST*
D10*
G36*
X13932806Y-6537030D02*
G01*
X13933727Y-6537030D01*
X13935687Y-6537126D01*
X13938129Y-6537367D01*
X13940070Y-6537655D01*
X13942476Y-6538133D01*
X13944380Y-6538610D01*
X13946728Y-6539323D01*
X13948576Y-6539984D01*
X13950843Y-6540923D01*
X13952617Y-6541762D01*
X13954780Y-6542918D01*
X13956464Y-6543927D01*
X13958504Y-6545290D01*
X13960080Y-6546459D01*
X13961977Y-6548016D01*
X13963431Y-6549334D01*
X13965166Y-6551069D01*
X13966484Y-6552523D01*
X13968040Y-6554420D01*
X13969210Y-6555996D01*
X13970573Y-6558036D01*
X13971582Y-6559720D01*
X13972738Y-6561883D01*
X13973577Y-6563657D01*
X13974516Y-6565924D01*
X13975177Y-6567772D01*
X13975889Y-6570120D01*
X13976366Y-6572024D01*
X13976845Y-6574430D01*
X13977133Y-6576371D01*
X13977374Y-6578813D01*
X13977470Y-6580773D01*
X13977470Y-6581694D01*
X13977500Y-6582000D01*
X13977500Y-6710000D01*
X13977470Y-6710306D01*
X13977470Y-6711227D01*
X13977374Y-6713187D01*
X13977133Y-6715629D01*
X13976845Y-6717570D01*
X13976366Y-6719976D01*
X13975889Y-6721880D01*
X13975177Y-6724228D01*
X13974516Y-6726076D01*
X13973577Y-6728343D01*
X13972738Y-6730117D01*
X13971582Y-6732280D01*
X13970573Y-6733964D01*
X13969210Y-6736004D01*
X13968040Y-6737580D01*
X13966484Y-6739477D01*
X13965166Y-6740931D01*
X13963431Y-6742666D01*
X13961977Y-6743984D01*
X13960080Y-6745540D01*
X13958504Y-6746710D01*
X13956464Y-6748073D01*
X13954780Y-6749082D01*
X13952617Y-6750238D01*
X13950843Y-6751077D01*
X13948576Y-6752016D01*
X13946728Y-6752677D01*
X13944380Y-6753389D01*
X13942476Y-6753866D01*
X13940070Y-6754345D01*
X13938129Y-6754633D01*
X13935687Y-6754874D01*
X13933727Y-6754970D01*
X13932806Y-6754970D01*
X13932500Y-6755000D01*
X13799462Y-6755000D01*
X13791851Y-6756903D01*
X13787000Y-6757500D01*
X13700000Y-6757500D01*
X13696098Y-6757116D01*
X13692346Y-6755978D01*
X13688889Y-6754129D01*
X13685858Y-6751642D01*
X13683371Y-6748611D01*
X13681522Y-6745154D01*
X13680384Y-6741402D01*
X13680000Y-6737500D01*
X13680000Y-6712500D01*
X13680384Y-6708598D01*
X13681522Y-6704846D01*
X13683371Y-6701389D01*
X13685858Y-6698358D01*
X13688889Y-6695871D01*
X13692346Y-6694022D01*
X13696098Y-6692884D01*
X13700000Y-6692500D01*
X13765999Y-6692500D01*
X13768471Y-6692253D01*
X13769417Y-6691957D01*
X13770254Y-6691499D01*
X13770950Y-6690931D01*
X13771584Y-6690134D01*
X13771967Y-6689419D01*
X13772245Y-6688486D01*
X13772500Y-6685990D01*
X13772500Y-6582000D01*
X13772884Y-6578098D01*
X13774022Y-6574346D01*
X13775871Y-6570889D01*
X13778358Y-6567858D01*
X13803358Y-6542858D01*
X13806389Y-6540371D01*
X13809846Y-6538522D01*
X13813598Y-6537384D01*
X13817500Y-6537000D01*
X13932500Y-6537000D01*
X13932806Y-6537030D01*
G37*
G36*
X13932806Y-6766030D02*
G01*
X13933727Y-6766030D01*
X13935687Y-6766126D01*
X13938129Y-6766367D01*
X13940070Y-6766655D01*
X13942476Y-6767133D01*
X13944380Y-6767610D01*
X13946728Y-6768323D01*
X13948576Y-6768984D01*
X13950843Y-6769923D01*
X13952617Y-6770762D01*
X13954780Y-6771918D01*
X13956464Y-6772927D01*
X13958504Y-6774290D01*
X13960080Y-6775459D01*
X13961977Y-6777016D01*
X13963431Y-6778334D01*
X13965166Y-6780069D01*
X13966484Y-6781523D01*
X13968040Y-6783420D01*
X13969210Y-6784996D01*
X13970573Y-6787036D01*
X13971582Y-6788720D01*
X13972738Y-6790883D01*
X13973503Y-6792500D01*
X14050000Y-6792500D01*
X14053902Y-6792884D01*
X14057654Y-6794022D01*
X14061111Y-6795871D01*
X14064142Y-6798358D01*
X14066629Y-6801389D01*
X14068478Y-6804846D01*
X14069616Y-6808598D01*
X14070000Y-6812500D01*
X14070000Y-6837500D01*
X14069616Y-6841402D01*
X14068478Y-6845154D01*
X14066629Y-6848611D01*
X14064142Y-6851642D01*
X14061111Y-6854129D01*
X14057654Y-6855978D01*
X14053902Y-6857116D01*
X14050000Y-6857500D01*
X13977500Y-6857500D01*
X13977500Y-6868000D01*
X13977470Y-6868306D01*
X13977470Y-6869227D01*
X13977374Y-6871187D01*
X13977133Y-6873629D01*
X13976845Y-6875570D01*
X13976366Y-6877976D01*
X13975889Y-6879880D01*
X13975177Y-6882228D01*
X13974516Y-6884076D01*
X13973577Y-6886343D01*
X13972738Y-6888117D01*
X13971582Y-6890280D01*
X13970573Y-6891964D01*
X13969210Y-6894004D01*
X13968040Y-6895580D01*
X13966484Y-6897477D01*
X13965166Y-6898931D01*
X13963431Y-6900666D01*
X13961977Y-6901984D01*
X13960080Y-6903540D01*
X13958504Y-6904710D01*
X13956464Y-6906073D01*
X13954780Y-6907082D01*
X13952617Y-6908238D01*
X13950843Y-6909077D01*
X13948576Y-6910016D01*
X13946728Y-6910677D01*
X13944380Y-6911389D01*
X13942476Y-6911866D01*
X13940070Y-6912345D01*
X13938129Y-6912633D01*
X13935687Y-6912874D01*
X13933727Y-6912970D01*
X13932806Y-6912970D01*
X13932500Y-6913000D01*
X13817500Y-6913000D01*
X13817194Y-6912970D01*
X13816273Y-6912970D01*
X13814313Y-6912874D01*
X13811871Y-6912633D01*
X13809930Y-6912345D01*
X13807524Y-6911866D01*
X13805620Y-6911389D01*
X13803272Y-6910677D01*
X13801424Y-6910016D01*
X13799157Y-6909077D01*
X13797383Y-6908238D01*
X13795220Y-6907082D01*
X13793536Y-6906073D01*
X13791496Y-6904710D01*
X13789920Y-6903540D01*
X13788023Y-6901984D01*
X13786569Y-6900666D01*
X13784834Y-6898931D01*
X13783516Y-6897477D01*
X13781959Y-6895580D01*
X13780790Y-6894004D01*
X13779427Y-6891964D01*
X13778418Y-6890280D01*
X13777262Y-6888117D01*
X13776423Y-6886343D01*
X13775484Y-6884076D01*
X13774823Y-6882228D01*
X13774110Y-6879880D01*
X13773633Y-6877976D01*
X13773155Y-6875570D01*
X13772867Y-6873629D01*
X13772626Y-6871187D01*
X13772530Y-6869227D01*
X13772530Y-6868306D01*
X13772500Y-6868000D01*
X13772500Y-6811000D01*
X13772530Y-6810694D01*
X13772530Y-6809773D01*
X13772626Y-6807813D01*
X13772867Y-6805371D01*
X13773155Y-6803430D01*
X13773633Y-6801024D01*
X13774110Y-6799120D01*
X13774823Y-6796772D01*
X13775484Y-6794924D01*
X13776423Y-6792657D01*
X13777262Y-6790883D01*
X13778418Y-6788720D01*
X13779427Y-6787036D01*
X13780790Y-6784996D01*
X13781959Y-6783420D01*
X13783516Y-6781523D01*
X13784834Y-6780069D01*
X13786569Y-6778334D01*
X13788023Y-6777016D01*
X13789920Y-6775459D01*
X13791496Y-6774290D01*
X13793536Y-6772927D01*
X13795220Y-6771918D01*
X13797383Y-6770762D01*
X13799157Y-6769923D01*
X13801424Y-6768984D01*
X13803272Y-6768323D01*
X13805620Y-6767610D01*
X13807524Y-6767133D01*
X13809930Y-6766655D01*
X13811871Y-6766367D01*
X13814313Y-6766126D01*
X13816273Y-6766030D01*
X13817194Y-6766030D01*
X13817500Y-6766000D01*
X13932500Y-6766000D01*
X13932806Y-6766030D01*
G37*
G36*
G01*
X13680000Y-6587500D02*
X13680000Y-6562500D01*
G75*
G02*
X13700000Y-6542500I20000J0D01*
G01*
X13770000Y-6542500D01*
G75*
G02*
X13790000Y-6562500I0J-20000D01*
G01*
X13790000Y-6587500D01*
G75*
G02*
X13770000Y-6607500I-20000J0D01*
G01*
X13700000Y-6607500D01*
G75*
G02*
X13680000Y-6587500I0J20000D01*
G01*
G37*
G36*
G01*
X13680000Y-6637500D02*
X13680000Y-6612500D01*
G75*
G02*
X13700000Y-6592500I20000J0D01*
G01*
X13770000Y-6592500D01*
G75*
G02*
X13790000Y-6612500I0J-20000D01*
G01*
X13790000Y-6637500D01*
G75*
G02*
X13770000Y-6657500I-20000J0D01*
G01*
X13700000Y-6657500D01*
G75*
G02*
X13680000Y-6637500I0J20000D01*
G01*
G37*
G36*
G01*
X13680000Y-6687500D02*
X13680000Y-6662500D01*
G75*
G02*
X13700000Y-6642500I20000J0D01*
G01*
X13770000Y-6642500D01*
G75*
G02*
X13790000Y-6662500I0J-20000D01*
G01*
X13790000Y-6687500D01*
G75*
G02*
X13770000Y-6707500I-20000J0D01*
G01*
X13700000Y-6707500D01*
G75*
G02*
X13680000Y-6687500I0J20000D01*
G01*
G37*
G36*
G01*
X13680000Y-6787500D02*
X13680000Y-6762500D01*
G75*
G02*
X13700000Y-6742500I20000J0D01*
G01*
X13770000Y-6742500D01*
G75*
G02*
X13790000Y-6762500I0J-20000D01*
G01*
X13790000Y-6787500D01*
G75*
G02*
X13770000Y-6807500I-20000J0D01*
G01*
X13700000Y-6807500D01*
G75*
G02*
X13680000Y-6787500I0J20000D01*
G01*
G37*
G36*
G01*
X13680000Y-6837500D02*
X13680000Y-6812500D01*
G75*
G02*
X13700000Y-6792500I20000J0D01*
G01*
X13770000Y-6792500D01*
G75*
G02*
X13790000Y-6812500I0J-20000D01*
G01*
X13790000Y-6837500D01*
G75*
G02*
X13770000Y-6857500I-20000J0D01*
G01*
X13700000Y-6857500D01*
G75*
G02*
X13680000Y-6837500I0J20000D01*
G01*
G37*
G36*
G01*
X13680000Y-6887500D02*
X13680000Y-6862500D01*
G75*
G02*
X13700000Y-6842500I20000J0D01*
G01*
X13770000Y-6842500D01*
G75*
G02*
X13790000Y-6862500I0J-20000D01*
G01*
X13790000Y-6887500D01*
G75*
G02*
X13770000Y-6907500I-20000J0D01*
G01*
X13700000Y-6907500D01*
G75*
G02*
X13680000Y-6887500I0J20000D01*
G01*
G37*
G36*
G01*
X13960000Y-6887500D02*
X13960000Y-6862500D01*
G75*
G02*
X13980000Y-6842500I20000J0D01*
G01*
X14050000Y-6842500D01*
G75*
G02*
X14070000Y-6862500I0J-20000D01*
G01*
X14070000Y-6887500D01*
G75*
G02*
X14050000Y-6907500I-20000J0D01*
G01*
X13980000Y-6907500D01*
G75*
G02*
X13960000Y-6887500I0J20000D01*
G01*
G37*
G36*
G01*
X13960000Y-6787500D02*
X13960000Y-6762500D01*
G75*
G02*
X13980000Y-6742500I20000J0D01*
G01*
X14050000Y-6742500D01*
G75*
G02*
X14070000Y-6762500I0J-20000D01*
G01*
X14070000Y-6787500D01*
G75*
G02*
X14050000Y-6807500I-20000J0D01*
G01*
X13980000Y-6807500D01*
G75*
G02*
X13960000Y-6787500I0J20000D01*
G01*
G37*
G36*
G01*
X13960000Y-6737500D02*
X13960000Y-6712500D01*
G75*
G02*
X13980000Y-6692500I20000J0D01*
G01*
X14050000Y-6692500D01*
G75*
G02*
X14070000Y-6712500I0J-20000D01*
G01*
X14070000Y-6737500D01*
G75*
G02*
X14050000Y-6757500I-20000J0D01*
G01*
X13980000Y-6757500D01*
G75*
G02*
X13960000Y-6737500I0J20000D01*
G01*
G37*
G36*
G01*
X13960000Y-6687500D02*
X13960000Y-6662500D01*
G75*
G02*
X13980000Y-6642500I20000J0D01*
G01*
X14050000Y-6642500D01*
G75*
G02*
X14070000Y-6662500I0J-20000D01*
G01*
X14070000Y-6687500D01*
G75*
G02*
X14050000Y-6707500I-20000J0D01*
G01*
X13980000Y-6707500D01*
G75*
G02*
X13960000Y-6687500I0J20000D01*
G01*
G37*
G36*
G01*
X13960000Y-6637500D02*
X13960000Y-6612500D01*
G75*
G02*
X13980000Y-6592500I20000J0D01*
G01*
X14050000Y-6592500D01*
G75*
G02*
X14070000Y-6612500I0J-20000D01*
G01*
X14070000Y-6637500D01*
G75*
G02*
X14050000Y-6657500I-20000J0D01*
G01*
X13980000Y-6657500D01*
G75*
G02*
X13960000Y-6637500I0J20000D01*
G01*
G37*
G36*
G01*
X13960000Y-6587500D02*
X13960000Y-6562500D01*
G75*
G02*
X13980000Y-6542500I20000J0D01*
G01*
X14050000Y-6542500D01*
G75*
G02*
X14070000Y-6562500I0J-20000D01*
G01*
X14070000Y-6587500D01*
G75*
G02*
X14050000Y-6607500I-20000J0D01*
G01*
X13980000Y-6607500D01*
G75*
G02*
X13960000Y-6587500I0J20000D01*
G01*
G37*
G36*
G01*
X14340000Y-6760625D02*
X14340000Y-6689375D01*
G75*
G02*
X14371875Y-6657500I31875J0D01*
G01*
X14435625Y-6657500D01*
G75*
G02*
X14467500Y-6689375I0J-31875D01*
G01*
X14467500Y-6760625D01*
G75*
G02*
X14435625Y-6792500I-31875J0D01*
G01*
X14371875Y-6792500D01*
G75*
G02*
X14340000Y-6760625I0J31875D01*
G01*
G37*
G36*
G01*
X14182500Y-6760625D02*
X14182500Y-6689375D01*
G75*
G02*
X14214375Y-6657500I31875J0D01*
G01*
X14278125Y-6657500D01*
G75*
G02*
X14310000Y-6689375I0J-31875D01*
G01*
X14310000Y-6760625D01*
G75*
G02*
X14278125Y-6792500I-31875J0D01*
G01*
X14214375Y-6792500D01*
G75*
G02*
X14182500Y-6760625I0J31875D01*
G01*
G37*
G36*
G01*
X14625500Y-7002500D02*
X14864500Y-7002500D01*
G75*
G02*
X14897500Y-7035500I0J-33000D01*
G01*
X14897500Y-7134500D01*
G75*
G02*
X14864500Y-7167500I-33000J0D01*
G01*
X14625500Y-7167500D01*
G75*
G02*
X14592500Y-7134500I0J33000D01*
G01*
X14592500Y-7035500D01*
G75*
G02*
X14625500Y-7002500I33000J0D01*
G01*
G37*
G36*
G01*
X14625500Y-6722500D02*
X14864500Y-6722500D01*
G75*
G02*
X14897500Y-6755500I0J-33000D01*
G01*
X14897500Y-6854500D01*
G75*
G02*
X14864500Y-6887500I-33000J0D01*
G01*
X14625500Y-6887500D01*
G75*
G02*
X14592500Y-6854500I0J33000D01*
G01*
X14592500Y-6755500D01*
G75*
G02*
X14625500Y-6722500I33000J0D01*
G01*
G37*
G36*
G01*
X14625500Y-6182500D02*
X14864500Y-6182500D01*
G75*
G02*
X14897500Y-6215500I0J-33000D01*
G01*
X14897500Y-6314500D01*
G75*
G02*
X14864500Y-6347500I-33000J0D01*
G01*
X14625500Y-6347500D01*
G75*
G02*
X14592500Y-6314500I0J33000D01*
G01*
X14592500Y-6215500D01*
G75*
G02*
X14625500Y-6182500I33000J0D01*
G01*
G37*
G36*
G01*
X14625500Y-6462500D02*
X14864500Y-6462500D01*
G75*
G02*
X14897500Y-6495500I0J-33000D01*
G01*
X14897500Y-6594500D01*
G75*
G02*
X14864500Y-6627500I-33000J0D01*
G01*
X14625500Y-6627500D01*
G75*
G02*
X14592500Y-6594500I0J33000D01*
G01*
X14592500Y-6495500D01*
G75*
G02*
X14625500Y-6462500I33000J0D01*
G01*
G37*
G36*
G01*
X13262500Y-6850625D02*
X13262500Y-6779375D01*
G75*
G02*
X13294375Y-6747500I31875J0D01*
G01*
X13358125Y-6747500D01*
G75*
G02*
X13390000Y-6779375I0J-31875D01*
G01*
X13390000Y-6850625D01*
G75*
G02*
X13358125Y-6882500I-31875J0D01*
G01*
X13294375Y-6882500D01*
G75*
G02*
X13262500Y-6850625I0J31875D01*
G01*
G37*
G36*
G01*
X13420000Y-6850625D02*
X13420000Y-6779375D01*
G75*
G02*
X13451875Y-6747500I31875J0D01*
G01*
X13515625Y-6747500D01*
G75*
G02*
X13547500Y-6779375I0J-31875D01*
G01*
X13547500Y-6850625D01*
G75*
G02*
X13515625Y-6882500I-31875J0D01*
G01*
X13451875Y-6882500D01*
G75*
G02*
X13420000Y-6850625I0J31875D01*
G01*
G37*
G36*
G01*
X13949500Y-6172500D02*
X13710500Y-6172500D01*
G75*
G02*
X13677500Y-6139500I0J33000D01*
G01*
X13677500Y-6040500D01*
G75*
G02*
X13710500Y-6007500I33000J0D01*
G01*
X13949500Y-6007500D01*
G75*
G02*
X13982500Y-6040500I0J-33000D01*
G01*
X13982500Y-6139500D01*
G75*
G02*
X13949500Y-6172500I-33000J0D01*
G01*
G37*
G36*
G01*
X13949500Y-6452500D02*
X13710500Y-6452500D01*
G75*
G02*
X13677500Y-6419500I0J33000D01*
G01*
X13677500Y-6320500D01*
G75*
G02*
X13710500Y-6287500I33000J0D01*
G01*
X13949500Y-6287500D01*
G75*
G02*
X13982500Y-6320500I0J-33000D01*
G01*
X13982500Y-6419500D01*
G75*
G02*
X13949500Y-6452500I-33000J0D01*
G01*
G37*
G36*
G01*
X13949500Y-7442500D02*
X13710500Y-7442500D01*
G75*
G02*
X13677500Y-7409500I0J33000D01*
G01*
X13677500Y-7310500D01*
G75*
G02*
X13710500Y-7277500I33000J0D01*
G01*
X13949500Y-7277500D01*
G75*
G02*
X13982500Y-7310500I0J-33000D01*
G01*
X13982500Y-7409500D01*
G75*
G02*
X13949500Y-7442500I-33000J0D01*
G01*
G37*
G36*
G01*
X13949500Y-7162500D02*
X13710500Y-7162500D01*
G75*
G02*
X13677500Y-7129500I0J33000D01*
G01*
X13677500Y-7030500D01*
G75*
G02*
X13710500Y-6997500I33000J0D01*
G01*
X13949500Y-6997500D01*
G75*
G02*
X13982500Y-7030500I0J-33000D01*
G01*
X13982500Y-7129500D01*
G75*
G02*
X13949500Y-7162500I-33000J0D01*
G01*
G37*
G36*
G01*
X12222500Y-9195625D02*
X12222500Y-9124375D01*
G75*
G02*
X12254375Y-9092500I31875J0D01*
G01*
X12318125Y-9092500D01*
G75*
G02*
X12350000Y-9124375I0J-31875D01*
G01*
X12350000Y-9195625D01*
G75*
G02*
X12318125Y-9227500I-31875J0D01*
G01*
X12254375Y-9227500D01*
G75*
G02*
X12222500Y-9195625I0J31875D01*
G01*
G37*
G36*
G01*
X12380000Y-9195625D02*
X12380000Y-9124375D01*
G75*
G02*
X12411875Y-9092500I31875J0D01*
G01*
X12475625Y-9092500D01*
G75*
G02*
X12507500Y-9124375I0J-31875D01*
G01*
X12507500Y-9195625D01*
G75*
G02*
X12475625Y-9227500I-31875J0D01*
G01*
X12411875Y-9227500D01*
G75*
G02*
X12380000Y-9195625I0J31875D01*
G01*
G37*
G36*
G01*
X12149375Y-7402500D02*
X12220625Y-7402500D01*
G75*
G02*
X12252500Y-7434375I0J-31875D01*
G01*
X12252500Y-7498125D01*
G75*
G02*
X12220625Y-7530000I-31875J0D01*
G01*
X12149375Y-7530000D01*
G75*
G02*
X12117500Y-7498125I0J31875D01*
G01*
X12117500Y-7434375D01*
G75*
G02*
X12149375Y-7402500I31875J0D01*
G01*
G37*
G36*
G01*
X12149375Y-7560000D02*
X12220625Y-7560000D01*
G75*
G02*
X12252500Y-7591875I0J-31875D01*
G01*
X12252500Y-7655625D01*
G75*
G02*
X12220625Y-7687500I-31875J0D01*
G01*
X12149375Y-7687500D01*
G75*
G02*
X12117500Y-7655625I0J31875D01*
G01*
X12117500Y-7591875D01*
G75*
G02*
X12149375Y-7560000I31875J0D01*
G01*
G37*
G36*
G01*
X11935625Y-8270000D02*
X11864375Y-8270000D01*
G75*
G02*
X11832500Y-8238125I0J31875D01*
G01*
X11832500Y-8174375D01*
G75*
G02*
X11864375Y-8142500I31875J0D01*
G01*
X11935625Y-8142500D01*
G75*
G02*
X11967500Y-8174375I0J-31875D01*
G01*
X11967500Y-8238125D01*
G75*
G02*
X11935625Y-8270000I-31875J0D01*
G01*
G37*
G36*
G01*
X11935625Y-8427500D02*
X11864375Y-8427500D01*
G75*
G02*
X11832500Y-8395625I0J31875D01*
G01*
X11832500Y-8331875D01*
G75*
G02*
X11864375Y-8300000I31875J0D01*
G01*
X11935625Y-8300000D01*
G75*
G02*
X11967500Y-8331875I0J-31875D01*
G01*
X11967500Y-8395625D01*
G75*
G02*
X11935625Y-8427500I-31875J0D01*
G01*
G37*
G36*
G01*
X15020000Y-6506000D02*
X15020000Y-6336000D01*
G75*
G02*
X15040000Y-6316000I20000J0D01*
G01*
X15210000Y-6316000D01*
G75*
G02*
X15230000Y-6336000I0J-20000D01*
G01*
X15230000Y-6506000D01*
G75*
G02*
X15210000Y-6526000I-20000J0D01*
G01*
X15040000Y-6526000D01*
G75*
G02*
X15020000Y-6506000I0J20000D01*
G01*
G37*
D11*
X15125000Y-6675000D03*
X15125000Y-6929000D03*
G36*
G01*
X11145000Y-7094500D02*
X11145000Y-6945500D01*
G75*
G02*
X11178000Y-6912500I33000J0D01*
G01*
X11277000Y-6912500D01*
G75*
G02*
X11310000Y-6945500I0J-33000D01*
G01*
X11310000Y-7094500D01*
G75*
G02*
X11277000Y-7127500I-33000J0D01*
G01*
X11178000Y-7127500D01*
G75*
G02*
X11145000Y-7094500I0J33000D01*
G01*
G37*
G36*
G01*
X11425000Y-7094500D02*
X11425000Y-6945500D01*
G75*
G02*
X11458000Y-6912500I33000J0D01*
G01*
X11557000Y-6912500D01*
G75*
G02*
X11590000Y-6945500I0J-33000D01*
G01*
X11590000Y-7094500D01*
G75*
G02*
X11557000Y-7127500I-33000J0D01*
G01*
X11458000Y-7127500D01*
G75*
G02*
X11425000Y-7094500I0J33000D01*
G01*
G37*
G36*
G01*
X11180000Y-7325000D02*
X11180000Y-7255000D01*
G75*
G02*
X11212500Y-7222500I32500J0D01*
G01*
X11277500Y-7222500D01*
G75*
G02*
X11310000Y-7255000I0J-32500D01*
G01*
X11310000Y-7325000D01*
G75*
G02*
X11277500Y-7357500I-32500J0D01*
G01*
X11212500Y-7357500D01*
G75*
G02*
X11180000Y-7325000I0J32500D01*
G01*
G37*
G36*
G01*
X11335000Y-7325000D02*
X11335000Y-7255000D01*
G75*
G02*
X11367500Y-7222500I32500J0D01*
G01*
X11432500Y-7222500D01*
G75*
G02*
X11465000Y-7255000I0J-32500D01*
G01*
X11465000Y-7325000D01*
G75*
G02*
X11432500Y-7357500I-32500J0D01*
G01*
X11367500Y-7357500D01*
G75*
G02*
X11335000Y-7325000I0J32500D01*
G01*
G37*
G36*
G01*
X12330000Y-7020000D02*
X12400000Y-7020000D01*
G75*
G02*
X12432500Y-7052500I0J-32500D01*
G01*
X12432500Y-7117500D01*
G75*
G02*
X12400000Y-7150000I-32500J0D01*
G01*
X12330000Y-7150000D01*
G75*
G02*
X12297500Y-7117500I0J32500D01*
G01*
X12297500Y-7052500D01*
G75*
G02*
X12330000Y-7020000I32500J0D01*
G01*
G37*
G36*
G01*
X12330000Y-6865000D02*
X12400000Y-6865000D01*
G75*
G02*
X12432500Y-6897500I0J-32500D01*
G01*
X12432500Y-6962500D01*
G75*
G02*
X12400000Y-6995000I-32500J0D01*
G01*
X12330000Y-6995000D01*
G75*
G02*
X12297500Y-6962500I0J32500D01*
G01*
X12297500Y-6897500D01*
G75*
G02*
X12330000Y-6865000I32500J0D01*
G01*
G37*
D12*
X12979000Y-7925000D03*
X13106000Y-7798000D03*
X13233000Y-7925000D03*
G36*
G01*
X12387500Y-8582500D02*
X12387500Y-8507500D01*
G75*
G02*
X12417500Y-8477500I30000J0D01*
G01*
X12477500Y-8477500D01*
G75*
G02*
X12507500Y-8507500I0J-30000D01*
G01*
X12507500Y-8582500D01*
G75*
G02*
X12477500Y-8612500I-30000J0D01*
G01*
X12417500Y-8612500D01*
G75*
G02*
X12387500Y-8582500I0J30000D01*
G01*
G37*
G36*
G01*
X12222500Y-8582500D02*
X12222500Y-8507500D01*
G75*
G02*
X12252500Y-8477500I30000J0D01*
G01*
X12312500Y-8477500D01*
G75*
G02*
X12342500Y-8507500I0J-30000D01*
G01*
X12342500Y-8582500D01*
G75*
G02*
X12312500Y-8612500I-30000J0D01*
G01*
X12252500Y-8612500D01*
G75*
G02*
X12222500Y-8582500I0J30000D01*
G01*
G37*
G36*
G01*
X13382500Y-6397500D02*
X13382500Y-6472500D01*
G75*
G02*
X13352500Y-6502500I-30000J0D01*
G01*
X13292500Y-6502500D01*
G75*
G02*
X13262500Y-6472500I0J30000D01*
G01*
X13262500Y-6397500D01*
G75*
G02*
X13292500Y-6367500I30000J0D01*
G01*
X13352500Y-6367500D01*
G75*
G02*
X13382500Y-6397500I0J-30000D01*
G01*
G37*
G36*
G01*
X13547500Y-6397500D02*
X13547500Y-6472500D01*
G75*
G02*
X13517500Y-6502500I-30000J0D01*
G01*
X13457500Y-6502500D01*
G75*
G02*
X13427500Y-6472500I0J30000D01*
G01*
X13427500Y-6397500D01*
G75*
G02*
X13457500Y-6367500I30000J0D01*
G01*
X13517500Y-6367500D01*
G75*
G02*
X13547500Y-6397500I0J-30000D01*
G01*
G37*
G36*
G01*
X13547500Y-6587500D02*
X13547500Y-6662500D01*
G75*
G02*
X13517500Y-6692500I-30000J0D01*
G01*
X13457500Y-6692500D01*
G75*
G02*
X13427500Y-6662500I0J30000D01*
G01*
X13427500Y-6587500D01*
G75*
G02*
X13457500Y-6557500I30000J0D01*
G01*
X13517500Y-6557500D01*
G75*
G02*
X13547500Y-6587500I0J-30000D01*
G01*
G37*
G36*
G01*
X13382500Y-6587500D02*
X13382500Y-6662500D01*
G75*
G02*
X13352500Y-6692500I-30000J0D01*
G01*
X13292500Y-6692500D01*
G75*
G02*
X13262500Y-6662500I0J30000D01*
G01*
X13262500Y-6587500D01*
G75*
G02*
X13292500Y-6557500I30000J0D01*
G01*
X13352500Y-6557500D01*
G75*
G02*
X13382500Y-6587500I0J-30000D01*
G01*
G37*
G36*
G01*
X14477500Y-6977500D02*
X14477500Y-7052500D01*
G75*
G02*
X14447500Y-7082500I-30000J0D01*
G01*
X14387500Y-7082500D01*
G75*
G02*
X14357500Y-7052500I0J30000D01*
G01*
X14357500Y-6977500D01*
G75*
G02*
X14387500Y-6947500I30000J0D01*
G01*
X14447500Y-6947500D01*
G75*
G02*
X14477500Y-6977500I0J-30000D01*
G01*
G37*
G36*
G01*
X14312500Y-6977500D02*
X14312500Y-7052500D01*
G75*
G02*
X14282500Y-7082500I-30000J0D01*
G01*
X14222500Y-7082500D01*
G75*
G02*
X14192500Y-7052500I0J30000D01*
G01*
X14192500Y-6977500D01*
G75*
G02*
X14222500Y-6947500I30000J0D01*
G01*
X14282500Y-6947500D01*
G75*
G02*
X14312500Y-6977500I0J-30000D01*
G01*
G37*
G36*
G01*
X14312500Y-7157500D02*
X14312500Y-7232500D01*
G75*
G02*
X14282500Y-7262500I-30000J0D01*
G01*
X14222500Y-7262500D01*
G75*
G02*
X14192500Y-7232500I0J30000D01*
G01*
X14192500Y-7157500D01*
G75*
G02*
X14222500Y-7127500I30000J0D01*
G01*
X14282500Y-7127500D01*
G75*
G02*
X14312500Y-7157500I0J-30000D01*
G01*
G37*
G36*
G01*
X14477500Y-7157500D02*
X14477500Y-7232500D01*
G75*
G02*
X14447500Y-7262500I-30000J0D01*
G01*
X14387500Y-7262500D01*
G75*
G02*
X14357500Y-7232500I0J30000D01*
G01*
X14357500Y-7157500D01*
G75*
G02*
X14387500Y-7127500I30000J0D01*
G01*
X14447500Y-7127500D01*
G75*
G02*
X14477500Y-7157500I0J-30000D01*
G01*
G37*
G36*
G01*
X12507500Y-8957500D02*
X12507500Y-9032500D01*
G75*
G02*
X12477500Y-9062500I-30000J0D01*
G01*
X12417500Y-9062500D01*
G75*
G02*
X12387500Y-9032500I0J30000D01*
G01*
X12387500Y-8957500D01*
G75*
G02*
X12417500Y-8927500I30000J0D01*
G01*
X12477500Y-8927500D01*
G75*
G02*
X12507500Y-8957500I0J-30000D01*
G01*
G37*
G36*
G01*
X12342500Y-8957500D02*
X12342500Y-9032500D01*
G75*
G02*
X12312500Y-9062500I-30000J0D01*
G01*
X12252500Y-9062500D01*
G75*
G02*
X12222500Y-9032500I0J30000D01*
G01*
X12222500Y-8957500D01*
G75*
G02*
X12252500Y-8927500I30000J0D01*
G01*
X12312500Y-8927500D01*
G75*
G02*
X12342500Y-8957500I0J-30000D01*
G01*
G37*
G36*
G01*
X11657500Y-7462500D02*
X11732500Y-7462500D01*
G75*
G02*
X11762500Y-7492500I0J-30000D01*
G01*
X11762500Y-7552500D01*
G75*
G02*
X11732500Y-7582500I-30000J0D01*
G01*
X11657500Y-7582500D01*
G75*
G02*
X11627500Y-7552500I0J30000D01*
G01*
X11627500Y-7492500D01*
G75*
G02*
X11657500Y-7462500I30000J0D01*
G01*
G37*
G36*
G01*
X11657500Y-7627500D02*
X11732500Y-7627500D01*
G75*
G02*
X11762500Y-7657500I0J-30000D01*
G01*
X11762500Y-7717500D01*
G75*
G02*
X11732500Y-7747500I-30000J0D01*
G01*
X11657500Y-7747500D01*
G75*
G02*
X11627500Y-7717500I0J30000D01*
G01*
X11627500Y-7657500D01*
G75*
G02*
X11657500Y-7627500I30000J0D01*
G01*
G37*
G36*
G01*
X11657500Y-7977500D02*
X11732500Y-7977500D01*
G75*
G02*
X11762500Y-8007500I0J-30000D01*
G01*
X11762500Y-8067500D01*
G75*
G02*
X11732500Y-8097500I-30000J0D01*
G01*
X11657500Y-8097500D01*
G75*
G02*
X11627500Y-8067500I0J30000D01*
G01*
X11627500Y-8007500D01*
G75*
G02*
X11657500Y-7977500I30000J0D01*
G01*
G37*
G36*
G01*
X11657500Y-7812500D02*
X11732500Y-7812500D01*
G75*
G02*
X11762500Y-7842500I0J-30000D01*
G01*
X11762500Y-7902500D01*
G75*
G02*
X11732500Y-7932500I-30000J0D01*
G01*
X11657500Y-7932500D01*
G75*
G02*
X11627500Y-7902500I0J30000D01*
G01*
X11627500Y-7842500D01*
G75*
G02*
X11657500Y-7812500I30000J0D01*
G01*
G37*
G36*
G01*
X12521389Y-6862500D02*
X12668611Y-6862500D01*
G75*
G02*
X12702500Y-6896389I0J-33889D01*
G01*
X12702500Y-6981111D01*
G75*
G02*
X12668611Y-7015000I-33889J0D01*
G01*
X12521389Y-7015000D01*
G75*
G02*
X12487500Y-6981111I0J33889D01*
G01*
X12487500Y-6896389D01*
G75*
G02*
X12521389Y-6862500I33889J0D01*
G01*
G37*
G36*
G01*
X12521389Y-7155000D02*
X12668611Y-7155000D01*
G75*
G02*
X12702500Y-7188889I0J-33889D01*
G01*
X12702500Y-7273611D01*
G75*
G02*
X12668611Y-7307500I-33889J0D01*
G01*
X12521389Y-7307500D01*
G75*
G02*
X12487500Y-7273611I0J33889D01*
G01*
X12487500Y-7188889D01*
G75*
G02*
X12521389Y-7155000I33889J0D01*
G01*
G37*
G36*
G01*
X12247500Y-8008750D02*
X12247500Y-8041250D01*
G75*
G02*
X12231250Y-8057500I-16250J0D01*
G01*
X12138750Y-8057500D01*
G75*
G02*
X12122500Y-8041250I0J16250D01*
G01*
X12122500Y-8008750D01*
G75*
G02*
X12138750Y-7992500I16250J0D01*
G01*
X12231250Y-7992500D01*
G75*
G02*
X12247500Y-8008750I0J-16250D01*
G01*
G37*
G36*
G01*
X12247500Y-7958750D02*
X12247500Y-7991250D01*
G75*
G02*
X12231250Y-8007500I-16250J0D01*
G01*
X12138750Y-8007500D01*
G75*
G02*
X12122500Y-7991250I0J16250D01*
G01*
X12122500Y-7958750D01*
G75*
G02*
X12138750Y-7942500I16250J0D01*
G01*
X12231250Y-7942500D01*
G75*
G02*
X12247500Y-7958750I0J-16250D01*
G01*
G37*
G36*
G01*
X12247500Y-7908750D02*
X12247500Y-7941250D01*
G75*
G02*
X12231250Y-7957500I-16250J0D01*
G01*
X12138750Y-7957500D01*
G75*
G02*
X12122500Y-7941250I0J16250D01*
G01*
X12122500Y-7908750D01*
G75*
G02*
X12138750Y-7892500I16250J0D01*
G01*
X12231250Y-7892500D01*
G75*
G02*
X12247500Y-7908750I0J-16250D01*
G01*
G37*
G36*
G01*
X12247500Y-7858750D02*
X12247500Y-7891250D01*
G75*
G02*
X12231250Y-7907500I-16250J0D01*
G01*
X12138750Y-7907500D01*
G75*
G02*
X12122500Y-7891250I0J16250D01*
G01*
X12122500Y-7858750D01*
G75*
G02*
X12138750Y-7842500I16250J0D01*
G01*
X12231250Y-7842500D01*
G75*
G02*
X12247500Y-7858750I0J-16250D01*
G01*
G37*
G36*
G01*
X12247500Y-7808750D02*
X12247500Y-7841250D01*
G75*
G02*
X12231250Y-7857500I-16250J0D01*
G01*
X12138750Y-7857500D01*
G75*
G02*
X12122500Y-7841250I0J16250D01*
G01*
X12122500Y-7808750D01*
G75*
G02*
X12138750Y-7792500I16250J0D01*
G01*
X12231250Y-7792500D01*
G75*
G02*
X12247500Y-7808750I0J-16250D01*
G01*
G37*
G36*
G01*
X11957500Y-7808750D02*
X11957500Y-7841250D01*
G75*
G02*
X11941250Y-7857500I-16250J0D01*
G01*
X11848750Y-7857500D01*
G75*
G02*
X11832500Y-7841250I0J16250D01*
G01*
X11832500Y-7808750D01*
G75*
G02*
X11848750Y-7792500I16250J0D01*
G01*
X11941250Y-7792500D01*
G75*
G02*
X11957500Y-7808750I0J-16250D01*
G01*
G37*
G36*
G01*
X11957500Y-7858750D02*
X11957500Y-7891250D01*
G75*
G02*
X11941250Y-7907500I-16250J0D01*
G01*
X11848750Y-7907500D01*
G75*
G02*
X11832500Y-7891250I0J16250D01*
G01*
X11832500Y-7858750D01*
G75*
G02*
X11848750Y-7842500I16250J0D01*
G01*
X11941250Y-7842500D01*
G75*
G02*
X11957500Y-7858750I0J-16250D01*
G01*
G37*
G36*
G01*
X11957500Y-7908750D02*
X11957500Y-7941250D01*
G75*
G02*
X11941250Y-7957500I-16250J0D01*
G01*
X11848750Y-7957500D01*
G75*
G02*
X11832500Y-7941250I0J16250D01*
G01*
X11832500Y-7908750D01*
G75*
G02*
X11848750Y-7892500I16250J0D01*
G01*
X11941250Y-7892500D01*
G75*
G02*
X11957500Y-7908750I0J-16250D01*
G01*
G37*
G36*
G01*
X11957500Y-7958750D02*
X11957500Y-7991250D01*
G75*
G02*
X11941250Y-8007500I-16250J0D01*
G01*
X11848750Y-8007500D01*
G75*
G02*
X11832500Y-7991250I0J16250D01*
G01*
X11832500Y-7958750D01*
G75*
G02*
X11848750Y-7942500I16250J0D01*
G01*
X11941250Y-7942500D01*
G75*
G02*
X11957500Y-7958750I0J-16250D01*
G01*
G37*
G36*
G01*
X11957500Y-8008750D02*
X11957500Y-8041250D01*
G75*
G02*
X11941250Y-8057500I-16250J0D01*
G01*
X11848750Y-8057500D01*
G75*
G02*
X11832500Y-8041250I0J16250D01*
G01*
X11832500Y-8008750D01*
G75*
G02*
X11848750Y-7992500I16250J0D01*
G01*
X11941250Y-7992500D01*
G75*
G02*
X11957500Y-8008750I0J-16250D01*
G01*
G37*
G36*
G01*
X12142500Y-7806000D02*
X12142500Y-8044000D01*
G75*
G02*
X12122500Y-8064000I-20000J0D01*
G01*
X11957500Y-8064000D01*
G75*
G02*
X11937500Y-8044000I0J20000D01*
G01*
X11937500Y-7806000D01*
G75*
G02*
X11957500Y-7786000I20000J0D01*
G01*
X12122500Y-7786000D01*
G75*
G02*
X12142500Y-7806000I0J-20000D01*
G01*
G37*
D13*
X11479000Y-6629000D03*
X10971000Y-6629000D03*
X10971000Y-6121000D03*
X11479000Y-6121000D03*
X11225000Y-6375000D03*
D14*
X12607500Y-6372500D03*
D13*
X12353500Y-6118500D03*
X12353500Y-6626500D03*
X12861500Y-6626500D03*
X12861500Y-6118500D03*
G36*
G01*
X12507500Y-8330000D02*
X12507500Y-8400000D01*
G75*
G02*
X12475000Y-8432500I-32500J0D01*
G01*
X12410000Y-8432500D01*
G75*
G02*
X12377500Y-8400000I0J32500D01*
G01*
X12377500Y-8330000D01*
G75*
G02*
X12410000Y-8297500I32500J0D01*
G01*
X12475000Y-8297500D01*
G75*
G02*
X12507500Y-8330000I0J-32500D01*
G01*
G37*
G36*
G01*
X12352500Y-8330000D02*
X12352500Y-8400000D01*
G75*
G02*
X12320000Y-8432500I-32500J0D01*
G01*
X12255000Y-8432500D01*
G75*
G02*
X12222500Y-8400000I0J32500D01*
G01*
X12222500Y-8330000D01*
G75*
G02*
X12255000Y-8297500I32500J0D01*
G01*
X12320000Y-8297500D01*
G75*
G02*
X12352500Y-8330000I0J-32500D01*
G01*
G37*
G36*
G01*
X12570000Y-8075000D02*
X12490000Y-8075000D01*
G75*
G02*
X12470000Y-8055000I0J20000D01*
G01*
X12470000Y-8015000D01*
G75*
G02*
X12490000Y-7995000I20000J0D01*
G01*
X12570000Y-7995000D01*
G75*
G02*
X12590000Y-8015000I0J-20000D01*
G01*
X12590000Y-8055000D01*
G75*
G02*
X12570000Y-8075000I-20000J0D01*
G01*
G37*
G36*
G01*
X12570000Y-7915000D02*
X12490000Y-7915000D01*
G75*
G02*
X12470000Y-7895000I0J20000D01*
G01*
X12470000Y-7855000D01*
G75*
G02*
X12490000Y-7835000I20000J0D01*
G01*
X12570000Y-7835000D01*
G75*
G02*
X12590000Y-7855000I0J-20000D01*
G01*
X12590000Y-7895000D01*
G75*
G02*
X12570000Y-7915000I-20000J0D01*
G01*
G37*
D15*
X11125000Y-4950000D03*
X15120000Y-8165000D03*
D10*
G36*
X12294389Y-8854940D02*
G01*
X12292547Y-8854940D01*
X12290586Y-8854844D01*
X12285703Y-8854363D01*
X12283762Y-8854075D01*
X12278949Y-8853117D01*
X12277045Y-8852640D01*
X12272350Y-8851216D01*
X12270502Y-8850555D01*
X12265969Y-8848677D01*
X12264194Y-8847838D01*
X12259867Y-8845525D01*
X12258184Y-8844516D01*
X12254104Y-8841790D01*
X12252527Y-8840621D01*
X12248734Y-8837508D01*
X12247280Y-8836190D01*
X12243810Y-8832720D01*
X12242492Y-8831266D01*
X12239379Y-8827473D01*
X12238210Y-8825896D01*
X12235484Y-8821816D01*
X12234475Y-8820133D01*
X12232162Y-8815806D01*
X12231323Y-8814031D01*
X12229445Y-8809498D01*
X12228784Y-8807650D01*
X12227360Y-8802955D01*
X12226883Y-8801051D01*
X12225925Y-8796238D01*
X12225637Y-8794297D01*
X12225156Y-8789414D01*
X12225060Y-8787453D01*
X12225060Y-8785611D01*
X12225000Y-8785000D01*
X12225000Y-8735000D01*
X12225060Y-8734389D01*
X12225060Y-8732547D01*
X12225156Y-8730586D01*
X12225637Y-8725703D01*
X12225925Y-8723762D01*
X12226883Y-8718950D01*
X12227360Y-8717045D01*
X12228784Y-8712350D01*
X12229445Y-8710502D01*
X12231323Y-8705969D01*
X12232162Y-8704194D01*
X12234475Y-8699867D01*
X12235484Y-8698184D01*
X12238210Y-8694104D01*
X12239379Y-8692527D01*
X12242492Y-8688734D01*
X12243810Y-8687280D01*
X12247280Y-8683810D01*
X12248734Y-8682492D01*
X12252527Y-8679380D01*
X12254104Y-8678210D01*
X12258184Y-8675484D01*
X12259867Y-8674475D01*
X12264194Y-8672162D01*
X12265969Y-8671323D01*
X12270502Y-8669445D01*
X12272350Y-8668784D01*
X12277045Y-8667360D01*
X12278949Y-8666883D01*
X12283762Y-8665925D01*
X12285703Y-8665638D01*
X12290586Y-8665157D01*
X12292547Y-8665060D01*
X12294389Y-8665060D01*
X12295000Y-8665000D01*
X12345000Y-8665000D01*
X12348902Y-8665384D01*
X12352654Y-8666522D01*
X12356111Y-8668371D01*
X12359142Y-8670858D01*
X12361629Y-8673889D01*
X12363478Y-8677346D01*
X12364616Y-8681098D01*
X12365000Y-8685000D01*
X12365000Y-8835000D01*
X12364616Y-8838902D01*
X12363478Y-8842654D01*
X12361629Y-8846111D01*
X12359142Y-8849142D01*
X12356111Y-8851629D01*
X12352654Y-8853478D01*
X12348902Y-8854616D01*
X12345000Y-8855000D01*
X12295000Y-8855000D01*
X12294389Y-8854940D01*
G37*
G36*
X12371098Y-8854616D02*
G01*
X12367346Y-8853478D01*
X12363889Y-8851629D01*
X12360858Y-8849142D01*
X12358371Y-8846111D01*
X12356522Y-8842654D01*
X12355384Y-8838902D01*
X12355000Y-8835000D01*
X12355000Y-8685000D01*
X12355384Y-8681098D01*
X12356522Y-8677346D01*
X12358371Y-8673889D01*
X12360858Y-8670858D01*
X12363889Y-8668371D01*
X12367346Y-8666522D01*
X12371098Y-8665384D01*
X12375000Y-8665000D01*
X12425000Y-8665000D01*
X12425611Y-8665060D01*
X12427453Y-8665060D01*
X12429414Y-8665157D01*
X12434297Y-8665638D01*
X12436238Y-8665925D01*
X12441050Y-8666883D01*
X12442955Y-8667360D01*
X12447650Y-8668784D01*
X12449498Y-8669445D01*
X12454031Y-8671323D01*
X12455806Y-8672162D01*
X12460133Y-8674475D01*
X12461816Y-8675484D01*
X12465896Y-8678210D01*
X12467473Y-8679380D01*
X12471266Y-8682492D01*
X12472720Y-8683810D01*
X12476190Y-8687280D01*
X12477508Y-8688734D01*
X12480620Y-8692527D01*
X12481790Y-8694104D01*
X12484516Y-8698184D01*
X12485525Y-8699867D01*
X12487838Y-8704194D01*
X12488677Y-8705969D01*
X12490555Y-8710502D01*
X12491216Y-8712350D01*
X12492640Y-8717045D01*
X12493117Y-8718950D01*
X12494075Y-8723762D01*
X12494362Y-8725703D01*
X12494843Y-8730586D01*
X12494940Y-8732547D01*
X12494940Y-8734389D01*
X12495000Y-8735000D01*
X12495000Y-8785000D01*
X12494940Y-8785611D01*
X12494940Y-8787453D01*
X12494843Y-8789414D01*
X12494362Y-8794297D01*
X12494075Y-8796238D01*
X12493117Y-8801051D01*
X12492640Y-8802955D01*
X12491216Y-8807650D01*
X12490555Y-8809498D01*
X12488677Y-8814031D01*
X12487838Y-8815806D01*
X12485525Y-8820133D01*
X12484516Y-8821816D01*
X12481790Y-8825896D01*
X12480620Y-8827473D01*
X12477508Y-8831266D01*
X12476190Y-8832720D01*
X12472720Y-8836190D01*
X12471266Y-8837508D01*
X12467473Y-8840621D01*
X12465896Y-8841790D01*
X12461816Y-8844516D01*
X12460133Y-8845525D01*
X12455806Y-8847838D01*
X12454031Y-8848677D01*
X12449498Y-8850555D01*
X12447650Y-8851216D01*
X12442955Y-8852640D01*
X12441050Y-8853117D01*
X12436238Y-8854075D01*
X12434297Y-8854363D01*
X12429414Y-8854844D01*
X12427453Y-8854940D01*
X12425611Y-8854940D01*
X12425000Y-8855000D01*
X12375000Y-8855000D01*
X12371098Y-8854616D01*
G37*
G36*
G01*
X14370000Y-8502500D02*
X14440000Y-8502500D01*
G75*
G02*
X14472500Y-8535000I0J-32500D01*
G01*
X14472500Y-8600000D01*
G75*
G02*
X14440000Y-8632500I-32500J0D01*
G01*
X14370000Y-8632500D01*
G75*
G02*
X14337500Y-8600000I0J32500D01*
G01*
X14337500Y-8535000D01*
G75*
G02*
X14370000Y-8502500I32500J0D01*
G01*
G37*
G36*
G01*
X14370000Y-8347500D02*
X14440000Y-8347500D01*
G75*
G02*
X14472500Y-8380000I0J-32500D01*
G01*
X14472500Y-8445000D01*
G75*
G02*
X14440000Y-8477500I-32500J0D01*
G01*
X14370000Y-8477500D01*
G75*
G02*
X14337500Y-8445000I0J32500D01*
G01*
X14337500Y-8380000D01*
G75*
G02*
X14370000Y-8347500I32500J0D01*
G01*
G37*
G36*
G01*
X14617500Y-8940000D02*
X14617500Y-9010000D01*
G75*
G02*
X14585000Y-9042500I-32500J0D01*
G01*
X14520000Y-9042500D01*
G75*
G02*
X14487500Y-9010000I0J32500D01*
G01*
X14487500Y-8940000D01*
G75*
G02*
X14520000Y-8907500I32500J0D01*
G01*
X14585000Y-8907500D01*
G75*
G02*
X14617500Y-8940000I0J-32500D01*
G01*
G37*
G36*
G01*
X14462500Y-8940000D02*
X14462500Y-9010000D01*
G75*
G02*
X14430000Y-9042500I-32500J0D01*
G01*
X14365000Y-9042500D01*
G75*
G02*
X14332500Y-9010000I0J32500D01*
G01*
X14332500Y-8940000D01*
G75*
G02*
X14365000Y-8907500I32500J0D01*
G01*
X14430000Y-8907500D01*
G75*
G02*
X14462500Y-8940000I0J-32500D01*
G01*
G37*
G36*
G01*
X13565000Y-8614500D02*
X13565000Y-8564500D01*
G75*
G02*
X13590000Y-8539500I25000J0D01*
G01*
X13755000Y-8539500D01*
G75*
G02*
X13780000Y-8564500I0J-25000D01*
G01*
X13780000Y-8614500D01*
G75*
G02*
X13755000Y-8639500I-25000J0D01*
G01*
X13590000Y-8639500D01*
G75*
G02*
X13565000Y-8614500I0J25000D01*
G01*
G37*
G36*
G01*
X13565000Y-8741500D02*
X13565000Y-8691500D01*
G75*
G02*
X13590000Y-8666500I25000J0D01*
G01*
X13755000Y-8666500D01*
G75*
G02*
X13780000Y-8691500I0J-25000D01*
G01*
X13780000Y-8741500D01*
G75*
G02*
X13755000Y-8766500I-25000J0D01*
G01*
X13590000Y-8766500D01*
G75*
G02*
X13565000Y-8741500I0J25000D01*
G01*
G37*
G36*
G01*
X13565000Y-8868500D02*
X13565000Y-8818500D01*
G75*
G02*
X13590000Y-8793500I25000J0D01*
G01*
X13755000Y-8793500D01*
G75*
G02*
X13780000Y-8818500I0J-25000D01*
G01*
X13780000Y-8868500D01*
G75*
G02*
X13755000Y-8893500I-25000J0D01*
G01*
X13590000Y-8893500D01*
G75*
G02*
X13565000Y-8868500I0J25000D01*
G01*
G37*
G36*
G01*
X13565000Y-8995500D02*
X13565000Y-8945500D01*
G75*
G02*
X13590000Y-8920500I25000J0D01*
G01*
X13755000Y-8920500D01*
G75*
G02*
X13780000Y-8945500I0J-25000D01*
G01*
X13780000Y-8995500D01*
G75*
G02*
X13755000Y-9020500I-25000J0D01*
G01*
X13590000Y-9020500D01*
G75*
G02*
X13565000Y-8995500I0J25000D01*
G01*
G37*
G36*
G01*
X14080000Y-8995500D02*
X14080000Y-8945500D01*
G75*
G02*
X14105000Y-8920500I25000J0D01*
G01*
X14270000Y-8920500D01*
G75*
G02*
X14295000Y-8945500I0J-25000D01*
G01*
X14295000Y-8995500D01*
G75*
G02*
X14270000Y-9020500I-25000J0D01*
G01*
X14105000Y-9020500D01*
G75*
G02*
X14080000Y-8995500I0J25000D01*
G01*
G37*
G36*
G01*
X14080000Y-8868500D02*
X14080000Y-8818500D01*
G75*
G02*
X14105000Y-8793500I25000J0D01*
G01*
X14270000Y-8793500D01*
G75*
G02*
X14295000Y-8818500I0J-25000D01*
G01*
X14295000Y-8868500D01*
G75*
G02*
X14270000Y-8893500I-25000J0D01*
G01*
X14105000Y-8893500D01*
G75*
G02*
X14080000Y-8868500I0J25000D01*
G01*
G37*
G36*
G01*
X14080000Y-8741500D02*
X14080000Y-8691500D01*
G75*
G02*
X14105000Y-8666500I25000J0D01*
G01*
X14270000Y-8666500D01*
G75*
G02*
X14295000Y-8691500I0J-25000D01*
G01*
X14295000Y-8741500D01*
G75*
G02*
X14270000Y-8766500I-25000J0D01*
G01*
X14105000Y-8766500D01*
G75*
G02*
X14080000Y-8741500I0J25000D01*
G01*
G37*
G36*
G01*
X14080000Y-8614500D02*
X14080000Y-8564500D01*
G75*
G02*
X14105000Y-8539500I25000J0D01*
G01*
X14270000Y-8539500D01*
G75*
G02*
X14295000Y-8564500I0J-25000D01*
G01*
X14295000Y-8614500D01*
G75*
G02*
X14270000Y-8639500I-25000J0D01*
G01*
X14105000Y-8639500D01*
G75*
G02*
X14080000Y-8614500I0J25000D01*
G01*
G37*
M02*
