G04 #@! TF.GenerationSoftware,KiCad,Pcbnew,(5.1.9)-1*
G04 #@! TF.CreationDate,2021-08-22T23:17:26+02:00*
G04 #@! TF.ProjectId,PDH_photodiode,5044485f-7068-46f7-946f-64696f64652e,1.1*
G04 #@! TF.SameCoordinates,Original*
G04 #@! TF.FileFunction,Other,Fab,Top*
%FSLAX45Y45*%
G04 Gerber Fmt 4.5, Leading zero omitted, Abs format (unit mm)*
G04 Created by KiCad (PCBNEW (5.1.9)-1) date 2021-08-22 23:17:26*
%MOMM*%
%LPD*%
G01*
G04 APERTURE LIST*
%ADD10C,0.100000*%
%ADD11C,0.060000*%
%ADD12C,0.120000*%
%ADD13C,0.150000*%
%ADD14C,0.110000*%
G04 APERTURE END LIST*
D10*
X13825000Y-6525000D02*
X14025000Y-6525000D01*
X14025000Y-6525000D02*
X14025000Y-6925000D01*
X14025000Y-6925000D02*
X13725000Y-6925000D01*
X13725000Y-6925000D02*
X13725000Y-6625000D01*
X13725000Y-6625000D02*
X13825000Y-6525000D01*
X14245000Y-6765000D02*
X14245000Y-6685000D01*
X14245000Y-6685000D02*
X14405000Y-6685000D01*
X14405000Y-6685000D02*
X14405000Y-6765000D01*
X14405000Y-6765000D02*
X14245000Y-6765000D01*
X14620000Y-6785000D02*
X14870000Y-6785000D01*
X14870000Y-6785000D02*
X14870000Y-7105000D01*
X14870000Y-7105000D02*
X14620000Y-7105000D01*
X14620000Y-7105000D02*
X14620000Y-6785000D01*
X14620000Y-6565000D02*
X14620000Y-6245000D01*
X14870000Y-6565000D02*
X14620000Y-6565000D01*
X14870000Y-6245000D02*
X14870000Y-6565000D01*
X14620000Y-6245000D02*
X14870000Y-6245000D01*
X13485000Y-6855000D02*
X13325000Y-6855000D01*
X13485000Y-6775000D02*
X13485000Y-6855000D01*
X13325000Y-6775000D02*
X13485000Y-6775000D01*
X13325000Y-6855000D02*
X13325000Y-6775000D01*
X13955000Y-6390000D02*
X13705000Y-6390000D01*
X13705000Y-6390000D02*
X13705000Y-6070000D01*
X13705000Y-6070000D02*
X13955000Y-6070000D01*
X13955000Y-6070000D02*
X13955000Y-6390000D01*
X13955000Y-7060000D02*
X13955000Y-7380000D01*
X13705000Y-7060000D02*
X13955000Y-7060000D01*
X13705000Y-7380000D02*
X13705000Y-7060000D01*
X13955000Y-7380000D02*
X13705000Y-7380000D01*
X12445000Y-8945000D02*
X12285000Y-8945000D01*
X12445000Y-8865000D02*
X12445000Y-8945000D01*
X12285000Y-8865000D02*
X12445000Y-8865000D01*
X12285000Y-8945000D02*
X12285000Y-8865000D01*
X12145000Y-7625000D02*
X12145000Y-7465000D01*
X12225000Y-7625000D02*
X12145000Y-7625000D01*
X12225000Y-7465000D02*
X12225000Y-7625000D01*
X12145000Y-7465000D02*
X12225000Y-7465000D01*
X11940000Y-8365000D02*
X11860000Y-8365000D01*
X11860000Y-8365000D02*
X11860000Y-8205000D01*
X11860000Y-8205000D02*
X11940000Y-8205000D01*
X11940000Y-8205000D02*
X11940000Y-8365000D01*
X14998000Y-6357500D02*
X15061500Y-6294000D01*
X14998000Y-7056000D02*
X14998000Y-6357500D01*
X15252000Y-7056000D02*
X14998000Y-7056000D01*
X15252000Y-6294000D02*
X15252000Y-7056000D01*
X15061500Y-6294000D02*
X15252000Y-6294000D01*
X11527500Y-7100000D02*
X11207500Y-7100000D01*
X11527500Y-6940000D02*
X11527500Y-7100000D01*
X11207500Y-6940000D02*
X11527500Y-6940000D01*
X11207500Y-7100000D02*
X11207500Y-6940000D01*
X11402500Y-7330000D02*
X11242500Y-7330000D01*
X11402500Y-7250000D02*
X11402500Y-7330000D01*
X11242500Y-7250000D02*
X11402500Y-7250000D01*
X11242500Y-7330000D02*
X11242500Y-7250000D01*
X12325000Y-6927500D02*
X12405000Y-6927500D01*
X12405000Y-6927500D02*
X12405000Y-7087500D01*
X12405000Y-7087500D02*
X12325000Y-7087500D01*
X12325000Y-7087500D02*
X12325000Y-6927500D01*
X12285000Y-8586250D02*
X12285000Y-8503750D01*
X12285000Y-8503750D02*
X12445000Y-8503750D01*
X12445000Y-8503750D02*
X12445000Y-8586250D01*
X12445000Y-8586250D02*
X12285000Y-8586250D01*
X13485000Y-6393750D02*
X13485000Y-6476250D01*
X13485000Y-6476250D02*
X13325000Y-6476250D01*
X13325000Y-6476250D02*
X13325000Y-6393750D01*
X13325000Y-6393750D02*
X13485000Y-6393750D01*
X13325000Y-6583750D02*
X13485000Y-6583750D01*
X13325000Y-6666250D02*
X13325000Y-6583750D01*
X13485000Y-6666250D02*
X13325000Y-6666250D01*
X13485000Y-6583750D02*
X13485000Y-6666250D01*
X14255000Y-6973750D02*
X14415000Y-6973750D01*
X14255000Y-7056250D02*
X14255000Y-6973750D01*
X14415000Y-7056250D02*
X14255000Y-7056250D01*
X14415000Y-6973750D02*
X14415000Y-7056250D01*
X14415000Y-7153750D02*
X14415000Y-7236250D01*
X14415000Y-7236250D02*
X14255000Y-7236250D01*
X14255000Y-7236250D02*
X14255000Y-7153750D01*
X14255000Y-7153750D02*
X14415000Y-7153750D01*
X12285000Y-8683750D02*
X12445000Y-8683750D01*
X12285000Y-8766250D02*
X12285000Y-8683750D01*
X12445000Y-8766250D02*
X12285000Y-8766250D01*
X12445000Y-8683750D02*
X12445000Y-8766250D01*
X11653750Y-7685000D02*
X11653750Y-7525000D01*
X11736250Y-7685000D02*
X11653750Y-7685000D01*
X11736250Y-7525000D02*
X11736250Y-7685000D01*
X11653750Y-7525000D02*
X11736250Y-7525000D01*
X11653750Y-7875000D02*
X11736250Y-7875000D01*
X11736250Y-7875000D02*
X11736250Y-8035000D01*
X11736250Y-8035000D02*
X11653750Y-8035000D01*
X11653750Y-8035000D02*
X11653750Y-7875000D01*
X12515000Y-7245000D02*
X12515000Y-6925000D01*
X12675000Y-7245000D02*
X12515000Y-7245000D01*
X12675000Y-6925000D02*
X12675000Y-7245000D01*
X12515000Y-6925000D02*
X12675000Y-6925000D01*
X12190000Y-8000000D02*
X12115000Y-8075000D01*
X12190000Y-7775000D02*
X12190000Y-8000000D01*
X11890000Y-7775000D02*
X12190000Y-7775000D01*
X11890000Y-8075000D02*
X11890000Y-7775000D01*
X12115000Y-8075000D02*
X11890000Y-8075000D01*
X9425000Y-6692500D02*
X9354400Y-6057500D01*
X10825000Y-6775000D02*
X10825000Y-5975000D01*
X10718000Y-6765000D02*
X10825000Y-6765000D01*
X10718000Y-5985000D02*
X10718000Y-6765000D01*
X10825000Y-5985000D02*
X10718000Y-5985000D01*
X9275000Y-6057500D02*
X10718000Y-6057500D01*
X9275000Y-6692500D02*
X10718000Y-6692500D01*
X9275000Y-6692500D02*
X9275000Y-6057500D01*
X10825000Y-5975000D02*
X11625000Y-5975000D01*
X11625000Y-6775000D02*
X11625000Y-5975000D01*
X10825000Y-6775000D02*
X11625000Y-6775000D01*
X9495600Y-6692500D02*
X9425000Y-6057500D01*
X9566200Y-6692500D02*
X9495600Y-6057500D01*
X9636800Y-6692500D02*
X9566200Y-6057500D01*
X9707400Y-6692500D02*
X9636800Y-6057500D01*
X9778000Y-6692500D02*
X9707400Y-6057500D01*
X9848600Y-6692500D02*
X9778000Y-6057500D01*
X9919200Y-6692500D02*
X9848600Y-6057500D01*
X9989800Y-6692500D02*
X9919200Y-6057500D01*
X10060400Y-6692500D02*
X9989800Y-6057500D01*
X10131000Y-6692500D02*
X10060400Y-6057500D01*
X10201600Y-6692500D02*
X10131000Y-6057500D01*
X10272200Y-6692500D02*
X10201600Y-6057500D01*
X10342800Y-6692500D02*
X10272200Y-6057500D01*
X10413400Y-6692500D02*
X10342800Y-6057500D01*
X10484000Y-6692500D02*
X10413400Y-6057500D01*
X10554600Y-6692500D02*
X10484000Y-6057500D01*
X10625200Y-6692500D02*
X10554600Y-6057500D01*
X12925000Y-6372500D02*
G75*
G03*
X12925000Y-6372500I-317500J0D01*
G01*
X12925000Y-6690000D02*
X12290000Y-6690000D01*
X12925000Y-6690000D02*
X12925000Y-6055000D01*
X12925000Y-6055000D02*
X12290000Y-6055000D01*
X12290000Y-6690000D02*
X12290000Y-6055000D01*
X12445000Y-8325000D02*
X12445000Y-8405000D01*
X12445000Y-8405000D02*
X12285000Y-8405000D01*
X12285000Y-8405000D02*
X12285000Y-8325000D01*
X12285000Y-8325000D02*
X12445000Y-8325000D01*
X12571250Y-7875000D02*
X12571250Y-8035000D01*
X12488750Y-7875000D02*
X12571250Y-7875000D01*
X12488750Y-8035000D02*
X12488750Y-7875000D01*
X12571250Y-8035000D02*
X12488750Y-8035000D01*
X13821667Y-6686667D02*
X13821667Y-6743333D01*
X13825000Y-6750000D01*
X13828333Y-6753333D01*
X13835000Y-6756667D01*
X13848333Y-6756667D01*
X13855000Y-6753333D01*
X13858333Y-6750000D01*
X13861667Y-6743333D01*
X13861667Y-6686667D01*
X13931667Y-6756667D02*
X13891667Y-6756667D01*
X13911667Y-6756667D02*
X13911667Y-6686667D01*
X13905000Y-6696667D01*
X13898333Y-6703333D01*
X13891667Y-6706667D01*
D11*
X14318333Y-6739286D02*
X14316428Y-6741190D01*
X14310714Y-6743095D01*
X14306905Y-6743095D01*
X14301190Y-6741190D01*
X14297381Y-6737381D01*
X14295476Y-6733571D01*
X14293571Y-6725952D01*
X14293571Y-6720238D01*
X14295476Y-6712619D01*
X14297381Y-6708809D01*
X14301190Y-6705000D01*
X14306905Y-6703095D01*
X14310714Y-6703095D01*
X14316428Y-6705000D01*
X14318333Y-6706905D01*
X14352619Y-6716428D02*
X14352619Y-6743095D01*
X14343095Y-6701190D02*
X14333571Y-6729762D01*
X14358333Y-6729762D01*
D12*
X14773571Y-6958333D02*
X14777381Y-6962143D01*
X14781190Y-6973571D01*
X14781190Y-6981190D01*
X14777381Y-6992619D01*
X14769762Y-7000238D01*
X14762143Y-7004048D01*
X14746905Y-7007857D01*
X14735476Y-7007857D01*
X14720238Y-7004048D01*
X14712619Y-7000238D01*
X14705000Y-6992619D01*
X14701190Y-6981190D01*
X14701190Y-6973571D01*
X14705000Y-6962143D01*
X14708809Y-6958333D01*
X14708809Y-6927857D02*
X14705000Y-6924048D01*
X14701190Y-6916428D01*
X14701190Y-6897381D01*
X14705000Y-6889762D01*
X14708809Y-6885952D01*
X14716428Y-6882143D01*
X14724048Y-6882143D01*
X14735476Y-6885952D01*
X14781190Y-6931667D01*
X14781190Y-6882143D01*
X14773571Y-6418333D02*
X14777381Y-6422143D01*
X14781190Y-6433571D01*
X14781190Y-6441190D01*
X14777381Y-6452619D01*
X14769762Y-6460238D01*
X14762143Y-6464048D01*
X14746905Y-6467857D01*
X14735476Y-6467857D01*
X14720238Y-6464048D01*
X14712619Y-6460238D01*
X14705000Y-6452619D01*
X14701190Y-6441190D01*
X14701190Y-6433571D01*
X14705000Y-6422143D01*
X14708809Y-6418333D01*
X14781190Y-6342143D02*
X14781190Y-6387857D01*
X14781190Y-6365000D02*
X14701190Y-6365000D01*
X14712619Y-6372619D01*
X14720238Y-6380238D01*
X14724048Y-6387857D01*
D11*
X13398333Y-6829286D02*
X13396428Y-6831190D01*
X13390714Y-6833095D01*
X13386905Y-6833095D01*
X13381190Y-6831190D01*
X13377381Y-6827381D01*
X13375476Y-6823571D01*
X13373571Y-6815952D01*
X13373571Y-6810238D01*
X13375476Y-6802619D01*
X13377381Y-6798809D01*
X13381190Y-6795000D01*
X13386905Y-6793095D01*
X13390714Y-6793095D01*
X13396428Y-6795000D01*
X13398333Y-6796905D01*
X13411667Y-6793095D02*
X13436428Y-6793095D01*
X13423095Y-6808333D01*
X13428809Y-6808333D01*
X13432619Y-6810238D01*
X13434524Y-6812143D01*
X13436428Y-6815952D01*
X13436428Y-6825476D01*
X13434524Y-6829286D01*
X13432619Y-6831190D01*
X13428809Y-6833095D01*
X13417381Y-6833095D01*
X13413571Y-6831190D01*
X13411667Y-6829286D01*
D12*
X13858571Y-6243333D02*
X13862381Y-6247143D01*
X13866190Y-6258571D01*
X13866190Y-6266190D01*
X13862381Y-6277619D01*
X13854762Y-6285238D01*
X13847143Y-6289048D01*
X13831905Y-6292857D01*
X13820476Y-6292857D01*
X13805238Y-6289048D01*
X13797619Y-6285238D01*
X13790000Y-6277619D01*
X13786190Y-6266190D01*
X13786190Y-6258571D01*
X13790000Y-6247143D01*
X13793809Y-6243333D01*
X13786190Y-6170952D02*
X13786190Y-6209048D01*
X13824286Y-6212857D01*
X13820476Y-6209048D01*
X13816667Y-6201428D01*
X13816667Y-6182381D01*
X13820476Y-6174762D01*
X13824286Y-6170952D01*
X13831905Y-6167143D01*
X13850952Y-6167143D01*
X13858571Y-6170952D01*
X13862381Y-6174762D01*
X13866190Y-6182381D01*
X13866190Y-6201428D01*
X13862381Y-6209048D01*
X13858571Y-6212857D01*
X13858571Y-7233333D02*
X13862381Y-7237143D01*
X13866190Y-7248571D01*
X13866190Y-7256190D01*
X13862381Y-7267619D01*
X13854762Y-7275238D01*
X13847143Y-7279048D01*
X13831905Y-7282857D01*
X13820476Y-7282857D01*
X13805238Y-7279048D01*
X13797619Y-7275238D01*
X13790000Y-7267619D01*
X13786190Y-7256190D01*
X13786190Y-7248571D01*
X13790000Y-7237143D01*
X13793809Y-7233333D01*
X13786190Y-7164762D02*
X13786190Y-7180000D01*
X13790000Y-7187619D01*
X13793809Y-7191428D01*
X13805238Y-7199048D01*
X13820476Y-7202857D01*
X13850952Y-7202857D01*
X13858571Y-7199048D01*
X13862381Y-7195238D01*
X13866190Y-7187619D01*
X13866190Y-7172381D01*
X13862381Y-7164762D01*
X13858571Y-7160952D01*
X13850952Y-7157143D01*
X13831905Y-7157143D01*
X13824286Y-7160952D01*
X13820476Y-7164762D01*
X13816667Y-7172381D01*
X13816667Y-7187619D01*
X13820476Y-7195238D01*
X13824286Y-7199048D01*
X13831905Y-7202857D01*
D11*
X12358333Y-8919286D02*
X12356428Y-8921190D01*
X12350714Y-8923095D01*
X12346905Y-8923095D01*
X12341190Y-8921190D01*
X12337381Y-8917381D01*
X12335476Y-8913571D01*
X12333571Y-8905952D01*
X12333571Y-8900238D01*
X12335476Y-8892619D01*
X12337381Y-8888810D01*
X12341190Y-8885000D01*
X12346905Y-8883095D01*
X12350714Y-8883095D01*
X12356428Y-8885000D01*
X12358333Y-8886905D01*
X12381190Y-8900238D02*
X12377381Y-8898333D01*
X12375476Y-8896429D01*
X12373571Y-8892619D01*
X12373571Y-8890714D01*
X12375476Y-8886905D01*
X12377381Y-8885000D01*
X12381190Y-8883095D01*
X12388809Y-8883095D01*
X12392619Y-8885000D01*
X12394524Y-8886905D01*
X12396428Y-8890714D01*
X12396428Y-8892619D01*
X12394524Y-8896429D01*
X12392619Y-8898333D01*
X12388809Y-8900238D01*
X12381190Y-8900238D01*
X12377381Y-8902143D01*
X12375476Y-8904048D01*
X12373571Y-8907857D01*
X12373571Y-8915476D01*
X12375476Y-8919286D01*
X12377381Y-8921190D01*
X12381190Y-8923095D01*
X12388809Y-8923095D01*
X12392619Y-8921190D01*
X12394524Y-8919286D01*
X12396428Y-8915476D01*
X12396428Y-8907857D01*
X12394524Y-8904048D01*
X12392619Y-8902143D01*
X12388809Y-8900238D01*
X12199286Y-7551667D02*
X12201190Y-7553571D01*
X12203095Y-7559286D01*
X12203095Y-7563095D01*
X12201190Y-7568809D01*
X12197381Y-7572619D01*
X12193571Y-7574524D01*
X12185952Y-7576428D01*
X12180238Y-7576428D01*
X12172619Y-7574524D01*
X12168809Y-7572619D01*
X12165000Y-7568809D01*
X12163095Y-7563095D01*
X12163095Y-7559286D01*
X12165000Y-7553571D01*
X12166905Y-7551667D01*
X12203095Y-7532619D02*
X12203095Y-7525000D01*
X12201190Y-7521190D01*
X12199286Y-7519286D01*
X12193571Y-7515476D01*
X12185952Y-7513571D01*
X12170714Y-7513571D01*
X12166905Y-7515476D01*
X12165000Y-7517381D01*
X12163095Y-7521190D01*
X12163095Y-7528809D01*
X12165000Y-7532619D01*
X12166905Y-7534524D01*
X12170714Y-7536428D01*
X12180238Y-7536428D01*
X12184048Y-7534524D01*
X12185952Y-7532619D01*
X12187857Y-7528809D01*
X12187857Y-7521190D01*
X12185952Y-7517381D01*
X12184048Y-7515476D01*
X12180238Y-7513571D01*
X11914286Y-8310714D02*
X11916190Y-8312619D01*
X11918095Y-8318333D01*
X11918095Y-8322143D01*
X11916190Y-8327857D01*
X11912381Y-8331667D01*
X11908571Y-8333571D01*
X11900952Y-8335476D01*
X11895238Y-8335476D01*
X11887619Y-8333571D01*
X11883809Y-8331667D01*
X11880000Y-8327857D01*
X11878095Y-8322143D01*
X11878095Y-8318333D01*
X11880000Y-8312619D01*
X11881905Y-8310714D01*
X11918095Y-8272619D02*
X11918095Y-8295476D01*
X11918095Y-8284048D02*
X11878095Y-8284048D01*
X11883809Y-8287857D01*
X11887619Y-8291667D01*
X11889524Y-8295476D01*
X11881905Y-8257381D02*
X11880000Y-8255476D01*
X11878095Y-8251667D01*
X11878095Y-8242143D01*
X11880000Y-8238333D01*
X11881905Y-8236428D01*
X11885714Y-8234524D01*
X11889524Y-8234524D01*
X11895238Y-8236428D01*
X11918095Y-8259286D01*
X11918095Y-8234524D01*
D13*
X15070238Y-6708333D02*
X15141667Y-6708333D01*
X15155952Y-6713095D01*
X15165476Y-6722619D01*
X15170238Y-6736905D01*
X15170238Y-6746428D01*
X15170238Y-6608333D02*
X15170238Y-6665476D01*
X15170238Y-6636905D02*
X15070238Y-6636905D01*
X15084524Y-6646428D01*
X15094048Y-6655952D01*
X15098809Y-6665476D01*
D12*
X11354167Y-7056190D02*
X11327500Y-7018095D01*
X11308452Y-7056190D02*
X11308452Y-6976190D01*
X11338928Y-6976190D01*
X11346548Y-6980000D01*
X11350357Y-6983809D01*
X11354167Y-6991428D01*
X11354167Y-7002857D01*
X11350357Y-7010476D01*
X11346548Y-7014286D01*
X11338928Y-7018095D01*
X11308452Y-7018095D01*
X11422738Y-7002857D02*
X11422738Y-7056190D01*
X11403690Y-6972381D02*
X11384643Y-7029524D01*
X11434167Y-7029524D01*
D11*
X11296786Y-7304286D02*
X11294881Y-7306190D01*
X11289167Y-7308095D01*
X11285357Y-7308095D01*
X11279643Y-7306190D01*
X11275833Y-7302381D01*
X11273928Y-7298571D01*
X11272024Y-7290952D01*
X11272024Y-7285238D01*
X11273928Y-7277619D01*
X11275833Y-7273809D01*
X11279643Y-7270000D01*
X11285357Y-7268095D01*
X11289167Y-7268095D01*
X11294881Y-7270000D01*
X11296786Y-7271905D01*
X11334881Y-7308095D02*
X11312024Y-7308095D01*
X11323452Y-7308095D02*
X11323452Y-7268095D01*
X11319643Y-7273809D01*
X11315833Y-7277619D01*
X11312024Y-7279524D01*
X11359643Y-7268095D02*
X11363452Y-7268095D01*
X11367262Y-7270000D01*
X11369167Y-7271905D01*
X11371071Y-7275714D01*
X11372976Y-7283333D01*
X11372976Y-7292857D01*
X11371071Y-7300476D01*
X11369167Y-7304286D01*
X11367262Y-7306190D01*
X11363452Y-7308095D01*
X11359643Y-7308095D01*
X11355833Y-7306190D01*
X11353928Y-7304286D01*
X11352024Y-7300476D01*
X11350119Y-7292857D01*
X11350119Y-7283333D01*
X11352024Y-7275714D01*
X11353928Y-7271905D01*
X11355833Y-7270000D01*
X11359643Y-7268095D01*
X12379286Y-7033214D02*
X12381190Y-7035119D01*
X12383095Y-7040833D01*
X12383095Y-7044643D01*
X12381190Y-7050357D01*
X12377381Y-7054167D01*
X12373571Y-7056071D01*
X12365952Y-7057976D01*
X12360238Y-7057976D01*
X12352619Y-7056071D01*
X12348809Y-7054167D01*
X12345000Y-7050357D01*
X12343095Y-7044643D01*
X12343095Y-7040833D01*
X12345000Y-7035119D01*
X12346905Y-7033214D01*
X12383095Y-6995119D02*
X12383095Y-7017976D01*
X12383095Y-7006548D02*
X12343095Y-7006548D01*
X12348809Y-7010357D01*
X12352619Y-7014167D01*
X12354524Y-7017976D01*
X12383095Y-6957024D02*
X12383095Y-6979881D01*
X12383095Y-6968452D02*
X12343095Y-6968452D01*
X12348809Y-6972262D01*
X12352619Y-6976071D01*
X12354524Y-6979881D01*
X12358333Y-8563095D02*
X12345000Y-8544048D01*
X12335476Y-8563095D02*
X12335476Y-8523095D01*
X12350714Y-8523095D01*
X12354524Y-8525000D01*
X12356428Y-8526905D01*
X12358333Y-8530714D01*
X12358333Y-8536429D01*
X12356428Y-8540238D01*
X12354524Y-8542143D01*
X12350714Y-8544048D01*
X12335476Y-8544048D01*
X12396428Y-8563095D02*
X12373571Y-8563095D01*
X12385000Y-8563095D02*
X12385000Y-8523095D01*
X12381190Y-8528810D01*
X12377381Y-8532619D01*
X12373571Y-8534524D01*
X13398333Y-6453095D02*
X13385000Y-6434048D01*
X13375476Y-6453095D02*
X13375476Y-6413095D01*
X13390714Y-6413095D01*
X13394524Y-6415000D01*
X13396428Y-6416905D01*
X13398333Y-6420714D01*
X13398333Y-6426428D01*
X13396428Y-6430238D01*
X13394524Y-6432143D01*
X13390714Y-6434048D01*
X13375476Y-6434048D01*
X13413571Y-6416905D02*
X13415476Y-6415000D01*
X13419286Y-6413095D01*
X13428809Y-6413095D01*
X13432619Y-6415000D01*
X13434524Y-6416905D01*
X13436428Y-6420714D01*
X13436428Y-6424524D01*
X13434524Y-6430238D01*
X13411667Y-6453095D01*
X13436428Y-6453095D01*
X13398333Y-6643095D02*
X13385000Y-6624048D01*
X13375476Y-6643095D02*
X13375476Y-6603095D01*
X13390714Y-6603095D01*
X13394524Y-6605000D01*
X13396428Y-6606905D01*
X13398333Y-6610714D01*
X13398333Y-6616428D01*
X13396428Y-6620238D01*
X13394524Y-6622143D01*
X13390714Y-6624048D01*
X13375476Y-6624048D01*
X13434524Y-6603095D02*
X13415476Y-6603095D01*
X13413571Y-6622143D01*
X13415476Y-6620238D01*
X13419286Y-6618333D01*
X13428809Y-6618333D01*
X13432619Y-6620238D01*
X13434524Y-6622143D01*
X13436428Y-6625952D01*
X13436428Y-6635476D01*
X13434524Y-6639286D01*
X13432619Y-6641190D01*
X13428809Y-6643095D01*
X13419286Y-6643095D01*
X13415476Y-6641190D01*
X13413571Y-6639286D01*
X14328333Y-7033095D02*
X14315000Y-7014048D01*
X14305476Y-7033095D02*
X14305476Y-6993095D01*
X14320714Y-6993095D01*
X14324524Y-6995000D01*
X14326428Y-6996905D01*
X14328333Y-7000714D01*
X14328333Y-7006428D01*
X14326428Y-7010238D01*
X14324524Y-7012143D01*
X14320714Y-7014048D01*
X14305476Y-7014048D01*
X14362619Y-6993095D02*
X14355000Y-6993095D01*
X14351190Y-6995000D01*
X14349286Y-6996905D01*
X14345476Y-7002619D01*
X14343571Y-7010238D01*
X14343571Y-7025476D01*
X14345476Y-7029286D01*
X14347381Y-7031190D01*
X14351190Y-7033095D01*
X14358809Y-7033095D01*
X14362619Y-7031190D01*
X14364524Y-7029286D01*
X14366428Y-7025476D01*
X14366428Y-7015952D01*
X14364524Y-7012143D01*
X14362619Y-7010238D01*
X14358809Y-7008333D01*
X14351190Y-7008333D01*
X14347381Y-7010238D01*
X14345476Y-7012143D01*
X14343571Y-7015952D01*
X14328333Y-7213095D02*
X14315000Y-7194048D01*
X14305476Y-7213095D02*
X14305476Y-7173095D01*
X14320714Y-7173095D01*
X14324524Y-7175000D01*
X14326428Y-7176905D01*
X14328333Y-7180714D01*
X14328333Y-7186428D01*
X14326428Y-7190238D01*
X14324524Y-7192143D01*
X14320714Y-7194048D01*
X14305476Y-7194048D01*
X14341667Y-7173095D02*
X14368333Y-7173095D01*
X14351190Y-7213095D01*
X12358333Y-8743095D02*
X12345000Y-8724048D01*
X12335476Y-8743095D02*
X12335476Y-8703095D01*
X12350714Y-8703095D01*
X12354524Y-8705000D01*
X12356428Y-8706905D01*
X12358333Y-8710714D01*
X12358333Y-8716429D01*
X12356428Y-8720238D01*
X12354524Y-8722143D01*
X12350714Y-8724048D01*
X12335476Y-8724048D01*
X12381190Y-8720238D02*
X12377381Y-8718333D01*
X12375476Y-8716429D01*
X12373571Y-8712619D01*
X12373571Y-8710714D01*
X12375476Y-8706905D01*
X12377381Y-8705000D01*
X12381190Y-8703095D01*
X12388809Y-8703095D01*
X12392619Y-8705000D01*
X12394524Y-8706905D01*
X12396428Y-8710714D01*
X12396428Y-8712619D01*
X12394524Y-8716429D01*
X12392619Y-8718333D01*
X12388809Y-8720238D01*
X12381190Y-8720238D01*
X12377381Y-8722143D01*
X12375476Y-8724048D01*
X12373571Y-8727857D01*
X12373571Y-8735476D01*
X12375476Y-8739286D01*
X12377381Y-8741190D01*
X12381190Y-8743095D01*
X12388809Y-8743095D01*
X12392619Y-8741190D01*
X12394524Y-8739286D01*
X12396428Y-8735476D01*
X12396428Y-8727857D01*
X12394524Y-8724048D01*
X12392619Y-8722143D01*
X12388809Y-8720238D01*
X11713095Y-7611667D02*
X11694048Y-7625000D01*
X11713095Y-7634524D02*
X11673095Y-7634524D01*
X11673095Y-7619286D01*
X11675000Y-7615476D01*
X11676905Y-7613571D01*
X11680714Y-7611667D01*
X11686428Y-7611667D01*
X11690238Y-7613571D01*
X11692143Y-7615476D01*
X11694048Y-7619286D01*
X11694048Y-7634524D01*
X11713095Y-7592619D02*
X11713095Y-7585000D01*
X11711190Y-7581190D01*
X11709286Y-7579286D01*
X11703571Y-7575476D01*
X11695952Y-7573571D01*
X11680714Y-7573571D01*
X11676905Y-7575476D01*
X11675000Y-7577381D01*
X11673095Y-7581190D01*
X11673095Y-7588809D01*
X11675000Y-7592619D01*
X11676905Y-7594524D01*
X11680714Y-7596428D01*
X11690238Y-7596428D01*
X11694048Y-7594524D01*
X11695952Y-7592619D01*
X11697857Y-7588809D01*
X11697857Y-7581190D01*
X11695952Y-7577381D01*
X11694048Y-7575476D01*
X11690238Y-7573571D01*
X11713095Y-7980714D02*
X11694048Y-7994048D01*
X11713095Y-8003571D02*
X11673095Y-8003571D01*
X11673095Y-7988333D01*
X11675000Y-7984524D01*
X11676905Y-7982619D01*
X11680714Y-7980714D01*
X11686428Y-7980714D01*
X11690238Y-7982619D01*
X11692143Y-7984524D01*
X11694048Y-7988333D01*
X11694048Y-8003571D01*
X11713095Y-7942619D02*
X11713095Y-7965476D01*
X11713095Y-7954048D02*
X11673095Y-7954048D01*
X11678809Y-7957857D01*
X11682619Y-7961667D01*
X11684524Y-7965476D01*
X11673095Y-7917857D02*
X11673095Y-7914048D01*
X11675000Y-7910238D01*
X11676905Y-7908333D01*
X11680714Y-7906428D01*
X11688333Y-7904524D01*
X11697857Y-7904524D01*
X11705476Y-7906428D01*
X11709286Y-7908333D01*
X11711190Y-7910238D01*
X11713095Y-7914048D01*
X11713095Y-7917857D01*
X11711190Y-7921667D01*
X11709286Y-7923571D01*
X11705476Y-7925476D01*
X11697857Y-7927381D01*
X11688333Y-7927381D01*
X11680714Y-7925476D01*
X11676905Y-7923571D01*
X11675000Y-7921667D01*
X11673095Y-7917857D01*
D12*
X12631190Y-7136428D02*
X12593095Y-7163095D01*
X12631190Y-7182143D02*
X12551190Y-7182143D01*
X12551190Y-7151667D01*
X12555000Y-7144048D01*
X12558809Y-7140238D01*
X12566428Y-7136428D01*
X12577857Y-7136428D01*
X12585476Y-7140238D01*
X12589286Y-7144048D01*
X12593095Y-7151667D01*
X12593095Y-7182143D01*
X12631190Y-7060238D02*
X12631190Y-7105952D01*
X12631190Y-7083095D02*
X12551190Y-7083095D01*
X12562619Y-7090714D01*
X12570238Y-7098333D01*
X12574048Y-7105952D01*
X12631190Y-6984048D02*
X12631190Y-7029762D01*
X12631190Y-7006905D02*
X12551190Y-7006905D01*
X12562619Y-7014524D01*
X12570238Y-7022143D01*
X12574048Y-7029762D01*
D14*
X11982857Y-7883928D02*
X11982857Y-7944643D01*
X11986428Y-7951786D01*
X11990000Y-7955357D01*
X11997143Y-7958928D01*
X12011428Y-7958928D01*
X12018571Y-7955357D01*
X12022143Y-7951786D01*
X12025714Y-7944643D01*
X12025714Y-7883928D01*
X12057857Y-7891071D02*
X12061428Y-7887500D01*
X12068571Y-7883928D01*
X12086428Y-7883928D01*
X12093571Y-7887500D01*
X12097143Y-7891071D01*
X12100714Y-7898214D01*
X12100714Y-7905357D01*
X12097143Y-7916071D01*
X12054286Y-7958928D01*
X12100714Y-7958928D01*
D13*
X11170238Y-6408333D02*
X11241667Y-6408333D01*
X11255952Y-6413095D01*
X11265476Y-6422619D01*
X11270238Y-6436905D01*
X11270238Y-6446428D01*
X11179762Y-6365476D02*
X11175000Y-6360714D01*
X11170238Y-6351190D01*
X11170238Y-6327381D01*
X11175000Y-6317857D01*
X11179762Y-6313095D01*
X11189286Y-6308333D01*
X11198809Y-6308333D01*
X11213095Y-6313095D01*
X11270238Y-6370238D01*
X11270238Y-6308333D01*
X12574167Y-6317738D02*
X12574167Y-6389167D01*
X12569405Y-6403452D01*
X12559881Y-6412976D01*
X12545595Y-6417738D01*
X12536071Y-6417738D01*
X12612262Y-6317738D02*
X12674167Y-6317738D01*
X12640833Y-6355833D01*
X12655119Y-6355833D01*
X12664643Y-6360595D01*
X12669405Y-6365357D01*
X12674167Y-6374881D01*
X12674167Y-6398690D01*
X12669405Y-6408214D01*
X12664643Y-6412976D01*
X12655119Y-6417738D01*
X12626548Y-6417738D01*
X12617024Y-6412976D01*
X12612262Y-6408214D01*
D11*
X12358333Y-8379286D02*
X12356428Y-8381190D01*
X12350714Y-8383095D01*
X12346905Y-8383095D01*
X12341190Y-8381190D01*
X12337381Y-8377381D01*
X12335476Y-8373571D01*
X12333571Y-8365952D01*
X12333571Y-8360238D01*
X12335476Y-8352619D01*
X12337381Y-8348809D01*
X12341190Y-8345000D01*
X12346905Y-8343095D01*
X12350714Y-8343095D01*
X12356428Y-8345000D01*
X12358333Y-8346905D01*
X12371667Y-8343095D02*
X12398333Y-8343095D01*
X12381190Y-8383095D01*
X12548095Y-7961667D02*
X12529048Y-7975000D01*
X12548095Y-7984524D02*
X12508095Y-7984524D01*
X12508095Y-7969286D01*
X12510000Y-7965476D01*
X12511905Y-7963571D01*
X12515714Y-7961667D01*
X12521428Y-7961667D01*
X12525238Y-7963571D01*
X12527143Y-7965476D01*
X12529048Y-7969286D01*
X12529048Y-7984524D01*
X12508095Y-7948333D02*
X12508095Y-7923571D01*
X12523333Y-7936905D01*
X12523333Y-7931190D01*
X12525238Y-7927381D01*
X12527143Y-7925476D01*
X12530952Y-7923571D01*
X12540476Y-7923571D01*
X12544286Y-7925476D01*
X12546190Y-7927381D01*
X12548095Y-7931190D01*
X12548095Y-7942619D01*
X12546190Y-7946428D01*
X12544286Y-7948333D01*
D13*
X11078810Y-4995238D02*
X11078810Y-4895238D01*
X11078810Y-4942857D02*
X11135952Y-4942857D01*
X11135952Y-4995238D02*
X11135952Y-4895238D01*
X11235952Y-4995238D02*
X11178810Y-4995238D01*
X11207381Y-4995238D02*
X11207381Y-4895238D01*
X11197857Y-4909524D01*
X11188333Y-4919048D01*
X11178810Y-4923810D01*
X15073809Y-8210238D02*
X15073809Y-8110238D01*
X15073809Y-8157857D02*
X15130952Y-8157857D01*
X15130952Y-8210238D02*
X15130952Y-8110238D01*
X15173809Y-8119762D02*
X15178571Y-8115000D01*
X15188095Y-8110238D01*
X15211905Y-8110238D01*
X15221428Y-8115000D01*
X15226190Y-8119762D01*
X15230952Y-8129286D01*
X15230952Y-8138809D01*
X15226190Y-8153095D01*
X15169048Y-8210238D01*
X15230952Y-8210238D01*
M02*
