M48
; DRILL file {KiCad (5.1.9)-1} date 08/22/21 23:17:29
; FORMAT={-:-/ absolute / metric / decimal}
; #@! TF.CreationDate,2021-08-22T23:17:29+02:00
; #@! TF.GenerationSoftware,Kicad,Pcbnew,(5.1.9)-1
; #@! TF.FileFunction,Plated,1,2,PTH
FMAT,2
METRIC
T1C0.300
T2C0.600
T3C1.000
T4C1.500
T5C1.700
%
G90
G05
T1
X113.925Y-74.1
X116.75Y-82.05
X116.95Y-73.85
X117.95Y-77.85
X118.95Y-84.85
X119.05Y-75.45
X120.65Y-81.55
X121.45Y-83.35
X121.55Y-85.45
X121.85Y-73.55
X123.45Y-74.15
X123.65Y-72.05
X123.8Y-78.2
X124.15Y-79.55
X125.65Y-89.05
X126.6Y-79.55
X131.75Y-66.25
X138.3Y-75.45
X138.35Y-59.25
X138.75Y-66.45
X141.35Y-71.45
X145.25Y-67.25
X145.35Y-70.25
T2
X129.79Y-79.25
X131.06Y-77.98
X132.33Y-79.25
T3
X151.25Y-64.21
X151.25Y-66.75
X151.25Y-69.29
T4
X112.25Y-63.75
X126.075Y-63.725
T5
X109.71Y-61.21
X109.71Y-66.29
X114.79Y-61.21
X114.79Y-66.29
X123.535Y-61.185
X123.535Y-66.265
X128.615Y-61.185
X128.615Y-66.265
T0
M30
