G04 #@! TF.GenerationSoftware,KiCad,Pcbnew,(5.1.9)-1*
G04 #@! TF.CreationDate,2021-02-25T21:53:28+01:00*
G04 #@! TF.ProjectId,PDH_photodiode,5044485f-7068-46f7-946f-64696f64652e,1.1*
G04 #@! TF.SameCoordinates,Original*
G04 #@! TF.FileFunction,Legend,Top*
G04 #@! TF.FilePolarity,Positive*
%FSLAX45Y45*%
G04 Gerber Fmt 4.5, Leading zero omitted, Abs format (unit mm)*
G04 Created by KiCad (PCBNEW (5.1.9)-1) date 2021-02-25 21:53:28*
%MOMM*%
%LPD*%
G01*
G04 APERTURE LIST*
%ADD10C,0.250000*%
%ADD11C,0.300000*%
%ADD12C,0.120000*%
%ADD13C,1.000000*%
%ADD14C,0.150000*%
%ADD15C,0.600000*%
G04 APERTURE END LIST*
D10*
X15305000Y-6796428D02*
X15299286Y-6807857D01*
X15299286Y-6825000D01*
X15305000Y-6842143D01*
X15316428Y-6853571D01*
X15327857Y-6859286D01*
X15350714Y-6865000D01*
X15367857Y-6865000D01*
X15390714Y-6859286D01*
X15402143Y-6853571D01*
X15413571Y-6842143D01*
X15419286Y-6825000D01*
X15419286Y-6813571D01*
X15413571Y-6796428D01*
X15407857Y-6790714D01*
X15367857Y-6790714D01*
X15367857Y-6813571D01*
X15419286Y-6739286D02*
X15299286Y-6739286D01*
X15419286Y-6670714D01*
X15299286Y-6670714D01*
X15419286Y-6613571D02*
X15299286Y-6613571D01*
X15299286Y-6585000D01*
X15305000Y-6567857D01*
X15316428Y-6556428D01*
X15327857Y-6550714D01*
X15350714Y-6545000D01*
X15367857Y-6545000D01*
X15390714Y-6550714D01*
X15402143Y-6556428D01*
X15413571Y-6567857D01*
X15419286Y-6585000D01*
X15419286Y-6613571D01*
D11*
X14972143Y-7255714D02*
X15086428Y-7255714D01*
X15229286Y-7162857D02*
X15157857Y-7162857D01*
X15150714Y-7234286D01*
X15157857Y-7227143D01*
X15172143Y-7220000D01*
X15207857Y-7220000D01*
X15222143Y-7227143D01*
X15229286Y-7234286D01*
X15236428Y-7248571D01*
X15236428Y-7284286D01*
X15229286Y-7298571D01*
X15222143Y-7305714D01*
X15207857Y-7312857D01*
X15172143Y-7312857D01*
X15157857Y-7305714D01*
X15150714Y-7298571D01*
X15279286Y-7162857D02*
X15329286Y-7312857D01*
X15379286Y-7162857D01*
X14952143Y-6095714D02*
X15066428Y-6095714D01*
X15009286Y-6152857D02*
X15009286Y-6038571D01*
X15209286Y-6002857D02*
X15137857Y-6002857D01*
X15130714Y-6074286D01*
X15137857Y-6067143D01*
X15152143Y-6060000D01*
X15187857Y-6060000D01*
X15202143Y-6067143D01*
X15209286Y-6074286D01*
X15216428Y-6088571D01*
X15216428Y-6124286D01*
X15209286Y-6138571D01*
X15202143Y-6145714D01*
X15187857Y-6152857D01*
X15152143Y-6152857D01*
X15137857Y-6145714D01*
X15130714Y-6138571D01*
X15259286Y-6002857D02*
X15309286Y-6152857D01*
X15359286Y-6002857D01*
D10*
X12066964Y-4947857D02*
X12066964Y-4797857D01*
X12124107Y-4797857D01*
X12138393Y-4805000D01*
X12145536Y-4812143D01*
X12152678Y-4826429D01*
X12152678Y-4847857D01*
X12145536Y-4862143D01*
X12138393Y-4869286D01*
X12124107Y-4876429D01*
X12066964Y-4876429D01*
X12216964Y-4947857D02*
X12216964Y-4797857D01*
X12252678Y-4797857D01*
X12274107Y-4805000D01*
X12288393Y-4819286D01*
X12295536Y-4833571D01*
X12302678Y-4862143D01*
X12302678Y-4883571D01*
X12295536Y-4912143D01*
X12288393Y-4926429D01*
X12274107Y-4940714D01*
X12252678Y-4947857D01*
X12216964Y-4947857D01*
X12366964Y-4947857D02*
X12366964Y-4797857D01*
X12366964Y-4869286D02*
X12452678Y-4869286D01*
X12452678Y-4947857D02*
X12452678Y-4797857D01*
X12638393Y-4847857D02*
X12638393Y-4997857D01*
X12638393Y-4855000D02*
X12652678Y-4847857D01*
X12681250Y-4847857D01*
X12695536Y-4855000D01*
X12702678Y-4862143D01*
X12709821Y-4876429D01*
X12709821Y-4919286D01*
X12702678Y-4933571D01*
X12695536Y-4940714D01*
X12681250Y-4947857D01*
X12652678Y-4947857D01*
X12638393Y-4940714D01*
X12774107Y-4947857D02*
X12774107Y-4797857D01*
X12838393Y-4947857D02*
X12838393Y-4869286D01*
X12831250Y-4855000D01*
X12816964Y-4847857D01*
X12795536Y-4847857D01*
X12781250Y-4855000D01*
X12774107Y-4862143D01*
X12931250Y-4947857D02*
X12916964Y-4940714D01*
X12909821Y-4933571D01*
X12902678Y-4919286D01*
X12902678Y-4876429D01*
X12909821Y-4862143D01*
X12916964Y-4855000D01*
X12931250Y-4847857D01*
X12952678Y-4847857D01*
X12966964Y-4855000D01*
X12974107Y-4862143D01*
X12981250Y-4876429D01*
X12981250Y-4919286D01*
X12974107Y-4933571D01*
X12966964Y-4940714D01*
X12952678Y-4947857D01*
X12931250Y-4947857D01*
X13024107Y-4847857D02*
X13081250Y-4847857D01*
X13045536Y-4797857D02*
X13045536Y-4926429D01*
X13052678Y-4940714D01*
X13066964Y-4947857D01*
X13081250Y-4947857D01*
X13152678Y-4947857D02*
X13138393Y-4940714D01*
X13131250Y-4933571D01*
X13124107Y-4919286D01*
X13124107Y-4876429D01*
X13131250Y-4862143D01*
X13138393Y-4855000D01*
X13152678Y-4847857D01*
X13174107Y-4847857D01*
X13188393Y-4855000D01*
X13195536Y-4862143D01*
X13202678Y-4876429D01*
X13202678Y-4919286D01*
X13195536Y-4933571D01*
X13188393Y-4940714D01*
X13174107Y-4947857D01*
X13152678Y-4947857D01*
X13331250Y-4947857D02*
X13331250Y-4797857D01*
X13331250Y-4940714D02*
X13316964Y-4947857D01*
X13288393Y-4947857D01*
X13274107Y-4940714D01*
X13266964Y-4933571D01*
X13259821Y-4919286D01*
X13259821Y-4876429D01*
X13266964Y-4862143D01*
X13274107Y-4855000D01*
X13288393Y-4847857D01*
X13316964Y-4847857D01*
X13331250Y-4855000D01*
X13402678Y-4947857D02*
X13402678Y-4847857D01*
X13402678Y-4797857D02*
X13395536Y-4805000D01*
X13402678Y-4812143D01*
X13409821Y-4805000D01*
X13402678Y-4797857D01*
X13402678Y-4812143D01*
X13495536Y-4947857D02*
X13481250Y-4940714D01*
X13474107Y-4933571D01*
X13466964Y-4919286D01*
X13466964Y-4876429D01*
X13474107Y-4862143D01*
X13481250Y-4855000D01*
X13495536Y-4847857D01*
X13516964Y-4847857D01*
X13531250Y-4855000D01*
X13538393Y-4862143D01*
X13545536Y-4876429D01*
X13545536Y-4919286D01*
X13538393Y-4933571D01*
X13531250Y-4940714D01*
X13516964Y-4947857D01*
X13495536Y-4947857D01*
X13674107Y-4947857D02*
X13674107Y-4797857D01*
X13674107Y-4940714D02*
X13659821Y-4947857D01*
X13631250Y-4947857D01*
X13616964Y-4940714D01*
X13609821Y-4933571D01*
X13602678Y-4919286D01*
X13602678Y-4876429D01*
X13609821Y-4862143D01*
X13616964Y-4855000D01*
X13631250Y-4847857D01*
X13659821Y-4847857D01*
X13674107Y-4855000D01*
X13802678Y-4940714D02*
X13788393Y-4947857D01*
X13759821Y-4947857D01*
X13745536Y-4940714D01*
X13738393Y-4926429D01*
X13738393Y-4869286D01*
X13745536Y-4855000D01*
X13759821Y-4847857D01*
X13788393Y-4847857D01*
X13802678Y-4855000D01*
X13809821Y-4869286D01*
X13809821Y-4883571D01*
X13738393Y-4897857D01*
X12095536Y-5047857D02*
X12109821Y-5047857D01*
X12124107Y-5055000D01*
X12131250Y-5062143D01*
X12138393Y-5076429D01*
X12145536Y-5105000D01*
X12145536Y-5140714D01*
X12138393Y-5169286D01*
X12131250Y-5183571D01*
X12124107Y-5190714D01*
X12109821Y-5197857D01*
X12095536Y-5197857D01*
X12081250Y-5190714D01*
X12074107Y-5183571D01*
X12066964Y-5169286D01*
X12059821Y-5140714D01*
X12059821Y-5105000D01*
X12066964Y-5076429D01*
X12074107Y-5062143D01*
X12081250Y-5055000D01*
X12095536Y-5047857D01*
X12202678Y-5062143D02*
X12209821Y-5055000D01*
X12224107Y-5047857D01*
X12259821Y-5047857D01*
X12274107Y-5055000D01*
X12281250Y-5062143D01*
X12288393Y-5076429D01*
X12288393Y-5090714D01*
X12281250Y-5112143D01*
X12195536Y-5197857D01*
X12288393Y-5197857D01*
X12459821Y-5040714D02*
X12331250Y-5233571D01*
X12502678Y-5062143D02*
X12509821Y-5055000D01*
X12524107Y-5047857D01*
X12559821Y-5047857D01*
X12574107Y-5055000D01*
X12581250Y-5062143D01*
X12588393Y-5076429D01*
X12588393Y-5090714D01*
X12581250Y-5112143D01*
X12495536Y-5197857D01*
X12588393Y-5197857D01*
X12681250Y-5047857D02*
X12695536Y-5047857D01*
X12709821Y-5055000D01*
X12716964Y-5062143D01*
X12724107Y-5076429D01*
X12731250Y-5105000D01*
X12731250Y-5140714D01*
X12724107Y-5169286D01*
X12716964Y-5183571D01*
X12709821Y-5190714D01*
X12695536Y-5197857D01*
X12681250Y-5197857D01*
X12666964Y-5190714D01*
X12659821Y-5183571D01*
X12652678Y-5169286D01*
X12645536Y-5140714D01*
X12645536Y-5105000D01*
X12652678Y-5076429D01*
X12659821Y-5062143D01*
X12666964Y-5055000D01*
X12681250Y-5047857D01*
X12788393Y-5062143D02*
X12795536Y-5055000D01*
X12809821Y-5047857D01*
X12845536Y-5047857D01*
X12859821Y-5055000D01*
X12866964Y-5062143D01*
X12874107Y-5076429D01*
X12874107Y-5090714D01*
X12866964Y-5112143D01*
X12781250Y-5197857D01*
X12874107Y-5197857D01*
X13016964Y-5197857D02*
X12931250Y-5197857D01*
X12974107Y-5197857D02*
X12974107Y-5047857D01*
X12959821Y-5069286D01*
X12945536Y-5083571D01*
X12931250Y-5090714D01*
X13281250Y-5197857D02*
X13231250Y-5126429D01*
X13195536Y-5197857D02*
X13195536Y-5047857D01*
X13252678Y-5047857D01*
X13266964Y-5055000D01*
X13274107Y-5062143D01*
X13281250Y-5076429D01*
X13281250Y-5097857D01*
X13274107Y-5112143D01*
X13266964Y-5119286D01*
X13252678Y-5126429D01*
X13195536Y-5126429D01*
X13402678Y-5190714D02*
X13388393Y-5197857D01*
X13359821Y-5197857D01*
X13345536Y-5190714D01*
X13338393Y-5176429D01*
X13338393Y-5119286D01*
X13345536Y-5105000D01*
X13359821Y-5097857D01*
X13388393Y-5097857D01*
X13402678Y-5105000D01*
X13409821Y-5119286D01*
X13409821Y-5133571D01*
X13338393Y-5147857D01*
X13459821Y-5097857D02*
X13495536Y-5197857D01*
X13531250Y-5097857D01*
X13588393Y-5183571D02*
X13595536Y-5190714D01*
X13588393Y-5197857D01*
X13581250Y-5190714D01*
X13588393Y-5183571D01*
X13588393Y-5197857D01*
X13852678Y-5197857D02*
X13766964Y-5197857D01*
X13809821Y-5197857D02*
X13809821Y-5047857D01*
X13795536Y-5069286D01*
X13781250Y-5083571D01*
X13766964Y-5090714D01*
X13916964Y-5183571D02*
X13924107Y-5190714D01*
X13916964Y-5197857D01*
X13909821Y-5190714D01*
X13916964Y-5183571D01*
X13916964Y-5197857D01*
X14066964Y-5197857D02*
X13981250Y-5197857D01*
X14024107Y-5197857D02*
X14024107Y-5047857D01*
X14009821Y-5069286D01*
X13995536Y-5083571D01*
X13981250Y-5090714D01*
D12*
X13725000Y-6936000D02*
X14025000Y-6936000D01*
X13700000Y-6514000D02*
X14025000Y-6514000D01*
X14308722Y-6674000D02*
X14341278Y-6674000D01*
X14308722Y-6776000D02*
X14341278Y-6776000D01*
X14881000Y-6884794D02*
X14881000Y-7005206D01*
X14609000Y-6884794D02*
X14609000Y-7005206D01*
X14609000Y-6344794D02*
X14609000Y-6465206D01*
X14881000Y-6344794D02*
X14881000Y-6465206D01*
X13388722Y-6866000D02*
X13421278Y-6866000D01*
X13388722Y-6764000D02*
X13421278Y-6764000D01*
X13694000Y-6290206D02*
X13694000Y-6169794D01*
X13966000Y-6290206D02*
X13966000Y-6169794D01*
X13966000Y-7280206D02*
X13966000Y-7159794D01*
X13694000Y-7280206D02*
X13694000Y-7159794D01*
X12348722Y-8956000D02*
X12381278Y-8956000D01*
X12348722Y-8854000D02*
X12381278Y-8854000D01*
X12134000Y-7528722D02*
X12134000Y-7561278D01*
X12236000Y-7528722D02*
X12236000Y-7561278D01*
X11849000Y-8301278D02*
X11849000Y-8268722D01*
X11951000Y-8301278D02*
X11951000Y-8268722D01*
X14992000Y-6288000D02*
X15125000Y-6288000D01*
X14992000Y-6421000D02*
X14992000Y-6288000D01*
X14992000Y-6548000D02*
X15258000Y-6548000D01*
X15258000Y-6548000D02*
X15258000Y-7062000D01*
X14992000Y-6548000D02*
X14992000Y-7062000D01*
X14992000Y-7062000D02*
X15258000Y-7062000D01*
D13*
X12515400Y-4115000D02*
G75*
G03*
X12515400Y-4115000I-25400J0D01*
G01*
X12115400Y-4115000D02*
G75*
G03*
X12115400Y-4115000I-25400J0D01*
G01*
X12315400Y-4115000D02*
G75*
G03*
X12315400Y-4115000I-25400J0D01*
G01*
X12115400Y-4315000D02*
G75*
G03*
X12115400Y-4315000I-25400J0D01*
G01*
X12315400Y-4315000D02*
G75*
G03*
X12315400Y-4315000I-25400J0D01*
G01*
X12515400Y-4315000D02*
G75*
G03*
X12515400Y-4315000I-25400J0D01*
G01*
X12515400Y-4515000D02*
G75*
G03*
X12515400Y-4515000I-25400J0D01*
G01*
X12315400Y-4515000D02*
G75*
G03*
X12315400Y-4515000I-25400J0D01*
G01*
X12115400Y-4515000D02*
G75*
G03*
X12115400Y-4515000I-25400J0D01*
G01*
D12*
X11307294Y-7111000D02*
X11427706Y-7111000D01*
X11307294Y-6929000D02*
X11427706Y-6929000D01*
X11308442Y-7341000D02*
X11336558Y-7341000D01*
X11308442Y-7239000D02*
X11336558Y-7239000D01*
X12416000Y-6993442D02*
X12416000Y-7021558D01*
X12314000Y-6993442D02*
X12314000Y-7021558D01*
X12341274Y-8492750D02*
X12388726Y-8492750D01*
X12341274Y-8597250D02*
X12388726Y-8597250D01*
X13428726Y-6487250D02*
X13381274Y-6487250D01*
X13428726Y-6382750D02*
X13381274Y-6382750D01*
X13428726Y-6572750D02*
X13381274Y-6572750D01*
X13428726Y-6677250D02*
X13381274Y-6677250D01*
X14358726Y-6962750D02*
X14311274Y-6962750D01*
X14358726Y-7067250D02*
X14311274Y-7067250D01*
X14358726Y-7247250D02*
X14311274Y-7247250D01*
X14358726Y-7142750D02*
X14311274Y-7142750D01*
X12388726Y-8672750D02*
X12341274Y-8672750D01*
X12388726Y-8777250D02*
X12341274Y-8777250D01*
X11642750Y-7581274D02*
X11642750Y-7628726D01*
X11747250Y-7581274D02*
X11747250Y-7628726D01*
X11747250Y-7931274D02*
X11747250Y-7978726D01*
X11642750Y-7931274D02*
X11642750Y-7978726D01*
X12504000Y-7012294D02*
X12504000Y-7157706D01*
X12686000Y-7012294D02*
X12686000Y-7157706D01*
X12190000Y-7764000D02*
X11890000Y-7764000D01*
X12040000Y-8086000D02*
X11890000Y-8086000D01*
X10810000Y-6790000D02*
X10810000Y-5960000D01*
X11640000Y-6790000D02*
X11640000Y-5960000D01*
X10810000Y-5960000D02*
X11640000Y-5960000D01*
X10810000Y-6790000D02*
X11640000Y-6790000D01*
X12943000Y-6517500D02*
X12943000Y-6227500D01*
X12272000Y-6517500D02*
X12272000Y-6227500D01*
X12752500Y-6037000D02*
X12462500Y-6037000D01*
X12752500Y-6708000D02*
X12462500Y-6708000D01*
X12379058Y-8416000D02*
X12350942Y-8416000D01*
X12379058Y-8314000D02*
X12350942Y-8314000D01*
X12544750Y-7971226D02*
X12544750Y-7923774D01*
X12440250Y-7971226D02*
X12440250Y-7923774D01*
D14*
X14028809Y-6360238D02*
X14028809Y-6441190D01*
X14033571Y-6450714D01*
X14038333Y-6455476D01*
X14047857Y-6460238D01*
X14066905Y-6460238D01*
X14076428Y-6455476D01*
X14081190Y-6450714D01*
X14085952Y-6441190D01*
X14085952Y-6360238D01*
X14185952Y-6460238D02*
X14128809Y-6460238D01*
X14157381Y-6460238D02*
X14157381Y-6360238D01*
X14147857Y-6374524D01*
X14138333Y-6384048D01*
X14128809Y-6388809D01*
X14308333Y-6620714D02*
X14303571Y-6625476D01*
X14289286Y-6630238D01*
X14279762Y-6630238D01*
X14265476Y-6625476D01*
X14255952Y-6615952D01*
X14251190Y-6606428D01*
X14246428Y-6587381D01*
X14246428Y-6573095D01*
X14251190Y-6554048D01*
X14255952Y-6544524D01*
X14265476Y-6535000D01*
X14279762Y-6530238D01*
X14289286Y-6530238D01*
X14303571Y-6535000D01*
X14308333Y-6539762D01*
X14394048Y-6563571D02*
X14394048Y-6630238D01*
X14370238Y-6525476D02*
X14346428Y-6596905D01*
X14408333Y-6596905D01*
X14728333Y-7320714D02*
X14723571Y-7325476D01*
X14709286Y-7330238D01*
X14699762Y-7330238D01*
X14685476Y-7325476D01*
X14675952Y-7315952D01*
X14671190Y-7306428D01*
X14666428Y-7287381D01*
X14666428Y-7273095D01*
X14671190Y-7254048D01*
X14675952Y-7244524D01*
X14685476Y-7235000D01*
X14699762Y-7230238D01*
X14709286Y-7230238D01*
X14723571Y-7235000D01*
X14728333Y-7239762D01*
X14766428Y-7239762D02*
X14771190Y-7235000D01*
X14780714Y-7230238D01*
X14804524Y-7230238D01*
X14814048Y-7235000D01*
X14818809Y-7239762D01*
X14823571Y-7249286D01*
X14823571Y-7258809D01*
X14818809Y-7273095D01*
X14761667Y-7330238D01*
X14823571Y-7330238D01*
X14728333Y-6120714D02*
X14723571Y-6125476D01*
X14709286Y-6130238D01*
X14699762Y-6130238D01*
X14685476Y-6125476D01*
X14675952Y-6115952D01*
X14671190Y-6106428D01*
X14666428Y-6087381D01*
X14666428Y-6073095D01*
X14671190Y-6054048D01*
X14675952Y-6044524D01*
X14685476Y-6035000D01*
X14699762Y-6030238D01*
X14709286Y-6030238D01*
X14723571Y-6035000D01*
X14728333Y-6039762D01*
X14823571Y-6130238D02*
X14766428Y-6130238D01*
X14795000Y-6130238D02*
X14795000Y-6030238D01*
X14785476Y-6044524D01*
X14775952Y-6054048D01*
X14766428Y-6058809D01*
X13128333Y-6845714D02*
X13123571Y-6850476D01*
X13109286Y-6855238D01*
X13099762Y-6855238D01*
X13085476Y-6850476D01*
X13075952Y-6840952D01*
X13071190Y-6831428D01*
X13066428Y-6812381D01*
X13066428Y-6798095D01*
X13071190Y-6779048D01*
X13075952Y-6769524D01*
X13085476Y-6760000D01*
X13099762Y-6755238D01*
X13109286Y-6755238D01*
X13123571Y-6760000D01*
X13128333Y-6764762D01*
X13161667Y-6755238D02*
X13223571Y-6755238D01*
X13190238Y-6793333D01*
X13204524Y-6793333D01*
X13214048Y-6798095D01*
X13218809Y-6802857D01*
X13223571Y-6812381D01*
X13223571Y-6836190D01*
X13218809Y-6845714D01*
X13214048Y-6850476D01*
X13204524Y-6855238D01*
X13175952Y-6855238D01*
X13166428Y-6850476D01*
X13161667Y-6845714D01*
X13605714Y-6246667D02*
X13610476Y-6251428D01*
X13615238Y-6265714D01*
X13615238Y-6275238D01*
X13610476Y-6289524D01*
X13600952Y-6299048D01*
X13591428Y-6303809D01*
X13572381Y-6308571D01*
X13558095Y-6308571D01*
X13539048Y-6303809D01*
X13529524Y-6299048D01*
X13520000Y-6289524D01*
X13515238Y-6275238D01*
X13515238Y-6265714D01*
X13520000Y-6251428D01*
X13524762Y-6246667D01*
X13515238Y-6156190D02*
X13515238Y-6203809D01*
X13562857Y-6208571D01*
X13558095Y-6203809D01*
X13553333Y-6194286D01*
X13553333Y-6170476D01*
X13558095Y-6160952D01*
X13562857Y-6156190D01*
X13572381Y-6151428D01*
X13596190Y-6151428D01*
X13605714Y-6156190D01*
X13610476Y-6160952D01*
X13615238Y-6170476D01*
X13615238Y-6194286D01*
X13610476Y-6203809D01*
X13605714Y-6208571D01*
X13637714Y-7236667D02*
X13642476Y-7241428D01*
X13647238Y-7255714D01*
X13647238Y-7265238D01*
X13642476Y-7279524D01*
X13632952Y-7289048D01*
X13623428Y-7293809D01*
X13604381Y-7298571D01*
X13590095Y-7298571D01*
X13571048Y-7293809D01*
X13561524Y-7289048D01*
X13552000Y-7279524D01*
X13547238Y-7265238D01*
X13547238Y-7255714D01*
X13552000Y-7241428D01*
X13556762Y-7236667D01*
X13547238Y-7150952D02*
X13547238Y-7170000D01*
X13552000Y-7179524D01*
X13556762Y-7184286D01*
X13571048Y-7193809D01*
X13590095Y-7198571D01*
X13628190Y-7198571D01*
X13637714Y-7193809D01*
X13642476Y-7189048D01*
X13647238Y-7179524D01*
X13647238Y-7160476D01*
X13642476Y-7150952D01*
X13637714Y-7146190D01*
X13628190Y-7141428D01*
X13604381Y-7141428D01*
X13594857Y-7146190D01*
X13590095Y-7150952D01*
X13585333Y-7160476D01*
X13585333Y-7179524D01*
X13590095Y-7189048D01*
X13594857Y-7193809D01*
X13604381Y-7198571D01*
X12088333Y-8940714D02*
X12083571Y-8945476D01*
X12069286Y-8950238D01*
X12059762Y-8950238D01*
X12045476Y-8945476D01*
X12035952Y-8935952D01*
X12031190Y-8926429D01*
X12026428Y-8907381D01*
X12026428Y-8893095D01*
X12031190Y-8874048D01*
X12035952Y-8864524D01*
X12045476Y-8855000D01*
X12059762Y-8850238D01*
X12069286Y-8850238D01*
X12083571Y-8855000D01*
X12088333Y-8859762D01*
X12145476Y-8893095D02*
X12135952Y-8888333D01*
X12131190Y-8883571D01*
X12126428Y-8874048D01*
X12126428Y-8869286D01*
X12131190Y-8859762D01*
X12135952Y-8855000D01*
X12145476Y-8850238D01*
X12164524Y-8850238D01*
X12174048Y-8855000D01*
X12178809Y-8859762D01*
X12183571Y-8869286D01*
X12183571Y-8874048D01*
X12178809Y-8883571D01*
X12174048Y-8888333D01*
X12164524Y-8893095D01*
X12145476Y-8893095D01*
X12135952Y-8897857D01*
X12131190Y-8902619D01*
X12126428Y-8912143D01*
X12126428Y-8931190D01*
X12131190Y-8940714D01*
X12135952Y-8945476D01*
X12145476Y-8950238D01*
X12164524Y-8950238D01*
X12174048Y-8945476D01*
X12178809Y-8940714D01*
X12183571Y-8931190D01*
X12183571Y-8912143D01*
X12178809Y-8902619D01*
X12174048Y-8897857D01*
X12164524Y-8893095D01*
X12070714Y-7481667D02*
X12075476Y-7486428D01*
X12080238Y-7500714D01*
X12080238Y-7510238D01*
X12075476Y-7524524D01*
X12065952Y-7534048D01*
X12056428Y-7538809D01*
X12037381Y-7543571D01*
X12023095Y-7543571D01*
X12004048Y-7538809D01*
X11994524Y-7534048D01*
X11985000Y-7524524D01*
X11980238Y-7510238D01*
X11980238Y-7500714D01*
X11985000Y-7486428D01*
X11989762Y-7481667D01*
X12080238Y-7434048D02*
X12080238Y-7415000D01*
X12075476Y-7405476D01*
X12070714Y-7400714D01*
X12056428Y-7391190D01*
X12037381Y-7386428D01*
X11999286Y-7386428D01*
X11989762Y-7391190D01*
X11985000Y-7395952D01*
X11980238Y-7405476D01*
X11980238Y-7424524D01*
X11985000Y-7434048D01*
X11989762Y-7438809D01*
X11999286Y-7443571D01*
X12023095Y-7443571D01*
X12032619Y-7438809D01*
X12037381Y-7434048D01*
X12042143Y-7424524D01*
X12042143Y-7405476D01*
X12037381Y-7395952D01*
X12032619Y-7391190D01*
X12023095Y-7386428D01*
X11940714Y-8669286D02*
X11945476Y-8674048D01*
X11950238Y-8688333D01*
X11950238Y-8697857D01*
X11945476Y-8712143D01*
X11935952Y-8721667D01*
X11926428Y-8726429D01*
X11907381Y-8731190D01*
X11893095Y-8731190D01*
X11874048Y-8726429D01*
X11864524Y-8721667D01*
X11855000Y-8712143D01*
X11850238Y-8697857D01*
X11850238Y-8688333D01*
X11855000Y-8674048D01*
X11859762Y-8669286D01*
X11950238Y-8574048D02*
X11950238Y-8631190D01*
X11950238Y-8602619D02*
X11850238Y-8602619D01*
X11864524Y-8612143D01*
X11874048Y-8621667D01*
X11878809Y-8631190D01*
X11859762Y-8535952D02*
X11855000Y-8531190D01*
X11850238Y-8521667D01*
X11850238Y-8497857D01*
X11855000Y-8488333D01*
X11859762Y-8483571D01*
X11869286Y-8478810D01*
X11878809Y-8478810D01*
X11893095Y-8483571D01*
X11950238Y-8540714D01*
X11950238Y-8478810D01*
D15*
X12700762Y-4404333D02*
X12910286Y-4404333D01*
X12658857Y-4530048D02*
X12805524Y-4090048D01*
X12952190Y-4530048D01*
X13098857Y-4530048D02*
X13098857Y-4090048D01*
X13266476Y-4090048D01*
X13308381Y-4111000D01*
X13329333Y-4131952D01*
X13350286Y-4173857D01*
X13350286Y-4236714D01*
X13329333Y-4278619D01*
X13308381Y-4299571D01*
X13266476Y-4320524D01*
X13098857Y-4320524D01*
X13832190Y-4571952D02*
X13790286Y-4551000D01*
X13748381Y-4509095D01*
X13685524Y-4446238D01*
X13643619Y-4425286D01*
X13601714Y-4425286D01*
X13622667Y-4530048D02*
X13580762Y-4509095D01*
X13538857Y-4467190D01*
X13517905Y-4383381D01*
X13517905Y-4236714D01*
X13538857Y-4152905D01*
X13580762Y-4111000D01*
X13622667Y-4090048D01*
X13706476Y-4090048D01*
X13748381Y-4111000D01*
X13790286Y-4152905D01*
X13811238Y-4236714D01*
X13811238Y-4383381D01*
X13790286Y-4467190D01*
X13748381Y-4509095D01*
X13706476Y-4530048D01*
X13622667Y-4530048D01*
D14*
X11090238Y-7041667D02*
X11042619Y-7075000D01*
X11090238Y-7098809D02*
X10990238Y-7098809D01*
X10990238Y-7060714D01*
X10995000Y-7051190D01*
X10999762Y-7046428D01*
X11009286Y-7041667D01*
X11023571Y-7041667D01*
X11033095Y-7046428D01*
X11037857Y-7051190D01*
X11042619Y-7060714D01*
X11042619Y-7098809D01*
X11023571Y-6955952D02*
X11090238Y-6955952D01*
X10985476Y-6979762D02*
X11056905Y-7003571D01*
X11056905Y-6941667D01*
X11240714Y-7500714D02*
X11235952Y-7505476D01*
X11221667Y-7510238D01*
X11212143Y-7510238D01*
X11197857Y-7505476D01*
X11188333Y-7495952D01*
X11183571Y-7486428D01*
X11178810Y-7467381D01*
X11178810Y-7453095D01*
X11183571Y-7434048D01*
X11188333Y-7424524D01*
X11197857Y-7415000D01*
X11212143Y-7410238D01*
X11221667Y-7410238D01*
X11235952Y-7415000D01*
X11240714Y-7419762D01*
X11335952Y-7510238D02*
X11278809Y-7510238D01*
X11307381Y-7510238D02*
X11307381Y-7410238D01*
X11297857Y-7424524D01*
X11288333Y-7434048D01*
X11278809Y-7438809D01*
X11397857Y-7410238D02*
X11407381Y-7410238D01*
X11416905Y-7415000D01*
X11421667Y-7419762D01*
X11426428Y-7429286D01*
X11431190Y-7448333D01*
X11431190Y-7472143D01*
X11426428Y-7491190D01*
X11421667Y-7500714D01*
X11416905Y-7505476D01*
X11407381Y-7510238D01*
X11397857Y-7510238D01*
X11388333Y-7505476D01*
X11383571Y-7500714D01*
X11378809Y-7491190D01*
X11374048Y-7472143D01*
X11374048Y-7448333D01*
X11378809Y-7429286D01*
X11383571Y-7419762D01*
X11388333Y-7415000D01*
X11397857Y-7410238D01*
X12240714Y-7069286D02*
X12245476Y-7074048D01*
X12250238Y-7088333D01*
X12250238Y-7097857D01*
X12245476Y-7112143D01*
X12235952Y-7121667D01*
X12226428Y-7126428D01*
X12207381Y-7131190D01*
X12193095Y-7131190D01*
X12174048Y-7126428D01*
X12164524Y-7121667D01*
X12155000Y-7112143D01*
X12150238Y-7097857D01*
X12150238Y-7088333D01*
X12155000Y-7074048D01*
X12159762Y-7069286D01*
X12250238Y-6974048D02*
X12250238Y-7031190D01*
X12250238Y-7002619D02*
X12150238Y-7002619D01*
X12164524Y-7012143D01*
X12174048Y-7021667D01*
X12178809Y-7031190D01*
X12250238Y-6878809D02*
X12250238Y-6935952D01*
X12250238Y-6907381D02*
X12150238Y-6907381D01*
X12164524Y-6916905D01*
X12174048Y-6926428D01*
X12178809Y-6935952D01*
X12098333Y-8580238D02*
X12065000Y-8532619D01*
X12041190Y-8580238D02*
X12041190Y-8480238D01*
X12079286Y-8480238D01*
X12088809Y-8485000D01*
X12093571Y-8489762D01*
X12098333Y-8499286D01*
X12098333Y-8513571D01*
X12093571Y-8523095D01*
X12088809Y-8527857D01*
X12079286Y-8532619D01*
X12041190Y-8532619D01*
X12193571Y-8580238D02*
X12136428Y-8580238D01*
X12165000Y-8580238D02*
X12165000Y-8480238D01*
X12155476Y-8494524D01*
X12145952Y-8504048D01*
X12136428Y-8508810D01*
X13123333Y-6475238D02*
X13090000Y-6427619D01*
X13066190Y-6475238D02*
X13066190Y-6375238D01*
X13104286Y-6375238D01*
X13113809Y-6380000D01*
X13118571Y-6384762D01*
X13123333Y-6394286D01*
X13123333Y-6408571D01*
X13118571Y-6418095D01*
X13113809Y-6422857D01*
X13104286Y-6427619D01*
X13066190Y-6427619D01*
X13161428Y-6384762D02*
X13166190Y-6380000D01*
X13175714Y-6375238D01*
X13199524Y-6375238D01*
X13209048Y-6380000D01*
X13213809Y-6384762D01*
X13218571Y-6394286D01*
X13218571Y-6403809D01*
X13213809Y-6418095D01*
X13156667Y-6475238D01*
X13218571Y-6475238D01*
X13118333Y-6670238D02*
X13085000Y-6622619D01*
X13061190Y-6670238D02*
X13061190Y-6570238D01*
X13099286Y-6570238D01*
X13108809Y-6575000D01*
X13113571Y-6579762D01*
X13118333Y-6589286D01*
X13118333Y-6603571D01*
X13113571Y-6613095D01*
X13108809Y-6617857D01*
X13099286Y-6622619D01*
X13061190Y-6622619D01*
X13208809Y-6570238D02*
X13161190Y-6570238D01*
X13156428Y-6617857D01*
X13161190Y-6613095D01*
X13170714Y-6608333D01*
X13194524Y-6608333D01*
X13204048Y-6613095D01*
X13208809Y-6617857D01*
X13213571Y-6627381D01*
X13213571Y-6651190D01*
X13208809Y-6660714D01*
X13204048Y-6665476D01*
X13194524Y-6670238D01*
X13170714Y-6670238D01*
X13161190Y-6665476D01*
X13156428Y-6660714D01*
X14068333Y-7080238D02*
X14035000Y-7032619D01*
X14011190Y-7080238D02*
X14011190Y-6980238D01*
X14049286Y-6980238D01*
X14058809Y-6985000D01*
X14063571Y-6989762D01*
X14068333Y-6999286D01*
X14068333Y-7013571D01*
X14063571Y-7023095D01*
X14058809Y-7027857D01*
X14049286Y-7032619D01*
X14011190Y-7032619D01*
X14154048Y-6980238D02*
X14135000Y-6980238D01*
X14125476Y-6985000D01*
X14120714Y-6989762D01*
X14111190Y-7004048D01*
X14106428Y-7023095D01*
X14106428Y-7061190D01*
X14111190Y-7070714D01*
X14115952Y-7075476D01*
X14125476Y-7080238D01*
X14144524Y-7080238D01*
X14154048Y-7075476D01*
X14158809Y-7070714D01*
X14163571Y-7061190D01*
X14163571Y-7037381D01*
X14158809Y-7027857D01*
X14154048Y-7023095D01*
X14144524Y-7018333D01*
X14125476Y-7018333D01*
X14115952Y-7023095D01*
X14111190Y-7027857D01*
X14106428Y-7037381D01*
X14063333Y-7240238D02*
X14030000Y-7192619D01*
X14006190Y-7240238D02*
X14006190Y-7140238D01*
X14044286Y-7140238D01*
X14053809Y-7145000D01*
X14058571Y-7149762D01*
X14063333Y-7159286D01*
X14063333Y-7173571D01*
X14058571Y-7183095D01*
X14053809Y-7187857D01*
X14044286Y-7192619D01*
X14006190Y-7192619D01*
X14096667Y-7140238D02*
X14163333Y-7140238D01*
X14120476Y-7240238D01*
X12098333Y-8770238D02*
X12065000Y-8722619D01*
X12041190Y-8770238D02*
X12041190Y-8670238D01*
X12079286Y-8670238D01*
X12088809Y-8675000D01*
X12093571Y-8679762D01*
X12098333Y-8689286D01*
X12098333Y-8703571D01*
X12093571Y-8713095D01*
X12088809Y-8717857D01*
X12079286Y-8722619D01*
X12041190Y-8722619D01*
X12155476Y-8713095D02*
X12145952Y-8708333D01*
X12141190Y-8703571D01*
X12136428Y-8694048D01*
X12136428Y-8689286D01*
X12141190Y-8679762D01*
X12145952Y-8675000D01*
X12155476Y-8670238D01*
X12174524Y-8670238D01*
X12184048Y-8675000D01*
X12188809Y-8679762D01*
X12193571Y-8689286D01*
X12193571Y-8694048D01*
X12188809Y-8703571D01*
X12184048Y-8708333D01*
X12174524Y-8713095D01*
X12155476Y-8713095D01*
X12145952Y-8717857D01*
X12141190Y-8722619D01*
X12136428Y-8732143D01*
X12136428Y-8751190D01*
X12141190Y-8760714D01*
X12145952Y-8765476D01*
X12155476Y-8770238D01*
X12174524Y-8770238D01*
X12184048Y-8765476D01*
X12188809Y-8760714D01*
X12193571Y-8751190D01*
X12193571Y-8732143D01*
X12188809Y-8722619D01*
X12184048Y-8717857D01*
X12174524Y-8713095D01*
X11740238Y-7351667D02*
X11692619Y-7385000D01*
X11740238Y-7408809D02*
X11640238Y-7408809D01*
X11640238Y-7370714D01*
X11645000Y-7361190D01*
X11649762Y-7356428D01*
X11659286Y-7351667D01*
X11673571Y-7351667D01*
X11683095Y-7356428D01*
X11687857Y-7361190D01*
X11692619Y-7370714D01*
X11692619Y-7408809D01*
X11740238Y-7304048D02*
X11740238Y-7285000D01*
X11735476Y-7275476D01*
X11730714Y-7270714D01*
X11716428Y-7261190D01*
X11697381Y-7256428D01*
X11659286Y-7256428D01*
X11649762Y-7261190D01*
X11645000Y-7265952D01*
X11640238Y-7275476D01*
X11640238Y-7294524D01*
X11645000Y-7304048D01*
X11649762Y-7308809D01*
X11659286Y-7313571D01*
X11683095Y-7313571D01*
X11692619Y-7308809D01*
X11697381Y-7304048D01*
X11702143Y-7294524D01*
X11702143Y-7275476D01*
X11697381Y-7265952D01*
X11692619Y-7261190D01*
X11683095Y-7256428D01*
X11730238Y-8319286D02*
X11682619Y-8352619D01*
X11730238Y-8376428D02*
X11630238Y-8376428D01*
X11630238Y-8338333D01*
X11635000Y-8328809D01*
X11639762Y-8324048D01*
X11649286Y-8319286D01*
X11663571Y-8319286D01*
X11673095Y-8324048D01*
X11677857Y-8328809D01*
X11682619Y-8338333D01*
X11682619Y-8376428D01*
X11730238Y-8224048D02*
X11730238Y-8281190D01*
X11730238Y-8252619D02*
X11630238Y-8252619D01*
X11644524Y-8262143D01*
X11654048Y-8271667D01*
X11658809Y-8281190D01*
X11630238Y-8162143D02*
X11630238Y-8152619D01*
X11635000Y-8143095D01*
X11639762Y-8138333D01*
X11649286Y-8133571D01*
X11668333Y-8128809D01*
X11692143Y-8128809D01*
X11711190Y-8133571D01*
X11720714Y-8138333D01*
X11725476Y-8143095D01*
X11730238Y-8152619D01*
X11730238Y-8162143D01*
X11725476Y-8171667D01*
X11720714Y-8176428D01*
X11711190Y-8181190D01*
X11692143Y-8185952D01*
X11668333Y-8185952D01*
X11649286Y-8181190D01*
X11639762Y-8176428D01*
X11635000Y-8171667D01*
X11630238Y-8162143D01*
X12822238Y-7149286D02*
X12774619Y-7182619D01*
X12822238Y-7206428D02*
X12722238Y-7206428D01*
X12722238Y-7168333D01*
X12727000Y-7158809D01*
X12731762Y-7154048D01*
X12741286Y-7149286D01*
X12755571Y-7149286D01*
X12765095Y-7154048D01*
X12769857Y-7158809D01*
X12774619Y-7168333D01*
X12774619Y-7206428D01*
X12822238Y-7054048D02*
X12822238Y-7111190D01*
X12822238Y-7082619D02*
X12722238Y-7082619D01*
X12736524Y-7092143D01*
X12746048Y-7101667D01*
X12750809Y-7111190D01*
X12822238Y-6958809D02*
X12822238Y-7015952D01*
X12822238Y-6987381D02*
X12722238Y-6987381D01*
X12736524Y-6996905D01*
X12746048Y-7006428D01*
X12750809Y-7015952D01*
X11838809Y-7620238D02*
X11838809Y-7701190D01*
X11843571Y-7710714D01*
X11848333Y-7715476D01*
X11857857Y-7720238D01*
X11876905Y-7720238D01*
X11886428Y-7715476D01*
X11891190Y-7710714D01*
X11895952Y-7701190D01*
X11895952Y-7620238D01*
X11938809Y-7629762D02*
X11943571Y-7625000D01*
X11953095Y-7620238D01*
X11976905Y-7620238D01*
X11986428Y-7625000D01*
X11991190Y-7629762D01*
X11995952Y-7639286D01*
X11995952Y-7648809D01*
X11991190Y-7663095D01*
X11934048Y-7720238D01*
X11995952Y-7720238D01*
X12098333Y-8400714D02*
X12093571Y-8405476D01*
X12079286Y-8410238D01*
X12069762Y-8410238D01*
X12055476Y-8405476D01*
X12045952Y-8395952D01*
X12041190Y-8386428D01*
X12036428Y-8367381D01*
X12036428Y-8353095D01*
X12041190Y-8334048D01*
X12045952Y-8324524D01*
X12055476Y-8315000D01*
X12069762Y-8310238D01*
X12079286Y-8310238D01*
X12093571Y-8315000D01*
X12098333Y-8319762D01*
X12131667Y-8310238D02*
X12198333Y-8310238D01*
X12155476Y-8410238D01*
X12394738Y-7964167D02*
X12347119Y-7997500D01*
X12394738Y-8021309D02*
X12294738Y-8021309D01*
X12294738Y-7983214D01*
X12299500Y-7973690D01*
X12304262Y-7968928D01*
X12313786Y-7964167D01*
X12328071Y-7964167D01*
X12337595Y-7968928D01*
X12342357Y-7973690D01*
X12347119Y-7983214D01*
X12347119Y-8021309D01*
X12294738Y-7930833D02*
X12294738Y-7868928D01*
X12332833Y-7902262D01*
X12332833Y-7887976D01*
X12337595Y-7878452D01*
X12342357Y-7873690D01*
X12351881Y-7868928D01*
X12375690Y-7868928D01*
X12385214Y-7873690D01*
X12389976Y-7878452D01*
X12394738Y-7887976D01*
X12394738Y-7916548D01*
X12389976Y-7926071D01*
X12385214Y-7930833D01*
M02*
