G04 #@! TF.FileFunction,Soldermask,Top*
%FSLAX46Y46*%
G04 Gerber Fmt 4.6, Leading zero omitted, Abs format (unit mm)*
G04 Created by KiCad (PCBNEW 4.0.6) date 12/22/17 14:46:29*
%MOMM*%
%LPD*%
G01*
G04 APERTURE LIST*
%ADD10C,0.100000*%
%ADD11R,1.050000X0.700000*%
%ADD12R,1.175000X1.640000*%
%ADD13R,1.470000X2.050000*%
%ADD14R,0.650000X1.100000*%
%ADD15R,1.290000X1.225000*%
%ADD16R,1.400000X2.900000*%
%ADD17R,1.200000X1.150000*%
%ADD18R,1.150000X1.200000*%
%ADD19C,2.600000*%
%ADD20C,2.400000*%
%ADD21R,1.300000X0.900000*%
%ADD22R,2.100000X2.100000*%
%ADD23O,2.100000X2.100000*%
%ADD24R,1.400000X2.000000*%
%ADD25R,2.950000X3.100000*%
%ADD26R,3.100000X2.950000*%
%ADD27R,1.400000X1.650000*%
%ADD28R,1.650000X1.400000*%
%ADD29R,1.100000X1.700000*%
%ADD30C,3.100000*%
%ADD31C,1.150000*%
%ADD32R,0.900000X1.300000*%
G04 APERTURE END LIST*
D10*
D11*
X142800000Y-102850000D03*
X142800000Y-103350000D03*
X142800000Y-103850000D03*
X142800000Y-104350000D03*
X142800000Y-104850000D03*
X145900000Y-104850000D03*
X145900000Y-104350000D03*
X145900000Y-103850000D03*
X145900000Y-103350000D03*
X145900000Y-102850000D03*
D12*
X144737500Y-104470000D03*
X144737500Y-103230000D03*
X143962500Y-104470000D03*
X143962500Y-103230000D03*
D13*
X136150000Y-94050000D03*
D14*
X133550000Y-92600000D03*
X134050000Y-92600000D03*
X134550000Y-92600000D03*
X135050000Y-92600000D03*
X135550000Y-92600000D03*
X136050000Y-92600000D03*
X136550000Y-92600000D03*
X136550000Y-95500000D03*
X136050000Y-95500000D03*
X135550000Y-95500000D03*
X135050000Y-95500000D03*
X134550000Y-95500000D03*
X134050000Y-95500000D03*
X133550000Y-95500000D03*
D15*
X133805000Y-94462500D03*
X133805000Y-93637500D03*
X134695000Y-93637500D03*
X134695000Y-94462500D03*
D16*
X135150000Y-89450000D03*
X138150000Y-89450000D03*
X139750000Y-89450000D03*
X142750000Y-89450000D03*
D17*
X135450000Y-97000000D03*
X133950000Y-97000000D03*
D18*
X138850000Y-94650000D03*
X138850000Y-93150000D03*
D19*
X128210000Y-110790000D03*
X128210000Y-105710000D03*
X133290000Y-105710000D03*
X133290000Y-110790000D03*
D20*
X130750000Y-108250000D03*
D21*
X138850000Y-102900000D03*
X138850000Y-104400000D03*
D22*
X136470000Y-86050000D03*
D23*
X139010000Y-86050000D03*
X141550000Y-86050000D03*
D24*
X139750000Y-100650000D03*
X142750000Y-100650000D03*
D25*
X141800000Y-95050000D03*
X148150000Y-95050000D03*
D26*
X128650000Y-92650000D03*
X128650000Y-99000000D03*
D27*
X146450000Y-100750000D03*
X144450000Y-100750000D03*
X150050000Y-98850000D03*
X148050000Y-98850000D03*
D28*
X144250000Y-116150000D03*
X144250000Y-114150000D03*
D27*
X134150000Y-114350000D03*
X132150000Y-114350000D03*
D29*
X146400000Y-98850000D03*
X144500000Y-98850000D03*
X149800000Y-100750000D03*
X147900000Y-100750000D03*
D21*
X148950000Y-105000000D03*
X148950000Y-106500000D03*
X148950000Y-102400000D03*
X148950000Y-103900000D03*
D29*
X139100000Y-114350000D03*
X141000000Y-114350000D03*
X135700000Y-114350000D03*
X137600000Y-114350000D03*
D30*
X128375000Y-116200000D03*
X148300000Y-116225000D03*
X148325000Y-86875000D03*
X128400000Y-86875000D03*
D31*
X138320000Y-109520000D03*
X137050000Y-108250000D03*
X139590000Y-108250000D03*
D32*
X134182000Y-100298000D03*
X132682000Y-100298000D03*
X132682000Y-102076000D03*
X134182000Y-102076000D03*
X145866000Y-91408000D03*
X144366000Y-91408000D03*
X147160000Y-91408000D03*
X148660000Y-91408000D03*
M02*
