M48
;DRILL file {KiCad 4.0.6} date 12/13/17 11:39:45
;FORMAT={-:-/ absolute / metric / decimal}
FMAT,2
METRIC,TZ
T1C0.300
T2C0.400
T3C0.500
T4C1.000
T5C1.500
T6C1.700
%
G90
G05
M71
T1
X134.95Y-91.65
X138.85Y-93.15
X139.75Y-100.65
X142.15Y-103.95
X142.75Y-101.2
X143.85Y-98.85
X143.95Y-102.95
X145.95Y-102.05
X146.85Y-103.95
X146.85Y-104.75
X148.05Y-98.85
X148.85Y-103.95
X148.95Y-107.15
X149.75Y-100.85
T2
X132.15Y-114.35
X133.805Y-93.638
X133.805Y-94.462
X133.95Y-97.
X134.695Y-93.638
X134.695Y-94.462
X141.Y-114.35
X141.75Y-95.15
X148.15Y-95.05
T3
X137.05Y-108.25
X138.32Y-109.52
X139.59Y-108.25
T4
X136.47Y-86.05
X139.01Y-86.05
X141.55Y-86.05
T5
X130.75Y-108.25
T6
X128.21Y-105.71
X128.21Y-110.79
X133.29Y-105.71
X133.29Y-110.79
T0
M30
