G04 #@! TF.GenerationSoftware,KiCad,Pcbnew,(5.1.9)-1*
G04 #@! TF.CreationDate,2021-09-01T14:55:37+02:00*
G04 #@! TF.ProjectId,PDH_photodiode,5044485f-7068-46f7-946f-64696f64652e,1.1*
G04 #@! TF.SameCoordinates,Original*
G04 #@! TF.FileFunction,Copper,L1,Top*
G04 #@! TF.FilePolarity,Positive*
%FSLAX45Y45*%
G04 Gerber Fmt 4.5, Leading zero omitted, Abs format (unit mm)*
G04 Created by KiCad (PCBNEW (5.1.9)-1) date 2021-09-01 14:55:37*
%MOMM*%
%LPD*%
G01*
G04 APERTURE LIST*
G04 #@! TA.AperFunction,EtchedComponent*
%ADD10C,0.100000*%
G04 #@! TD*
G04 #@! TA.AperFunction,SMDPad,CuDef*
%ADD11C,0.100000*%
G04 #@! TD*
G04 #@! TA.AperFunction,SMDPad,CuDef*
%ADD12R,0.700000X0.250000*%
G04 #@! TD*
G04 #@! TA.AperFunction,ComponentPad*
%ADD13R,1.700000X1.700000*%
G04 #@! TD*
G04 #@! TA.AperFunction,ComponentPad*
%ADD14O,1.700000X1.700000*%
G04 #@! TD*
G04 #@! TA.AperFunction,ComponentPad*
%ADD15C,0.900000*%
G04 #@! TD*
G04 #@! TA.AperFunction,SMDPad,CuDef*
%ADD16R,1.650000X2.380000*%
G04 #@! TD*
G04 #@! TA.AperFunction,ComponentPad*
%ADD17C,2.250000*%
G04 #@! TD*
G04 #@! TA.AperFunction,ComponentPad*
%ADD18C,2.050000*%
G04 #@! TD*
G04 #@! TA.AperFunction,ViaPad*
%ADD19C,0.600000*%
G04 #@! TD*
G04 #@! TA.AperFunction,Conductor*
%ADD20C,0.200000*%
G04 #@! TD*
G04 #@! TA.AperFunction,Conductor*
%ADD21C,1.000000*%
G04 #@! TD*
G04 #@! TA.AperFunction,Conductor*
%ADD22C,0.500000*%
G04 #@! TD*
G04 APERTURE END LIST*
D10*
G36*
X12335000Y-8790000D02*
G01*
X12385000Y-8790000D01*
X12385000Y-8730000D01*
X12335000Y-8730000D01*
X12335000Y-8790000D01*
G37*
G04 #@! TA.AperFunction,SMDPad,CuDef*
D11*
G36*
X13932500Y-6557030D02*
G01*
X13933727Y-6557030D01*
X13936168Y-6557271D01*
X13938574Y-6557749D01*
X13940922Y-6558461D01*
X13943189Y-6559400D01*
X13945353Y-6560557D01*
X13947392Y-6561920D01*
X13949289Y-6563476D01*
X13951024Y-6565211D01*
X13952580Y-6567107D01*
X13953943Y-6569147D01*
X13955100Y-6571311D01*
X13956039Y-6573578D01*
X13956751Y-6575925D01*
X13957229Y-6578332D01*
X13957470Y-6580773D01*
X13957470Y-6582000D01*
X13957500Y-6582000D01*
X13957500Y-6710000D01*
X13957470Y-6710000D01*
X13957470Y-6711227D01*
X13957229Y-6713668D01*
X13956751Y-6716074D01*
X13956039Y-6718422D01*
X13955100Y-6720689D01*
X13953943Y-6722853D01*
X13952580Y-6724892D01*
X13951024Y-6726789D01*
X13949289Y-6728524D01*
X13947392Y-6730080D01*
X13945353Y-6731443D01*
X13943189Y-6732600D01*
X13940922Y-6733539D01*
X13938574Y-6734251D01*
X13936168Y-6734729D01*
X13933727Y-6734970D01*
X13932500Y-6734970D01*
X13932500Y-6735000D01*
X13797000Y-6735000D01*
X13787000Y-6737500D01*
X13700000Y-6737500D01*
X13700000Y-6712500D01*
X13767450Y-6712500D01*
X13767451Y-6712490D01*
X13767454Y-6712481D01*
X13767458Y-6712472D01*
X13767465Y-6712465D01*
X13767472Y-6712458D01*
X13767481Y-6712454D01*
X13767495Y-6712450D01*
X13772490Y-6711951D01*
X13777280Y-6710454D01*
X13781472Y-6708158D01*
X13785264Y-6705065D01*
X13788358Y-6701173D01*
X13790554Y-6697081D01*
X13791951Y-6692390D01*
X13792450Y-6687495D01*
X13792452Y-6687485D01*
X13792456Y-6687476D01*
X13792461Y-6687468D01*
X13792468Y-6687461D01*
X13792477Y-6687456D01*
X13792486Y-6687452D01*
X13792495Y-6687450D01*
X13792500Y-6687450D01*
X13792500Y-6582000D01*
X13817500Y-6557000D01*
X13932500Y-6557000D01*
X13932500Y-6557030D01*
G37*
G04 #@! TD.AperFunction*
G04 #@! TA.AperFunction,SMDPad,CuDef*
G36*
X13932500Y-6786030D02*
G01*
X13933727Y-6786030D01*
X13936168Y-6786271D01*
X13938574Y-6786749D01*
X13940922Y-6787461D01*
X13943189Y-6788400D01*
X13945353Y-6789557D01*
X13947392Y-6790920D01*
X13949289Y-6792476D01*
X13951024Y-6794211D01*
X13952580Y-6796107D01*
X13953943Y-6798147D01*
X13955100Y-6800311D01*
X13956039Y-6802578D01*
X13956751Y-6804925D01*
X13957229Y-6807332D01*
X13957470Y-6809773D01*
X13957470Y-6811000D01*
X13957500Y-6811000D01*
X13957500Y-6812500D01*
X14050000Y-6812500D01*
X14050000Y-6837500D01*
X13957500Y-6837500D01*
X13957500Y-6868000D01*
X13957470Y-6868000D01*
X13957470Y-6869227D01*
X13957229Y-6871668D01*
X13956751Y-6874074D01*
X13956039Y-6876422D01*
X13955100Y-6878689D01*
X13953943Y-6880853D01*
X13952580Y-6882892D01*
X13951024Y-6884789D01*
X13949289Y-6886524D01*
X13947392Y-6888080D01*
X13945353Y-6889443D01*
X13943189Y-6890600D01*
X13940922Y-6891539D01*
X13938574Y-6892251D01*
X13936168Y-6892729D01*
X13933727Y-6892970D01*
X13932500Y-6892970D01*
X13932500Y-6893000D01*
X13817500Y-6893000D01*
X13817500Y-6892970D01*
X13816273Y-6892970D01*
X13813832Y-6892729D01*
X13811425Y-6892251D01*
X13809078Y-6891539D01*
X13806811Y-6890600D01*
X13804647Y-6889443D01*
X13802607Y-6888080D01*
X13800711Y-6886524D01*
X13798976Y-6884789D01*
X13797420Y-6882892D01*
X13796057Y-6880853D01*
X13794900Y-6878689D01*
X13793961Y-6876422D01*
X13793249Y-6874074D01*
X13792771Y-6871668D01*
X13792530Y-6869227D01*
X13792530Y-6868000D01*
X13792500Y-6868000D01*
X13792500Y-6811000D01*
X13792530Y-6811000D01*
X13792530Y-6809773D01*
X13792771Y-6807332D01*
X13793249Y-6804925D01*
X13793961Y-6802578D01*
X13794900Y-6800311D01*
X13796057Y-6798147D01*
X13797420Y-6796107D01*
X13798976Y-6794211D01*
X13800711Y-6792476D01*
X13802607Y-6790920D01*
X13804647Y-6789557D01*
X13806811Y-6788400D01*
X13809078Y-6787461D01*
X13811425Y-6786749D01*
X13813832Y-6786271D01*
X13816273Y-6786030D01*
X13817500Y-6786030D01*
X13817500Y-6786000D01*
X13932500Y-6786000D01*
X13932500Y-6786030D01*
G37*
G04 #@! TD.AperFunction*
D12*
X13735000Y-6575000D03*
X13735000Y-6625000D03*
X13735000Y-6675000D03*
X13735000Y-6775000D03*
X13735000Y-6825000D03*
X13735000Y-6875000D03*
X14015000Y-6875000D03*
X14015000Y-6775000D03*
X14015000Y-6725000D03*
X14015000Y-6675000D03*
X14015000Y-6625000D03*
X14015000Y-6575000D03*
G04 #@! TA.AperFunction,SMDPad,CuDef*
G36*
G01*
X14360000Y-6750625D02*
X14360000Y-6699375D01*
G75*
G02*
X14381875Y-6677500I21875J0D01*
G01*
X14425625Y-6677500D01*
G75*
G02*
X14447500Y-6699375I0J-21875D01*
G01*
X14447500Y-6750625D01*
G75*
G02*
X14425625Y-6772500I-21875J0D01*
G01*
X14381875Y-6772500D01*
G75*
G02*
X14360000Y-6750625I0J21875D01*
G01*
G37*
G04 #@! TD.AperFunction*
G04 #@! TA.AperFunction,SMDPad,CuDef*
G36*
G01*
X14202500Y-6750625D02*
X14202500Y-6699375D01*
G75*
G02*
X14224375Y-6677500I21875J0D01*
G01*
X14268125Y-6677500D01*
G75*
G02*
X14290000Y-6699375I0J-21875D01*
G01*
X14290000Y-6750625D01*
G75*
G02*
X14268125Y-6772500I-21875J0D01*
G01*
X14224375Y-6772500D01*
G75*
G02*
X14202500Y-6750625I0J21875D01*
G01*
G37*
G04 #@! TD.AperFunction*
G04 #@! TA.AperFunction,SMDPad,CuDef*
G36*
G01*
X14637500Y-7022500D02*
X14852500Y-7022500D01*
G75*
G02*
X14877500Y-7047500I0J-25000D01*
G01*
X14877500Y-7122500D01*
G75*
G02*
X14852500Y-7147500I-25000J0D01*
G01*
X14637500Y-7147500D01*
G75*
G02*
X14612500Y-7122500I0J25000D01*
G01*
X14612500Y-7047500D01*
G75*
G02*
X14637500Y-7022500I25000J0D01*
G01*
G37*
G04 #@! TD.AperFunction*
G04 #@! TA.AperFunction,SMDPad,CuDef*
G36*
G01*
X14637500Y-6742500D02*
X14852500Y-6742500D01*
G75*
G02*
X14877500Y-6767500I0J-25000D01*
G01*
X14877500Y-6842500D01*
G75*
G02*
X14852500Y-6867500I-25000J0D01*
G01*
X14637500Y-6867500D01*
G75*
G02*
X14612500Y-6842500I0J25000D01*
G01*
X14612500Y-6767500D01*
G75*
G02*
X14637500Y-6742500I25000J0D01*
G01*
G37*
G04 #@! TD.AperFunction*
G04 #@! TA.AperFunction,SMDPad,CuDef*
G36*
G01*
X14637500Y-6202500D02*
X14852500Y-6202500D01*
G75*
G02*
X14877500Y-6227500I0J-25000D01*
G01*
X14877500Y-6302500D01*
G75*
G02*
X14852500Y-6327500I-25000J0D01*
G01*
X14637500Y-6327500D01*
G75*
G02*
X14612500Y-6302500I0J25000D01*
G01*
X14612500Y-6227500D01*
G75*
G02*
X14637500Y-6202500I25000J0D01*
G01*
G37*
G04 #@! TD.AperFunction*
G04 #@! TA.AperFunction,SMDPad,CuDef*
G36*
G01*
X14637500Y-6482500D02*
X14852500Y-6482500D01*
G75*
G02*
X14877500Y-6507500I0J-25000D01*
G01*
X14877500Y-6582500D01*
G75*
G02*
X14852500Y-6607500I-25000J0D01*
G01*
X14637500Y-6607500D01*
G75*
G02*
X14612500Y-6582500I0J25000D01*
G01*
X14612500Y-6507500D01*
G75*
G02*
X14637500Y-6482500I25000J0D01*
G01*
G37*
G04 #@! TD.AperFunction*
G04 #@! TA.AperFunction,SMDPad,CuDef*
G36*
G01*
X13282500Y-6840625D02*
X13282500Y-6789375D01*
G75*
G02*
X13304375Y-6767500I21875J0D01*
G01*
X13348125Y-6767500D01*
G75*
G02*
X13370000Y-6789375I0J-21875D01*
G01*
X13370000Y-6840625D01*
G75*
G02*
X13348125Y-6862500I-21875J0D01*
G01*
X13304375Y-6862500D01*
G75*
G02*
X13282500Y-6840625I0J21875D01*
G01*
G37*
G04 #@! TD.AperFunction*
G04 #@! TA.AperFunction,SMDPad,CuDef*
G36*
G01*
X13440000Y-6840625D02*
X13440000Y-6789375D01*
G75*
G02*
X13461875Y-6767500I21875J0D01*
G01*
X13505625Y-6767500D01*
G75*
G02*
X13527500Y-6789375I0J-21875D01*
G01*
X13527500Y-6840625D01*
G75*
G02*
X13505625Y-6862500I-21875J0D01*
G01*
X13461875Y-6862500D01*
G75*
G02*
X13440000Y-6840625I0J21875D01*
G01*
G37*
G04 #@! TD.AperFunction*
G04 #@! TA.AperFunction,SMDPad,CuDef*
G36*
G01*
X13937500Y-6152500D02*
X13722500Y-6152500D01*
G75*
G02*
X13697500Y-6127500I0J25000D01*
G01*
X13697500Y-6052500D01*
G75*
G02*
X13722500Y-6027500I25000J0D01*
G01*
X13937500Y-6027500D01*
G75*
G02*
X13962500Y-6052500I0J-25000D01*
G01*
X13962500Y-6127500D01*
G75*
G02*
X13937500Y-6152500I-25000J0D01*
G01*
G37*
G04 #@! TD.AperFunction*
G04 #@! TA.AperFunction,SMDPad,CuDef*
G36*
G01*
X13937500Y-6432500D02*
X13722500Y-6432500D01*
G75*
G02*
X13697500Y-6407500I0J25000D01*
G01*
X13697500Y-6332500D01*
G75*
G02*
X13722500Y-6307500I25000J0D01*
G01*
X13937500Y-6307500D01*
G75*
G02*
X13962500Y-6332500I0J-25000D01*
G01*
X13962500Y-6407500D01*
G75*
G02*
X13937500Y-6432500I-25000J0D01*
G01*
G37*
G04 #@! TD.AperFunction*
G04 #@! TA.AperFunction,SMDPad,CuDef*
G36*
G01*
X13937500Y-7422500D02*
X13722500Y-7422500D01*
G75*
G02*
X13697500Y-7397500I0J25000D01*
G01*
X13697500Y-7322500D01*
G75*
G02*
X13722500Y-7297500I25000J0D01*
G01*
X13937500Y-7297500D01*
G75*
G02*
X13962500Y-7322500I0J-25000D01*
G01*
X13962500Y-7397500D01*
G75*
G02*
X13937500Y-7422500I-25000J0D01*
G01*
G37*
G04 #@! TD.AperFunction*
G04 #@! TA.AperFunction,SMDPad,CuDef*
G36*
G01*
X13937500Y-7142500D02*
X13722500Y-7142500D01*
G75*
G02*
X13697500Y-7117500I0J25000D01*
G01*
X13697500Y-7042500D01*
G75*
G02*
X13722500Y-7017500I25000J0D01*
G01*
X13937500Y-7017500D01*
G75*
G02*
X13962500Y-7042500I0J-25000D01*
G01*
X13962500Y-7117500D01*
G75*
G02*
X13937500Y-7142500I-25000J0D01*
G01*
G37*
G04 #@! TD.AperFunction*
G04 #@! TA.AperFunction,SMDPad,CuDef*
G36*
G01*
X12242500Y-9185625D02*
X12242500Y-9134375D01*
G75*
G02*
X12264375Y-9112500I21875J0D01*
G01*
X12308125Y-9112500D01*
G75*
G02*
X12330000Y-9134375I0J-21875D01*
G01*
X12330000Y-9185625D01*
G75*
G02*
X12308125Y-9207500I-21875J0D01*
G01*
X12264375Y-9207500D01*
G75*
G02*
X12242500Y-9185625I0J21875D01*
G01*
G37*
G04 #@! TD.AperFunction*
G04 #@! TA.AperFunction,SMDPad,CuDef*
G36*
G01*
X12400000Y-9185625D02*
X12400000Y-9134375D01*
G75*
G02*
X12421875Y-9112500I21875J0D01*
G01*
X12465625Y-9112500D01*
G75*
G02*
X12487500Y-9134375I0J-21875D01*
G01*
X12487500Y-9185625D01*
G75*
G02*
X12465625Y-9207500I-21875J0D01*
G01*
X12421875Y-9207500D01*
G75*
G02*
X12400000Y-9185625I0J21875D01*
G01*
G37*
G04 #@! TD.AperFunction*
G04 #@! TA.AperFunction,SMDPad,CuDef*
G36*
G01*
X12159375Y-7422500D02*
X12210625Y-7422500D01*
G75*
G02*
X12232500Y-7444375I0J-21875D01*
G01*
X12232500Y-7488125D01*
G75*
G02*
X12210625Y-7510000I-21875J0D01*
G01*
X12159375Y-7510000D01*
G75*
G02*
X12137500Y-7488125I0J21875D01*
G01*
X12137500Y-7444375D01*
G75*
G02*
X12159375Y-7422500I21875J0D01*
G01*
G37*
G04 #@! TD.AperFunction*
G04 #@! TA.AperFunction,SMDPad,CuDef*
G36*
G01*
X12159375Y-7580000D02*
X12210625Y-7580000D01*
G75*
G02*
X12232500Y-7601875I0J-21875D01*
G01*
X12232500Y-7645625D01*
G75*
G02*
X12210625Y-7667500I-21875J0D01*
G01*
X12159375Y-7667500D01*
G75*
G02*
X12137500Y-7645625I0J21875D01*
G01*
X12137500Y-7601875D01*
G75*
G02*
X12159375Y-7580000I21875J0D01*
G01*
G37*
G04 #@! TD.AperFunction*
G04 #@! TA.AperFunction,SMDPad,CuDef*
G36*
G01*
X11925625Y-8250000D02*
X11874375Y-8250000D01*
G75*
G02*
X11852500Y-8228125I0J21875D01*
G01*
X11852500Y-8184375D01*
G75*
G02*
X11874375Y-8162500I21875J0D01*
G01*
X11925625Y-8162500D01*
G75*
G02*
X11947500Y-8184375I0J-21875D01*
G01*
X11947500Y-8228125D01*
G75*
G02*
X11925625Y-8250000I-21875J0D01*
G01*
G37*
G04 #@! TD.AperFunction*
G04 #@! TA.AperFunction,SMDPad,CuDef*
G36*
G01*
X11925625Y-8407500D02*
X11874375Y-8407500D01*
G75*
G02*
X11852500Y-8385625I0J21875D01*
G01*
X11852500Y-8341875D01*
G75*
G02*
X11874375Y-8320000I21875J0D01*
G01*
X11925625Y-8320000D01*
G75*
G02*
X11947500Y-8341875I0J-21875D01*
G01*
X11947500Y-8385625D01*
G75*
G02*
X11925625Y-8407500I-21875J0D01*
G01*
G37*
G04 #@! TD.AperFunction*
D13*
X15125000Y-6421000D03*
D14*
X15125000Y-6675000D03*
X15125000Y-6929000D03*
G04 #@! TA.AperFunction,SMDPad,CuDef*
G36*
G01*
X11165000Y-7082500D02*
X11165000Y-6957500D01*
G75*
G02*
X11190000Y-6932500I25000J0D01*
G01*
X11265000Y-6932500D01*
G75*
G02*
X11290000Y-6957500I0J-25000D01*
G01*
X11290000Y-7082500D01*
G75*
G02*
X11265000Y-7107500I-25000J0D01*
G01*
X11190000Y-7107500D01*
G75*
G02*
X11165000Y-7082500I0J25000D01*
G01*
G37*
G04 #@! TD.AperFunction*
G04 #@! TA.AperFunction,SMDPad,CuDef*
G36*
G01*
X11445000Y-7082500D02*
X11445000Y-6957500D01*
G75*
G02*
X11470000Y-6932500I25000J0D01*
G01*
X11545000Y-6932500D01*
G75*
G02*
X11570000Y-6957500I0J-25000D01*
G01*
X11570000Y-7082500D01*
G75*
G02*
X11545000Y-7107500I-25000J0D01*
G01*
X11470000Y-7107500D01*
G75*
G02*
X11445000Y-7082500I0J25000D01*
G01*
G37*
G04 #@! TD.AperFunction*
G04 #@! TA.AperFunction,SMDPad,CuDef*
G36*
G01*
X11200000Y-7315000D02*
X11200000Y-7265000D01*
G75*
G02*
X11222500Y-7242500I22500J0D01*
G01*
X11267500Y-7242500D01*
G75*
G02*
X11290000Y-7265000I0J-22500D01*
G01*
X11290000Y-7315000D01*
G75*
G02*
X11267500Y-7337500I-22500J0D01*
G01*
X11222500Y-7337500D01*
G75*
G02*
X11200000Y-7315000I0J22500D01*
G01*
G37*
G04 #@! TD.AperFunction*
G04 #@! TA.AperFunction,SMDPad,CuDef*
G36*
G01*
X11355000Y-7315000D02*
X11355000Y-7265000D01*
G75*
G02*
X11377500Y-7242500I22500J0D01*
G01*
X11422500Y-7242500D01*
G75*
G02*
X11445000Y-7265000I0J-22500D01*
G01*
X11445000Y-7315000D01*
G75*
G02*
X11422500Y-7337500I-22500J0D01*
G01*
X11377500Y-7337500D01*
G75*
G02*
X11355000Y-7315000I0J22500D01*
G01*
G37*
G04 #@! TD.AperFunction*
G04 #@! TA.AperFunction,SMDPad,CuDef*
G36*
G01*
X12340000Y-7040000D02*
X12390000Y-7040000D01*
G75*
G02*
X12412500Y-7062500I0J-22500D01*
G01*
X12412500Y-7107500D01*
G75*
G02*
X12390000Y-7130000I-22500J0D01*
G01*
X12340000Y-7130000D01*
G75*
G02*
X12317500Y-7107500I0J22500D01*
G01*
X12317500Y-7062500D01*
G75*
G02*
X12340000Y-7040000I22500J0D01*
G01*
G37*
G04 #@! TD.AperFunction*
G04 #@! TA.AperFunction,SMDPad,CuDef*
G36*
G01*
X12340000Y-6885000D02*
X12390000Y-6885000D01*
G75*
G02*
X12412500Y-6907500I0J-22500D01*
G01*
X12412500Y-6952500D01*
G75*
G02*
X12390000Y-6975000I-22500J0D01*
G01*
X12340000Y-6975000D01*
G75*
G02*
X12317500Y-6952500I0J22500D01*
G01*
X12317500Y-6907500D01*
G75*
G02*
X12340000Y-6885000I22500J0D01*
G01*
G37*
G04 #@! TD.AperFunction*
D15*
X12979000Y-7925000D03*
X13106000Y-7798000D03*
X13233000Y-7925000D03*
G04 #@! TA.AperFunction,SMDPad,CuDef*
G36*
G01*
X12407500Y-8572500D02*
X12407500Y-8517500D01*
G75*
G02*
X12427500Y-8497500I20000J0D01*
G01*
X12467500Y-8497500D01*
G75*
G02*
X12487500Y-8517500I0J-20000D01*
G01*
X12487500Y-8572500D01*
G75*
G02*
X12467500Y-8592500I-20000J0D01*
G01*
X12427500Y-8592500D01*
G75*
G02*
X12407500Y-8572500I0J20000D01*
G01*
G37*
G04 #@! TD.AperFunction*
G04 #@! TA.AperFunction,SMDPad,CuDef*
G36*
G01*
X12242500Y-8572500D02*
X12242500Y-8517500D01*
G75*
G02*
X12262500Y-8497500I20000J0D01*
G01*
X12302500Y-8497500D01*
G75*
G02*
X12322500Y-8517500I0J-20000D01*
G01*
X12322500Y-8572500D01*
G75*
G02*
X12302500Y-8592500I-20000J0D01*
G01*
X12262500Y-8592500D01*
G75*
G02*
X12242500Y-8572500I0J20000D01*
G01*
G37*
G04 #@! TD.AperFunction*
G04 #@! TA.AperFunction,SMDPad,CuDef*
G36*
G01*
X13362500Y-6407500D02*
X13362500Y-6462500D01*
G75*
G02*
X13342500Y-6482500I-20000J0D01*
G01*
X13302500Y-6482500D01*
G75*
G02*
X13282500Y-6462500I0J20000D01*
G01*
X13282500Y-6407500D01*
G75*
G02*
X13302500Y-6387500I20000J0D01*
G01*
X13342500Y-6387500D01*
G75*
G02*
X13362500Y-6407500I0J-20000D01*
G01*
G37*
G04 #@! TD.AperFunction*
G04 #@! TA.AperFunction,SMDPad,CuDef*
G36*
G01*
X13527500Y-6407500D02*
X13527500Y-6462500D01*
G75*
G02*
X13507500Y-6482500I-20000J0D01*
G01*
X13467500Y-6482500D01*
G75*
G02*
X13447500Y-6462500I0J20000D01*
G01*
X13447500Y-6407500D01*
G75*
G02*
X13467500Y-6387500I20000J0D01*
G01*
X13507500Y-6387500D01*
G75*
G02*
X13527500Y-6407500I0J-20000D01*
G01*
G37*
G04 #@! TD.AperFunction*
G04 #@! TA.AperFunction,SMDPad,CuDef*
G36*
G01*
X13527500Y-6597500D02*
X13527500Y-6652500D01*
G75*
G02*
X13507500Y-6672500I-20000J0D01*
G01*
X13467500Y-6672500D01*
G75*
G02*
X13447500Y-6652500I0J20000D01*
G01*
X13447500Y-6597500D01*
G75*
G02*
X13467500Y-6577500I20000J0D01*
G01*
X13507500Y-6577500D01*
G75*
G02*
X13527500Y-6597500I0J-20000D01*
G01*
G37*
G04 #@! TD.AperFunction*
G04 #@! TA.AperFunction,SMDPad,CuDef*
G36*
G01*
X13362500Y-6597500D02*
X13362500Y-6652500D01*
G75*
G02*
X13342500Y-6672500I-20000J0D01*
G01*
X13302500Y-6672500D01*
G75*
G02*
X13282500Y-6652500I0J20000D01*
G01*
X13282500Y-6597500D01*
G75*
G02*
X13302500Y-6577500I20000J0D01*
G01*
X13342500Y-6577500D01*
G75*
G02*
X13362500Y-6597500I0J-20000D01*
G01*
G37*
G04 #@! TD.AperFunction*
G04 #@! TA.AperFunction,SMDPad,CuDef*
G36*
G01*
X14457500Y-6987500D02*
X14457500Y-7042500D01*
G75*
G02*
X14437500Y-7062500I-20000J0D01*
G01*
X14397500Y-7062500D01*
G75*
G02*
X14377500Y-7042500I0J20000D01*
G01*
X14377500Y-6987500D01*
G75*
G02*
X14397500Y-6967500I20000J0D01*
G01*
X14437500Y-6967500D01*
G75*
G02*
X14457500Y-6987500I0J-20000D01*
G01*
G37*
G04 #@! TD.AperFunction*
G04 #@! TA.AperFunction,SMDPad,CuDef*
G36*
G01*
X14292500Y-6987500D02*
X14292500Y-7042500D01*
G75*
G02*
X14272500Y-7062500I-20000J0D01*
G01*
X14232500Y-7062500D01*
G75*
G02*
X14212500Y-7042500I0J20000D01*
G01*
X14212500Y-6987500D01*
G75*
G02*
X14232500Y-6967500I20000J0D01*
G01*
X14272500Y-6967500D01*
G75*
G02*
X14292500Y-6987500I0J-20000D01*
G01*
G37*
G04 #@! TD.AperFunction*
G04 #@! TA.AperFunction,SMDPad,CuDef*
G36*
G01*
X14292500Y-7167500D02*
X14292500Y-7222500D01*
G75*
G02*
X14272500Y-7242500I-20000J0D01*
G01*
X14232500Y-7242500D01*
G75*
G02*
X14212500Y-7222500I0J20000D01*
G01*
X14212500Y-7167500D01*
G75*
G02*
X14232500Y-7147500I20000J0D01*
G01*
X14272500Y-7147500D01*
G75*
G02*
X14292500Y-7167500I0J-20000D01*
G01*
G37*
G04 #@! TD.AperFunction*
G04 #@! TA.AperFunction,SMDPad,CuDef*
G36*
G01*
X14457500Y-7167500D02*
X14457500Y-7222500D01*
G75*
G02*
X14437500Y-7242500I-20000J0D01*
G01*
X14397500Y-7242500D01*
G75*
G02*
X14377500Y-7222500I0J20000D01*
G01*
X14377500Y-7167500D01*
G75*
G02*
X14397500Y-7147500I20000J0D01*
G01*
X14437500Y-7147500D01*
G75*
G02*
X14457500Y-7167500I0J-20000D01*
G01*
G37*
G04 #@! TD.AperFunction*
G04 #@! TA.AperFunction,SMDPad,CuDef*
G36*
G01*
X12487500Y-8967500D02*
X12487500Y-9022500D01*
G75*
G02*
X12467500Y-9042500I-20000J0D01*
G01*
X12427500Y-9042500D01*
G75*
G02*
X12407500Y-9022500I0J20000D01*
G01*
X12407500Y-8967500D01*
G75*
G02*
X12427500Y-8947500I20000J0D01*
G01*
X12467500Y-8947500D01*
G75*
G02*
X12487500Y-8967500I0J-20000D01*
G01*
G37*
G04 #@! TD.AperFunction*
G04 #@! TA.AperFunction,SMDPad,CuDef*
G36*
G01*
X12322500Y-8967500D02*
X12322500Y-9022500D01*
G75*
G02*
X12302500Y-9042500I-20000J0D01*
G01*
X12262500Y-9042500D01*
G75*
G02*
X12242500Y-9022500I0J20000D01*
G01*
X12242500Y-8967500D01*
G75*
G02*
X12262500Y-8947500I20000J0D01*
G01*
X12302500Y-8947500D01*
G75*
G02*
X12322500Y-8967500I0J-20000D01*
G01*
G37*
G04 #@! TD.AperFunction*
G04 #@! TA.AperFunction,SMDPad,CuDef*
G36*
G01*
X11667500Y-7482500D02*
X11722500Y-7482500D01*
G75*
G02*
X11742500Y-7502500I0J-20000D01*
G01*
X11742500Y-7542500D01*
G75*
G02*
X11722500Y-7562500I-20000J0D01*
G01*
X11667500Y-7562500D01*
G75*
G02*
X11647500Y-7542500I0J20000D01*
G01*
X11647500Y-7502500D01*
G75*
G02*
X11667500Y-7482500I20000J0D01*
G01*
G37*
G04 #@! TD.AperFunction*
G04 #@! TA.AperFunction,SMDPad,CuDef*
G36*
G01*
X11667500Y-7647500D02*
X11722500Y-7647500D01*
G75*
G02*
X11742500Y-7667500I0J-20000D01*
G01*
X11742500Y-7707500D01*
G75*
G02*
X11722500Y-7727500I-20000J0D01*
G01*
X11667500Y-7727500D01*
G75*
G02*
X11647500Y-7707500I0J20000D01*
G01*
X11647500Y-7667500D01*
G75*
G02*
X11667500Y-7647500I20000J0D01*
G01*
G37*
G04 #@! TD.AperFunction*
G04 #@! TA.AperFunction,SMDPad,CuDef*
G36*
G01*
X11667500Y-7997500D02*
X11722500Y-7997500D01*
G75*
G02*
X11742500Y-8017500I0J-20000D01*
G01*
X11742500Y-8057500D01*
G75*
G02*
X11722500Y-8077500I-20000J0D01*
G01*
X11667500Y-8077500D01*
G75*
G02*
X11647500Y-8057500I0J20000D01*
G01*
X11647500Y-8017500D01*
G75*
G02*
X11667500Y-7997500I20000J0D01*
G01*
G37*
G04 #@! TD.AperFunction*
G04 #@! TA.AperFunction,SMDPad,CuDef*
G36*
G01*
X11667500Y-7832500D02*
X11722500Y-7832500D01*
G75*
G02*
X11742500Y-7852500I0J-20000D01*
G01*
X11742500Y-7892500D01*
G75*
G02*
X11722500Y-7912500I-20000J0D01*
G01*
X11667500Y-7912500D01*
G75*
G02*
X11647500Y-7892500I0J20000D01*
G01*
X11647500Y-7852500D01*
G75*
G02*
X11667500Y-7832500I20000J0D01*
G01*
G37*
G04 #@! TD.AperFunction*
G04 #@! TA.AperFunction,SMDPad,CuDef*
G36*
G01*
X12532500Y-6882500D02*
X12657500Y-6882500D01*
G75*
G02*
X12682500Y-6907500I0J-25000D01*
G01*
X12682500Y-6970000D01*
G75*
G02*
X12657500Y-6995000I-25000J0D01*
G01*
X12532500Y-6995000D01*
G75*
G02*
X12507500Y-6970000I0J25000D01*
G01*
X12507500Y-6907500D01*
G75*
G02*
X12532500Y-6882500I25000J0D01*
G01*
G37*
G04 #@! TD.AperFunction*
G04 #@! TA.AperFunction,SMDPad,CuDef*
G36*
G01*
X12532500Y-7175000D02*
X12657500Y-7175000D01*
G75*
G02*
X12682500Y-7200000I0J-25000D01*
G01*
X12682500Y-7262500D01*
G75*
G02*
X12657500Y-7287500I-25000J0D01*
G01*
X12532500Y-7287500D01*
G75*
G02*
X12507500Y-7262500I0J25000D01*
G01*
X12507500Y-7200000D01*
G75*
G02*
X12532500Y-7175000I25000J0D01*
G01*
G37*
G04 #@! TD.AperFunction*
G04 #@! TA.AperFunction,SMDPad,CuDef*
G36*
G01*
X12227500Y-8018750D02*
X12227500Y-8031250D01*
G75*
G02*
X12221250Y-8037500I-6250J0D01*
G01*
X12148750Y-8037500D01*
G75*
G02*
X12142500Y-8031250I0J6250D01*
G01*
X12142500Y-8018750D01*
G75*
G02*
X12148750Y-8012500I6250J0D01*
G01*
X12221250Y-8012500D01*
G75*
G02*
X12227500Y-8018750I0J-6250D01*
G01*
G37*
G04 #@! TD.AperFunction*
G04 #@! TA.AperFunction,SMDPad,CuDef*
G36*
G01*
X12227500Y-7968750D02*
X12227500Y-7981250D01*
G75*
G02*
X12221250Y-7987500I-6250J0D01*
G01*
X12148750Y-7987500D01*
G75*
G02*
X12142500Y-7981250I0J6250D01*
G01*
X12142500Y-7968750D01*
G75*
G02*
X12148750Y-7962500I6250J0D01*
G01*
X12221250Y-7962500D01*
G75*
G02*
X12227500Y-7968750I0J-6250D01*
G01*
G37*
G04 #@! TD.AperFunction*
G04 #@! TA.AperFunction,SMDPad,CuDef*
G36*
G01*
X12227500Y-7918750D02*
X12227500Y-7931250D01*
G75*
G02*
X12221250Y-7937500I-6250J0D01*
G01*
X12148750Y-7937500D01*
G75*
G02*
X12142500Y-7931250I0J6250D01*
G01*
X12142500Y-7918750D01*
G75*
G02*
X12148750Y-7912500I6250J0D01*
G01*
X12221250Y-7912500D01*
G75*
G02*
X12227500Y-7918750I0J-6250D01*
G01*
G37*
G04 #@! TD.AperFunction*
G04 #@! TA.AperFunction,SMDPad,CuDef*
G36*
G01*
X12227500Y-7868750D02*
X12227500Y-7881250D01*
G75*
G02*
X12221250Y-7887500I-6250J0D01*
G01*
X12148750Y-7887500D01*
G75*
G02*
X12142500Y-7881250I0J6250D01*
G01*
X12142500Y-7868750D01*
G75*
G02*
X12148750Y-7862500I6250J0D01*
G01*
X12221250Y-7862500D01*
G75*
G02*
X12227500Y-7868750I0J-6250D01*
G01*
G37*
G04 #@! TD.AperFunction*
G04 #@! TA.AperFunction,SMDPad,CuDef*
G36*
G01*
X12227500Y-7818750D02*
X12227500Y-7831250D01*
G75*
G02*
X12221250Y-7837500I-6250J0D01*
G01*
X12148750Y-7837500D01*
G75*
G02*
X12142500Y-7831250I0J6250D01*
G01*
X12142500Y-7818750D01*
G75*
G02*
X12148750Y-7812500I6250J0D01*
G01*
X12221250Y-7812500D01*
G75*
G02*
X12227500Y-7818750I0J-6250D01*
G01*
G37*
G04 #@! TD.AperFunction*
G04 #@! TA.AperFunction,SMDPad,CuDef*
G36*
G01*
X11937500Y-7818750D02*
X11937500Y-7831250D01*
G75*
G02*
X11931250Y-7837500I-6250J0D01*
G01*
X11858750Y-7837500D01*
G75*
G02*
X11852500Y-7831250I0J6250D01*
G01*
X11852500Y-7818750D01*
G75*
G02*
X11858750Y-7812500I6250J0D01*
G01*
X11931250Y-7812500D01*
G75*
G02*
X11937500Y-7818750I0J-6250D01*
G01*
G37*
G04 #@! TD.AperFunction*
G04 #@! TA.AperFunction,SMDPad,CuDef*
G36*
G01*
X11937500Y-7868750D02*
X11937500Y-7881250D01*
G75*
G02*
X11931250Y-7887500I-6250J0D01*
G01*
X11858750Y-7887500D01*
G75*
G02*
X11852500Y-7881250I0J6250D01*
G01*
X11852500Y-7868750D01*
G75*
G02*
X11858750Y-7862500I6250J0D01*
G01*
X11931250Y-7862500D01*
G75*
G02*
X11937500Y-7868750I0J-6250D01*
G01*
G37*
G04 #@! TD.AperFunction*
G04 #@! TA.AperFunction,SMDPad,CuDef*
G36*
G01*
X11937500Y-7918750D02*
X11937500Y-7931250D01*
G75*
G02*
X11931250Y-7937500I-6250J0D01*
G01*
X11858750Y-7937500D01*
G75*
G02*
X11852500Y-7931250I0J6250D01*
G01*
X11852500Y-7918750D01*
G75*
G02*
X11858750Y-7912500I6250J0D01*
G01*
X11931250Y-7912500D01*
G75*
G02*
X11937500Y-7918750I0J-6250D01*
G01*
G37*
G04 #@! TD.AperFunction*
G04 #@! TA.AperFunction,SMDPad,CuDef*
G36*
G01*
X11937500Y-7968750D02*
X11937500Y-7981250D01*
G75*
G02*
X11931250Y-7987500I-6250J0D01*
G01*
X11858750Y-7987500D01*
G75*
G02*
X11852500Y-7981250I0J6250D01*
G01*
X11852500Y-7968750D01*
G75*
G02*
X11858750Y-7962500I6250J0D01*
G01*
X11931250Y-7962500D01*
G75*
G02*
X11937500Y-7968750I0J-6250D01*
G01*
G37*
G04 #@! TD.AperFunction*
G04 #@! TA.AperFunction,SMDPad,CuDef*
G36*
G01*
X11937500Y-8018750D02*
X11937500Y-8031250D01*
G75*
G02*
X11931250Y-8037500I-6250J0D01*
G01*
X11858750Y-8037500D01*
G75*
G02*
X11852500Y-8031250I0J6250D01*
G01*
X11852500Y-8018750D01*
G75*
G02*
X11858750Y-8012500I6250J0D01*
G01*
X11931250Y-8012500D01*
G75*
G02*
X11937500Y-8018750I0J-6250D01*
G01*
G37*
G04 #@! TD.AperFunction*
D16*
X12040000Y-7925000D03*
D17*
X11479000Y-6629000D03*
X10971000Y-6629000D03*
X10971000Y-6121000D03*
X11479000Y-6121000D03*
X11225000Y-6375000D03*
D18*
X12607500Y-6372500D03*
D17*
X12353500Y-6118500D03*
X12353500Y-6626500D03*
X12861500Y-6626500D03*
X12861500Y-6118500D03*
G04 #@! TA.AperFunction,SMDPad,CuDef*
G36*
G01*
X12487500Y-8340000D02*
X12487500Y-8390000D01*
G75*
G02*
X12465000Y-8412500I-22500J0D01*
G01*
X12420000Y-8412500D01*
G75*
G02*
X12397500Y-8390000I0J22500D01*
G01*
X12397500Y-8340000D01*
G75*
G02*
X12420000Y-8317500I22500J0D01*
G01*
X12465000Y-8317500D01*
G75*
G02*
X12487500Y-8340000I0J-22500D01*
G01*
G37*
G04 #@! TD.AperFunction*
G04 #@! TA.AperFunction,SMDPad,CuDef*
G36*
G01*
X12332500Y-8340000D02*
X12332500Y-8390000D01*
G75*
G02*
X12310000Y-8412500I-22500J0D01*
G01*
X12265000Y-8412500D01*
G75*
G02*
X12242500Y-8390000I0J22500D01*
G01*
X12242500Y-8340000D01*
G75*
G02*
X12265000Y-8317500I22500J0D01*
G01*
X12310000Y-8317500D01*
G75*
G02*
X12332500Y-8340000I0J-22500D01*
G01*
G37*
G04 #@! TD.AperFunction*
G04 #@! TA.AperFunction,SMDPad,CuDef*
G36*
G01*
X12560000Y-8055000D02*
X12500000Y-8055000D01*
G75*
G02*
X12490000Y-8045000I0J10000D01*
G01*
X12490000Y-8025000D01*
G75*
G02*
X12500000Y-8015000I10000J0D01*
G01*
X12560000Y-8015000D01*
G75*
G02*
X12570000Y-8025000I0J-10000D01*
G01*
X12570000Y-8045000D01*
G75*
G02*
X12560000Y-8055000I-10000J0D01*
G01*
G37*
G04 #@! TD.AperFunction*
G04 #@! TA.AperFunction,SMDPad,CuDef*
G36*
G01*
X12560000Y-7895000D02*
X12500000Y-7895000D01*
G75*
G02*
X12490000Y-7885000I0J10000D01*
G01*
X12490000Y-7865000D01*
G75*
G02*
X12500000Y-7855000I10000J0D01*
G01*
X12560000Y-7855000D01*
G75*
G02*
X12570000Y-7865000I0J-10000D01*
G01*
X12570000Y-7885000D01*
G75*
G02*
X12560000Y-7895000I-10000J0D01*
G01*
G37*
G04 #@! TD.AperFunction*
G04 #@! TA.AperFunction,SMDPad,CuDef*
D11*
G36*
X12295000Y-8834940D02*
G01*
X12292547Y-8834940D01*
X12287663Y-8834459D01*
X12282851Y-8833502D01*
X12278155Y-8832077D01*
X12273622Y-8830200D01*
X12269295Y-8827886D01*
X12265215Y-8825160D01*
X12261422Y-8822048D01*
X12257952Y-8818578D01*
X12254840Y-8814785D01*
X12252114Y-8810705D01*
X12249800Y-8806378D01*
X12247923Y-8801845D01*
X12246498Y-8797149D01*
X12245541Y-8792337D01*
X12245060Y-8787453D01*
X12245060Y-8785000D01*
X12245000Y-8785000D01*
X12245000Y-8735000D01*
X12245060Y-8735000D01*
X12245060Y-8732547D01*
X12245541Y-8727664D01*
X12246498Y-8722851D01*
X12247923Y-8718156D01*
X12249800Y-8713622D01*
X12252114Y-8709295D01*
X12254840Y-8705215D01*
X12257952Y-8701422D01*
X12261422Y-8697952D01*
X12265215Y-8694840D01*
X12269295Y-8692114D01*
X12273622Y-8689801D01*
X12278155Y-8687923D01*
X12282851Y-8686498D01*
X12287663Y-8685541D01*
X12292547Y-8685060D01*
X12295000Y-8685060D01*
X12295000Y-8685000D01*
X12345000Y-8685000D01*
X12345000Y-8835000D01*
X12295000Y-8835000D01*
X12295000Y-8834940D01*
G37*
G04 #@! TD.AperFunction*
G04 #@! TA.AperFunction,SMDPad,CuDef*
G36*
X12375000Y-8685000D02*
G01*
X12425000Y-8685000D01*
X12425000Y-8685060D01*
X12427453Y-8685060D01*
X12432336Y-8685541D01*
X12437149Y-8686498D01*
X12441844Y-8687923D01*
X12446378Y-8689801D01*
X12450705Y-8692114D01*
X12454785Y-8694840D01*
X12458578Y-8697952D01*
X12462048Y-8701422D01*
X12465160Y-8705215D01*
X12467886Y-8709295D01*
X12470199Y-8713622D01*
X12472077Y-8718156D01*
X12473502Y-8722851D01*
X12474459Y-8727664D01*
X12474940Y-8732547D01*
X12474940Y-8735000D01*
X12475000Y-8735000D01*
X12475000Y-8785000D01*
X12474940Y-8785000D01*
X12474940Y-8787453D01*
X12474459Y-8792337D01*
X12473502Y-8797149D01*
X12472077Y-8801845D01*
X12470199Y-8806378D01*
X12467886Y-8810705D01*
X12465160Y-8814785D01*
X12462048Y-8818578D01*
X12458578Y-8822048D01*
X12454785Y-8825160D01*
X12450705Y-8827886D01*
X12446378Y-8830200D01*
X12441844Y-8832077D01*
X12437149Y-8833502D01*
X12432336Y-8834459D01*
X12427453Y-8834940D01*
X12425000Y-8834940D01*
X12425000Y-8835000D01*
X12375000Y-8835000D01*
X12375000Y-8685000D01*
G37*
G04 #@! TD.AperFunction*
D19*
X12660000Y-7955000D03*
X12415000Y-7955000D03*
X13875000Y-6645000D03*
X11392500Y-7410000D03*
X14535000Y-7025000D03*
X13835000Y-5925000D03*
X13830000Y-7545000D03*
X13175000Y-6625000D03*
X11695000Y-7385000D03*
X12365000Y-7205000D03*
X12185000Y-7355000D03*
X11895000Y-8485000D03*
X12155000Y-8545000D03*
X12380000Y-7820000D03*
X12575000Y-9160000D03*
X11905000Y-7545000D03*
X11675000Y-8205000D03*
X14525000Y-6725000D03*
X14135000Y-7145000D03*
X11795000Y-7785000D03*
X12065000Y-8155000D03*
X12145000Y-8335000D03*
X12345000Y-7415000D03*
D20*
X14070000Y-6675000D02*
X14105000Y-6640000D01*
X14015000Y-6675000D02*
X14070000Y-6675000D01*
X14070000Y-6575000D02*
X14015000Y-6575000D01*
X14105000Y-6610000D02*
X14070000Y-6575000D01*
X14105000Y-6640000D02*
X14105000Y-6610000D01*
D21*
X14969000Y-6265000D02*
X15125000Y-6421000D01*
X14745000Y-6265000D02*
X14969000Y-6265000D01*
D22*
X14535000Y-6265000D02*
X14745000Y-6265000D01*
X14175000Y-6625000D02*
X14535000Y-6265000D01*
X14105000Y-6625000D02*
X14175000Y-6625000D01*
X12660000Y-7955000D02*
X12415000Y-7955000D01*
D20*
X13875000Y-6646000D02*
X13875000Y-6645000D01*
X13798751Y-6722249D02*
X13875000Y-6646000D01*
X13677751Y-6722249D02*
X13798751Y-6722249D01*
D22*
X11416250Y-7386250D02*
X11392500Y-7410000D01*
X11416250Y-7290000D02*
X11416250Y-7386250D01*
D20*
X13677751Y-6722249D02*
X13665000Y-6735000D01*
X13665000Y-6735000D02*
X13665000Y-6765000D01*
X13735000Y-6775000D02*
X13675000Y-6775000D01*
X13665000Y-6765000D02*
X13670000Y-6770000D01*
D21*
X14745000Y-6805000D02*
X14875000Y-6675000D01*
X14875000Y-6675000D02*
X15125000Y-6675000D01*
X14745000Y-6545000D02*
X14875000Y-6675000D01*
D20*
X14525000Y-7015000D02*
X14535000Y-7025000D01*
X14417500Y-7015000D02*
X14525000Y-7015000D01*
D21*
X13830000Y-6090000D02*
X13830000Y-5925000D01*
X13830000Y-7360000D02*
X13830000Y-7545000D01*
D22*
X12183750Y-7465000D02*
X12185000Y-7466250D01*
D20*
X13322500Y-6625000D02*
X13175000Y-6625000D01*
D22*
X11896250Y-8367500D02*
X11900000Y-8363750D01*
D20*
X11695000Y-7522500D02*
X11695000Y-7385000D01*
X12825000Y-6663000D02*
X12861500Y-6626500D01*
X12365000Y-7085000D02*
X12365000Y-7205000D01*
D22*
X12185000Y-7466250D02*
X12185000Y-7355000D01*
X11900000Y-8480000D02*
X11895000Y-8485000D01*
X11900000Y-8363750D02*
X11900000Y-8480000D01*
D20*
X12282500Y-8545000D02*
X12165000Y-8545000D01*
X12165000Y-8545000D02*
X12155000Y-8545000D01*
X12185000Y-7925000D02*
X12275000Y-7925000D01*
X12275000Y-7925000D02*
X12380000Y-7820000D01*
X12443750Y-9160000D02*
X12575000Y-9160000D01*
X13623750Y-6675000D02*
X13483750Y-6815000D01*
X13735000Y-6675000D02*
X13623750Y-6675000D01*
X13735000Y-6575000D02*
X13700000Y-6575000D01*
X13560000Y-6435000D02*
X13487500Y-6435000D01*
X13700000Y-6575000D02*
X13560000Y-6435000D01*
X13735000Y-6465000D02*
X13830000Y-6370000D01*
X13735000Y-6575000D02*
X13735000Y-6465000D01*
X11895000Y-8201250D02*
X11900000Y-8206250D01*
X11895000Y-8025000D02*
X11895000Y-8201250D01*
X13487500Y-6435000D02*
X13347500Y-6295000D01*
D22*
X13552500Y-6370000D02*
X13487500Y-6435000D01*
X13830000Y-6370000D02*
X13552500Y-6370000D01*
X13552500Y-6370000D02*
X13437500Y-6255000D01*
X13265000Y-6255000D02*
X13175000Y-6255000D01*
X13437500Y-6255000D02*
X13265000Y-6255000D01*
X13265000Y-6255000D02*
X13185000Y-6255000D01*
X13175000Y-6255000D02*
X13085000Y-6165000D01*
X13085000Y-6165000D02*
X13085000Y-5855000D01*
X13085000Y-5855000D02*
X12935000Y-5705000D01*
X12935000Y-5705000D02*
X12185000Y-5705000D01*
X12185000Y-5705000D02*
X11905000Y-5985000D01*
X11905000Y-5985000D02*
X11905000Y-7545000D01*
X11676250Y-8206250D02*
X11675000Y-8205000D01*
X11900000Y-8206250D02*
X11676250Y-8206250D01*
D20*
X13326250Y-6815000D02*
X13205000Y-6815000D01*
X13085000Y-6695000D02*
X13085000Y-6165000D01*
X13205000Y-6815000D02*
X13085000Y-6695000D01*
X14403750Y-6725000D02*
X14525000Y-6725000D01*
X13830000Y-7080000D02*
X13765000Y-7015000D01*
X13735000Y-6985000D02*
X13830000Y-7080000D01*
X13735000Y-6875000D02*
X13735000Y-6985000D01*
X12206250Y-7645000D02*
X12185000Y-7623750D01*
X12245000Y-7875000D02*
X12295000Y-7825000D01*
X12185000Y-7875000D02*
X12245000Y-7875000D01*
X12185000Y-7623750D02*
X12263750Y-7623750D01*
X12263750Y-7623750D02*
X12295000Y-7655000D01*
X12295000Y-7655000D02*
X12295000Y-7685000D01*
X12295000Y-7685000D02*
X12295000Y-7675000D01*
X12295000Y-7825000D02*
X12295000Y-7685000D01*
X12040000Y-7925000D02*
X12040000Y-7670000D01*
X12086250Y-7623750D02*
X12185000Y-7623750D01*
X12040000Y-7670000D02*
X12086250Y-7623750D01*
X13233000Y-7925000D02*
X13395000Y-7925000D01*
X13395000Y-7925000D02*
X13485000Y-7835000D01*
X13485000Y-7835000D02*
X13485000Y-7205000D01*
X13485000Y-7205000D02*
X13610000Y-7080000D01*
D22*
X13610000Y-7080000D02*
X13830000Y-7080000D01*
D20*
X14070000Y-7080000D02*
X14135000Y-7145000D01*
X13830000Y-7080000D02*
X14070000Y-7080000D01*
X14135000Y-7145000D02*
X14175000Y-7185000D01*
X14242500Y-7185000D02*
X14252500Y-7195000D01*
X14175000Y-7185000D02*
X14242500Y-7185000D01*
D22*
X13432501Y-7257499D02*
X13610000Y-7080000D01*
X13195000Y-7495000D02*
X13432501Y-7257499D01*
X12435000Y-7495000D02*
X13195000Y-7495000D01*
X12306250Y-7623750D02*
X12435000Y-7495000D01*
X12185000Y-7623750D02*
X12306250Y-7623750D01*
D20*
X14015000Y-6725000D02*
X14246250Y-6725000D01*
X11895000Y-7875000D02*
X11845000Y-7875000D01*
X11795000Y-7825000D02*
X11795000Y-7785000D01*
X11845000Y-7875000D02*
X11795000Y-7825000D01*
X12287500Y-8720000D02*
X12282500Y-8725000D01*
X12286250Y-8728750D02*
X12282500Y-8725000D01*
X12065000Y-8665000D02*
X12065000Y-8155000D01*
X12160000Y-8760000D02*
X12140000Y-8740000D01*
X12140000Y-8740000D02*
X12065000Y-8665000D01*
X12295000Y-8760000D02*
X12160000Y-8760000D01*
X12282500Y-8772500D02*
X12295000Y-8760000D01*
X12282500Y-8995000D02*
X12282500Y-8772500D01*
X12286250Y-8998750D02*
X12282500Y-8995000D01*
X12286250Y-9160000D02*
X12286250Y-8998750D01*
D22*
X11222500Y-7290000D02*
X11222500Y-7020000D01*
D20*
X11227500Y-6377500D02*
X11225000Y-6375000D01*
X11227500Y-7020000D02*
X11227500Y-6377500D01*
X14015000Y-6775000D02*
X14085000Y-6775000D01*
X14095000Y-6795000D02*
X14095000Y-6815000D01*
X14085000Y-6775000D02*
X14095000Y-6785000D01*
X14095000Y-6785000D02*
X14095000Y-6795000D01*
X14095000Y-6815000D02*
X14085000Y-6825000D01*
X14085000Y-6825000D02*
X14075000Y-6825000D01*
X13875000Y-6839500D02*
X13930500Y-6839500D01*
X13945000Y-6825000D02*
X14085000Y-6825000D01*
X13930500Y-6839500D02*
X13945000Y-6825000D01*
X13860500Y-6825000D02*
X13875000Y-6839500D01*
X13735000Y-6825000D02*
X13860500Y-6825000D01*
D21*
X14969000Y-7085000D02*
X15125000Y-6929000D01*
X14745000Y-7085000D02*
X14969000Y-7085000D01*
D22*
X14165000Y-6865000D02*
X14105000Y-6805000D01*
X14525000Y-6865000D02*
X14165000Y-6865000D01*
X14745000Y-7085000D02*
X14525000Y-6865000D01*
D20*
X12443750Y-8728750D02*
X12447500Y-8725000D01*
X12442500Y-8540000D02*
X12447500Y-8545000D01*
X12442500Y-8365000D02*
X12442500Y-8540000D01*
X12447500Y-8737500D02*
X12425000Y-8760000D01*
X12447500Y-8545000D02*
X12447500Y-8737500D01*
X12447500Y-8782500D02*
X12425000Y-8760000D01*
X12447500Y-8995000D02*
X12447500Y-8782500D01*
X12185000Y-8025000D02*
X12185000Y-8155000D01*
X12273002Y-8329999D02*
X12262751Y-8340251D01*
X12273002Y-8243002D02*
X12273002Y-8329999D01*
X12185000Y-8155000D02*
X12273002Y-8243002D01*
X12175000Y-8365000D02*
X12145000Y-8335000D01*
X12287500Y-8365000D02*
X12175000Y-8365000D01*
X12411250Y-7415000D02*
X12595000Y-7231250D01*
X12345000Y-7415000D02*
X12411250Y-7415000D01*
X12185000Y-8055000D02*
X12185000Y-8025000D01*
X12265000Y-8135000D02*
X12185000Y-8055000D01*
X12482500Y-8135000D02*
X12265000Y-8135000D01*
X12530000Y-8087500D02*
X12482500Y-8135000D01*
X12530000Y-8035000D02*
X12530000Y-8087500D01*
X12373750Y-6938750D02*
X12365000Y-6930000D01*
X12595000Y-6938750D02*
X12373750Y-6938750D01*
X12607500Y-6926250D02*
X12595000Y-6938750D01*
X12607500Y-6372500D02*
X12607500Y-6926250D01*
X12530000Y-7815000D02*
X12530000Y-7875000D01*
X12600000Y-7745000D02*
X12530000Y-7815000D01*
X12799000Y-7745000D02*
X12600000Y-7745000D01*
X12979000Y-7925000D02*
X12799000Y-7745000D01*
X12415000Y-7875000D02*
X12530000Y-7875000D01*
X12315000Y-7975000D02*
X12415000Y-7875000D01*
X12185000Y-7975000D02*
X12315000Y-7975000D01*
X13735000Y-6625000D02*
X13487500Y-6625000D01*
X13322500Y-6460000D02*
X13487500Y-6625000D01*
X13322500Y-6435000D02*
X13322500Y-6460000D01*
X14015000Y-6875000D02*
X14085000Y-6875000D01*
X14225000Y-7015000D02*
X14252500Y-7015000D01*
X14085000Y-6875000D02*
X14225000Y-7015000D01*
X14417500Y-7180000D02*
X14252500Y-7015000D01*
X14417500Y-7195000D02*
X14417500Y-7180000D01*
X11695000Y-7872500D02*
X11695000Y-7687500D01*
X11742500Y-7872500D02*
X11695000Y-7872500D01*
X11795000Y-7925000D02*
X11742500Y-7872500D01*
X11895000Y-7925000D02*
X11795000Y-7925000D01*
X11895000Y-7975000D02*
X11835000Y-7975000D01*
X11772500Y-8037500D02*
X11695000Y-8037500D01*
X11835000Y-7975000D02*
X11772500Y-8037500D01*
X11507500Y-7020000D02*
X11507500Y-7237500D01*
X11507500Y-7237500D02*
X11565000Y-7295000D01*
X11565000Y-7295000D02*
X11565000Y-8015000D01*
X11587500Y-8037500D02*
X11695000Y-8037500D01*
X11565000Y-8015000D02*
X11587500Y-8037500D01*
M02*
