G04 #@! TF.FileFunction,Legend,Top*
%FSLAX46Y46*%
G04 Gerber Fmt 4.6, Leading zero omitted, Abs format (unit mm)*
G04 Created by KiCad (PCBNEW 4.0.6) date 12/13/17 11:39:51*
%MOMM*%
%LPD*%
G01*
G04 APERTURE LIST*
%ADD10C,0.100000*%
%ADD11C,0.150000*%
%ADD12C,0.300000*%
%ADD13C,0.120000*%
G04 APERTURE END LIST*
D10*
D11*
X132221427Y-117136905D02*
X132221427Y-116336905D01*
X132526189Y-116336905D01*
X132602380Y-116375000D01*
X132640475Y-116413095D01*
X132678570Y-116489286D01*
X132678570Y-116603571D01*
X132640475Y-116679762D01*
X132602380Y-116717857D01*
X132526189Y-116755952D01*
X132221427Y-116755952D01*
X133021427Y-117136905D02*
X133021427Y-116336905D01*
X133211903Y-116336905D01*
X133326189Y-116375000D01*
X133402380Y-116451190D01*
X133440475Y-116527381D01*
X133478570Y-116679762D01*
X133478570Y-116794048D01*
X133440475Y-116946429D01*
X133402380Y-117022619D01*
X133326189Y-117098810D01*
X133211903Y-117136905D01*
X133021427Y-117136905D01*
X133821427Y-117136905D02*
X133821427Y-116336905D01*
X133821427Y-116717857D02*
X134278570Y-116717857D01*
X134278570Y-117136905D02*
X134278570Y-116336905D01*
X135269046Y-116603571D02*
X135269046Y-117403571D01*
X135269046Y-116641667D02*
X135345237Y-116603571D01*
X135497618Y-116603571D01*
X135573808Y-116641667D01*
X135611903Y-116679762D01*
X135649999Y-116755952D01*
X135649999Y-116984524D01*
X135611903Y-117060714D01*
X135573808Y-117098810D01*
X135497618Y-117136905D01*
X135345237Y-117136905D01*
X135269046Y-117098810D01*
X135992856Y-117136905D02*
X135992856Y-116336905D01*
X136335713Y-117136905D02*
X136335713Y-116717857D01*
X136297618Y-116641667D01*
X136221428Y-116603571D01*
X136107142Y-116603571D01*
X136030951Y-116641667D01*
X135992856Y-116679762D01*
X136830952Y-117136905D02*
X136754761Y-117098810D01*
X136716666Y-117060714D01*
X136678571Y-116984524D01*
X136678571Y-116755952D01*
X136716666Y-116679762D01*
X136754761Y-116641667D01*
X136830952Y-116603571D01*
X136945238Y-116603571D01*
X137021428Y-116641667D01*
X137059523Y-116679762D01*
X137097619Y-116755952D01*
X137097619Y-116984524D01*
X137059523Y-117060714D01*
X137021428Y-117098810D01*
X136945238Y-117136905D01*
X136830952Y-117136905D01*
X137326190Y-116603571D02*
X137630952Y-116603571D01*
X137440476Y-116336905D02*
X137440476Y-117022619D01*
X137478571Y-117098810D01*
X137554762Y-117136905D01*
X137630952Y-117136905D01*
X138011905Y-117136905D02*
X137935714Y-117098810D01*
X137897619Y-117060714D01*
X137859524Y-116984524D01*
X137859524Y-116755952D01*
X137897619Y-116679762D01*
X137935714Y-116641667D01*
X138011905Y-116603571D01*
X138126191Y-116603571D01*
X138202381Y-116641667D01*
X138240476Y-116679762D01*
X138278572Y-116755952D01*
X138278572Y-116984524D01*
X138240476Y-117060714D01*
X138202381Y-117098810D01*
X138126191Y-117136905D01*
X138011905Y-117136905D01*
X138964286Y-117136905D02*
X138964286Y-116336905D01*
X138964286Y-117098810D02*
X138888096Y-117136905D01*
X138735715Y-117136905D01*
X138659524Y-117098810D01*
X138621429Y-117060714D01*
X138583334Y-116984524D01*
X138583334Y-116755952D01*
X138621429Y-116679762D01*
X138659524Y-116641667D01*
X138735715Y-116603571D01*
X138888096Y-116603571D01*
X138964286Y-116641667D01*
X139345239Y-117136905D02*
X139345239Y-116603571D01*
X139345239Y-116336905D02*
X139307144Y-116375000D01*
X139345239Y-116413095D01*
X139383334Y-116375000D01*
X139345239Y-116336905D01*
X139345239Y-116413095D01*
X139840477Y-117136905D02*
X139764286Y-117098810D01*
X139726191Y-117060714D01*
X139688096Y-116984524D01*
X139688096Y-116755952D01*
X139726191Y-116679762D01*
X139764286Y-116641667D01*
X139840477Y-116603571D01*
X139954763Y-116603571D01*
X140030953Y-116641667D01*
X140069048Y-116679762D01*
X140107144Y-116755952D01*
X140107144Y-116984524D01*
X140069048Y-117060714D01*
X140030953Y-117098810D01*
X139954763Y-117136905D01*
X139840477Y-117136905D01*
X140792858Y-117136905D02*
X140792858Y-116336905D01*
X140792858Y-117098810D02*
X140716668Y-117136905D01*
X140564287Y-117136905D01*
X140488096Y-117098810D01*
X140450001Y-117060714D01*
X140411906Y-116984524D01*
X140411906Y-116755952D01*
X140450001Y-116679762D01*
X140488096Y-116641667D01*
X140564287Y-116603571D01*
X140716668Y-116603571D01*
X140792858Y-116641667D01*
X141478573Y-117098810D02*
X141402383Y-117136905D01*
X141250002Y-117136905D01*
X141173811Y-117098810D01*
X141135716Y-117022619D01*
X141135716Y-116717857D01*
X141173811Y-116641667D01*
X141250002Y-116603571D01*
X141402383Y-116603571D01*
X141478573Y-116641667D01*
X141516668Y-116717857D01*
X141516668Y-116794048D01*
X141135716Y-116870238D01*
X131421428Y-117763095D02*
X131459523Y-117725000D01*
X131535714Y-117686905D01*
X131726190Y-117686905D01*
X131802380Y-117725000D01*
X131840476Y-117763095D01*
X131878571Y-117839286D01*
X131878571Y-117915476D01*
X131840476Y-118029762D01*
X131383333Y-118486905D01*
X131878571Y-118486905D01*
X132373809Y-117686905D02*
X132450000Y-117686905D01*
X132526190Y-117725000D01*
X132564285Y-117763095D01*
X132602381Y-117839286D01*
X132640476Y-117991667D01*
X132640476Y-118182143D01*
X132602381Y-118334524D01*
X132564285Y-118410714D01*
X132526190Y-118448810D01*
X132450000Y-118486905D01*
X132373809Y-118486905D01*
X132297619Y-118448810D01*
X132259523Y-118410714D01*
X132221428Y-118334524D01*
X132183333Y-118182143D01*
X132183333Y-117991667D01*
X132221428Y-117839286D01*
X132259523Y-117763095D01*
X132297619Y-117725000D01*
X132373809Y-117686905D01*
X133402381Y-118486905D02*
X132945238Y-118486905D01*
X133173809Y-118486905D02*
X133173809Y-117686905D01*
X133097619Y-117801190D01*
X133021428Y-117877381D01*
X132945238Y-117915476D01*
X133669048Y-117686905D02*
X134202381Y-117686905D01*
X133859524Y-118486905D01*
X134507143Y-118182143D02*
X135116667Y-118182143D01*
X135916667Y-118486905D02*
X135459524Y-118486905D01*
X135688095Y-118486905D02*
X135688095Y-117686905D01*
X135611905Y-117801190D01*
X135535714Y-117877381D01*
X135459524Y-117915476D01*
X136221429Y-117763095D02*
X136259524Y-117725000D01*
X136335715Y-117686905D01*
X136526191Y-117686905D01*
X136602381Y-117725000D01*
X136640477Y-117763095D01*
X136678572Y-117839286D01*
X136678572Y-117915476D01*
X136640477Y-118029762D01*
X136183334Y-118486905D01*
X136678572Y-118486905D01*
X138088096Y-118486905D02*
X137821429Y-118105952D01*
X137630953Y-118486905D02*
X137630953Y-117686905D01*
X137935715Y-117686905D01*
X138011906Y-117725000D01*
X138050001Y-117763095D01*
X138088096Y-117839286D01*
X138088096Y-117953571D01*
X138050001Y-118029762D01*
X138011906Y-118067857D01*
X137935715Y-118105952D01*
X137630953Y-118105952D01*
X138735715Y-118448810D02*
X138659525Y-118486905D01*
X138507144Y-118486905D01*
X138430953Y-118448810D01*
X138392858Y-118372619D01*
X138392858Y-118067857D01*
X138430953Y-117991667D01*
X138507144Y-117953571D01*
X138659525Y-117953571D01*
X138735715Y-117991667D01*
X138773810Y-118067857D01*
X138773810Y-118144048D01*
X138392858Y-118220238D01*
X139040477Y-117953571D02*
X139230953Y-118486905D01*
X139421429Y-117953571D01*
X139726191Y-118410714D02*
X139764286Y-118448810D01*
X139726191Y-118486905D01*
X139688096Y-118448810D01*
X139726191Y-118410714D01*
X139726191Y-118486905D01*
X141135715Y-118486905D02*
X140678572Y-118486905D01*
X140907143Y-118486905D02*
X140907143Y-117686905D01*
X140830953Y-117801190D01*
X140754762Y-117877381D01*
X140678572Y-117915476D01*
X141478572Y-118410714D02*
X141516667Y-118448810D01*
X141478572Y-118486905D01*
X141440477Y-118448810D01*
X141478572Y-118410714D01*
X141478572Y-118486905D01*
X142011905Y-117686905D02*
X142088096Y-117686905D01*
X142164286Y-117725000D01*
X142202381Y-117763095D01*
X142240477Y-117839286D01*
X142278572Y-117991667D01*
X142278572Y-118182143D01*
X142240477Y-118334524D01*
X142202381Y-118410714D01*
X142164286Y-118448810D01*
X142088096Y-118486905D01*
X142011905Y-118486905D01*
X141935715Y-118448810D01*
X141897619Y-118410714D01*
X141859524Y-118334524D01*
X141821429Y-118182143D01*
X141821429Y-117991667D01*
X141859524Y-117839286D01*
X141897619Y-117763095D01*
X141935715Y-117725000D01*
X142011905Y-117686905D01*
D12*
X143221429Y-84628571D02*
X143721429Y-86128571D01*
X144221429Y-84628571D01*
X144721429Y-85557143D02*
X145864286Y-85557143D01*
X132221429Y-84628571D02*
X132721429Y-86128571D01*
X133221429Y-84628571D01*
X133721429Y-85557143D02*
X134864286Y-85557143D01*
X134292857Y-86128571D02*
X134292857Y-84985714D01*
D11*
X143125000Y-105500000D02*
X145575000Y-105500000D01*
X142400000Y-102200000D02*
X145575000Y-102200000D01*
X132925000Y-95925000D02*
X132925000Y-92950000D01*
X137175000Y-95150000D02*
X137175000Y-92950000D01*
D13*
X137650000Y-87970000D02*
X135650000Y-87970000D01*
X135650000Y-90930000D02*
X137650000Y-90930000D01*
X142250000Y-87970000D02*
X140250000Y-87970000D01*
X140250000Y-90930000D02*
X142250000Y-90930000D01*
X135050000Y-97600000D02*
X134350000Y-97600000D01*
X134350000Y-96400000D02*
X135050000Y-96400000D01*
X138250000Y-94250000D02*
X138250000Y-93550000D01*
X139450000Y-93550000D02*
X139450000Y-94250000D01*
X129750000Y-104950000D02*
X131750000Y-104950000D01*
X129750000Y-111550000D02*
X131750000Y-111550000D01*
X134050000Y-107250000D02*
X134050000Y-109250000D01*
X127450000Y-107250000D02*
X127450000Y-109250000D01*
X138170000Y-104150000D02*
X138170000Y-103150000D01*
X139530000Y-103150000D02*
X139530000Y-104150000D01*
X142880000Y-87380000D02*
X142880000Y-84720000D01*
X137740000Y-87380000D02*
X142880000Y-87380000D01*
X137740000Y-84720000D02*
X142880000Y-84720000D01*
X137740000Y-87380000D02*
X137740000Y-84720000D01*
X136470000Y-87380000D02*
X135140000Y-87380000D01*
X135140000Y-87380000D02*
X135140000Y-86050000D01*
X142250000Y-99630000D02*
X140250000Y-99630000D01*
X140250000Y-101670000D02*
X142250000Y-101670000D01*
X140225000Y-92650000D02*
X148625000Y-92650000D01*
X140225000Y-97450000D02*
X148625000Y-97450000D01*
X140225000Y-92650000D02*
X140225000Y-97450000D01*
X131050000Y-91075000D02*
X131050000Y-99475000D01*
X126250000Y-91075000D02*
X126250000Y-99475000D01*
X131050000Y-91075000D02*
X126250000Y-91075000D01*
X144950000Y-101600000D02*
X145950000Y-101600000D01*
X145950000Y-99900000D02*
X144950000Y-99900000D01*
X148550000Y-99700000D02*
X149550000Y-99700000D01*
X149550000Y-98000000D02*
X148550000Y-98000000D01*
X143400000Y-114650000D02*
X143400000Y-115650000D01*
X145100000Y-115650000D02*
X145100000Y-114650000D01*
X132650000Y-115200000D02*
X133650000Y-115200000D01*
X133650000Y-113500000D02*
X132650000Y-113500000D01*
X144850000Y-97970000D02*
X146050000Y-97970000D01*
X146050000Y-99730000D02*
X144850000Y-99730000D01*
X148250000Y-99870000D02*
X149450000Y-99870000D01*
X149450000Y-101630000D02*
X148250000Y-101630000D01*
X148270000Y-106250000D02*
X148270000Y-105250000D01*
X149630000Y-105250000D02*
X149630000Y-106250000D01*
X148270000Y-103650000D02*
X148270000Y-102650000D01*
X149630000Y-102650000D02*
X149630000Y-103650000D01*
X140650000Y-115230000D02*
X139450000Y-115230000D01*
X139450000Y-113470000D02*
X140650000Y-113470000D01*
X137250000Y-115230000D02*
X136050000Y-115230000D01*
X136050000Y-113470000D02*
X137250000Y-113470000D01*
D11*
X141431500Y-105837000D02*
X140669500Y-106599000D01*
X140733000Y-105138500D02*
X139971000Y-105900500D01*
X140733000Y-105138500D02*
X141431500Y-105837000D01*
X141114000Y-108250000D02*
G75*
G03X141114000Y-108250000I-2794000J0D01*
G01*
D13*
X136002250Y-106318250D02*
X136002250Y-106058250D01*
X136002250Y-106318250D02*
X135752250Y-106318250D01*
X136701750Y-105678250D02*
X136701750Y-105428250D01*
X136701750Y-105678250D02*
X136451750Y-105678250D01*
X135941750Y-104918250D02*
X136701750Y-105678250D01*
X135242250Y-105548250D02*
X136002250Y-106318250D01*
D11*
X143538095Y-106027381D02*
X143538095Y-106836905D01*
X143585714Y-106932143D01*
X143633333Y-106979762D01*
X143728571Y-107027381D01*
X143919048Y-107027381D01*
X144014286Y-106979762D01*
X144061905Y-106932143D01*
X144109524Y-106836905D01*
X144109524Y-106027381D01*
X144538095Y-106122619D02*
X144585714Y-106075000D01*
X144680952Y-106027381D01*
X144919048Y-106027381D01*
X145014286Y-106075000D01*
X145061905Y-106122619D01*
X145109524Y-106217857D01*
X145109524Y-106313095D01*
X145061905Y-106455952D01*
X144490476Y-107027381D01*
X145109524Y-107027381D01*
X131452381Y-94811905D02*
X132261905Y-94811905D01*
X132357143Y-94764286D01*
X132404762Y-94716667D01*
X132452381Y-94621429D01*
X132452381Y-94430952D01*
X132404762Y-94335714D01*
X132357143Y-94288095D01*
X132261905Y-94240476D01*
X131452381Y-94240476D01*
X132452381Y-93240476D02*
X132452381Y-93811905D01*
X132452381Y-93526191D02*
X131452381Y-93526191D01*
X131595238Y-93621429D01*
X131690476Y-93716667D01*
X131738095Y-93811905D01*
X134007143Y-89616666D02*
X134054762Y-89664285D01*
X134102381Y-89807142D01*
X134102381Y-89902380D01*
X134054762Y-90045238D01*
X133959524Y-90140476D01*
X133864286Y-90188095D01*
X133673810Y-90235714D01*
X133530952Y-90235714D01*
X133340476Y-90188095D01*
X133245238Y-90140476D01*
X133150000Y-90045238D01*
X133102381Y-89902380D01*
X133102381Y-89807142D01*
X133150000Y-89664285D01*
X133197619Y-89616666D01*
X134102381Y-88664285D02*
X134102381Y-89235714D01*
X134102381Y-88950000D02*
X133102381Y-88950000D01*
X133245238Y-89045238D01*
X133340476Y-89140476D01*
X133388095Y-89235714D01*
X144707143Y-89616666D02*
X144754762Y-89664285D01*
X144802381Y-89807142D01*
X144802381Y-89902380D01*
X144754762Y-90045238D01*
X144659524Y-90140476D01*
X144564286Y-90188095D01*
X144373810Y-90235714D01*
X144230952Y-90235714D01*
X144040476Y-90188095D01*
X143945238Y-90140476D01*
X143850000Y-90045238D01*
X143802381Y-89902380D01*
X143802381Y-89807142D01*
X143850000Y-89664285D01*
X143897619Y-89616666D01*
X143897619Y-89235714D02*
X143850000Y-89188095D01*
X143802381Y-89092857D01*
X143802381Y-88854761D01*
X143850000Y-88759523D01*
X143897619Y-88711904D01*
X143992857Y-88664285D01*
X144088095Y-88664285D01*
X144230952Y-88711904D01*
X144802381Y-89283333D01*
X144802381Y-88664285D01*
X134583334Y-98707143D02*
X134535715Y-98754762D01*
X134392858Y-98802381D01*
X134297620Y-98802381D01*
X134154762Y-98754762D01*
X134059524Y-98659524D01*
X134011905Y-98564286D01*
X133964286Y-98373810D01*
X133964286Y-98230952D01*
X134011905Y-98040476D01*
X134059524Y-97945238D01*
X134154762Y-97850000D01*
X134297620Y-97802381D01*
X134392858Y-97802381D01*
X134535715Y-97850000D01*
X134583334Y-97897619D01*
X134916667Y-97802381D02*
X135535715Y-97802381D01*
X135202381Y-98183333D01*
X135345239Y-98183333D01*
X135440477Y-98230952D01*
X135488096Y-98278571D01*
X135535715Y-98373810D01*
X135535715Y-98611905D01*
X135488096Y-98707143D01*
X135440477Y-98754762D01*
X135345239Y-98802381D01*
X135059524Y-98802381D01*
X134964286Y-98754762D01*
X134916667Y-98707143D01*
X138583334Y-92107143D02*
X138535715Y-92154762D01*
X138392858Y-92202381D01*
X138297620Y-92202381D01*
X138154762Y-92154762D01*
X138059524Y-92059524D01*
X138011905Y-91964286D01*
X137964286Y-91773810D01*
X137964286Y-91630952D01*
X138011905Y-91440476D01*
X138059524Y-91345238D01*
X138154762Y-91250000D01*
X138297620Y-91202381D01*
X138392858Y-91202381D01*
X138535715Y-91250000D01*
X138583334Y-91297619D01*
X139440477Y-91535714D02*
X139440477Y-92202381D01*
X139202381Y-91154762D02*
X138964286Y-91869048D01*
X139583334Y-91869048D01*
X127416667Y-102702381D02*
X127416667Y-103416667D01*
X127369047Y-103559524D01*
X127273809Y-103654762D01*
X127130952Y-103702381D01*
X127035714Y-103702381D01*
X127845238Y-102797619D02*
X127892857Y-102750000D01*
X127988095Y-102702381D01*
X128226191Y-102702381D01*
X128321429Y-102750000D01*
X128369048Y-102797619D01*
X128416667Y-102892857D01*
X128416667Y-102988095D01*
X128369048Y-103130952D01*
X127797619Y-103702381D01*
X128416667Y-103702381D01*
X137927381Y-103816666D02*
X137451190Y-104150000D01*
X137927381Y-104388095D02*
X136927381Y-104388095D01*
X136927381Y-104007142D01*
X136975000Y-103911904D01*
X137022619Y-103864285D01*
X137117857Y-103816666D01*
X137260714Y-103816666D01*
X137355952Y-103864285D01*
X137403571Y-103911904D01*
X137451190Y-104007142D01*
X137451190Y-104388095D01*
X136927381Y-103483333D02*
X136927381Y-102864285D01*
X137308333Y-103197619D01*
X137308333Y-103054761D01*
X137355952Y-102959523D01*
X137403571Y-102911904D01*
X137498810Y-102864285D01*
X137736905Y-102864285D01*
X137832143Y-102911904D01*
X137879762Y-102959523D01*
X137927381Y-103054761D01*
X137927381Y-103340476D01*
X137879762Y-103435714D01*
X137832143Y-103483333D01*
X133502381Y-87383333D02*
X134216667Y-87383333D01*
X134359524Y-87430953D01*
X134454762Y-87526191D01*
X134502381Y-87669048D01*
X134502381Y-87764286D01*
X134502381Y-86383333D02*
X134502381Y-86954762D01*
X134502381Y-86669048D02*
X133502381Y-86669048D01*
X133645238Y-86764286D01*
X133740476Y-86859524D01*
X133788095Y-86954762D01*
X141058334Y-99357143D02*
X141010715Y-99404762D01*
X140867858Y-99452381D01*
X140772620Y-99452381D01*
X140629762Y-99404762D01*
X140534524Y-99309524D01*
X140486905Y-99214286D01*
X140439286Y-99023810D01*
X140439286Y-98880952D01*
X140486905Y-98690476D01*
X140534524Y-98595238D01*
X140629762Y-98500000D01*
X140772620Y-98452381D01*
X140867858Y-98452381D01*
X141010715Y-98500000D01*
X141058334Y-98547619D01*
X141534524Y-99452381D02*
X141725000Y-99452381D01*
X141820239Y-99404762D01*
X141867858Y-99357143D01*
X141963096Y-99214286D01*
X142010715Y-99023810D01*
X142010715Y-98642857D01*
X141963096Y-98547619D01*
X141915477Y-98500000D01*
X141820239Y-98452381D01*
X141629762Y-98452381D01*
X141534524Y-98500000D01*
X141486905Y-98547619D01*
X141439286Y-98642857D01*
X141439286Y-98880952D01*
X141486905Y-98976190D01*
X141534524Y-99023810D01*
X141629762Y-99071429D01*
X141820239Y-99071429D01*
X141915477Y-99023810D01*
X141963096Y-98976190D01*
X142010715Y-98880952D01*
X144783334Y-95407143D02*
X144735715Y-95454762D01*
X144592858Y-95502381D01*
X144497620Y-95502381D01*
X144354762Y-95454762D01*
X144259524Y-95359524D01*
X144211905Y-95264286D01*
X144164286Y-95073810D01*
X144164286Y-94930952D01*
X144211905Y-94740476D01*
X144259524Y-94645238D01*
X144354762Y-94550000D01*
X144497620Y-94502381D01*
X144592858Y-94502381D01*
X144735715Y-94550000D01*
X144783334Y-94597619D01*
X145688096Y-94502381D02*
X145211905Y-94502381D01*
X145164286Y-94978571D01*
X145211905Y-94930952D01*
X145307143Y-94883333D01*
X145545239Y-94883333D01*
X145640477Y-94930952D01*
X145688096Y-94978571D01*
X145735715Y-95073810D01*
X145735715Y-95311905D01*
X145688096Y-95407143D01*
X145640477Y-95454762D01*
X145545239Y-95502381D01*
X145307143Y-95502381D01*
X145211905Y-95454762D01*
X145164286Y-95407143D01*
X129007143Y-96016666D02*
X129054762Y-96064285D01*
X129102381Y-96207142D01*
X129102381Y-96302380D01*
X129054762Y-96445238D01*
X128959524Y-96540476D01*
X128864286Y-96588095D01*
X128673810Y-96635714D01*
X128530952Y-96635714D01*
X128340476Y-96588095D01*
X128245238Y-96540476D01*
X128150000Y-96445238D01*
X128102381Y-96302380D01*
X128102381Y-96207142D01*
X128150000Y-96064285D01*
X128197619Y-96016666D01*
X128102381Y-95159523D02*
X128102381Y-95350000D01*
X128150000Y-95445238D01*
X128197619Y-95492857D01*
X128340476Y-95588095D01*
X128530952Y-95635714D01*
X128911905Y-95635714D01*
X129007143Y-95588095D01*
X129054762Y-95540476D01*
X129102381Y-95445238D01*
X129102381Y-95254761D01*
X129054762Y-95159523D01*
X129007143Y-95111904D01*
X128911905Y-95064285D01*
X128673810Y-95064285D01*
X128578571Y-95111904D01*
X128530952Y-95159523D01*
X128483333Y-95254761D01*
X128483333Y-95445238D01*
X128530952Y-95540476D01*
X128578571Y-95588095D01*
X128673810Y-95635714D01*
X145735714Y-101464286D02*
X145773810Y-101502381D01*
X145811905Y-101616667D01*
X145811905Y-101692857D01*
X145773810Y-101807143D01*
X145697619Y-101883334D01*
X145621429Y-101921429D01*
X145469048Y-101959524D01*
X145354762Y-101959524D01*
X145202381Y-101921429D01*
X145126190Y-101883334D01*
X145050000Y-101807143D01*
X145011905Y-101692857D01*
X145011905Y-101616667D01*
X145050000Y-101502381D01*
X145088095Y-101464286D01*
X145811905Y-100702381D02*
X145811905Y-101159524D01*
X145811905Y-100930953D02*
X145011905Y-100930953D01*
X145126190Y-101007143D01*
X145202381Y-101083334D01*
X145240476Y-101159524D01*
X145011905Y-100207143D02*
X145011905Y-100130952D01*
X145050000Y-100054762D01*
X145088095Y-100016667D01*
X145164286Y-99978571D01*
X145316667Y-99940476D01*
X145507143Y-99940476D01*
X145659524Y-99978571D01*
X145735714Y-100016667D01*
X145773810Y-100054762D01*
X145811905Y-100130952D01*
X145811905Y-100207143D01*
X145773810Y-100283333D01*
X145735714Y-100321429D01*
X145659524Y-100359524D01*
X145507143Y-100397619D01*
X145316667Y-100397619D01*
X145164286Y-100359524D01*
X145088095Y-100321429D01*
X145050000Y-100283333D01*
X145011905Y-100207143D01*
X148307143Y-97607143D02*
X148259524Y-97654762D01*
X148116667Y-97702381D01*
X148021429Y-97702381D01*
X147878571Y-97654762D01*
X147783333Y-97559524D01*
X147735714Y-97464286D01*
X147688095Y-97273810D01*
X147688095Y-97130952D01*
X147735714Y-96940476D01*
X147783333Y-96845238D01*
X147878571Y-96750000D01*
X148021429Y-96702381D01*
X148116667Y-96702381D01*
X148259524Y-96750000D01*
X148307143Y-96797619D01*
X149259524Y-97702381D02*
X148688095Y-97702381D01*
X148973809Y-97702381D02*
X148973809Y-96702381D01*
X148878571Y-96845238D01*
X148783333Y-96940476D01*
X148688095Y-96988095D01*
X150211905Y-97702381D02*
X149640476Y-97702381D01*
X149926190Y-97702381D02*
X149926190Y-96702381D01*
X149830952Y-96845238D01*
X149735714Y-96940476D01*
X149640476Y-96988095D01*
X143532143Y-113107143D02*
X143484524Y-113154762D01*
X143341667Y-113202381D01*
X143246429Y-113202381D01*
X143103571Y-113154762D01*
X143008333Y-113059524D01*
X142960714Y-112964286D01*
X142913095Y-112773810D01*
X142913095Y-112630952D01*
X142960714Y-112440476D01*
X143008333Y-112345238D01*
X143103571Y-112250000D01*
X143246429Y-112202381D01*
X143341667Y-112202381D01*
X143484524Y-112250000D01*
X143532143Y-112297619D01*
X144484524Y-113202381D02*
X143913095Y-113202381D01*
X144198809Y-113202381D02*
X144198809Y-112202381D01*
X144103571Y-112345238D01*
X144008333Y-112440476D01*
X143913095Y-112488095D01*
X144865476Y-112297619D02*
X144913095Y-112250000D01*
X145008333Y-112202381D01*
X145246429Y-112202381D01*
X145341667Y-112250000D01*
X145389286Y-112297619D01*
X145436905Y-112392857D01*
X145436905Y-112488095D01*
X145389286Y-112630952D01*
X144817857Y-113202381D01*
X145436905Y-113202381D01*
X131607143Y-113207143D02*
X131559524Y-113254762D01*
X131416667Y-113302381D01*
X131321429Y-113302381D01*
X131178571Y-113254762D01*
X131083333Y-113159524D01*
X131035714Y-113064286D01*
X130988095Y-112873810D01*
X130988095Y-112730952D01*
X131035714Y-112540476D01*
X131083333Y-112445238D01*
X131178571Y-112350000D01*
X131321429Y-112302381D01*
X131416667Y-112302381D01*
X131559524Y-112350000D01*
X131607143Y-112397619D01*
X132559524Y-113302381D02*
X131988095Y-113302381D01*
X132273809Y-113302381D02*
X132273809Y-112302381D01*
X132178571Y-112445238D01*
X132083333Y-112540476D01*
X131988095Y-112588095D01*
X132892857Y-112302381D02*
X133511905Y-112302381D01*
X133178571Y-112683333D01*
X133321429Y-112683333D01*
X133416667Y-112730952D01*
X133464286Y-112778571D01*
X133511905Y-112873810D01*
X133511905Y-113111905D01*
X133464286Y-113207143D01*
X133416667Y-113254762D01*
X133321429Y-113302381D01*
X133035714Y-113302381D01*
X132940476Y-113254762D01*
X132892857Y-113207143D01*
X145711905Y-98983333D02*
X145330952Y-99250000D01*
X145711905Y-99440476D02*
X144911905Y-99440476D01*
X144911905Y-99135714D01*
X144950000Y-99059523D01*
X144988095Y-99021428D01*
X145064286Y-98983333D01*
X145178571Y-98983333D01*
X145254762Y-99021428D01*
X145292857Y-99059523D01*
X145330952Y-99135714D01*
X145330952Y-99440476D01*
X145178571Y-98297619D02*
X145711905Y-98297619D01*
X144873810Y-98488095D02*
X145445238Y-98678571D01*
X145445238Y-98183333D01*
X149211905Y-100883333D02*
X148830952Y-101150000D01*
X149211905Y-101340476D02*
X148411905Y-101340476D01*
X148411905Y-101035714D01*
X148450000Y-100959523D01*
X148488095Y-100921428D01*
X148564286Y-100883333D01*
X148678571Y-100883333D01*
X148754762Y-100921428D01*
X148792857Y-100959523D01*
X148830952Y-101035714D01*
X148830952Y-101340476D01*
X148411905Y-100159523D02*
X148411905Y-100540476D01*
X148792857Y-100578571D01*
X148754762Y-100540476D01*
X148716667Y-100464285D01*
X148716667Y-100273809D01*
X148754762Y-100197619D01*
X148792857Y-100159523D01*
X148869048Y-100121428D01*
X149059524Y-100121428D01*
X149135714Y-100159523D01*
X149173810Y-100197619D01*
X149211905Y-100273809D01*
X149211905Y-100464285D01*
X149173810Y-100540476D01*
X149135714Y-100578571D01*
X148883334Y-108127381D02*
X148550000Y-107651190D01*
X148311905Y-108127381D02*
X148311905Y-107127381D01*
X148692858Y-107127381D01*
X148788096Y-107175000D01*
X148835715Y-107222619D01*
X148883334Y-107317857D01*
X148883334Y-107460714D01*
X148835715Y-107555952D01*
X148788096Y-107603571D01*
X148692858Y-107651190D01*
X148311905Y-107651190D01*
X149740477Y-107127381D02*
X149550000Y-107127381D01*
X149454762Y-107175000D01*
X149407143Y-107222619D01*
X149311905Y-107365476D01*
X149264286Y-107555952D01*
X149264286Y-107936905D01*
X149311905Y-108032143D01*
X149359524Y-108079762D01*
X149454762Y-108127381D01*
X149645239Y-108127381D01*
X149740477Y-108079762D01*
X149788096Y-108032143D01*
X149835715Y-107936905D01*
X149835715Y-107698810D01*
X149788096Y-107603571D01*
X149740477Y-107555952D01*
X149645239Y-107508333D01*
X149454762Y-107508333D01*
X149359524Y-107555952D01*
X149311905Y-107603571D01*
X149264286Y-107698810D01*
X150811905Y-103283333D02*
X150430952Y-103550000D01*
X150811905Y-103740476D02*
X150011905Y-103740476D01*
X150011905Y-103435714D01*
X150050000Y-103359523D01*
X150088095Y-103321428D01*
X150164286Y-103283333D01*
X150278571Y-103283333D01*
X150354762Y-103321428D01*
X150392857Y-103359523D01*
X150430952Y-103435714D01*
X150430952Y-103740476D01*
X150011905Y-103016666D02*
X150011905Y-102483333D01*
X150811905Y-102826190D01*
X139833334Y-113152381D02*
X139500000Y-112676190D01*
X139261905Y-113152381D02*
X139261905Y-112152381D01*
X139642858Y-112152381D01*
X139738096Y-112200000D01*
X139785715Y-112247619D01*
X139833334Y-112342857D01*
X139833334Y-112485714D01*
X139785715Y-112580952D01*
X139738096Y-112628571D01*
X139642858Y-112676190D01*
X139261905Y-112676190D01*
X140404762Y-112580952D02*
X140309524Y-112533333D01*
X140261905Y-112485714D01*
X140214286Y-112390476D01*
X140214286Y-112342857D01*
X140261905Y-112247619D01*
X140309524Y-112200000D01*
X140404762Y-112152381D01*
X140595239Y-112152381D01*
X140690477Y-112200000D01*
X140738096Y-112247619D01*
X140785715Y-112342857D01*
X140785715Y-112390476D01*
X140738096Y-112485714D01*
X140690477Y-112533333D01*
X140595239Y-112580952D01*
X140404762Y-112580952D01*
X140309524Y-112628571D01*
X140261905Y-112676190D01*
X140214286Y-112771429D01*
X140214286Y-112961905D01*
X140261905Y-113057143D01*
X140309524Y-113104762D01*
X140404762Y-113152381D01*
X140595239Y-113152381D01*
X140690477Y-113104762D01*
X140738096Y-113057143D01*
X140785715Y-112961905D01*
X140785715Y-112771429D01*
X140738096Y-112676190D01*
X140690477Y-112628571D01*
X140595239Y-112580952D01*
X136458334Y-113302381D02*
X136125000Y-112826190D01*
X135886905Y-113302381D02*
X135886905Y-112302381D01*
X136267858Y-112302381D01*
X136363096Y-112350000D01*
X136410715Y-112397619D01*
X136458334Y-112492857D01*
X136458334Y-112635714D01*
X136410715Y-112730952D01*
X136363096Y-112778571D01*
X136267858Y-112826190D01*
X135886905Y-112826190D01*
X136934524Y-113302381D02*
X137125000Y-113302381D01*
X137220239Y-113254762D01*
X137267858Y-113207143D01*
X137363096Y-113064286D01*
X137410715Y-112873810D01*
X137410715Y-112492857D01*
X137363096Y-112397619D01*
X137315477Y-112350000D01*
X137220239Y-112302381D01*
X137029762Y-112302381D01*
X136934524Y-112350000D01*
X136886905Y-112397619D01*
X136839286Y-112492857D01*
X136839286Y-112730952D01*
X136886905Y-112826190D01*
X136934524Y-112873810D01*
X137029762Y-112921429D01*
X137220239Y-112921429D01*
X137315477Y-112873810D01*
X137363096Y-112826190D01*
X137410715Y-112730952D01*
X141911905Y-108802381D02*
X141911905Y-107802381D01*
X142150000Y-107802381D01*
X142292858Y-107850000D01*
X142388096Y-107945238D01*
X142435715Y-108040476D01*
X142483334Y-108230952D01*
X142483334Y-108373810D01*
X142435715Y-108564286D01*
X142388096Y-108659524D01*
X142292858Y-108754762D01*
X142150000Y-108802381D01*
X141911905Y-108802381D01*
X143435715Y-108802381D02*
X142864286Y-108802381D01*
X143150000Y-108802381D02*
X143150000Y-107802381D01*
X143054762Y-107945238D01*
X142959524Y-108040476D01*
X142864286Y-108088095D01*
M02*
