G04 #@! TF.GenerationSoftware,KiCad,Pcbnew,(6.0.5)*
G04 #@! TF.CreationDate,2022-06-03T12:50:17+02:00*
G04 #@! TF.ProjectId,PDH_photodiode,5044485f-7068-46f7-946f-64696f64652e,1.3*
G04 #@! TF.SameCoordinates,Original*
G04 #@! TF.FileFunction,Soldermask,Top*
G04 #@! TF.FilePolarity,Negative*
%FSLAX45Y45*%
G04 Gerber Fmt 4.5, Leading zero omitted, Abs format (unit mm)*
G04 Created by KiCad (PCBNEW (6.0.5)) date 2022-06-03 12:50:17*
%MOMM*%
%LPD*%
G01*
G04 APERTURE LIST*
G04 Aperture macros list*
%AMRoundRect*
0 Rectangle with rounded corners*
0 $1 Rounding radius*
0 $2 $3 $4 $5 $6 $7 $8 $9 X,Y pos of 4 corners*
0 Add a 4 corners polygon primitive as box body*
4,1,4,$2,$3,$4,$5,$6,$7,$8,$9,$2,$3,0*
0 Add four circle primitives for the rounded corners*
1,1,$1+$1,$2,$3*
1,1,$1+$1,$4,$5*
1,1,$1+$1,$6,$7*
1,1,$1+$1,$8,$9*
0 Add four rect primitives between the rounded corners*
20,1,$1+$1,$2,$3,$4,$5,0*
20,1,$1+$1,$4,$5,$6,$7,0*
20,1,$1+$1,$6,$7,$8,$9,0*
20,1,$1+$1,$8,$9,$2,$3,0*%
%AMFreePoly0*
4,1,49,0.614018,1.086157,0.709689,1.067127,0.781785,1.037264,0.862891,0.983071,0.918071,0.927891,0.972264,0.846785,1.002127,0.774689,1.021157,0.679018,1.025000,0.640000,1.025000,-0.640000,1.021157,-0.679018,1.002127,-0.774689,0.972264,-0.846785,0.918071,-0.927891,0.862891,-0.983071,0.781785,-1.037264,0.709689,-1.067127,0.614018,-1.086157,0.575000,-1.090000,-0.755377,-1.090000,
-0.831493,-1.109029,-0.880000,-1.115000,-1.750000,-1.115000,-1.836777,-1.095194,-1.906366,-1.039698,-1.944986,-0.959504,-1.950000,-0.915000,-1.950000,-0.665000,-1.930194,-0.578223,-1.874698,-0.508634,-1.794504,-0.470014,-1.750000,-0.465000,-1.090006,-0.465000,-1.065288,-0.462529,-1.055827,-0.459572,-1.047464,-0.454993,-1.040499,-0.449311,-1.034161,-0.441337,-1.030328,-0.434193,-1.027547,-0.424857,
-1.025000,-0.399900,-1.025000,0.640000,-1.005194,0.726777,-0.966421,0.781421,-0.716421,1.031421,-0.641056,1.078777,-0.575000,1.090000,0.575000,1.090000,0.614018,1.086157,0.614018,1.086157,$1*%
%AMFreePoly1*
4,1,50,0.614018,0.731157,0.709689,0.712127,0.781785,0.682264,0.862891,0.628071,0.918071,0.572891,0.972264,0.491785,0.981288,0.470000,1.750000,0.470000,1.836777,0.450194,1.906366,0.394698,1.944986,0.314504,1.950000,0.270000,1.950000,0.020000,1.930194,-0.066777,1.874698,-0.136366,1.794504,-0.174986,1.750000,-0.180000,1.025000,-0.180000,1.025000,-0.285000,1.021157,-0.324018,
1.002127,-0.419689,0.972264,-0.491785,0.918071,-0.572891,0.862891,-0.628071,0.781785,-0.682264,0.709689,-0.712127,0.614018,-0.731157,0.575000,-0.735000,-0.575000,-0.735000,-0.614018,-0.731157,-0.709689,-0.712127,-0.781785,-0.682264,-0.862891,-0.628071,-0.918071,-0.572891,-0.972264,-0.491785,-1.002127,-0.419689,-1.021157,-0.324018,-1.025000,-0.285000,-1.025000,0.285000,-1.021157,0.324018,
-1.002127,0.419689,-0.972264,0.491785,-0.918071,0.572891,-0.862891,0.628071,-0.781785,0.682264,-0.709689,0.712127,-0.614018,0.731157,-0.575000,0.735000,0.575000,0.735000,0.614018,0.731157,0.614018,0.731157,$1*%
G04 Aperture macros list end*
%ADD10RoundRect,0.450000X1.075000X-0.375000X1.075000X0.375000X-1.075000X0.375000X-1.075000X-0.375000X0*%
%ADD11RoundRect,0.418750X-0.218750X-0.256250X0.218750X-0.256250X0.218750X0.256250X-0.218750X0.256250X0*%
%ADD12RoundRect,0.418750X-0.256250X0.218750X-0.256250X-0.218750X0.256250X-0.218750X0.256250X0.218750X0*%
%ADD13RoundRect,0.418750X0.256250X-0.218750X0.256250X0.218750X-0.256250X0.218750X-0.256250X-0.218750X0*%
%ADD14RoundRect,0.450000X-1.075000X0.375000X-1.075000X-0.375000X1.075000X-0.375000X1.075000X0.375000X0*%
%ADD15RoundRect,0.200000X-0.350000X-0.125000X0.350000X-0.125000X0.350000X0.125000X-0.350000X0.125000X0*%
%ADD16FreePoly0,0.000000*%
%ADD17FreePoly1,0.000000*%
%ADD18RoundRect,0.200000X-0.850000X-0.850000X0.850000X-0.850000X0.850000X0.850000X-0.850000X0.850000X0*%
%ADD19O,2.100000X2.100000*%
%ADD20RoundRect,0.450000X-0.375000X-0.625000X0.375000X-0.625000X0.375000X0.625000X-0.375000X0.625000X0*%
%ADD21RoundRect,0.425000X-0.225000X-0.250000X0.225000X-0.250000X0.225000X0.250000X-0.225000X0.250000X0*%
%ADD22RoundRect,0.425000X-0.250000X0.225000X-0.250000X-0.225000X0.250000X-0.225000X0.250000X0.225000X0*%
%ADD23RoundRect,0.400000X-0.200000X-0.275000X0.200000X-0.275000X0.200000X0.275000X-0.200000X0.275000X0*%
%ADD24RoundRect,0.400000X0.200000X0.275000X-0.200000X0.275000X-0.200000X-0.275000X0.200000X-0.275000X0*%
%ADD25RoundRect,0.400000X-0.275000X0.200000X-0.275000X-0.200000X0.275000X-0.200000X0.275000X0.200000X0*%
%ADD26RoundRect,0.449998X-0.625002X0.312502X-0.625002X-0.312502X0.625002X-0.312502X0.625002X0.312502X0*%
%ADD27RoundRect,0.262500X0.362500X0.062500X-0.362500X0.062500X-0.362500X-0.062500X0.362500X-0.062500X0*%
%ADD28RoundRect,0.200000X0.825000X1.190000X-0.825000X1.190000X-0.825000X-1.190000X0.825000X-1.190000X0*%
%ADD29RoundRect,0.425000X0.225000X0.250000X-0.225000X0.250000X-0.225000X-0.250000X0.225000X-0.250000X0*%
%ADD30RoundRect,0.300000X0.300000X-0.100000X0.300000X0.100000X-0.300000X0.100000X-0.300000X-0.100000X0*%
%ADD31C,4.700000*%
%ADD32C,2.450000*%
%ADD33C,2.650000*%
%ADD34RoundRect,0.350000X-0.725000X-0.150000X0.725000X-0.150000X0.725000X0.150000X-0.725000X0.150000X0*%
%ADD35RoundRect,0.425000X0.250000X-0.225000X0.250000X0.225000X-0.250000X0.225000X-0.250000X-0.225000X0*%
%ADD36C,1.300000*%
G04 APERTURE END LIST*
D10*
X13830000Y-6370000D03*
X13830000Y-6090000D03*
X13830000Y-7360000D03*
X13830000Y-7080000D03*
D11*
X12286250Y-8988400D03*
X12443750Y-8988400D03*
D12*
X12185000Y-7466250D03*
X12185000Y-7623750D03*
D13*
X11900000Y-8363750D03*
X11900000Y-8206250D03*
D14*
X14745000Y-6265000D03*
X14745000Y-6545000D03*
X14745000Y-6805000D03*
X14745000Y-7085000D03*
D15*
X13735000Y-6575000D03*
X13735000Y-6625000D03*
X13735000Y-6675000D03*
D16*
X13875000Y-6646000D03*
D15*
X13735000Y-6775000D03*
X13735000Y-6825000D03*
X13735000Y-6875000D03*
X14015000Y-6875000D03*
D17*
X13875000Y-6839500D03*
D15*
X14015000Y-6775000D03*
X14015000Y-6725000D03*
X14015000Y-6675000D03*
X14015000Y-6625000D03*
X14015000Y-6575000D03*
D11*
X14246250Y-6725000D03*
X14403750Y-6725000D03*
D18*
X15125000Y-6421000D03*
D19*
X15125000Y-6675000D03*
X15125000Y-6929000D03*
D20*
X11227500Y-7020000D03*
X11507500Y-7020000D03*
D21*
X11245000Y-7290000D03*
X11400000Y-7290000D03*
D22*
X12365000Y-6930000D03*
X12365000Y-7085000D03*
D23*
X12282500Y-8545000D03*
X12447500Y-8545000D03*
D24*
X13487500Y-6435000D03*
X13322500Y-6435000D03*
X14417500Y-7015000D03*
X14252500Y-7015000D03*
X14417500Y-7195000D03*
X14252500Y-7195000D03*
X12447500Y-8810600D03*
X12282500Y-8810600D03*
D25*
X11695000Y-7522500D03*
X11695000Y-7687500D03*
X11695000Y-7872500D03*
X11695000Y-8037500D03*
D26*
X12595000Y-6938750D03*
X12595000Y-7231250D03*
D27*
X12185000Y-8025000D03*
X12185000Y-7975000D03*
X12185000Y-7925000D03*
X12185000Y-7875000D03*
X12185000Y-7825000D03*
X11895000Y-7825000D03*
X11895000Y-7875000D03*
X11895000Y-7925000D03*
X11895000Y-7975000D03*
X11895000Y-8025000D03*
D28*
X12040000Y-7925000D03*
D11*
X13326250Y-6815000D03*
X13483750Y-6815000D03*
D24*
X13487500Y-6625000D03*
X13322500Y-6625000D03*
D29*
X12442500Y-8365000D03*
X12287500Y-8365000D03*
D30*
X12530000Y-8035000D03*
X12530000Y-7875000D03*
D31*
X11125000Y-4950000D03*
X15120000Y-8165000D03*
D32*
X12607500Y-6372500D03*
D33*
X12861500Y-6118500D03*
X12861500Y-6626500D03*
X12353500Y-6626500D03*
X12353500Y-6118500D03*
X11225000Y-6375000D03*
X11479000Y-6629000D03*
X11479000Y-6121000D03*
X10971000Y-6121000D03*
X10971000Y-6629000D03*
D22*
X14405000Y-8412500D03*
X14405000Y-8567500D03*
D29*
X14552500Y-8975000D03*
X14397500Y-8975000D03*
D34*
X13672500Y-8589500D03*
X13672500Y-8716500D03*
X13672500Y-8843500D03*
X13672500Y-8970500D03*
X14187500Y-8970500D03*
X14187500Y-8843500D03*
X14187500Y-8716500D03*
X14187500Y-8589500D03*
D35*
X11692200Y-7338700D03*
X11692200Y-7183700D03*
D36*
X12979000Y-7925000D03*
X13106000Y-7798000D03*
X13233000Y-7925000D03*
M02*
