M48
; DRILL file {KiCad (6.0.5)} date Fri Jun  3 12:50:25 2022
; FORMAT={-:-/ absolute / inch / decimal}
; #@! TF.CreationDate,2022-06-03T12:50:25+02:00
; #@! TF.GenerationSoftware,Kicad,Pcbnew,(6.0.5)
; #@! TF.FileFunction,Plated,1,2,PTH
FMAT,2
INCH
; #@! TA.AperFunction,Plated,PTH,ViaDrill
T1C0.0118
; #@! TA.AperFunction,Plated,PTH,ComponentDrill
T2C0.0236
; #@! TA.AperFunction,Plated,PTH,ComponentDrill
T3C0.0394
; #@! TA.AperFunction,Plated,PTH,ComponentDrill
T4C0.0591
; #@! TA.AperFunction,Plated,PTH,ComponentDrill
T5C0.0669
%
G90
G05
T1
X4.4852Y-2.9173
X4.5482Y-2.9337
X4.5965Y-3.2303
X4.6437Y-3.065
X4.6831Y-3.3406
X4.687Y-2.9705
X4.75Y-3.2106
X4.7854Y-3.3642
X4.7972Y-2.8957
X4.8681Y-2.8366
X4.874Y-3.0787
X4.8878Y-3.1319
X4.9582Y-3.5387
X4.9843Y-3.1319
X5.187Y-2.6083
X5.2283Y-2.8425
X5.3858Y-3.6506
X5.4449Y-2.9705
X5.4469Y-2.3327
X5.4626Y-2.6161
X5.4724Y-3.0807
X5.565Y-2.813
X5.5846Y-3.313
X5.6713Y-3.2539
X5.7185Y-2.6476
X5.7224Y-2.7657
X5.7421Y-3.4803
T2
X5.1098Y-3.1201
X5.1598Y-3.0701
X5.2098Y-3.1201
T3
X5.9547Y-2.528
X5.9547Y-2.628
X5.9547Y-2.728
T4
X4.4193Y-2.5098
X4.9636Y-2.5089
T5
X4.3193Y-2.4098
X4.3193Y-2.6098
X4.5193Y-2.4098
X4.5193Y-2.6098
X4.8636Y-2.4089
X4.8636Y-2.6089
X5.0636Y-2.4089
X5.0636Y-2.6089
T0
M30
